<?xml version="1.0" encoding="UTF-8"?>

<svg width="386px" height="37px" viewBox="0 0 386 37" version="1.1" xmlns="http://www.w3.org/2000/svg" xmlns:xlink="http://www.w3.org/1999/xlink">
    <!-- Generator: Sketch 49.1 (51147) - http://www.bohemiancoding.com/sketch -->
    <desc>Created with Sketch.</desc>
    <defs></defs>
    <g id="Support-Sites" stroke="none" stroke-width="1" fill="none" fill-rule="evenodd">
        <g id="Desktop" transform="translate(-84.000000, -123.000000)">
            <g id="Header" transform="translate(84.000000, 123.000000)">
                <path d="M179.008,15.508 C178.167996,14.3319941 177.040007,13.744 175.624,13.744 C175.047997,13.744 174.484003,13.8879986 173.932,14.176 C173.379997,14.4640014 173.104,14.9319968 173.104,15.58 C173.104,16.1080026 173.331998,16.4919988 173.788,16.732 C174.244002,16.9720012 174.819997,17.1759992 175.516,17.344 C176.212003,17.5120008 176.961996,17.6859991 177.766,17.866 C178.570004,18.0460009 179.319997,18.3219981 180.016,18.694 C180.712003,19.0660019 181.287998,19.5759968 181.744,20.224 C182.200002,20.8720032 182.428,21.7599944 182.428,22.888 C182.428,23.9200052 182.206002,24.7899965 181.762,25.498 C181.317998,26.2060035 180.742004,26.7759978 180.034,27.208 C179.325996,27.6400022 178.528004,27.951999 177.64,28.144 C176.751996,28.336001 175.864004,28.432 174.976,28.432 C173.631993,28.432 172.396006,28.2400019 171.268,27.856 C170.139994,27.4719981 169.132004,26.776005 168.244,25.768 L171.124,23.068 C171.676003,23.6920031 172.269997,24.201998 172.906,24.598 C173.542003,24.994002 174.315995,25.192 175.228,25.192 C175.540002,25.192 175.863998,25.1560004 176.2,25.084 C176.536002,25.0119996 176.847999,24.8920008 177.136,24.724 C177.424001,24.5559992 177.657999,24.3460013 177.838,24.094 C178.018001,23.8419987 178.108,23.5480017 178.108,23.212 C178.108,22.611997 177.880002,22.1680014 177.424,21.88 C176.967998,21.5919986 176.392003,21.3580009 175.696,21.178 C174.999997,20.9979991 174.250004,20.8300008 173.446,20.674 C172.641996,20.5179992 171.892003,20.2660017 171.196,19.918 C170.499997,19.5699983 169.924002,19.0840031 169.468,18.46 C169.011998,17.8359969 168.784,16.9720055 168.784,15.868 C168.784,14.9079952 168.981998,14.0740035 169.378,13.366 C169.774002,12.6579965 170.295997,12.0760023 170.944,11.62 C171.592003,11.1639977 172.335996,10.8280011 173.176,10.612 C174.016004,10.3959989 174.867996,10.288 175.732,10.288 C176.884006,10.288 178.023994,10.485998 179.152,10.882 C180.280006,11.278002 181.191997,11.9559952 181.888,12.916 L179.008,15.508 Z M201.544,28 L197.44,28 L197.44,25.228 L197.368,25.228 C196.959998,26.0920043 196.336004,26.8419968 195.496,27.478 C194.655996,28.1140032 193.516007,28.432 192.076,28.432 C190.923994,28.432 189.946004,28.2460019 189.142,27.874 C188.337996,27.5019981 187.684003,26.9980032 187.18,26.362 C186.675997,25.7259968 186.316001,25.0000041 186.1,24.184 C185.883999,23.3679959 185.776,22.5160044 185.776,21.628 L185.776,10.72 L190.096,10.72 L190.096,19.468 C190.096,19.9480024 190.12,20.4819971 190.168,21.07 C190.216,21.6580029 190.341999,22.2099974 190.546,22.726 C190.750001,23.2420026 191.061998,23.6739983 191.482,24.022 C191.902002,24.3700017 192.495996,24.544 193.264,24.544 C193.984004,24.544 194.589998,24.4240012 195.082,24.184 C195.574002,23.9439988 195.981998,23.620002 196.306,23.212 C196.630002,22.803998 196.863999,22.3360026 197.008,21.808 C197.152001,21.2799974 197.224,20.7280029 197.224,20.152 L197.224,10.72 L201.544,10.72 L201.544,28 Z M206.44,10.72 L210.544,10.72 L210.544,13.312 L210.616,13.312 C211.240003,12.2559947 212.079995,11.4880024 213.136,11.008 C214.192005,10.5279976 215.331994,10.288 216.556,10.288 C217.876007,10.288 219.063995,10.5219977 220.12,10.99 C221.176005,11.4580023 222.075996,12.0999959 222.82,12.916 C223.564004,13.7320041 224.127998,14.6919945 224.512,15.796 C224.896002,16.9000055 225.088,18.0879936 225.088,19.36 C225.088,20.6320064 224.884002,21.8199945 224.476,22.924 C224.067998,24.0280055 223.498004,24.9879959 222.766,25.804 C222.033996,26.6200041 221.152005,27.2619977 220.12,27.73 C219.087995,28.1980023 217.960006,28.432 216.736,28.432 C215.919996,28.432 215.200003,28.3480008 214.576,28.18 C213.951997,28.0119992 213.400002,27.7960013 212.92,27.532 C212.439998,27.2679987 212.032002,26.9860015 211.696,26.686 C211.359998,26.3859985 211.084001,26.0920014 210.868,25.804 L210.76,25.804 L210.76,36.208 L206.44,36.208 L206.44,10.72 Z M220.768,19.36 C220.768,18.6879966 220.654001,18.0400031 220.426,17.416 C220.197999,16.7919969 219.862002,16.2400024 219.418,15.76 C218.973998,15.2799976 218.440003,14.8960014 217.816,14.608 C217.191997,14.3199986 216.484004,14.176 215.692,14.176 C214.899996,14.176 214.192003,14.3199986 213.568,14.608 C212.943997,14.8960014 212.410002,15.2799976 211.966,15.76 C211.521998,16.2400024 211.186001,16.7919969 210.958,17.416 C210.729999,18.0400031 210.616,18.6879966 210.616,19.36 C210.616,20.0320034 210.729999,20.6799969 210.958,21.304 C211.186001,21.9280031 211.521998,22.4799976 211.966,22.96 C212.410002,23.4400024 212.943997,23.8239986 213.568,24.112 C214.192003,24.4000014 214.899996,24.544 215.692,24.544 C216.484004,24.544 217.191997,24.4000014 217.816,24.112 C218.440003,23.8239986 218.973998,23.4400024 219.418,22.96 C219.862002,22.4799976 220.197999,21.9280031 220.426,21.304 C220.654001,20.6799969 220.768,20.0320034 220.768,19.36 Z M229.12,10.72 L233.224,10.72 L233.224,13.312 L233.296,13.312 C233.920003,12.2559947 234.759995,11.4880024 235.816,11.008 C236.872005,10.5279976 238.011994,10.288 239.236,10.288 C240.556007,10.288 241.743995,10.5219977 242.8,10.99 C243.856005,11.4580023 244.755996,12.0999959 245.5,12.916 C246.244004,13.7320041 246.807998,14.6919945 247.192,15.796 C247.576002,16.9000055 247.768,18.0879936 247.768,19.36 C247.768,20.6320064 247.564002,21.8199945 247.156,22.924 C246.747998,24.0280055 246.178004,24.9879959 245.446,25.804 C244.713996,26.6200041 243.832005,27.2619977 242.8,27.73 C241.767995,28.1980023 240.640006,28.432 239.416,28.432 C238.599996,28.432 237.880003,28.3480008 237.256,28.18 C236.631997,28.0119992 236.080002,27.7960013 235.6,27.532 C235.119998,27.2679987 234.712002,26.9860015 234.376,26.686 C234.039998,26.3859985 233.764001,26.0920014 233.548,25.804 L233.44,25.804 L233.44,36.208 L229.12,36.208 L229.12,10.72 Z M243.448,19.36 C243.448,18.6879966 243.334001,18.0400031 243.106,17.416 C242.877999,16.7919969 242.542002,16.2400024 242.098,15.76 C241.653998,15.2799976 241.120003,14.8960014 240.496,14.608 C239.871997,14.3199986 239.164004,14.176 238.372,14.176 C237.579996,14.176 236.872003,14.3199986 236.248,14.608 C235.623997,14.8960014 235.090002,15.2799976 234.646,15.76 C234.201998,16.2400024 233.866001,16.7919969 233.638,17.416 C233.409999,18.0400031 233.296,18.6879966 233.296,19.36 C233.296,20.0320034 233.409999,20.6799969 233.638,21.304 C233.866001,21.9280031 234.201998,22.4799976 234.646,22.96 C235.090002,23.4400024 235.623997,23.8239986 236.248,24.112 C236.872003,24.4000014 237.579996,24.544 238.372,24.544 C239.164004,24.544 239.871997,24.4000014 240.496,24.112 C241.120003,23.8239986 241.653998,23.4400024 242.098,22.96 C242.542002,22.4799976 242.877999,21.9280031 243.106,21.304 C243.334001,20.6799969 243.448,20.0320034 243.448,19.36 Z M250.936,19.36 C250.936,17.9919932 251.181998,16.7500056 251.674,15.634 C252.166002,14.5179944 252.831996,13.564004 253.672,12.772 C254.512004,11.979996 255.507994,11.3680022 256.66,10.936 C257.812006,10.5039978 259.035994,10.288 260.332,10.288 C261.628006,10.288 262.851994,10.5039978 264.004,10.936 C265.156006,11.3680022 266.151996,11.979996 266.992,12.772 C267.832004,13.564004 268.497998,14.5179944 268.99,15.634 C269.482002,16.7500056 269.728,17.9919932 269.728,19.36 C269.728,20.7280068 269.482002,21.9699944 268.99,23.086 C268.497998,24.2020056 267.832004,25.155996 266.992,25.948 C266.151996,26.740004 265.156006,27.3519978 264.004,27.784 C262.851994,28.2160022 261.628006,28.432 260.332,28.432 C259.035994,28.432 257.812006,28.2160022 256.66,27.784 C255.507994,27.3519978 254.512004,26.740004 253.672,25.948 C252.831996,25.155996 252.166002,24.2020056 251.674,23.086 C251.181998,21.9699944 250.936,20.7280068 250.936,19.36 Z M255.256,19.36 C255.256,20.0320034 255.369999,20.6799969 255.598,21.304 C255.826001,21.9280031 256.161998,22.4799976 256.606,22.96 C257.050002,23.4400024 257.583997,23.8239986 258.208,24.112 C258.832003,24.4000014 259.539996,24.544 260.332,24.544 C261.124004,24.544 261.831997,24.4000014 262.456,24.112 C263.080003,23.8239986 263.613998,23.4400024 264.058,22.96 C264.502002,22.4799976 264.837999,21.9280031 265.066,21.304 C265.294001,20.6799969 265.408,20.0320034 265.408,19.36 C265.408,18.6879966 265.294001,18.0400031 265.066,17.416 C264.837999,16.7919969 264.502002,16.2400024 264.058,15.76 C263.613998,15.2799976 263.080003,14.8960014 262.456,14.608 C261.831997,14.3199986 261.124004,14.176 260.332,14.176 C259.539996,14.176 258.832003,14.3199986 258.208,14.608 C257.583997,14.8960014 257.050002,15.2799976 256.606,15.76 C256.161998,16.2400024 255.826001,16.7919969 255.598,17.416 C255.369999,18.0400031 255.256,18.6879966 255.256,19.36 Z M273.76,10.72 L278.08,10.72 L278.08,13.456 L278.152,13.456 C278.632002,12.447995 279.315996,11.6680028 280.204,11.116 C281.092004,10.5639972 282.111994,10.288 283.264,10.288 C283.528001,10.288 283.785999,10.3119998 284.038,10.36 C284.290001,10.4080002 284.547999,10.4679996 284.812,10.54 L284.812,14.716 C284.451998,14.6199995 284.098002,14.5420003 283.75,14.482 C283.401998,14.4219997 283.060002,14.392 282.724,14.392 C281.715995,14.392 280.906003,14.5779981 280.294,14.95 C279.681997,15.3220019 279.214002,15.7479976 278.89,16.228 C278.565998,16.7080024 278.350001,17.1879976 278.242,17.668 C278.133999,18.1480024 278.08,18.5079988 278.08,18.748 L278.08,28 L273.76,28 L273.76,10.72 Z M285.748,14.392 L285.748,10.72 L289.312,10.72 L289.312,5.716 L293.632,5.716 L293.632,10.72 L298.384,10.72 L298.384,14.392 L293.632,14.392 L293.632,21.952 C293.632,22.8160043 293.793998,23.4999975 294.118,24.004 C294.442002,24.5080025 295.083995,24.76 296.044,24.76 C296.428002,24.76 296.847998,24.7180004 297.304,24.634 C297.760002,24.5499996 298.119999,24.412001 298.384,24.22 L298.384,27.856 C297.927998,28.0720011 297.370003,28.2219996 296.71,28.306 C296.049997,28.3900004 295.468003,28.432 294.964,28.432 C293.811994,28.432 292.870004,28.3060013 292.138,28.054 C291.405996,27.8019987 290.830002,27.4180026 290.41,26.902 C289.989998,26.3859974 289.702001,25.7440038 289.546,24.976 C289.389999,24.2079962 289.312,23.320005 289.312,22.312 L289.312,14.392 L285.748,14.392 Z M321.64,15.508 C320.799996,14.3319941 319.672007,13.744 318.256,13.744 C317.679997,13.744 317.116003,13.8879986 316.564,14.176 C316.011997,14.4640014 315.736,14.9319968 315.736,15.58 C315.736,16.1080026 315.963998,16.4919988 316.42,16.732 C316.876002,16.9720012 317.451997,17.1759992 318.148,17.344 C318.844003,17.5120008 319.593996,17.6859991 320.398,17.866 C321.202004,18.0460009 321.951997,18.3219981 322.648,18.694 C323.344003,19.0660019 323.919998,19.5759968 324.376,20.224 C324.832002,20.8720032 325.06,21.7599944 325.06,22.888 C325.06,23.9200052 324.838002,24.7899965 324.394,25.498 C323.949998,26.2060035 323.374004,26.7759978 322.666,27.208 C321.957996,27.6400022 321.160004,27.951999 320.272,28.144 C319.383996,28.336001 318.496004,28.432 317.608,28.432 C316.263993,28.432 315.028006,28.2400019 313.9,27.856 C312.771994,27.4719981 311.764004,26.776005 310.876,25.768 L313.756,23.068 C314.308003,23.6920031 314.901997,24.201998 315.538,24.598 C316.174003,24.994002 316.947995,25.192 317.86,25.192 C318.172002,25.192 318.495998,25.1560004 318.832,25.084 C319.168002,25.0119996 319.479999,24.8920008 319.768,24.724 C320.056001,24.5559992 320.289999,24.3460013 320.47,24.094 C320.650001,23.8419987 320.74,23.5480017 320.74,23.212 C320.74,22.611997 320.512002,22.1680014 320.056,21.88 C319.599998,21.5919986 319.024003,21.3580009 318.328,21.178 C317.631997,20.9979991 316.882004,20.8300008 316.078,20.674 C315.273996,20.5179992 314.524003,20.2660017 313.828,19.918 C313.131997,19.5699983 312.556002,19.0840031 312.1,18.46 C311.643998,17.8359969 311.416,16.9720055 311.416,15.868 C311.416,14.9079952 311.613998,14.0740035 312.01,13.366 C312.406002,12.6579965 312.927997,12.0760023 313.576,11.62 C314.224003,11.1639977 314.967996,10.8280011 315.808,10.612 C316.648004,10.3959989 317.499996,10.288 318.364,10.288 C319.516006,10.288 320.655994,10.485998 321.784,10.882 C322.912006,11.278002 323.823997,11.9559952 324.52,12.916 L321.64,15.508 Z M328.48,10.72 L332.8,10.72 L332.8,28 L328.48,28 L328.48,10.72 Z M327.868,4.852 C327.868,4.15599652 328.125997,3.55000258 328.642,3.034 C329.158003,2.51799742 329.811996,2.26 330.604,2.26 C331.396004,2.26 332.061997,2.50599754 332.602,2.998 C333.142003,3.49000246 333.412,4.10799628 333.412,4.852 C333.412,5.59600372 333.142003,6.21399754 332.602,6.706 C332.061997,7.19800246 331.396004,7.444 330.604,7.444 C329.811996,7.444 329.158003,7.18600258 328.642,6.67 C328.125997,6.15399742 327.868,5.54800348 327.868,4.852 Z M335.752,14.392 L335.752,10.72 L339.316,10.72 L339.316,5.716 L343.636,5.716 L343.636,10.72 L348.388,10.72 L348.388,14.392 L343.636,14.392 L343.636,21.952 C343.636,22.8160043 343.797998,23.4999975 344.122,24.004 C344.446002,24.5080025 345.087995,24.76 346.048,24.76 C346.432002,24.76 346.851998,24.7180004 347.308,24.634 C347.764002,24.5499996 348.123999,24.412001 348.388,24.22 L348.388,27.856 C347.931998,28.0720011 347.374003,28.2219996 346.714,28.306 C346.053997,28.3900004 345.472003,28.432 344.968,28.432 C343.815994,28.432 342.874004,28.3060013 342.142,28.054 C341.409996,27.8019987 340.834002,27.4180026 340.414,26.902 C339.993998,26.3859974 339.706001,25.7440038 339.55,24.976 C339.393999,24.2079962 339.316,23.320005 339.316,22.312 L339.316,14.392 L335.752,14.392 Z M355.228,20.872 C355.372001,22.1680065 355.875996,23.1759964 356.74,23.896 C357.604004,24.6160036 358.647994,24.976 359.872,24.976 C360.952005,24.976 361.857996,24.7540022 362.59,24.31 C363.322004,23.8659978 363.963997,23.3080034 364.516,22.636 L367.612,24.976 C366.603995,26.2240062 365.476006,27.1119974 364.228,27.64 C362.979994,28.1680026 361.672007,28.432 360.304,28.432 C359.007994,28.432 357.784006,28.2160022 356.632,27.784 C355.479994,27.3519978 354.484004,26.740004 353.644,25.948 C352.803996,25.155996 352.138002,24.2020056 351.646,23.086 C351.153998,21.9699944 350.908,20.7280068 350.908,19.36 C350.908,17.9919932 351.153998,16.7500056 351.646,15.634 C352.138002,14.5179944 352.803996,13.564004 353.644,12.772 C354.484004,11.979996 355.479994,11.3680022 356.632,10.936 C357.784006,10.5039978 359.007994,10.288 360.304,10.288 C361.504006,10.288 362.601995,10.4979979 363.598,10.918 C364.594005,11.3380021 365.445996,11.943996 366.154,12.736 C366.862004,13.528004 367.413998,14.5059942 367.81,15.67 C368.206002,16.8340058 368.404,18.1719924 368.404,19.684 L368.404,20.872 L355.228,20.872 Z M364.084,17.632 C364.06,16.3599936 363.664004,15.3580037 362.896,14.626 C362.127996,13.8939963 361.060007,13.528 359.692,13.528 C358.395994,13.528 357.370004,13.8999963 356.614,14.644 C355.857996,15.3880037 355.396001,16.3839938 355.228,17.632 L364.084,17.632 Z M381.652,15.508 C380.811996,14.3319941 379.684007,13.744 378.268,13.744 C377.691997,13.744 377.128003,13.8879986 376.576,14.176 C376.023997,14.4640014 375.748,14.9319968 375.748,15.58 C375.748,16.1080026 375.975998,16.4919988 376.432,16.732 C376.888002,16.9720012 377.463997,17.1759992 378.16,17.344 C378.856003,17.5120008 379.605996,17.6859991 380.41,17.866 C381.214004,18.0460009 381.963997,18.3219981 382.66,18.694 C383.356003,19.0660019 383.931998,19.5759968 384.388,20.224 C384.844002,20.8720032 385.072,21.7599944 385.072,22.888 C385.072,23.9200052 384.850002,24.7899965 384.406,25.498 C383.961998,26.2060035 383.386004,26.7759978 382.678,27.208 C381.969996,27.6400022 381.172004,27.951999 380.284,28.144 C379.395996,28.336001 378.508004,28.432 377.62,28.432 C376.275993,28.432 375.040006,28.2400019 373.912,27.856 C372.783994,27.4719981 371.776004,26.776005 370.888,25.768 L373.768,23.068 C374.320003,23.6920031 374.913997,24.201998 375.55,24.598 C376.186003,24.994002 376.959995,25.192 377.872,25.192 C378.184002,25.192 378.507998,25.1560004 378.844,25.084 C379.180002,25.0119996 379.491999,24.8920008 379.78,24.724 C380.068001,24.5559992 380.301999,24.3460013 380.482,24.094 C380.662001,23.8419987 380.752,23.5480017 380.752,23.212 C380.752,22.611997 380.524002,22.1680014 380.068,21.88 C379.611998,21.5919986 379.036003,21.3580009 378.34,21.178 C377.643997,20.9979991 376.894004,20.8300008 376.09,20.674 C375.285996,20.5179992 374.536003,20.2660017 373.84,19.918 C373.143997,19.5699983 372.568002,19.0840031 372.112,18.46 C371.655998,17.8359969 371.428,16.9720055 371.428,15.868 C371.428,14.9079952 371.625998,14.0740035 372.022,13.366 C372.418002,12.6579965 372.939997,12.0760023 373.588,11.62 C374.236003,11.1639977 374.979996,10.8280011 375.82,10.612 C376.660004,10.3959989 377.511996,10.288 378.376,10.288 C379.528006,10.288 380.667994,10.485998 381.796,10.882 C382.924006,11.278002 383.835997,11.9559952 384.532,12.916 L381.652,15.508 Z" id="portfolio:-support-s" fill="#FFFFFF"></path>
                <path d="M0.448,10.72 L4.552,10.72 L4.552,13.312 L4.624,13.312 C5.24800312,12.2559947 6.08799472,11.4880024 7.144,11.008 C8.20000528,10.5279976 9.33999388,10.288 10.564,10.288 C11.8840066,10.288 13.0719947,10.5219977 14.128,10.99 C15.1840053,11.4580023 16.0839963,12.0999959 16.828,12.916 C17.5720037,13.7320041 18.1359981,14.6919945 18.52,15.796 C18.9040019,16.9000055 19.096,18.0879936 19.096,19.36 C19.096,20.6320064 18.892002,21.8199945 18.484,22.924 C18.075998,24.0280055 17.5060037,24.9879959 16.774,25.804 C16.0419963,26.6200041 15.1600052,27.2619977 14.128,27.73 C13.0959948,28.1980023 11.9680061,28.432 10.744,28.432 C9.92799592,28.432 9.20800312,28.3480008 8.584,28.18 C7.95999688,28.0119992 7.4080024,27.7960013 6.928,27.532 C6.4479976,27.2679987 6.04000168,26.9860015 5.704,26.686 C5.36799832,26.3859985 5.09200108,26.0920014 4.876,25.804 L4.768,25.804 L4.768,36.208 L0.448,36.208 L0.448,10.72 Z M14.776,19.36 C14.776,18.6879966 14.6620011,18.0400031 14.434,17.416 C14.2059989,16.7919969 13.8700022,16.2400024 13.426,15.76 C12.9819978,15.2799976 12.4480031,14.8960014 11.824,14.608 C11.1999969,14.3199986 10.492004,14.176 9.7,14.176 C8.90799604,14.176 8.20000312,14.3199986 7.576,14.608 C6.95199688,14.8960014 6.41800222,15.2799976 5.974,15.76 C5.52999778,16.2400024 5.19400114,16.7919969 4.966,17.416 C4.73799886,18.0400031 4.624,18.6879966 4.624,19.36 C4.624,20.0320034 4.73799886,20.6799969 4.966,21.304 C5.19400114,21.9280031 5.52999778,22.4799976 5.974,22.96 C6.41800222,23.4400024 6.95199688,23.8239986 7.576,24.112 C8.20000312,24.4000014 8.90799604,24.544 9.7,24.544 C10.492004,24.544 11.1999969,24.4000014 11.824,24.112 C12.4480031,23.8239986 12.9819978,23.4400024 13.426,22.96 C13.8700022,22.4799976 14.2059989,21.9280031 14.434,21.304 C14.6620011,20.6799969 14.776,20.0320034 14.776,19.36 Z M22.264,19.36 C22.264,17.9919932 22.5099975,16.7500056 23.002,15.634 C23.4940025,14.5179944 24.1599958,13.564004 25,12.772 C25.8400042,11.979996 26.8359942,11.3680022 27.988,10.936 C29.1400058,10.5039978 30.3639935,10.288 31.66,10.288 C32.9560065,10.288 34.1799942,10.5039978 35.332,10.936 C36.4840058,11.3680022 37.4799958,11.979996 38.32,12.772 C39.1600042,13.564004 39.8259975,14.5179944 40.318,15.634 C40.8100025,16.7500056 41.056,17.9919932 41.056,19.36 C41.056,20.7280068 40.8100025,21.9699944 40.318,23.086 C39.8259975,24.2020056 39.1600042,25.155996 38.32,25.948 C37.4799958,26.740004 36.4840058,27.3519978 35.332,27.784 C34.1799942,28.2160022 32.9560065,28.432 31.66,28.432 C30.3639935,28.432 29.1400058,28.2160022 27.988,27.784 C26.8359942,27.3519978 25.8400042,26.740004 25,25.948 C24.1599958,25.155996 23.4940025,24.2020056 23.002,23.086 C22.5099975,21.9699944 22.264,20.7280068 22.264,19.36 Z M26.584,19.36 C26.584,20.0320034 26.6979989,20.6799969 26.926,21.304 C27.1540011,21.9280031 27.4899978,22.4799976 27.934,22.96 C28.3780022,23.4400024 28.9119969,23.8239986 29.536,24.112 C30.1600031,24.4000014 30.867996,24.544 31.66,24.544 C32.452004,24.544 33.1599969,24.4000014 33.784,24.112 C34.4080031,23.8239986 34.9419978,23.4400024 35.386,22.96 C35.8300022,22.4799976 36.1659989,21.9280031 36.394,21.304 C36.6220011,20.6799969 36.736,20.0320034 36.736,19.36 C36.736,18.6879966 36.6220011,18.0400031 36.394,17.416 C36.1659989,16.7919969 35.8300022,16.2400024 35.386,15.76 C34.9419978,15.2799976 34.4080031,14.8960014 33.784,14.608 C33.1599969,14.3199986 32.452004,14.176 31.66,14.176 C30.867996,14.176 30.1600031,14.3199986 29.536,14.608 C28.9119969,14.8960014 28.3780022,15.2799976 27.934,15.76 C27.4899978,16.2400024 27.1540011,16.7919969 26.926,17.416 C26.6979989,18.0400031 26.584,18.6879966 26.584,19.36 Z M45.088,10.72 L49.408,10.72 L49.408,13.456 L49.48,13.456 C49.9600024,12.447995 50.6439956,11.6680028 51.532,11.116 C52.4200044,10.5639972 53.4399942,10.288 54.592,10.288 C54.8560013,10.288 55.1139987,10.3119998 55.366,10.36 C55.6180013,10.4080002 55.8759987,10.4679996 56.14,10.54 L56.14,14.716 C55.7799982,14.6199995 55.4260017,14.5420003 55.078,14.482 C54.7299983,14.4219997 54.3880017,14.392 54.052,14.392 C53.043995,14.392 52.2340031,14.5779981 51.622,14.95 C51.0099969,15.3220019 50.5420016,15.7479976 50.218,16.228 C49.8939984,16.7080024 49.6780005,17.1879976 49.57,17.668 C49.4619995,18.1480024 49.408,18.5079988 49.408,18.748 L49.408,28 L45.088,28 L45.088,10.72 Z M57.076,14.392 L57.076,10.72 L60.64,10.72 L60.64,5.716 L64.96,5.716 L64.96,10.72 L69.712,10.72 L69.712,14.392 L64.96,14.392 L64.96,21.952 C64.96,22.8160043 65.1219984,23.4999975 65.446,24.004 C65.7700016,24.5080025 66.4119952,24.76 67.372,24.76 C67.7560019,24.76 68.1759977,24.7180004 68.632,24.634 C69.0880023,24.5499996 69.4479987,24.412001 69.712,24.22 L69.712,27.856 C69.2559977,28.0720011 68.6980033,28.2219996 68.038,28.306 C67.3779967,28.3900004 66.7960025,28.432 66.292,28.432 C65.1399942,28.432 64.1980037,28.3060013 63.466,28.054 C62.7339963,27.8019987 62.1580021,27.4180026 61.738,26.902 C61.3179979,26.3859974 61.0300008,25.7440038 60.874,24.976 C60.7179992,24.2079962 60.64,23.320005 60.64,22.312 L60.64,14.392 L57.076,14.392 Z M74.68,14.392 L71.116,14.392 L71.116,10.72 L74.68,10.72 L74.68,8.272 C74.68,7.071994 74.7639992,5.98600486 74.932,5.014 C75.1000008,4.04199514 75.4179977,3.20800348 75.886,2.512 C76.3540023,1.81599652 77.0079958,1.28200186 77.848,0.91 C78.6880042,0.53799814 79.7799933,0.352 81.124,0.352 C82.1080049,0.352 83.0199958,0.43599916 83.86,0.604 L83.572,4.276 C83.2599984,4.20399964 82.9600014,4.14400024 82.672,4.096 C82.3839986,4.04799976 82.0840016,4.024 81.772,4.024 C81.171997,4.024 80.6920018,4.11999904 80.332,4.312 C79.9719982,4.50400096 79.690001,4.76199838 79.486,5.086 C79.281999,5.41000162 79.1500003,5.78799784 79.09,6.22 C79.0299997,6.65200216 79,7.1079976 79,7.588 L79,10.72 L82.996,10.72 L82.996,14.392 L79,14.392 L79,28 L74.68,28 L74.68,14.392 Z M84.94,19.36 C84.94,17.9919932 85.1859975,16.7500056 85.678,15.634 C86.1700025,14.5179944 86.8359958,13.564004 87.676,12.772 C88.5160042,11.979996 89.5119942,11.3680022 90.664,10.936 C91.8160058,10.5039978 93.0399935,10.288 94.336,10.288 C95.6320065,10.288 96.8559942,10.5039978 98.008,10.936 C99.1600058,11.3680022 100.155996,11.979996 100.996,12.772 C101.836004,13.564004 102.501998,14.5179944 102.994,15.634 C103.486002,16.7500056 103.732,17.9919932 103.732,19.36 C103.732,20.7280068 103.486002,21.9699944 102.994,23.086 C102.501998,24.2020056 101.836004,25.155996 100.996,25.948 C100.155996,26.740004 99.1600058,27.3519978 98.008,27.784 C96.8559942,28.2160022 95.6320065,28.432 94.336,28.432 C93.0399935,28.432 91.8160058,28.2160022 90.664,27.784 C89.5119942,27.3519978 88.5160042,26.740004 87.676,25.948 C86.8359958,25.155996 86.1700025,24.2020056 85.678,23.086 C85.1859975,21.9699944 84.94,20.7280068 84.94,19.36 Z M89.26,19.36 C89.26,20.0320034 89.3739989,20.6799969 89.602,21.304 C89.8300011,21.9280031 90.1659978,22.4799976 90.61,22.96 C91.0540022,23.4400024 91.5879969,23.8239986 92.212,24.112 C92.8360031,24.4000014 93.543996,24.544 94.336,24.544 C95.128004,24.544 95.8359969,24.4000014 96.46,24.112 C97.0840031,23.8239986 97.6179978,23.4400024 98.062,22.96 C98.5060022,22.4799976 98.8419989,21.9280031 99.07,21.304 C99.2980011,20.6799969 99.412,20.0320034 99.412,19.36 C99.412,18.6879966 99.2980011,18.0400031 99.07,17.416 C98.8419989,16.7919969 98.5060022,16.2400024 98.062,15.76 C97.6179978,15.2799976 97.0840031,14.8960014 96.46,14.608 C95.8359969,14.3199986 95.128004,14.176 94.336,14.176 C93.543996,14.176 92.8360031,14.3199986 92.212,14.608 C91.5879969,14.8960014 91.0540022,15.2799976 90.61,15.76 C90.1659978,16.2400024 89.8300011,16.7919969 89.602,17.416 C89.3739989,18.0400031 89.26,18.6879966 89.26,19.36 Z M107.836,0.784 L112.156,0.784 L112.156,28 L107.836,28 L107.836,0.784 Z M117.232,10.72 L121.552,10.72 L121.552,28 L117.232,28 L117.232,10.72 Z M116.62,4.852 C116.62,4.15599652 116.877997,3.55000258 117.394,3.034 C117.910003,2.51799742 118.563996,2.26 119.356,2.26 C120.148004,2.26 120.813997,2.50599754 121.354,2.998 C121.894003,3.49000246 122.164,4.10799628 122.164,4.852 C122.164,5.59600372 121.894003,6.21399754 121.354,6.706 C120.813997,7.19800246 120.148004,7.444 119.356,7.444 C118.563996,7.444 117.910003,7.18600258 117.394,6.67 C116.877997,6.15399742 116.62,5.54800348 116.62,4.852 Z M125.656,19.36 C125.656,17.9919932 125.901998,16.7500056 126.394,15.634 C126.886002,14.5179944 127.551996,13.564004 128.392,12.772 C129.232004,11.979996 130.227994,11.3680022 131.38,10.936 C132.532006,10.5039978 133.755994,10.288 135.052,10.288 C136.348006,10.288 137.571994,10.5039978 138.724,10.936 C139.876006,11.3680022 140.871996,11.979996 141.712,12.772 C142.552004,13.564004 143.217998,14.5179944 143.71,15.634 C144.202002,16.7500056 144.448,17.9919932 144.448,19.36 C144.448,20.7280068 144.202002,21.9699944 143.71,23.086 C143.217998,24.2020056 142.552004,25.155996 141.712,25.948 C140.871996,26.740004 139.876006,27.3519978 138.724,27.784 C137.571994,28.2160022 136.348006,28.432 135.052,28.432 C133.755994,28.432 132.532006,28.2160022 131.38,27.784 C130.227994,27.3519978 129.232004,26.740004 128.392,25.948 C127.551996,25.155996 126.886002,24.2020056 126.394,23.086 C125.901998,21.9699944 125.656,20.7280068 125.656,19.36 Z M129.976,19.36 C129.976,20.0320034 130.089999,20.6799969 130.318,21.304 C130.546001,21.9280031 130.881998,22.4799976 131.326,22.96 C131.770002,23.4400024 132.303997,23.8239986 132.928,24.112 C133.552003,24.4000014 134.259996,24.544 135.052,24.544 C135.844004,24.544 136.551997,24.4000014 137.176,24.112 C137.800003,23.8239986 138.333998,23.4400024 138.778,22.96 C139.222002,22.4799976 139.557999,21.9280031 139.786,21.304 C140.014001,20.6799969 140.128,20.0320034 140.128,19.36 C140.128,18.6879966 140.014001,18.0400031 139.786,17.416 C139.557999,16.7919969 139.222002,16.2400024 138.778,15.76 C138.333998,15.2799976 137.800003,14.8960014 137.176,14.608 C136.551997,14.3199986 135.844004,14.176 135.052,14.176 C134.259996,14.176 133.552003,14.3199986 132.928,14.608 C132.303997,14.8960014 131.770002,15.2799976 131.326,15.76 C130.881998,16.2400024 130.546001,16.7919969 130.318,17.416 C130.089999,18.0400031 129.976,18.6879966 129.976,19.36 Z M148.48,25.48 C148.48,24.7119962 148.761997,24.0520028 149.326,23.5 C149.890003,22.9479972 150.567996,22.672 151.36,22.672 C152.128004,22.672 152.799997,22.9359974 153.376,23.464 C153.952003,23.9920026 154.24,24.6399962 154.24,25.408 C154.24,26.1760038 153.958003,26.8359972 153.394,27.388 C152.829997,27.9400028 152.152004,28.216 151.36,28.216 C150.975998,28.216 150.610002,28.1440007 150.262,28 C149.913998,27.8559993 149.608001,27.6640012 149.344,27.424 C149.079999,27.1839988 148.870001,26.8960017 148.714,26.56 C148.557999,26.2239983 148.48,25.8640019 148.48,25.48 Z M148.48,13.276 C148.48,12.5079962 148.761997,11.8480028 149.326,11.296 C149.890003,10.7439972 150.567996,10.468 151.36,10.468 C152.128004,10.468 152.799997,10.7319974 153.376,11.26 C153.952003,11.7880026 154.24,12.4359962 154.24,13.204 C154.24,13.9720038 153.958003,14.6319972 153.394,15.184 C152.829997,15.7360028 152.152004,16.012 151.36,16.012 C150.975998,16.012 150.610002,15.9400007 150.262,15.796 C149.913998,15.6519993 149.608001,15.4600012 149.344,15.22 C149.079999,14.9799988 148.870001,14.6920017 148.714,14.356 C148.557999,14.0199983 148.48,13.6600019 148.48,13.276 Z" id="portfolio:-support-s" fill="#B8E986"></path>
            </g>
        </g>
    </g>
</svg>
