<?xml version="1.0" encoding="UTF-8"?>

<svg width="420px" height="37px" viewBox="0 0 420 37" version="1.1" xmlns="http://www.w3.org/2000/svg" xmlns:xlink="http://www.w3.org/1999/xlink">
    <!-- Generator: Sketch 49.1 (51147) - http://www.bohemiancoding.com/sketch -->
    <desc>Created with Sketch.</desc>
    <defs></defs>
    <g id="Product-Videos" stroke="none" stroke-width="1" fill="none" fill-rule="evenodd">
        <g id="Desktop" transform="translate(-84.000000, -123.000000)">
            <g id="Header" transform="translate(84.000000, 123.000000)">
                <path d="M169.792,10.72 L173.896,10.72 L173.896,13.312 L173.968,13.312 C174.592003,12.2559947 175.431995,11.4880024 176.488,11.008 C177.544005,10.5279976 178.683994,10.288 179.908,10.288 C181.228007,10.288 182.415995,10.5219977 183.472,10.99 C184.528005,11.4580023 185.427996,12.0999959 186.172,12.916 C186.916004,13.7320041 187.479998,14.6919945 187.864,15.796 C188.248002,16.9000055 188.44,18.0879936 188.44,19.36 C188.44,20.6320064 188.236002,21.8199945 187.828,22.924 C187.419998,24.0280055 186.850004,24.9879959 186.118,25.804 C185.385996,26.6200041 184.504005,27.2619977 183.472,27.73 C182.439995,28.1980023 181.312006,28.432 180.088,28.432 C179.271996,28.432 178.552003,28.3480008 177.928,28.18 C177.303997,28.0119992 176.752002,27.7960013 176.272,27.532 C175.791998,27.2679987 175.384002,26.9860015 175.048,26.686 C174.711998,26.3859985 174.436001,26.0920014 174.22,25.804 L174.112,25.804 L174.112,36.208 L169.792,36.208 L169.792,10.72 Z M184.12,19.36 C184.12,18.6879966 184.006001,18.0400031 183.778,17.416 C183.549999,16.7919969 183.214002,16.2400024 182.77,15.76 C182.325998,15.2799976 181.792003,14.8960014 181.168,14.608 C180.543997,14.3199986 179.836004,14.176 179.044,14.176 C178.251996,14.176 177.544003,14.3199986 176.92,14.608 C176.295997,14.8960014 175.762002,15.2799976 175.318,15.76 C174.873998,16.2400024 174.538001,16.7919969 174.31,17.416 C174.081999,18.0400031 173.968,18.6879966 173.968,19.36 C173.968,20.0320034 174.081999,20.6799969 174.31,21.304 C174.538001,21.9280031 174.873998,22.4799976 175.318,22.96 C175.762002,23.4400024 176.295997,23.8239986 176.92,24.112 C177.544003,24.4000014 178.251996,24.544 179.044,24.544 C179.836004,24.544 180.543997,24.4000014 181.168,24.112 C181.792003,23.8239986 182.325998,23.4400024 182.77,22.96 C183.214002,22.4799976 183.549999,21.9280031 183.778,21.304 C184.006001,20.6799969 184.12,20.0320034 184.12,19.36 Z M192.472,10.72 L196.792,10.72 L196.792,13.456 L196.864,13.456 C197.344002,12.447995 198.027996,11.6680028 198.916,11.116 C199.804004,10.5639972 200.823994,10.288 201.976,10.288 C202.240001,10.288 202.497999,10.3119998 202.75,10.36 C203.002001,10.4080002 203.259999,10.4679996 203.524,10.54 L203.524,14.716 C203.163998,14.6199995 202.810002,14.5420003 202.462,14.482 C202.113998,14.4219997 201.772002,14.392 201.436,14.392 C200.427995,14.392 199.618003,14.5779981 199.006,14.95 C198.393997,15.3220019 197.926002,15.7479976 197.602,16.228 C197.277998,16.7080024 197.062001,17.1879976 196.954,17.668 C196.845999,18.1480024 196.792,18.5079988 196.792,18.748 L196.792,28 L192.472,28 L192.472,10.72 Z M204.964,19.36 C204.964,17.9919932 205.209998,16.7500056 205.702,15.634 C206.194002,14.5179944 206.859996,13.564004 207.7,12.772 C208.540004,11.979996 209.535994,11.3680022 210.688,10.936 C211.840006,10.5039978 213.063994,10.288 214.36,10.288 C215.656006,10.288 216.879994,10.5039978 218.032,10.936 C219.184006,11.3680022 220.179996,11.979996 221.02,12.772 C221.860004,13.564004 222.525998,14.5179944 223.018,15.634 C223.510002,16.7500056 223.756,17.9919932 223.756,19.36 C223.756,20.7280068 223.510002,21.9699944 223.018,23.086 C222.525998,24.2020056 221.860004,25.155996 221.02,25.948 C220.179996,26.740004 219.184006,27.3519978 218.032,27.784 C216.879994,28.2160022 215.656006,28.432 214.36,28.432 C213.063994,28.432 211.840006,28.2160022 210.688,27.784 C209.535994,27.3519978 208.540004,26.740004 207.7,25.948 C206.859996,25.155996 206.194002,24.2020056 205.702,23.086 C205.209998,21.9699944 204.964,20.7280068 204.964,19.36 Z M209.284,19.36 C209.284,20.0320034 209.397999,20.6799969 209.626,21.304 C209.854001,21.9280031 210.189998,22.4799976 210.634,22.96 C211.078002,23.4400024 211.611997,23.8239986 212.236,24.112 C212.860003,24.4000014 213.567996,24.544 214.36,24.544 C215.152004,24.544 215.859997,24.4000014 216.484,24.112 C217.108003,23.8239986 217.641998,23.4400024 218.086,22.96 C218.530002,22.4799976 218.865999,21.9280031 219.094,21.304 C219.322001,20.6799969 219.436,20.0320034 219.436,19.36 C219.436,18.6879966 219.322001,18.0400031 219.094,17.416 C218.865999,16.7919969 218.530002,16.2400024 218.086,15.76 C217.641998,15.2799976 217.108003,14.8960014 216.484,14.608 C215.859997,14.3199986 215.152004,14.176 214.36,14.176 C213.567996,14.176 212.860003,14.3199986 212.236,14.608 C211.611997,14.8960014 211.078002,15.2799976 210.634,15.76 C210.189998,16.2400024 209.854001,16.7919969 209.626,17.416 C209.397999,18.0400031 209.284,18.6879966 209.284,19.36 Z M241.468,25.408 L241.396,25.408 C240.771997,26.4640053 239.932005,27.2319976 238.876,27.712 C237.819995,28.1920024 236.680006,28.432 235.456,28.432 C234.111993,28.432 232.918005,28.1980023 231.874,27.73 C230.829995,27.2619977 229.936004,26.6200041 229.192,25.804 C228.447996,24.9879959 227.884002,24.0280055 227.5,22.924 C227.115998,21.8199945 226.924,20.6320064 226.924,19.36 C226.924,18.0879936 227.127998,16.9000055 227.536,15.796 C227.944002,14.6919945 228.513996,13.7320041 229.246,12.916 C229.978004,12.0999959 230.859995,11.4580023 231.892,10.99 C232.924005,10.5219977 234.051994,10.288 235.276,10.288 C236.092004,10.288 236.811997,10.3719992 237.436,10.54 C238.060003,10.7080008 238.611998,10.9239987 239.092,11.188 C239.572002,11.4520013 239.979998,11.7339985 240.316,12.034 C240.652002,12.3340015 240.927999,12.6279986 241.144,12.916 L241.252,12.916 L241.252,0.784 L245.572,0.784 L245.572,28 L241.468,28 L241.468,25.408 Z M231.244,19.36 C231.244,20.0320034 231.357999,20.6799969 231.586,21.304 C231.814001,21.9280031 232.149998,22.4799976 232.594,22.96 C233.038002,23.4400024 233.571997,23.8239986 234.196,24.112 C234.820003,24.4000014 235.527996,24.544 236.32,24.544 C237.112004,24.544 237.819997,24.4000014 238.444,24.112 C239.068003,23.8239986 239.601998,23.4400024 240.046,22.96 C240.490002,22.4799976 240.825999,21.9280031 241.054,21.304 C241.282001,20.6799969 241.396,20.0320034 241.396,19.36 C241.396,18.6879966 241.282001,18.0400031 241.054,17.416 C240.825999,16.7919969 240.490002,16.2400024 240.046,15.76 C239.601998,15.2799976 239.068003,14.8960014 238.444,14.608 C237.819997,14.3199986 237.112004,14.176 236.32,14.176 C235.527996,14.176 234.820003,14.3199986 234.196,14.608 C233.571997,14.8960014 233.038002,15.2799976 232.594,15.76 C232.149998,16.2400024 231.814001,16.7919969 231.586,17.416 C231.357999,18.0400031 231.244,18.6879966 231.244,19.36 Z M266.236,28 L262.132,28 L262.132,25.228 L262.06,25.228 C261.651998,26.0920043 261.028004,26.8419968 260.188,27.478 C259.347996,28.1140032 258.208007,28.432 256.768,28.432 C255.615994,28.432 254.638004,28.2460019 253.834,27.874 C253.029996,27.5019981 252.376003,26.9980032 251.872,26.362 C251.367997,25.7259968 251.008001,25.0000041 250.792,24.184 C250.575999,23.3679959 250.468,22.5160044 250.468,21.628 L250.468,10.72 L254.788,10.72 L254.788,19.468 C254.788,19.9480024 254.812,20.4819971 254.86,21.07 C254.908,21.6580029 255.033999,22.2099974 255.238,22.726 C255.442001,23.2420026 255.753998,23.6739983 256.174,24.022 C256.594002,24.3700017 257.187996,24.544 257.956,24.544 C258.676004,24.544 259.281998,24.4240012 259.774,24.184 C260.266002,23.9439988 260.673998,23.620002 260.998,23.212 C261.322002,22.803998 261.555999,22.3360026 261.7,21.808 C261.844001,21.2799974 261.916,20.7280029 261.916,20.152 L261.916,10.72 L266.236,10.72 L266.236,28 Z M282.94,15.904 C282.435997,15.3759974 281.908003,14.9560016 281.356,14.644 C280.803997,14.3319984 280.240003,14.176 279.664,14.176 C278.871996,14.176 278.164003,14.3199986 277.54,14.608 C276.915997,14.8960014 276.382002,15.2799976 275.938,15.76 C275.493998,16.2400024 275.158001,16.7919969 274.93,17.416 C274.701999,18.0400031 274.588,18.6879966 274.588,19.36 C274.588,20.0320034 274.701999,20.6799969 274.93,21.304 C275.158001,21.9280031 275.493998,22.4799976 275.938,22.96 C276.382002,23.4400024 276.915997,23.8239986 277.54,24.112 C278.164003,24.4000014 278.871996,24.544 279.664,24.544 C280.336003,24.544 280.959997,24.4060014 281.536,24.13 C282.112003,23.8539986 282.603998,23.4520026 283.012,22.924 L285.892,26.02 C285.459998,26.4520022 284.962003,26.8239984 284.398,27.136 C283.833997,27.4480016 283.264003,27.699999 282.688,27.892 C282.111997,28.084001 281.560003,28.2219996 281.032,28.306 C280.503997,28.3900004 280.048002,28.432 279.664,28.432 C278.367994,28.432 277.144006,28.2160022 275.992,27.784 C274.839994,27.3519978 273.844004,26.740004 273.004,25.948 C272.163996,25.155996 271.498002,24.2020056 271.006,23.086 C270.513998,21.9699944 270.268,20.7280068 270.268,19.36 C270.268,17.9919932 270.513998,16.7500056 271.006,15.634 C271.498002,14.5179944 272.163996,13.564004 273.004,12.772 C273.844004,11.979996 274.839994,11.3680022 275.992,10.936 C277.144006,10.5039978 278.367994,10.288 279.664,10.288 C280.768006,10.288 281.877994,10.4979979 282.994,10.918 C284.110006,11.3380021 285.087996,12.0039954 285.928,12.916 L282.94,15.904 Z M286.468,14.392 L286.468,10.72 L290.032,10.72 L290.032,5.716 L294.352,5.716 L294.352,10.72 L299.104,10.72 L299.104,14.392 L294.352,14.392 L294.352,21.952 C294.352,22.8160043 294.513998,23.4999975 294.838,24.004 C295.162002,24.5080025 295.803995,24.76 296.764,24.76 C297.148002,24.76 297.567998,24.7180004 298.024,24.634 C298.480002,24.5499996 298.839999,24.412001 299.104,24.22 L299.104,27.856 C298.647998,28.0720011 298.090003,28.2219996 297.43,28.306 C296.769997,28.3900004 296.188003,28.432 295.684,28.432 C294.531994,28.432 293.590004,28.3060013 292.858,28.054 C292.125996,27.8019987 291.550002,27.4180026 291.13,26.902 C290.709998,26.3859974 290.422001,25.7440038 290.266,24.976 C290.109999,24.2079962 290.032,23.320005 290.032,22.312 L290.032,14.392 L286.468,14.392 Z M310.804,10.72 L315.52,10.72 L320.128,22.816 L320.2,22.816 L324.844,10.72 L329.272,10.72 L322.468,28 L317.86,28 L310.804,10.72 Z M331.9,10.72 L336.22,10.72 L336.22,28 L331.9,28 L331.9,10.72 Z M331.288,4.852 C331.288,4.15599652 331.545997,3.55000258 332.062,3.034 C332.578003,2.51799742 333.231996,2.26 334.024,2.26 C334.816004,2.26 335.481997,2.50599754 336.022,2.998 C336.562003,3.49000246 336.832,4.10799628 336.832,4.852 C336.832,5.59600372 336.562003,6.21399754 336.022,6.706 C335.481997,7.19800246 334.816004,7.444 334.024,7.444 C333.231996,7.444 332.578003,7.18600258 332.062,6.67 C331.545997,6.15399742 331.288,5.54800348 331.288,4.852 Z M354.868,25.408 L354.796,25.408 C354.171997,26.4640053 353.332005,27.2319976 352.276,27.712 C351.219995,28.1920024 350.080006,28.432 348.856,28.432 C347.511993,28.432 346.318005,28.1980023 345.274,27.73 C344.229995,27.2619977 343.336004,26.6200041 342.592,25.804 C341.847996,24.9879959 341.284002,24.0280055 340.9,22.924 C340.515998,21.8199945 340.324,20.6320064 340.324,19.36 C340.324,18.0879936 340.527998,16.9000055 340.936,15.796 C341.344002,14.6919945 341.913996,13.7320041 342.646,12.916 C343.378004,12.0999959 344.259995,11.4580023 345.292,10.99 C346.324005,10.5219977 347.451994,10.288 348.676,10.288 C349.492004,10.288 350.211997,10.3719992 350.836,10.54 C351.460003,10.7080008 352.011998,10.9239987 352.492,11.188 C352.972002,11.4520013 353.379998,11.7339985 353.716,12.034 C354.052002,12.3340015 354.327999,12.6279986 354.544,12.916 L354.652,12.916 L354.652,0.784 L358.972,0.784 L358.972,28 L354.868,28 L354.868,25.408 Z M344.644,19.36 C344.644,20.0320034 344.757999,20.6799969 344.986,21.304 C345.214001,21.9280031 345.549998,22.4799976 345.994,22.96 C346.438002,23.4400024 346.971997,23.8239986 347.596,24.112 C348.220003,24.4000014 348.927996,24.544 349.72,24.544 C350.512004,24.544 351.219997,24.4000014 351.844,24.112 C352.468003,23.8239986 353.001998,23.4400024 353.446,22.96 C353.890002,22.4799976 354.225999,21.9280031 354.454,21.304 C354.682001,20.6799969 354.796,20.0320034 354.796,19.36 C354.796,18.6879966 354.682001,18.0400031 354.454,17.416 C354.225999,16.7919969 353.890002,16.2400024 353.446,15.76 C353.001998,15.2799976 352.468003,14.8960014 351.844,14.608 C351.219997,14.3199986 350.512004,14.176 349.72,14.176 C348.927996,14.176 348.220003,14.3199986 347.596,14.608 C346.971997,14.8960014 346.438002,15.2799976 345.994,15.76 C345.549998,16.2400024 345.214001,16.7919969 344.986,17.416 C344.757999,18.0400031 344.644,18.6879966 344.644,19.36 Z M367.324,20.872 C367.468001,22.1680065 367.971996,23.1759964 368.836,23.896 C369.700004,24.6160036 370.743994,24.976 371.968,24.976 C373.048005,24.976 373.953996,24.7540022 374.686,24.31 C375.418004,23.8659978 376.059997,23.3080034 376.612,22.636 L379.708,24.976 C378.699995,26.2240062 377.572006,27.1119974 376.324,27.64 C375.075994,28.1680026 373.768007,28.432 372.4,28.432 C371.103994,28.432 369.880006,28.2160022 368.728,27.784 C367.575994,27.3519978 366.580004,26.740004 365.74,25.948 C364.899996,25.155996 364.234002,24.2020056 363.742,23.086 C363.249998,21.9699944 363.004,20.7280068 363.004,19.36 C363.004,17.9919932 363.249998,16.7500056 363.742,15.634 C364.234002,14.5179944 364.899996,13.564004 365.74,12.772 C366.580004,11.979996 367.575994,11.3680022 368.728,10.936 C369.880006,10.5039978 371.103994,10.288 372.4,10.288 C373.600006,10.288 374.697995,10.4979979 375.694,10.918 C376.690005,11.3380021 377.541996,11.943996 378.25,12.736 C378.958004,13.528004 379.509998,14.5059942 379.906,15.67 C380.302002,16.8340058 380.5,18.1719924 380.5,19.684 L380.5,20.872 L367.324,20.872 Z M376.18,17.632 C376.156,16.3599936 375.760004,15.3580037 374.992,14.626 C374.223996,13.8939963 373.156007,13.528 371.788,13.528 C370.491994,13.528 369.466004,13.8999963 368.71,14.644 C367.953996,15.3880037 367.492001,16.3839938 367.324,17.632 L376.18,17.632 Z M383.668,19.36 C383.668,17.9919932 383.913998,16.7500056 384.406,15.634 C384.898002,14.5179944 385.563996,13.564004 386.404,12.772 C387.244004,11.979996 388.239994,11.3680022 389.392,10.936 C390.544006,10.5039978 391.767994,10.288 393.064,10.288 C394.360006,10.288 395.583994,10.5039978 396.736,10.936 C397.888006,11.3680022 398.883996,11.979996 399.724,12.772 C400.564004,13.564004 401.229998,14.5179944 401.722,15.634 C402.214002,16.7500056 402.46,17.9919932 402.46,19.36 C402.46,20.7280068 402.214002,21.9699944 401.722,23.086 C401.229998,24.2020056 400.564004,25.155996 399.724,25.948 C398.883996,26.740004 397.888006,27.3519978 396.736,27.784 C395.583994,28.2160022 394.360006,28.432 393.064,28.432 C391.767994,28.432 390.544006,28.2160022 389.392,27.784 C388.239994,27.3519978 387.244004,26.740004 386.404,25.948 C385.563996,25.155996 384.898002,24.2020056 384.406,23.086 C383.913998,21.9699944 383.668,20.7280068 383.668,19.36 Z M387.988,19.36 C387.988,20.0320034 388.101999,20.6799969 388.33,21.304 C388.558001,21.9280031 388.893998,22.4799976 389.338,22.96 C389.782002,23.4400024 390.315997,23.8239986 390.94,24.112 C391.564003,24.4000014 392.271996,24.544 393.064,24.544 C393.856004,24.544 394.563997,24.4000014 395.188,24.112 C395.812003,23.8239986 396.345998,23.4400024 396.79,22.96 C397.234002,22.4799976 397.569999,21.9280031 397.798,21.304 C398.026001,20.6799969 398.14,20.0320034 398.14,19.36 C398.14,18.6879966 398.026001,18.0400031 397.798,17.416 C397.569999,16.7919969 397.234002,16.2400024 396.79,15.76 C396.345998,15.2799976 395.812003,14.8960014 395.188,14.608 C394.563997,14.3199986 393.856004,14.176 393.064,14.176 C392.271996,14.176 391.564003,14.3199986 390.94,14.608 C390.315997,14.8960014 389.782002,15.2799976 389.338,15.76 C388.893998,16.2400024 388.558001,16.7919969 388.33,17.416 C388.101999,18.0400031 387.988,18.6879966 387.988,19.36 Z M415.708,15.508 C414.867996,14.3319941 413.740007,13.744 412.324,13.744 C411.747997,13.744 411.184003,13.8879986 410.632,14.176 C410.079997,14.4640014 409.804,14.9319968 409.804,15.58 C409.804,16.1080026 410.031998,16.4919988 410.488,16.732 C410.944002,16.9720012 411.519997,17.1759992 412.216,17.344 C412.912003,17.5120008 413.661996,17.6859991 414.466,17.866 C415.270004,18.0460009 416.019997,18.3219981 416.716,18.694 C417.412003,19.0660019 417.987998,19.5759968 418.444,20.224 C418.900002,20.8720032 419.128,21.7599944 419.128,22.888 C419.128,23.9200052 418.906002,24.7899965 418.462,25.498 C418.017998,26.2060035 417.442004,26.7759978 416.734,27.208 C416.025996,27.6400022 415.228004,27.951999 414.34,28.144 C413.451996,28.336001 412.564004,28.432 411.676,28.432 C410.331993,28.432 409.096006,28.2400019 407.968,27.856 C406.839994,27.4719981 405.832004,26.776005 404.944,25.768 L407.824,23.068 C408.376003,23.6920031 408.969997,24.201998 409.606,24.598 C410.242003,24.994002 411.015995,25.192 411.928,25.192 C412.240002,25.192 412.563998,25.1560004 412.9,25.084 C413.236002,25.0119996 413.547999,24.8920008 413.836,24.724 C414.124001,24.5559992 414.357999,24.3460013 414.538,24.094 C414.718001,23.8419987 414.808,23.5480017 414.808,23.212 C414.808,22.611997 414.580002,22.1680014 414.124,21.88 C413.667998,21.5919986 413.092003,21.3580009 412.396,21.178 C411.699997,20.9979991 410.950004,20.8300008 410.146,20.674 C409.341996,20.5179992 408.592003,20.2660017 407.896,19.918 C407.199997,19.5699983 406.624002,19.0840031 406.168,18.46 C405.711998,17.8359969 405.484,16.9720055 405.484,15.868 C405.484,14.9079952 405.681998,14.0740035 406.078,13.366 C406.474002,12.6579965 406.995997,12.0760023 407.644,11.62 C408.292003,11.1639977 409.035996,10.8280011 409.876,10.612 C410.716004,10.3959989 411.567996,10.288 412.432,10.288 C413.584006,10.288 414.723994,10.485998 415.852,10.882 C416.980006,11.278002 417.891997,11.9559952 418.588,12.916 L415.708,15.508 Z" id="portfolio:-product-v" fill="#FFFFFF"></path>
                <path d="M0.448,10.72 L4.552,10.72 L4.552,13.312 L4.624,13.312 C5.24800312,12.2559947 6.08799472,11.4880024 7.144,11.008 C8.20000528,10.5279976 9.33999388,10.288 10.564,10.288 C11.8840066,10.288 13.0719947,10.5219977 14.128,10.99 C15.1840053,11.4580023 16.0839963,12.0999959 16.828,12.916 C17.5720037,13.7320041 18.1359981,14.6919945 18.52,15.796 C18.9040019,16.9000055 19.096,18.0879936 19.096,19.36 C19.096,20.6320064 18.892002,21.8199945 18.484,22.924 C18.075998,24.0280055 17.5060037,24.9879959 16.774,25.804 C16.0419963,26.6200041 15.1600052,27.2619977 14.128,27.73 C13.0959948,28.1980023 11.9680061,28.432 10.744,28.432 C9.92799592,28.432 9.20800312,28.3480008 8.584,28.18 C7.95999688,28.0119992 7.4080024,27.7960013 6.928,27.532 C6.4479976,27.2679987 6.04000168,26.9860015 5.704,26.686 C5.36799832,26.3859985 5.09200108,26.0920014 4.876,25.804 L4.768,25.804 L4.768,36.208 L0.448,36.208 L0.448,10.72 Z M14.776,19.36 C14.776,18.6879966 14.6620011,18.0400031 14.434,17.416 C14.2059989,16.7919969 13.8700022,16.2400024 13.426,15.76 C12.9819978,15.2799976 12.4480031,14.8960014 11.824,14.608 C11.1999969,14.3199986 10.492004,14.176 9.7,14.176 C8.90799604,14.176 8.20000312,14.3199986 7.576,14.608 C6.95199688,14.8960014 6.41800222,15.2799976 5.974,15.76 C5.52999778,16.2400024 5.19400114,16.7919969 4.966,17.416 C4.73799886,18.0400031 4.624,18.6879966 4.624,19.36 C4.624,20.0320034 4.73799886,20.6799969 4.966,21.304 C5.19400114,21.9280031 5.52999778,22.4799976 5.974,22.96 C6.41800222,23.4400024 6.95199688,23.8239986 7.576,24.112 C8.20000312,24.4000014 8.90799604,24.544 9.7,24.544 C10.492004,24.544 11.1999969,24.4000014 11.824,24.112 C12.4480031,23.8239986 12.9819978,23.4400024 13.426,22.96 C13.8700022,22.4799976 14.2059989,21.9280031 14.434,21.304 C14.6620011,20.6799969 14.776,20.0320034 14.776,19.36 Z M22.264,19.36 C22.264,17.9919932 22.5099975,16.7500056 23.002,15.634 C23.4940025,14.5179944 24.1599958,13.564004 25,12.772 C25.8400042,11.979996 26.8359942,11.3680022 27.988,10.936 C29.1400058,10.5039978 30.3639935,10.288 31.66,10.288 C32.9560065,10.288 34.1799942,10.5039978 35.332,10.936 C36.4840058,11.3680022 37.4799958,11.979996 38.32,12.772 C39.1600042,13.564004 39.8259975,14.5179944 40.318,15.634 C40.8100025,16.7500056 41.056,17.9919932 41.056,19.36 C41.056,20.7280068 40.8100025,21.9699944 40.318,23.086 C39.8259975,24.2020056 39.1600042,25.155996 38.32,25.948 C37.4799958,26.740004 36.4840058,27.3519978 35.332,27.784 C34.1799942,28.2160022 32.9560065,28.432 31.66,28.432 C30.3639935,28.432 29.1400058,28.2160022 27.988,27.784 C26.8359942,27.3519978 25.8400042,26.740004 25,25.948 C24.1599958,25.155996 23.4940025,24.2020056 23.002,23.086 C22.5099975,21.9699944 22.264,20.7280068 22.264,19.36 Z M26.584,19.36 C26.584,20.0320034 26.6979989,20.6799969 26.926,21.304 C27.1540011,21.9280031 27.4899978,22.4799976 27.934,22.96 C28.3780022,23.4400024 28.9119969,23.8239986 29.536,24.112 C30.1600031,24.4000014 30.867996,24.544 31.66,24.544 C32.452004,24.544 33.1599969,24.4000014 33.784,24.112 C34.4080031,23.8239986 34.9419978,23.4400024 35.386,22.96 C35.8300022,22.4799976 36.1659989,21.9280031 36.394,21.304 C36.6220011,20.6799969 36.736,20.0320034 36.736,19.36 C36.736,18.6879966 36.6220011,18.0400031 36.394,17.416 C36.1659989,16.7919969 35.8300022,16.2400024 35.386,15.76 C34.9419978,15.2799976 34.4080031,14.8960014 33.784,14.608 C33.1599969,14.3199986 32.452004,14.176 31.66,14.176 C30.867996,14.176 30.1600031,14.3199986 29.536,14.608 C28.9119969,14.8960014 28.3780022,15.2799976 27.934,15.76 C27.4899978,16.2400024 27.1540011,16.7919969 26.926,17.416 C26.6979989,18.0400031 26.584,18.6879966 26.584,19.36 Z M45.088,10.72 L49.408,10.72 L49.408,13.456 L49.48,13.456 C49.9600024,12.447995 50.6439956,11.6680028 51.532,11.116 C52.4200044,10.5639972 53.4399942,10.288 54.592,10.288 C54.8560013,10.288 55.1139987,10.3119998 55.366,10.36 C55.6180013,10.4080002 55.8759987,10.4679996 56.14,10.54 L56.14,14.716 C55.7799982,14.6199995 55.4260017,14.5420003 55.078,14.482 C54.7299983,14.4219997 54.3880017,14.392 54.052,14.392 C53.043995,14.392 52.2340031,14.5779981 51.622,14.95 C51.0099969,15.3220019 50.5420016,15.7479976 50.218,16.228 C49.8939984,16.7080024 49.6780005,17.1879976 49.57,17.668 C49.4619995,18.1480024 49.408,18.5079988 49.408,18.748 L49.408,28 L45.088,28 L45.088,10.72 Z M57.076,14.392 L57.076,10.72 L60.64,10.72 L60.64,5.716 L64.96,5.716 L64.96,10.72 L69.712,10.72 L69.712,14.392 L64.96,14.392 L64.96,21.952 C64.96,22.8160043 65.1219984,23.4999975 65.446,24.004 C65.7700016,24.5080025 66.4119952,24.76 67.372,24.76 C67.7560019,24.76 68.1759977,24.7180004 68.632,24.634 C69.0880023,24.5499996 69.4479987,24.412001 69.712,24.22 L69.712,27.856 C69.2559977,28.0720011 68.6980033,28.2219996 68.038,28.306 C67.3779967,28.3900004 66.7960025,28.432 66.292,28.432 C65.1399942,28.432 64.1980037,28.3060013 63.466,28.054 C62.7339963,27.8019987 62.1580021,27.4180026 61.738,26.902 C61.3179979,26.3859974 61.0300008,25.7440038 60.874,24.976 C60.7179992,24.2079962 60.64,23.320005 60.64,22.312 L60.64,14.392 L57.076,14.392 Z M74.68,14.392 L71.116,14.392 L71.116,10.72 L74.68,10.72 L74.68,8.272 C74.68,7.071994 74.7639992,5.98600486 74.932,5.014 C75.1000008,4.04199514 75.4179977,3.20800348 75.886,2.512 C76.3540023,1.81599652 77.0079958,1.28200186 77.848,0.91 C78.6880042,0.53799814 79.7799933,0.352 81.124,0.352 C82.1080049,0.352 83.0199958,0.43599916 83.86,0.604 L83.572,4.276 C83.2599984,4.20399964 82.9600014,4.14400024 82.672,4.096 C82.3839986,4.04799976 82.0840016,4.024 81.772,4.024 C81.171997,4.024 80.6920018,4.11999904 80.332,4.312 C79.9719982,4.50400096 79.690001,4.76199838 79.486,5.086 C79.281999,5.41000162 79.1500003,5.78799784 79.09,6.22 C79.0299997,6.65200216 79,7.1079976 79,7.588 L79,10.72 L82.996,10.72 L82.996,14.392 L79,14.392 L79,28 L74.68,28 L74.68,14.392 Z M84.94,19.36 C84.94,17.9919932 85.1859975,16.7500056 85.678,15.634 C86.1700025,14.5179944 86.8359958,13.564004 87.676,12.772 C88.5160042,11.979996 89.5119942,11.3680022 90.664,10.936 C91.8160058,10.5039978 93.0399935,10.288 94.336,10.288 C95.6320065,10.288 96.8559942,10.5039978 98.008,10.936 C99.1600058,11.3680022 100.155996,11.979996 100.996,12.772 C101.836004,13.564004 102.501998,14.5179944 102.994,15.634 C103.486002,16.7500056 103.732,17.9919932 103.732,19.36 C103.732,20.7280068 103.486002,21.9699944 102.994,23.086 C102.501998,24.2020056 101.836004,25.155996 100.996,25.948 C100.155996,26.740004 99.1600058,27.3519978 98.008,27.784 C96.8559942,28.2160022 95.6320065,28.432 94.336,28.432 C93.0399935,28.432 91.8160058,28.2160022 90.664,27.784 C89.5119942,27.3519978 88.5160042,26.740004 87.676,25.948 C86.8359958,25.155996 86.1700025,24.2020056 85.678,23.086 C85.1859975,21.9699944 84.94,20.7280068 84.94,19.36 Z M89.26,19.36 C89.26,20.0320034 89.3739989,20.6799969 89.602,21.304 C89.8300011,21.9280031 90.1659978,22.4799976 90.61,22.96 C91.0540022,23.4400024 91.5879969,23.8239986 92.212,24.112 C92.8360031,24.4000014 93.543996,24.544 94.336,24.544 C95.128004,24.544 95.8359969,24.4000014 96.46,24.112 C97.0840031,23.8239986 97.6179978,23.4400024 98.062,22.96 C98.5060022,22.4799976 98.8419989,21.9280031 99.07,21.304 C99.2980011,20.6799969 99.412,20.0320034 99.412,19.36 C99.412,18.6879966 99.2980011,18.0400031 99.07,17.416 C98.8419989,16.7919969 98.5060022,16.2400024 98.062,15.76 C97.6179978,15.2799976 97.0840031,14.8960014 96.46,14.608 C95.8359969,14.3199986 95.128004,14.176 94.336,14.176 C93.543996,14.176 92.8360031,14.3199986 92.212,14.608 C91.5879969,14.8960014 91.0540022,15.2799976 90.61,15.76 C90.1659978,16.2400024 89.8300011,16.7919969 89.602,17.416 C89.3739989,18.0400031 89.26,18.6879966 89.26,19.36 Z M107.836,0.784 L112.156,0.784 L112.156,28 L107.836,28 L107.836,0.784 Z M117.232,10.72 L121.552,10.72 L121.552,28 L117.232,28 L117.232,10.72 Z M116.62,4.852 C116.62,4.15599652 116.877997,3.55000258 117.394,3.034 C117.910003,2.51799742 118.563996,2.26 119.356,2.26 C120.148004,2.26 120.813997,2.50599754 121.354,2.998 C121.894003,3.49000246 122.164,4.10799628 122.164,4.852 C122.164,5.59600372 121.894003,6.21399754 121.354,6.706 C120.813997,7.19800246 120.148004,7.444 119.356,7.444 C118.563996,7.444 117.910003,7.18600258 117.394,6.67 C116.877997,6.15399742 116.62,5.54800348 116.62,4.852 Z M125.656,19.36 C125.656,17.9919932 125.901998,16.7500056 126.394,15.634 C126.886002,14.5179944 127.551996,13.564004 128.392,12.772 C129.232004,11.979996 130.227994,11.3680022 131.38,10.936 C132.532006,10.5039978 133.755994,10.288 135.052,10.288 C136.348006,10.288 137.571994,10.5039978 138.724,10.936 C139.876006,11.3680022 140.871996,11.979996 141.712,12.772 C142.552004,13.564004 143.217998,14.5179944 143.71,15.634 C144.202002,16.7500056 144.448,17.9919932 144.448,19.36 C144.448,20.7280068 144.202002,21.9699944 143.71,23.086 C143.217998,24.2020056 142.552004,25.155996 141.712,25.948 C140.871996,26.740004 139.876006,27.3519978 138.724,27.784 C137.571994,28.2160022 136.348006,28.432 135.052,28.432 C133.755994,28.432 132.532006,28.2160022 131.38,27.784 C130.227994,27.3519978 129.232004,26.740004 128.392,25.948 C127.551996,25.155996 126.886002,24.2020056 126.394,23.086 C125.901998,21.9699944 125.656,20.7280068 125.656,19.36 Z M129.976,19.36 C129.976,20.0320034 130.089999,20.6799969 130.318,21.304 C130.546001,21.9280031 130.881998,22.4799976 131.326,22.96 C131.770002,23.4400024 132.303997,23.8239986 132.928,24.112 C133.552003,24.4000014 134.259996,24.544 135.052,24.544 C135.844004,24.544 136.551997,24.4000014 137.176,24.112 C137.800003,23.8239986 138.333998,23.4400024 138.778,22.96 C139.222002,22.4799976 139.557999,21.9280031 139.786,21.304 C140.014001,20.6799969 140.128,20.0320034 140.128,19.36 C140.128,18.6879966 140.014001,18.0400031 139.786,17.416 C139.557999,16.7919969 139.222002,16.2400024 138.778,15.76 C138.333998,15.2799976 137.800003,14.8960014 137.176,14.608 C136.551997,14.3199986 135.844004,14.176 135.052,14.176 C134.259996,14.176 133.552003,14.3199986 132.928,14.608 C132.303997,14.8960014 131.770002,15.2799976 131.326,15.76 C130.881998,16.2400024 130.546001,16.7919969 130.318,17.416 C130.089999,18.0400031 129.976,18.6879966 129.976,19.36 Z M148.48,25.48 C148.48,24.7119962 148.761997,24.0520028 149.326,23.5 C149.890003,22.9479972 150.567996,22.672 151.36,22.672 C152.128004,22.672 152.799997,22.9359974 153.376,23.464 C153.952003,23.9920026 154.24,24.6399962 154.24,25.408 C154.24,26.1760038 153.958003,26.8359972 153.394,27.388 C152.829997,27.9400028 152.152004,28.216 151.36,28.216 C150.975998,28.216 150.610002,28.1440007 150.262,28 C149.913998,27.8559993 149.608001,27.6640012 149.344,27.424 C149.079999,27.1839988 148.870001,26.8960017 148.714,26.56 C148.557999,26.2239983 148.48,25.8640019 148.48,25.48 Z M148.48,13.276 C148.48,12.5079962 148.761997,11.8480028 149.326,11.296 C149.890003,10.7439972 150.567996,10.468 151.36,10.468 C152.128004,10.468 152.799997,10.7319974 153.376,11.26 C153.952003,11.7880026 154.24,12.4359962 154.24,13.204 C154.24,13.9720038 153.958003,14.6319972 153.394,15.184 C152.829997,15.7360028 152.152004,16.012 151.36,16.012 C150.975998,16.012 150.610002,15.9400007 150.262,15.796 C149.913998,15.6519993 149.608001,15.4600012 149.344,15.22 C149.079999,14.9799988 148.870001,14.6920017 148.714,14.356 C148.557999,14.0199983 148.48,13.6600019 148.48,13.276 Z" id="portfolio:-product-v" fill="#B8E986"></path>
            </g>
        </g>
    </g>
</svg>
