<?xml version="1.0" encoding="UTF-8"?>
<svg width="860px" height="422px" viewBox="0 0 860 422" version="1.1" xmlns="http://www.w3.org/2000/svg" xmlns:xlink="http://www.w3.org/1999/xlink">
    <!-- Generator: Sketch 49 (51002) - http://www.bohemiancoding.com/sketch -->
    <title>Product Videos Container</title>
    <desc>Created with Sketch.</desc>
    <defs></defs>
    <g id="Product-Videos" stroke="none" stroke-width="1" fill="none" fill-rule="evenodd">
        <g id="Desktop" transform="translate(-82.000000, -320.000000)">
            <g id="Product-Videos-Container" transform="translate(82.000000, 316.000000)">
                <g id="Inkbrush:-Tutorial" transform="translate(1.000000, 52.000000)">
                    <path d="M103.42,4.63483703 L103.42,15.874837 L100,15.874837 L100,4.63483703 L96,4.63483703 L96,1.71483703 L107.42,1.71483703 L107.42,4.63483703 L103.42,4.63483703 Z M113.56,15.874837 L113.56,14.494837 L113.52,14.494837 C113.399999,14.7215048 113.243334,14.934836 113.05,15.134837 C112.856666,15.334838 112.630001,15.5081696 112.37,15.654837 C112.109999,15.8015044 111.823335,15.9215032 111.51,16.014837 C111.196665,16.1081708 110.866668,16.154837 110.52,16.154837 C109.85333,16.154837 109.290002,16.0348382 108.83,15.794837 C108.369998,15.5548358 107.996668,15.2448389 107.71,14.864837 C107.423332,14.4848351 107.216667,14.0515061 107.09,13.564837 C106.963333,13.0781679 106.9,12.5815062 106.9,12.074837 L106.9,5.91483703 L110.2,5.91483703 L110.2,11.314837 C110.2,11.5948384 110.22,11.8615024 110.26,12.114837 C110.3,12.3681716 110.376666,12.594836 110.49,12.794837 C110.603334,12.994838 110.753332,13.1515031 110.94,13.264837 C111.126668,13.3781709 111.373332,13.434837 111.68,13.434837 C112.253336,13.434837 112.689998,13.2215058 112.99,12.794837 C113.290001,12.3681682 113.44,11.8681732 113.44,11.294837 L113.44,5.91483703 L116.72,5.91483703 L116.72,15.874837 L113.56,15.874837 Z M122.84,8.37483703 L122.84,12.174837 C122.84,12.641506 122.929999,12.9915025 123.11,13.224837 C123.290001,13.4581715 123.613331,13.574837 124.08,13.574837 C124.240001,13.574837 124.409999,13.5615038 124.59,13.534837 C124.770001,13.5081702 124.919999,13.4681706 125.04,13.414837 L125.08,15.814837 C124.853332,15.8948374 124.566668,15.9648367 124.22,16.024837 C123.873332,16.0848373 123.526668,16.114837 123.18,16.114837 C122.51333,16.114837 121.953336,16.0315045 121.5,15.864837 C121.046664,15.6981695 120.683335,15.4581719 120.41,15.144837 C120.136665,14.8315021 119.940001,14.4581725 119.82,14.024837 C119.699999,13.5915015 119.64,13.108173 119.64,12.574837 L119.64,8.37483703 L118.04,8.37483703 L118.04,5.91483703 L119.62,5.91483703 L119.62,3.29483703 L122.84,3.29483703 L122.84,5.91483703 L125.18,5.91483703 L125.18,8.37483703 L122.84,8.37483703 Z M137.28,10.854837 C137.28,11.6681744 137.133335,12.4048337 136.84,13.064837 C136.546665,13.7248403 136.146669,14.2848347 135.64,14.744837 C135.133331,15.2048393 134.54667,15.5615024 133.88,15.814837 C133.21333,16.0681716 132.500004,16.194837 131.74,16.194837 C130.99333,16.194837 130.283337,16.0681716 129.61,15.814837 C128.936663,15.5615024 128.350002,15.2048393 127.85,14.744837 C127.349997,14.2848347 126.953335,13.7248403 126.66,13.064837 C126.366665,12.4048337 126.22,11.6681744 126.22,10.854837 C126.22,10.0414996 126.366665,9.30817363 126.66,8.65483703 C126.953335,8.00150043 127.349997,7.44817263 127.85,6.99483703 C128.350002,6.54150143 128.936663,6.19483823 129.61,5.95483703 C130.283337,5.71483583 130.99333,5.59483703 131.74,5.59483703 C132.500004,5.59483703 133.21333,5.71483583 133.88,5.95483703 C134.54667,6.19483823 135.133331,6.54150143 135.64,6.99483703 C136.146669,7.44817263 136.546665,8.00150043 136.84,8.65483703 C137.133335,9.30817363 137.28,10.0414996 137.28,10.854837 Z M134.12,10.854837 C134.12,10.5348354 134.066667,10.2215052 133.96,9.91483703 C133.853333,9.60816883 133.700001,9.33817153 133.5,9.10483703 C133.299999,8.87150253 133.053335,8.68150443 132.76,8.53483703 C132.466665,8.38816963 132.126669,8.31483703 131.74,8.31483703 C131.353331,8.31483703 131.013335,8.38816963 130.72,8.53483703 C130.426665,8.68150443 130.183334,8.87150253 129.99,9.10483703 C129.796666,9.33817153 129.65,9.60816883 129.55,9.91483703 C129.449999,10.2215052 129.4,10.5348354 129.4,10.854837 C129.4,11.1748386 129.449999,11.4881688 129.55,11.794837 C129.65,12.1015052 129.799999,12.3781691 130,12.624837 C130.200001,12.8715049 130.446665,13.0681696 130.74,13.214837 C131.033335,13.3615044 131.373331,13.434837 131.76,13.434837 C132.146669,13.434837 132.486665,13.3615044 132.78,13.214837 C133.073335,13.0681696 133.319999,12.8715049 133.52,12.624837 C133.720001,12.3781691 133.869999,12.1015052 133.97,11.794837 C134.07,11.4881688 134.12,11.1748386 134.12,10.854837 Z M145.82,8.59483703 C145.673333,8.55483683 145.530001,8.52817043 145.39,8.51483703 C145.249999,8.50150363 145.113334,8.49483703 144.98,8.49483703 C144.539998,8.49483703 144.170001,8.57483623 143.87,8.73483703 C143.569998,8.89483783 143.330001,9.08816923 143.15,9.31483703 C142.969999,9.54150483 142.84,9.78816903 142.76,10.054837 C142.68,10.321505 142.64,10.554836 142.64,10.754837 L142.64,15.874837 L139.36,15.874837 L139.36,5.91483703 L142.52,5.91483703 L142.52,7.35483703 L142.56,7.35483703 C142.813335,6.84816783 143.173331,6.43483863 143.64,6.11483703 C144.106669,5.79483543 144.646664,5.63483703 145.26,5.63483703 C145.393334,5.63483703 145.523333,5.64150363 145.65,5.65483703 C145.776667,5.66817043 145.88,5.68817023 145.96,5.71483703 L145.82,8.59483703 Z M150.84,2.73483703 C150.84,2.98817163 150.79,3.22483593 150.69,3.44483703 C150.589999,3.66483813 150.456667,3.85483623 150.29,4.01483703 C150.123332,4.17483783 149.923334,4.30150323 149.69,4.39483703 C149.456665,4.48817083 149.213335,4.53483703 148.96,4.53483703 C148.426664,4.53483703 147.980002,4.35817213 147.62,4.00483703 C147.259998,3.65150193 147.08,3.22817283 147.08,2.73483703 C147.08,2.49483583 147.126666,2.26483813 147.22,2.04483703 C147.313334,1.82483593 147.446666,1.63483783 147.62,1.47483703 C147.793334,1.31483623 147.993332,1.18483753 148.22,1.08483703 C148.446668,0.984836527 148.693332,0.934837027 148.96,0.934837027 C149.213335,0.934837027 149.456665,0.981503227 149.69,1.07483703 C149.923334,1.16817083 150.123332,1.29483623 150.29,1.45483703 C150.456667,1.61483783 150.589999,1.80483593 150.69,2.02483703 C150.79,2.24483813 150.84,2.48150243 150.84,2.73483703 Z M147.32,15.874837 L147.32,5.91483703 L150.6,5.91483703 L150.6,15.874837 L147.32,15.874837 Z M159.08,11.534837 L158.66,11.534837 C158.299998,11.534837 157.936668,11.5515035 157.57,11.584837 C157.203331,11.6181705 156.876668,11.6815032 156.59,11.774837 C156.303332,11.8681708 156.066668,12.0048361 155.88,12.184837 C155.693332,12.3648379 155.6,12.6015022 155.6,12.894837 C155.6,13.0815046 155.643333,13.241503 155.73,13.374837 C155.816667,13.508171 155.926666,13.6148366 156.06,13.694837 C156.193334,13.7748374 156.346666,13.8315035 156.52,13.864837 C156.693334,13.8981705 156.859999,13.914837 157.02,13.914837 C157.68667,13.914837 158.196665,13.7315055 158.55,13.364837 C158.903335,12.9981685 159.08,12.5015068 159.08,11.874837 L159.08,11.534837 Z M153.06,7.27483703 C153.64667,6.71483423 154.329996,6.29483843 155.11,6.01483703 C155.890004,5.73483563 156.686663,5.59483703 157.5,5.59483703 C158.340004,5.59483703 159.049997,5.69816933 159.63,5.90483703 C160.210003,6.11150473 160.679998,6.43150153 161.04,6.86483703 C161.400002,7.29817253 161.663332,7.84483373 161.83,8.50483703 C161.996667,9.16484033 162.08,9.94816583 162.08,10.854837 L162.08,15.874837 L159.08,15.874837 L159.08,14.814837 L159.02,14.814837 C158.766665,15.2281724 158.383336,15.5481692 157.87,15.774837 C157.356664,16.0015048 156.800003,16.114837 156.2,16.114837 C155.799998,16.114837 155.386669,16.0615042 154.96,15.954837 C154.533331,15.8481698 154.143335,15.6748382 153.79,15.434837 C153.436665,15.1948358 153.146668,14.874839 152.92,14.474837 C152.693332,14.074835 152.58,13.5815066 152.58,12.994837 C152.58,12.2748334 152.776665,11.6948392 153.17,11.254837 C153.563335,10.8148348 154.069997,10.4748382 154.69,10.234837 C155.310003,9.99483583 155.999996,9.83483743 156.76,9.75483703 C157.520004,9.67483663 158.259996,9.63483703 158.98,9.63483703 L158.98,9.47483703 C158.98,8.98150123 158.806668,8.61817153 158.46,8.38483703 C158.113332,8.15150253 157.686669,8.03483703 157.18,8.03483703 C156.713331,8.03483703 156.263335,8.13483603 155.83,8.33483703 C155.396664,8.53483803 155.026668,8.77483563 154.72,9.05483703 L153.06,7.27483703 Z M164.56,15.874837 L164.56,0.754837027 L167.88,0.754837027 L167.88,15.874837 L164.56,15.874837 Z M174.92,11.934837 L174.92,9.33483703 L180,9.33483703 L180,11.934837 L174.92,11.934837 Z M187.18,15.874837 L187.18,1.71483703 L190.62,1.71483703 L190.62,15.874837 L187.18,15.874837 Z M206.08,15.874837 L206.08,10.434837 C206.08,10.1548356 206.06,9.88483833 206.02,9.62483703 C205.98,9.36483573 205.906667,9.14150463 205.8,8.95483703 C205.693333,8.76816943 205.550001,8.61817093 205.37,8.50483703 C205.189999,8.39150313 204.953335,8.33483703 204.66,8.33483703 C204.379999,8.33483703 204.136668,8.39483643 203.93,8.51483703 C203.723332,8.63483763 203.550001,8.79483603 203.41,8.99483703 C203.269999,9.19483803 203.166667,9.42483573 203.1,9.68483703 C203.033333,9.94483833 203,10.2148356 203,10.494837 L203,15.874837 L199.72,15.874837 L199.72,10.194837 C199.72,9.62150083 199.606668,9.16817203 199.38,8.83483703 C199.153332,8.50150203 198.793336,8.33483703 198.3,8.33483703 C197.779997,8.33483703 197.376668,8.54150163 197.09,8.95483703 C196.803332,9.36817243 196.66,9.87483403 196.66,10.474837 L196.66,15.874837 L193.36,15.874837 L193.36,5.91483703 L196.54,5.91483703 L196.54,7.29483703 L196.58,7.29483703 C196.700001,7.08150263 196.849999,6.87483803 197.03,6.67483703 C197.210001,6.47483603 197.426665,6.29817113 197.68,6.14483703 C197.933335,5.99150293 198.216665,5.86817083 198.53,5.77483703 C198.843335,5.68150323 199.186665,5.63483703 199.56,5.63483703 C200.280004,5.63483703 200.889997,5.78150223 201.39,6.07483703 C201.890002,6.36817183 202.279999,6.78816763 202.56,7.33483703 C202.893335,6.81483443 203.319997,6.40150523 203.84,6.09483703 C204.360003,5.78816883 204.99333,5.63483703 205.74,5.63483703 C206.420003,5.63483703 206.989998,5.75816913 207.45,6.00483703 C207.910002,6.25150493 208.279999,6.57150173 208.56,6.96483703 C208.840001,7.35817233 209.043333,7.79816793 209.17,8.28483703 C209.296667,8.77150613 209.36,9.24816803 209.36,9.71483703 L209.36,15.874837 L206.08,15.874837 Z M217.72,11.534837 L217.3,11.534837 C216.939998,11.534837 216.576668,11.5515035 216.21,11.584837 C215.843331,11.6181705 215.516668,11.6815032 215.23,11.774837 C214.943332,11.8681708 214.706668,12.0048361 214.52,12.184837 C214.333332,12.3648379 214.24,12.6015022 214.24,12.894837 C214.24,13.0815046 214.283333,13.241503 214.37,13.374837 C214.456667,13.508171 214.566666,13.6148366 214.7,13.694837 C214.833334,13.7748374 214.986666,13.8315035 215.16,13.864837 C215.333334,13.8981705 215.499999,13.914837 215.66,13.914837 C216.32667,13.914837 216.836665,13.7315055 217.19,13.364837 C217.543335,12.9981685 217.72,12.5015068 217.72,11.874837 L217.72,11.534837 Z M211.7,7.27483703 C212.28667,6.71483423 212.969996,6.29483843 213.75,6.01483703 C214.530004,5.73483563 215.326663,5.59483703 216.14,5.59483703 C216.980004,5.59483703 217.689997,5.69816933 218.27,5.90483703 C218.850003,6.11150473 219.319998,6.43150153 219.68,6.86483703 C220.040002,7.29817253 220.303332,7.84483373 220.47,8.50483703 C220.636667,9.16484033 220.72,9.94816583 220.72,10.854837 L220.72,15.874837 L217.72,15.874837 L217.72,14.814837 L217.66,14.814837 C217.406665,15.2281724 217.023336,15.5481692 216.51,15.774837 C215.996664,16.0015048 215.440003,16.114837 214.84,16.114837 C214.439998,16.114837 214.026669,16.0615042 213.6,15.954837 C213.173331,15.8481698 212.783335,15.6748382 212.43,15.434837 C212.076665,15.1948358 211.786668,14.874839 211.56,14.474837 C211.333332,14.074835 211.22,13.5815066 211.22,12.994837 C211.22,12.2748334 211.416665,11.6948392 211.81,11.254837 C212.203335,10.8148348 212.709997,10.4748382 213.33,10.234837 C213.950003,9.99483583 214.639996,9.83483743 215.4,9.75483703 C216.160004,9.67483663 216.899996,9.63483703 217.62,9.63483703 L217.62,9.47483703 C217.62,8.98150123 217.446668,8.61817153 217.1,8.38483703 C216.753332,8.15150253 216.326669,8.03483703 215.82,8.03483703 C215.353331,8.03483703 214.903335,8.13483603 214.47,8.33483703 C214.036664,8.53483803 213.666668,8.77483563 213.36,9.05483703 L211.7,7.27483703 Z M233.72,14.934837 C233.72,15.9081752 233.580001,16.7548334 233.3,17.474837 C233.019999,18.1948406 232.626669,18.7915013 232.12,19.264837 C231.613331,19.7381727 230.99667,20.0915025 230.27,20.324837 C229.54333,20.5581715 228.740004,20.674837 227.86,20.674837 C226.979996,20.674837 226.076671,20.541505 225.15,20.274837 C224.223329,20.008169 223.420003,19.6215062 222.74,19.114837 L224.38,16.774837 C224.860002,17.2015058 225.389997,17.5181693 225.97,17.724837 C226.550003,17.9315047 227.119997,18.034837 227.68,18.034837 C228.640005,18.034837 229.349998,17.7815062 229.81,17.274837 C230.270002,16.7681678 230.5,16.0948412 230.5,15.254837 L230.5,14.654837 L230.44,14.654837 C230.133332,15.054839 229.720003,15.3748358 229.2,15.614837 C228.679997,15.8548382 228.08667,15.974837 227.42,15.974837 C226.659996,15.974837 225.98667,15.8381717 225.4,15.564837 C224.81333,15.2915023 224.316669,14.921506 223.91,14.454837 C223.503331,13.988168 223.193334,13.4448401 222.98,12.824837 C222.766666,12.2048339 222.66,11.5481738 222.66,10.854837 C222.66,10.1615002 222.766666,9.50150683 222.98,8.87483703 C223.193334,8.24816723 223.503331,7.69483943 223.91,7.21483703 C224.316669,6.73483463 224.81333,6.35150513 225.4,6.06483703 C225.98667,5.77816893 226.65333,5.63483703 227.4,5.63483703 C228.02667,5.63483703 228.626664,5.76150243 229.2,6.01483703 C229.773336,6.26817163 230.233332,6.66150103 230.58,7.19483703 L230.62,7.19483703 L230.62,5.91483703 L233.72,5.91483703 L233.72,14.934837 Z M230.6,10.834837 C230.6,10.501502 230.543334,10.1815052 230.43,9.87483703 C230.316666,9.56816883 230.153334,9.29817153 229.94,9.06483703 C229.726666,8.83150253 229.473335,8.64817103 229.18,8.51483703 C228.886665,8.38150303 228.553335,8.31483703 228.18,8.31483703 C227.806665,8.31483703 227.476668,8.38150303 227.19,8.51483703 C226.903332,8.64817103 226.660001,8.82816923 226.46,9.05483703 C226.259999,9.28150483 226.106667,9.54816883 226,9.85483703 C225.893333,10.1615052 225.84,10.4881686 225.84,10.834837 C225.84,11.168172 225.893333,11.4881688 226,11.794837 C226.106667,12.1015052 226.259999,12.3715025 226.46,12.604837 C226.660001,12.8381715 226.903332,13.0248363 227.19,13.164837 C227.476668,13.3048377 227.806665,13.374837 228.18,13.374837 C228.553335,13.374837 228.889998,13.3048377 229.19,13.164837 C229.490001,13.0248363 229.743332,12.8415048 229.95,12.614837 C230.156668,12.3881692 230.316666,12.1215052 230.43,11.814837 C230.543334,11.5081688 230.6,11.1815054 230.6,10.834837 Z M243.18,9.75483703 C243.18,9.23483443 243.016668,8.78817223 242.69,8.41483703 C242.363332,8.04150183 241.873337,7.85483703 241.22,7.85483703 C240.899998,7.85483703 240.606668,7.90483653 240.34,8.00483703 C240.073332,8.10483753 239.840001,8.24150283 239.64,8.41483703 C239.439999,8.58817123 239.280001,8.79150253 239.16,9.02483703 C239.039999,9.25817153 238.973333,9.50150243 238.96,9.75483703 L243.18,9.75483703 Z M246.2,11.014837 L246.2,11.414837 C246.2,11.548171 246.193333,11.6748364 246.18,11.794837 L238.96,11.794837 C238.986667,12.0748384 239.069999,12.3281692 239.21,12.554837 C239.350001,12.7815048 239.529999,12.9781695 239.75,13.144837 C239.970001,13.3115045 240.216665,13.4415032 240.49,13.534837 C240.763335,13.6281708 241.046665,13.674837 241.34,13.674837 C241.860003,13.674837 242.299998,13.5781713 242.66,13.384837 C243.020002,13.1915027 243.313332,12.9415052 243.54,12.634837 L245.82,14.074837 C245.353331,14.7548404 244.73667,15.2781685 243.97,15.644837 C243.203329,16.0115055 242.313338,16.194837 241.3,16.194837 C240.55333,16.194837 239.84667,16.0781715 239.18,15.844837 C238.51333,15.6115025 237.930002,15.2715059 237.43,14.824837 C236.929997,14.3781681 236.536668,13.8281736 236.25,13.174837 C235.963332,12.5215004 235.82,11.7748412 235.82,10.934837 C235.82,10.1214996 235.959999,9.38484033 236.24,8.72483703 C236.520001,8.06483373 236.899998,7.50483933 237.38,7.04483703 C237.860002,6.58483473 238.426663,6.22817163 239.08,5.97483703 C239.733337,5.72150243 240.439996,5.59483703 241.2,5.59483703 C241.933337,5.59483703 242.606664,5.71816913 243.22,5.96483703 C243.833336,6.21150493 244.359998,6.56816803 244.8,7.03483703 C245.240002,7.50150603 245.583332,8.06816703 245.83,8.73483703 C246.076668,9.40150703 246.2,10.1614994 246.2,11.014837 Z M260.9,5.39483703 C260.606665,5.02150183 260.223336,4.72483813 259.75,4.50483703 C259.276664,4.28483593 258.820002,4.17483703 258.38,4.17483703 C258.153332,4.17483703 257.923334,4.19483683 257.69,4.23483703 C257.456665,4.27483723 257.246668,4.35150313 257.06,4.46483703 C256.873332,4.57817093 256.716667,4.72483613 256.59,4.90483703 C256.463333,5.08483793 256.4,5.31483563 256.4,5.59483703 C256.4,5.83483823 256.449999,6.03483623 256.55,6.19483703 C256.65,6.35483783 256.796666,6.49483643 256.99,6.61483703 C257.183334,6.73483763 257.413332,6.84483653 257.68,6.94483703 C257.946668,7.04483753 258.246665,7.14816983 258.58,7.25483703 C259.060002,7.41483783 259.559997,7.59150273 260.08,7.78483703 C260.600003,7.97817133 261.073331,8.23483543 261.5,8.55483703 C261.926669,8.87483863 262.279999,9.27150133 262.56,9.74483703 C262.840001,10.2181727 262.98,10.8081668 262.98,11.514837 C262.98,12.3281744 262.830001,13.0315007 262.53,13.624837 C262.229998,14.2181733 261.826669,14.7081684 261.32,15.094837 C260.813331,15.4815056 260.233337,15.7681694 259.58,15.954837 C258.926663,16.1415046 258.253337,16.234837 257.56,16.234837 C256.546662,16.234837 255.566671,16.0581721 254.62,15.704837 C253.673329,15.3515019 252.88667,14.8481736 252.26,14.194837 L254.5,11.914837 C254.846668,12.3415058 255.30333,12.6981689 255.87,12.984837 C256.436669,13.2715051 256.999997,13.414837 257.56,13.414837 C257.813335,13.414837 258.059999,13.3881706 258.3,13.334837 C258.540001,13.2815034 258.749999,13.1948376 258.93,13.074837 C259.110001,12.9548364 259.253333,12.794838 259.36,12.594837 C259.466667,12.394836 259.52,12.1548384 259.52,11.874837 C259.52,11.608169 259.453334,11.3815046 259.32,11.194837 C259.186666,11.0081694 258.996668,10.8381711 258.75,10.684837 C258.503332,10.5315029 258.196668,10.3915043 257.83,10.264837 C257.463331,10.1381697 257.046669,10.0015044 256.58,9.85483703 C256.126664,9.70816963 255.683335,9.53483803 255.25,9.33483703 C254.816664,9.13483603 254.430002,8.87817193 254.09,8.56483703 C253.749998,8.25150213 253.476668,7.87150593 253.27,7.42483703 C253.063332,6.97816813 252.96,6.43484023 252.96,5.79483703 C252.96,5.00816643 253.119998,4.33483983 253.44,3.77483703 C253.760002,3.21483423 254.179997,2.75483883 254.7,2.39483703 C255.220003,2.03483523 255.806663,1.77150453 256.46,1.60483703 C257.113337,1.43816953 257.77333,1.35483703 258.44,1.35483703 C259.240004,1.35483703 260.056662,1.50150223 260.89,1.79483703 C261.723337,2.08817183 262.45333,2.52150083 263.08,3.09483703 L260.9,5.39483703 Z M265.1,15.874837 L265.1,0.754837027 L268.42,0.754837027 L268.42,15.874837 L265.1,15.874837 Z M274.58,2.73483703 C274.58,2.98817163 274.53,3.22483593 274.43,3.44483703 C274.329999,3.66483813 274.196667,3.85483623 274.03,4.01483703 C273.863332,4.17483783 273.663334,4.30150323 273.43,4.39483703 C273.196665,4.48817083 272.953335,4.53483703 272.7,4.53483703 C272.166664,4.53483703 271.720002,4.35817213 271.36,4.00483703 C270.999998,3.65150193 270.82,3.22817283 270.82,2.73483703 C270.82,2.49483583 270.866666,2.26483813 270.96,2.04483703 C271.053334,1.82483593 271.186666,1.63483783 271.36,1.47483703 C271.533334,1.31483623 271.733332,1.18483753 271.96,1.08483703 C272.186668,0.984836527 272.433332,0.934837027 272.7,0.934837027 C272.953335,0.934837027 273.196665,0.981503227 273.43,1.07483703 C273.663334,1.16817083 273.863332,1.29483623 274.03,1.45483703 C274.196667,1.61483783 274.329999,1.80483593 274.43,2.02483703 C274.53,2.24483813 274.58,2.48150243 274.58,2.73483703 Z M271.06,15.874837 L271.06,5.91483703 L274.34,5.91483703 L274.34,15.874837 L271.06,15.874837 Z M283.8,9.13483703 C283.613332,8.89483583 283.360002,8.70150443 283.04,8.55483703 C282.719998,8.40816963 282.393335,8.33483703 282.06,8.33483703 C281.713332,8.33483703 281.400001,8.40483633 281.12,8.54483703 C280.839999,8.68483773 280.600001,8.87150253 280.4,9.10483703 C280.199999,9.33817153 280.043334,9.60816883 279.93,9.91483703 C279.816666,10.2215052 279.76,10.5481686 279.76,10.894837 C279.76,11.2415054 279.813333,11.5681688 279.92,11.874837 C280.026667,12.1815052 280.183332,12.4515025 280.39,12.684837 C280.596668,12.9181715 280.843332,13.101503 281.13,13.234837 C281.416668,13.368171 281.739998,13.434837 282.1,13.434837 C282.433335,13.434837 282.763332,13.3715043 283.09,13.244837 C283.416668,13.1181697 283.679999,12.9348382 283.88,12.694837 L285.7,14.914837 C285.286665,15.314839 284.753337,15.6281692 284.1,15.854837 C283.446663,16.0815048 282.753337,16.194837 282.02,16.194837 C281.233329,16.194837 280.500003,16.0748382 279.82,15.834837 C279.139997,15.5948358 278.550002,15.2448393 278.05,14.784837 C277.549997,14.3248347 277.156668,13.7681736 276.87,13.114837 C276.583332,12.4615004 276.44,11.7215078 276.44,10.894837 C276.44,10.0814996 276.583332,9.34817363 276.87,8.69483703 C277.156668,8.04150043 277.549997,7.48483933 278.05,7.02483703 C278.550002,6.56483473 279.139997,6.21150493 279.82,5.96483703 C280.500003,5.71816913 281.226663,5.59483703 282,5.59483703 C282.360002,5.59483703 282.716665,5.62817003 283.07,5.69483703 C283.423335,5.76150403 283.763332,5.85150313 284.09,5.96483703 C284.416668,6.07817093 284.716665,6.21816953 284.99,6.38483703 C285.263335,6.55150453 285.499999,6.73483603 285.7,6.93483703 L283.8,9.13483703 Z M290.56,2.73483703 C290.56,2.98817163 290.51,3.22483593 290.41,3.44483703 C290.309999,3.66483813 290.176667,3.85483623 290.01,4.01483703 C289.843332,4.17483783 289.643334,4.30150323 289.41,4.39483703 C289.176665,4.48817083 288.933335,4.53483703 288.68,4.53483703 C288.146664,4.53483703 287.700002,4.35817213 287.34,4.00483703 C286.979998,3.65150193 286.8,3.22817283 286.8,2.73483703 C286.8,2.49483583 286.846666,2.26483813 286.94,2.04483703 C287.033334,1.82483593 287.166666,1.63483783 287.34,1.47483703 C287.513334,1.31483623 287.713332,1.18483753 287.94,1.08483703 C288.166668,0.984836527 288.413332,0.934837027 288.68,0.934837027 C288.933335,0.934837027 289.176665,0.981503227 289.41,1.07483703 C289.643334,1.16817083 289.843332,1.29483623 290.01,1.45483703 C290.176667,1.61483783 290.309999,1.80483593 290.41,2.02483703 C290.51,2.24483813 290.56,2.48150243 290.56,2.73483703 Z M287.04,15.874837 L287.04,5.91483703 L290.32,5.91483703 L290.32,15.874837 L287.04,15.874837 Z M299.46,15.874837 L299.46,10.434837 C299.46,10.1548356 299.436667,9.88817163 299.39,9.63483703 C299.343333,9.38150243 299.266667,9.15817133 299.16,8.96483703 C299.053333,8.77150273 298.903334,8.61817093 298.71,8.50483703 C298.516666,8.39150313 298.273335,8.33483703 297.98,8.33483703 C297.686665,8.33483703 297.430001,8.39150313 297.21,8.50483703 C296.989999,8.61817093 296.806667,8.77483603 296.66,8.97483703 C296.513333,9.17483803 296.403334,9.40483573 296.33,9.66483703 C296.256666,9.92483833 296.22,10.1948356 296.22,10.474837 L296.22,15.874837 L292.92,15.874837 L292.92,5.91483703 L296.1,5.91483703 L296.1,7.29483703 L296.14,7.29483703 C296.260001,7.08150263 296.416666,6.87150473 296.61,6.66483703 C296.803334,6.45816933 297.029999,6.28150443 297.29,6.13483703 C297.550001,5.98816963 297.833332,5.86817083 298.14,5.77483703 C298.446668,5.68150323 298.773332,5.63483703 299.12,5.63483703 C299.78667,5.63483703 300.353331,5.75483583 300.82,5.99483703 C301.286669,6.23483823 301.663332,6.54483513 301.95,6.92483703 C302.236668,7.30483893 302.443333,7.74150123 302.57,8.23483703 C302.696667,8.72817283 302.76,9.22150123 302.76,9.71483703 L302.76,15.874837 L299.46,15.874837 Z M315.8,14.934837 C315.8,15.9081752 315.660001,16.7548334 315.38,17.474837 C315.099999,18.1948406 314.706669,18.7915013 314.2,19.264837 C313.693331,19.7381727 313.07667,20.0915025 312.35,20.324837 C311.62333,20.5581715 310.820004,20.674837 309.94,20.674837 C309.059996,20.674837 308.156671,20.541505 307.23,20.274837 C306.303329,20.008169 305.500003,19.6215062 304.82,19.114837 L306.46,16.774837 C306.940002,17.2015058 307.469997,17.5181693 308.05,17.724837 C308.630003,17.9315047 309.199997,18.034837 309.76,18.034837 C310.720005,18.034837 311.429998,17.7815062 311.89,17.274837 C312.350002,16.7681678 312.58,16.0948412 312.58,15.254837 L312.58,14.654837 L312.52,14.654837 C312.213332,15.054839 311.800003,15.3748358 311.28,15.614837 C310.759997,15.8548382 310.16667,15.974837 309.5,15.974837 C308.739996,15.974837 308.06667,15.8381717 307.48,15.564837 C306.89333,15.2915023 306.396669,14.921506 305.99,14.454837 C305.583331,13.988168 305.273334,13.4448401 305.06,12.824837 C304.846666,12.2048339 304.74,11.5481738 304.74,10.854837 C304.74,10.1615002 304.846666,9.50150683 305.06,8.87483703 C305.273334,8.24816723 305.583331,7.69483943 305.99,7.21483703 C306.396669,6.73483463 306.89333,6.35150513 307.48,6.06483703 C308.06667,5.77816893 308.73333,5.63483703 309.48,5.63483703 C310.10667,5.63483703 310.706664,5.76150243 311.28,6.01483703 C311.853336,6.26817163 312.313332,6.66150103 312.66,7.19483703 L312.7,7.19483703 L312.7,5.91483703 L315.8,5.91483703 L315.8,14.934837 Z M312.68,10.834837 C312.68,10.501502 312.623334,10.1815052 312.51,9.87483703 C312.396666,9.56816883 312.233334,9.29817153 312.02,9.06483703 C311.806666,8.83150253 311.553335,8.64817103 311.26,8.51483703 C310.966665,8.38150303 310.633335,8.31483703 310.26,8.31483703 C309.886665,8.31483703 309.556668,8.38150303 309.27,8.51483703 C308.983332,8.64817103 308.740001,8.82816923 308.54,9.05483703 C308.339999,9.28150483 308.186667,9.54816883 308.08,9.85483703 C307.973333,10.1615052 307.92,10.4881686 307.92,10.834837 C307.92,11.168172 307.973333,11.4881688 308.08,11.794837 C308.186667,12.1015052 308.339999,12.3715025 308.54,12.604837 C308.740001,12.8381715 308.983332,13.0248363 309.27,13.164837 C309.556668,13.3048377 309.886665,13.374837 310.26,13.374837 C310.633335,13.374837 310.969998,13.3048377 311.27,13.164837 C311.570001,13.0248363 311.823332,12.8415048 312.03,12.614837 C312.236668,12.3881692 312.396666,12.1215052 312.51,11.814837 C312.623334,11.5081688 312.68,11.1815054 312.68,10.834837 Z" id="Tutorial" fill="#FFFFFF"></path>
                    <path d="M0.46,15.874837 L0.46,1.71483703 L3.9,1.71483703 L3.9,15.874837 L0.46,15.874837 Z M13.18,15.874837 L13.18,10.434837 C13.18,10.1548356 13.1566669,9.88817163 13.11,9.63483703 C13.0633331,9.38150243 12.9866672,9.15817133 12.88,8.96483703 C12.7733328,8.77150273 12.6233343,8.61817093 12.43,8.50483703 C12.2366657,8.39150313 11.9933348,8.33483703 11.7,8.33483703 C11.4066652,8.33483703 11.1500011,8.39150313 10.93,8.50483703 C10.7099989,8.61817093 10.5266674,8.77483603 10.38,8.97483703 C10.2333326,9.17483803 10.1233337,9.40483573 10.05,9.66483703 C9.9766663,9.92483833 9.94,10.1948356 9.94,10.474837 L9.94,15.874837 L6.64,15.874837 L6.64,5.91483703 L9.82,5.91483703 L9.82,7.29483703 L9.86,7.29483703 C9.9800006,7.08150263 10.1366657,6.87150473 10.33,6.66483703 C10.5233343,6.45816933 10.7499987,6.28150443 11.01,6.13483703 C11.2700013,5.98816963 11.5533318,5.86817083 11.86,5.77483703 C12.1666682,5.68150323 12.4933316,5.63483703 12.84,5.63483703 C13.50667,5.63483703 14.073331,5.75483583 14.54,5.99483703 C15.006669,6.23483823 15.3833319,6.54483513 15.67,6.92483703 C15.9566681,7.30483893 16.1633327,7.74150123 16.29,8.23483703 C16.4166673,8.72817283 16.48,9.22150123 16.48,9.71483703 L16.48,15.874837 L13.18,15.874837 Z M29.66,15.874837 L25.6,15.874837 L22.34,11.094837 L22.28,11.094837 L22.28,15.874837 L18.98,15.874837 L18.98,0.754837027 L22.28,0.754837027 L22.28,9.95483703 L22.34,9.95483703 L25.52,5.91483703 L29.5,5.91483703 L25.66,10.414837 L29.66,15.874837 Z M41.96,10.854837 C41.96,11.5481738 41.8533344,12.2148338 41.64,12.854837 C41.4266656,13.4948402 41.1166687,14.0581679 40.71,14.544837 C40.3033313,15.0315061 39.8066696,15.4215022 39.22,15.714837 C38.6333304,16.0081718 37.9666704,16.154837 37.22,16.154837 C36.55333,16.154837 35.9233363,16.0181717 35.33,15.744837 C34.7366637,15.4715023 34.2800016,15.0815062 33.96,14.574837 L33.92,14.574837 L33.92,15.874837 L30.9,15.874837 L30.9,0.754837027 L34.18,0.754837027 L34.18,6.97483703 L34.22,6.97483703 C34.5000014,6.64150203 34.8933308,6.33483843 35.4,6.05483703 C35.9066692,5.77483563 36.526663,5.63483703 37.26,5.63483703 C37.9800036,5.63483703 38.6299971,5.77483563 39.21,6.05483703 C39.7900029,6.33483843 40.2833313,6.71483463 40.69,7.19483703 C41.0966687,7.67483943 41.4099989,8.23150053 41.63,8.86483703 C41.8500011,9.49817353 41.96,10.1615002 41.96,10.854837 Z M38.8,10.854837 C38.8,10.5348354 38.7500005,10.2215052 38.65,9.91483703 C38.5499995,9.60816883 38.400001,9.33817153 38.2,9.10483703 C37.999999,8.87150253 37.7533348,8.68150443 37.46,8.53483703 C37.1666652,8.38816963 36.8266686,8.31483703 36.44,8.31483703 C36.0666648,8.31483703 35.7333348,8.38816963 35.44,8.53483703 C35.1466652,8.68150443 34.8966677,8.87483583 34.69,9.11483703 C34.4833323,9.35483823 34.3233339,9.62816883 34.21,9.93483703 C34.0966661,10.2415052 34.04,10.5548354 34.04,10.874837 C34.04,11.1948386 34.0966661,11.5081688 34.21,11.814837 C34.3233339,12.1215052 34.4833323,12.3948358 34.69,12.634837 C34.8966677,12.8748382 35.1466652,13.0681696 35.44,13.214837 C35.7333348,13.3615044 36.0666648,13.434837 36.44,13.434837 C36.8266686,13.434837 37.1666652,13.3615044 37.46,13.214837 C37.7533348,13.0681696 37.999999,12.8748382 38.2,12.634837 C38.400001,12.3948358 38.5499995,12.1181719 38.65,11.804837 C38.7500005,11.4915021 38.8,11.1748386 38.8,10.854837 Z M50.5,8.59483703 C50.3533326,8.55483683 50.2100007,8.52817043 50.07,8.51483703 C49.9299993,8.50150363 49.793334,8.49483703 49.66,8.49483703 C49.2199978,8.49483703 48.8500015,8.57483623 48.55,8.73483703 C48.2499985,8.89483783 48.0100009,9.08816923 47.83,9.31483703 C47.6499991,9.54150483 47.5200004,9.78816903 47.44,10.054837 C47.3599996,10.321505 47.32,10.554836 47.32,10.754837 L47.32,15.874837 L44.04,15.874837 L44.04,5.91483703 L47.2,5.91483703 L47.2,7.35483703 L47.24,7.35483703 C47.4933346,6.84816783 47.853331,6.43483863 48.32,6.11483703 C48.786669,5.79483543 49.3266636,5.63483703 49.94,5.63483703 C50.073334,5.63483703 50.2033327,5.64150363 50.33,5.65483703 C50.4566673,5.66817043 50.5599996,5.68817023 50.64,5.71483703 L50.5,8.59483703 Z M58.52,15.874837 L58.52,14.494837 L58.48,14.494837 C58.3599994,14.7215048 58.2033343,14.934836 58.01,15.134837 C57.8166657,15.334838 57.5900013,15.5081696 57.33,15.654837 C57.0699987,15.8015044 56.7833349,15.9215032 56.47,16.014837 C56.1566651,16.1081708 55.8266684,16.154837 55.48,16.154837 C54.81333,16.154837 54.2500023,16.0348382 53.79,15.794837 C53.3299977,15.5548358 52.9566681,15.2448389 52.67,14.864837 C52.3833319,14.4848351 52.1766673,14.0515061 52.05,13.564837 C51.9233327,13.0781679 51.86,12.5815062 51.86,12.074837 L51.86,5.91483703 L55.16,5.91483703 L55.16,11.314837 C55.16,11.5948384 55.1799998,11.8615024 55.22,12.114837 C55.2600002,12.3681716 55.3366661,12.594836 55.45,12.794837 C55.5633339,12.994838 55.7133324,13.1515031 55.9,13.264837 C56.0866676,13.3781709 56.3333318,13.434837 56.64,13.434837 C57.2133362,13.434837 57.6499985,13.2215058 57.95,12.794837 C58.2500015,12.3681682 58.4,11.8681732 58.4,11.294837 L58.4,5.91483703 L61.68,5.91483703 L61.68,15.874837 L58.52,15.874837 Z M70.1,8.85483703 C69.833332,8.60150243 69.5200018,8.38817123 69.16,8.21483703 C68.7999982,8.04150283 68.420002,7.95483703 68.02,7.95483703 C67.7133318,7.95483703 67.4300013,8.01483643 67.17,8.13483703 C66.9099987,8.25483763 66.78,8.46150223 66.78,8.75483703 C66.78,9.03483843 66.9233319,9.23483643 67.21,9.35483703 C67.4966681,9.47483763 67.9599968,9.60816963 68.6,9.75483703 C68.9733352,9.83483743 69.3499981,9.94816963 69.73,10.094837 C70.1100019,10.2415044 70.4533318,10.4348358 70.76,10.674837 C71.0666682,10.9148382 71.3133324,11.2081686 71.5,11.554837 C71.6866676,11.9015054 71.78,12.3148346 71.78,12.794837 C71.78,13.4215068 71.6533346,13.9515015 71.4,14.384837 C71.1466654,14.8181725 70.8166687,15.168169 70.41,15.434837 C70.0033313,15.701505 69.5466692,15.8948364 69.04,16.014837 C68.5333308,16.1348376 68.0266692,16.194837 67.52,16.194837 C66.7066626,16.194837 65.9100039,16.0648383 65.13,15.804837 C64.3499961,15.5448357 63.7000026,15.1615062 63.18,14.654837 L65.02,12.714837 C65.3133348,13.0348386 65.6733312,13.3015026 66.1,13.514837 C66.5266688,13.7281714 66.9799976,13.834837 67.46,13.834837 C67.726668,13.834837 67.9899987,13.7715043 68.25,13.644837 C68.5100013,13.5181697 68.64,13.2948386 68.64,12.974837 C68.64,12.6681688 68.4800016,12.4415044 68.16,12.294837 C67.8399984,12.1481696 67.3400034,11.9948378 66.66,11.834837 C66.3133316,11.7548366 65.9666684,11.648171 65.62,11.514837 C65.2733316,11.381503 64.9633347,11.2015048 64.69,10.974837 C64.4166653,10.7481692 64.1933342,10.468172 64.02,10.134837 C63.8466658,9.80150203 63.76,9.40150603 63.76,8.93483703 C63.76,8.33483403 63.8866654,7.82483913 64.14,7.40483703 C64.3933346,6.98483493 64.719998,6.64150503 65.12,6.37483703 C65.520002,6.10816903 65.9633309,5.91150433 66.45,5.78483703 C66.9366691,5.65816973 67.4199976,5.59483703 67.9,5.59483703 C68.6466704,5.59483703 69.3766631,5.71150253 70.09,5.94483703 C70.8033369,6.17817153 71.4066642,6.52816803 71.9,6.99483703 L70.1,8.85483703 Z M80.24,15.874837 L80.24,10.474837 C80.24,10.1948356 80.2200002,9.92817163 80.18,9.67483703 C80.1399998,9.42150243 80.0633339,9.19817133 79.95,9.00483703 C79.8366661,8.81150273 79.6866676,8.65817093 79.5,8.54483703 C79.3133324,8.43150313 79.0733348,8.37483703 78.78,8.37483703 C78.2066638,8.37483703 77.7666682,8.57816833 77.46,8.98483703 C77.1533318,9.39150573 77,9.89483403 77,10.494837 L77,15.874837 L73.72,15.874837 L73.72,0.754837027 L77,0.754837027 L77,7.17483703 L77.04,7.17483703 C77.2666678,6.77483503 77.6266642,6.41817193 78.12,6.10483703 C78.6133358,5.79150213 79.2066632,5.63483703 79.9,5.63483703 C80.5800034,5.63483703 81.1499977,5.75483583 81.61,5.99483703 C82.0700023,6.23483823 82.4433319,6.54483513 82.73,6.92483703 C83.0166681,7.30483893 83.2233327,7.74150123 83.35,8.23483703 C83.4766673,8.72817283 83.54,9.22150123 83.54,9.71483703 L83.54,15.874837 L80.24,15.874837 Z M90.02,7.67483703 C90.02,7.94150503 89.9666672,8.19150253 89.86,8.42483703 C89.7533328,8.65817153 89.6133342,8.86150283 89.44,9.03483703 C89.2666658,9.20817123 89.0600012,9.34483653 88.82,9.44483703 C88.5799988,9.54483753 88.3333346,9.59483703 88.08,9.59483703 C87.813332,9.59483703 87.5600012,9.54817083 87.32,9.45483703 C87.0799988,9.36150323 86.8700009,9.22817123 86.69,9.05483703 C86.5099991,8.88150283 86.3666672,8.68150483 86.26,8.45483703 C86.1533328,8.22816923 86.1,7.98150503 86.1,7.71483703 C86.1,7.44816903 86.1533328,7.19817153 86.26,6.96483703 C86.3666672,6.73150253 86.5099991,6.52817123 86.69,6.35483703 C86.8700009,6.18150283 87.0799988,6.04483753 87.32,5.94483703 C87.5600012,5.84483653 87.813332,5.79483703 88.08,5.79483703 C88.3333346,5.79483703 88.5799988,5.84483653 88.82,5.94483703 C89.0600012,6.04483753 89.2666658,6.17816953 89.44,6.34483703 C89.6133342,6.51150453 89.7533328,6.71150253 89.86,6.94483703 C89.9666672,7.17817153 90.02,7.42150243 90.02,7.67483703 Z M90.02,14.094837 C90.02,14.361505 89.9666672,14.6115025 89.86,14.844837 C89.7533328,15.0781715 89.6133342,15.2781695 89.44,15.444837 C89.2666658,15.6115045 89.0600012,15.7448365 88.82,15.844837 C88.5799988,15.9448375 88.3333346,15.994837 88.08,15.994837 C87.813332,15.994837 87.5600012,15.9481708 87.32,15.854837 C87.0799988,15.7615032 86.8700009,15.6281712 86.69,15.454837 C86.5099991,15.2815028 86.3666672,15.0815048 86.26,14.854837 C86.1533328,14.6281692 86.1,14.381505 86.1,14.114837 C86.1,13.848169 86.1533328,13.5981715 86.26,13.364837 C86.3666672,13.1315025 86.5099991,12.9281712 86.69,12.754837 C86.8700009,12.5815028 87.0799988,12.4448375 87.32,12.344837 C87.5600012,12.2448365 87.813332,12.194837 88.08,12.194837 C88.3333346,12.194837 88.5799988,12.2448365 88.82,12.344837 C89.0600012,12.4448375 89.2666658,12.5781695 89.44,12.744837 C89.6133342,12.9115045 89.7533328,13.1115025 89.86,13.344837 C89.9666672,13.5781715 90.02,13.828169 90.02,14.094837 Z" id="Inkbrush:" fill="#B8E986"></path>
                </g>
                <g id="MI:-Product-Feature" transform="translate(1.000000, 4.000000)">
                    <path d="M143.88,6.2 C143.88,7.0266708 143.726668,7.7233305 143.42,8.29 C143.113332,8.8566695 142.700003,9.3133316 142.18,9.66 C141.659997,10.0066684 141.060003,10.2599992 140.38,10.42 C139.699997,10.5800008 138.993337,10.66 138.26,10.66 L136.56,10.66 L136.56,16 L133.14,16 L133.14,1.84 L138.34,1.84 C139.113337,1.84 139.836663,1.9166659 140.51,2.07 C141.183337,2.2233341 141.769998,2.4699983 142.27,2.81 C142.770003,3.1500017 143.163332,3.5966639 143.45,4.15 C143.736668,4.7033361 143.88,5.3866626 143.88,6.2 Z M140.46,6.22 C140.46,5.886665 140.393334,5.6133344 140.26,5.4 C140.126666,5.1866656 139.946668,5.0200006 139.72,4.9 C139.493332,4.7799994 139.236668,4.7000002 138.95,4.66 C138.663332,4.6199998 138.366668,4.6 138.06,4.6 L136.56,4.6 L136.56,7.94 L138,7.94 C138.320002,7.94 138.626665,7.9133336 138.92,7.86 C139.213335,7.8066664 139.476666,7.713334 139.71,7.58 C139.943335,7.446666 140.126666,7.2700011 140.26,7.05 C140.393334,6.8299989 140.46,6.553335 140.46,6.22 Z M151.36,8.72 C151.213333,8.6799998 151.070001,8.6533334 150.93,8.64 C150.789999,8.6266666 150.653334,8.62 150.52,8.62 C150.079998,8.62 149.710002,8.6999992 149.41,8.86 C149.109999,9.0200008 148.870001,9.2133322 148.69,9.44 C148.509999,9.6666678 148.38,9.913332 148.3,10.18 C148.22,10.446668 148.18,10.679999 148.18,10.88 L148.18,16 L144.9,16 L144.9,6.04 L148.06,6.04 L148.06,7.48 L148.1,7.48 C148.353335,6.9733308 148.713331,6.5600016 149.18,6.24 C149.646669,5.9199984 150.186664,5.76 150.8,5.76 C150.933334,5.76 151.063333,5.7666666 151.19,5.78 C151.316667,5.7933334 151.42,5.8133332 151.5,5.84 L151.36,8.72 Z M163.02,10.98 C163.02,11.7933374 162.873335,12.5299967 162.58,13.19 C162.286665,13.8500033 161.886669,14.4099977 161.38,14.87 C160.873331,15.3300023 160.28667,15.6866654 159.62,15.94 C158.95333,16.1933346 158.240004,16.32 157.48,16.32 C156.73333,16.32 156.023337,16.1933346 155.35,15.94 C154.676663,15.6866654 154.090003,15.3300023 153.59,14.87 C153.089998,14.4099977 152.693335,13.8500033 152.4,13.19 C152.106665,12.5299967 151.96,11.7933374 151.96,10.98 C151.96,10.1666626 152.106665,9.4333366 152.4,8.78 C152.693335,8.1266634 153.089998,7.5733356 153.59,7.12 C154.090003,6.6666644 154.676663,6.3200012 155.35,6.08 C156.023337,5.8399988 156.73333,5.72 157.48,5.72 C158.240004,5.72 158.95333,5.8399988 159.62,6.08 C160.28667,6.3200012 160.873331,6.6666644 161.38,7.12 C161.886669,7.5733356 162.286665,8.1266634 162.58,8.78 C162.873335,9.4333366 163.02,10.1666626 163.02,10.98 Z M159.86,10.98 C159.86,10.6599984 159.806667,10.3466682 159.7,10.04 C159.593333,9.7333318 159.440001,9.4633345 159.24,9.23 C159.039999,8.9966655 158.793335,8.8066674 158.5,8.66 C158.206665,8.5133326 157.866669,8.44 157.48,8.44 C157.093331,8.44 156.753335,8.5133326 156.46,8.66 C156.166665,8.8066674 155.923334,8.9966655 155.73,9.23 C155.536666,9.4633345 155.390001,9.7333318 155.29,10.04 C155.19,10.3466682 155.14,10.6599984 155.14,10.98 C155.14,11.3000016 155.19,11.6133318 155.29,11.92 C155.390001,12.2266682 155.539999,12.5033321 155.74,12.75 C155.940001,12.9966679 156.186665,13.1933326 156.48,13.34 C156.773335,13.4866674 157.113331,13.56 157.5,13.56 C157.886669,13.56 158.226665,13.4866674 158.52,13.34 C158.813335,13.1933326 159.059999,12.9966679 159.26,12.75 C159.460001,12.5033321 159.61,12.2266682 159.71,11.92 C159.810001,11.6133318 159.86,11.3000016 159.86,10.98 Z M172.64,16 L172.64,14.7 L172.6,14.7 C172.279998,15.2066692 171.823336,15.5966653 171.23,15.87 C170.636664,16.1433347 170.00667,16.28 169.34,16.28 C168.59333,16.28 167.92667,16.1333348 167.34,15.84 C166.75333,15.5466652 166.256669,15.1566691 165.85,14.67 C165.443331,14.1833309 165.133334,13.6200032 164.92,12.98 C164.706666,12.3399968 164.6,11.6733368 164.6,10.98 C164.6,10.2866632 164.709999,9.6233365 164.93,8.99 C165.150001,8.3566635 165.463331,7.8000024 165.87,7.32 C166.276669,6.8399976 166.769997,6.4600014 167.35,6.18 C167.930003,5.8999986 168.579996,5.76 169.3,5.76 C170.033337,5.76 170.653331,5.8999986 171.16,6.18 C171.666669,6.4600014 172.059999,6.766665 172.34,7.1 L172.38,7.1 L172.38,0.88 L175.66,0.88 L175.66,16 L172.64,16 Z M172.52,11 C172.52,10.6799984 172.463334,10.3666682 172.35,10.06 C172.236666,9.7533318 172.076668,9.4800012 171.87,9.24 C171.663332,8.9999988 171.413335,8.8066674 171.12,8.66 C170.826665,8.5133326 170.493335,8.44 170.12,8.44 C169.733331,8.44 169.393335,8.5133326 169.1,8.66 C168.806665,8.8066674 168.560001,8.9966655 168.36,9.23 C168.159999,9.4633345 168.010001,9.7333318 167.91,10.04 C167.81,10.3466682 167.76,10.6599984 167.76,10.98 C167.76,11.3000016 167.81,11.6166651 167.91,11.93 C168.010001,12.2433349 168.159999,12.5199988 168.36,12.76 C168.560001,13.0000012 168.806665,13.1933326 169.1,13.34 C169.393335,13.4866674 169.733331,13.56 170.12,13.56 C170.493335,13.56 170.826665,13.4866674 171.12,13.34 C171.413335,13.1933326 171.663332,13.0000012 171.87,12.76 C172.076668,12.5199988 172.236666,12.2466682 172.35,11.94 C172.463334,11.6333318 172.52,11.3200016 172.52,11 Z M184.82,16 L184.82,14.62 L184.78,14.62 C184.659999,14.8466678 184.503334,15.059999 184.31,15.26 C184.116666,15.460001 183.890001,15.6333326 183.63,15.78 C183.369999,15.9266674 183.083335,16.0466662 182.77,16.14 C182.456665,16.2333338 182.126668,16.28 181.78,16.28 C181.11333,16.28 180.550002,16.1600012 180.09,15.92 C179.629998,15.6799988 179.256668,15.3700019 178.97,14.99 C178.683332,14.6099981 178.476667,14.1766691 178.35,13.69 C178.223333,13.2033309 178.16,12.7066692 178.16,12.2 L178.16,6.04 L181.46,6.04 L181.46,11.44 C181.46,11.7200014 181.48,11.9866654 181.52,12.24 C181.56,12.4933346 181.636666,12.719999 181.75,12.92 C181.863334,13.120001 182.013332,13.2766661 182.2,13.39 C182.386668,13.5033339 182.633332,13.56 182.94,13.56 C183.513336,13.56 183.949998,13.3466688 184.25,12.92 C184.550001,12.4933312 184.7,11.9933362 184.7,11.42 L184.7,6.04 L187.98,6.04 L187.98,16 L184.82,16 Z M197.4,9.26 C197.213332,9.0199988 196.960002,8.8266674 196.64,8.68 C196.319998,8.5333326 195.993335,8.46 195.66,8.46 C195.313332,8.46 195.000001,8.5299993 194.72,8.67 C194.439999,8.8100007 194.200001,8.9966655 194,9.23 C193.799999,9.4633345 193.643334,9.7333318 193.53,10.04 C193.416666,10.3466682 193.36,10.6733316 193.36,11.02 C193.36,11.3666684 193.413333,11.6933318 193.52,12 C193.626667,12.3066682 193.783332,12.5766655 193.99,12.81 C194.196668,13.0433345 194.443332,13.226666 194.73,13.36 C195.016668,13.493334 195.339998,13.56 195.7,13.56 C196.033335,13.56 196.363332,13.4966673 196.69,13.37 C197.016668,13.2433327 197.279999,13.0600012 197.48,12.82 L199.3,15.04 C198.886665,15.440002 198.353337,15.7533322 197.7,15.98 C197.046663,16.2066678 196.353337,16.32 195.62,16.32 C194.833329,16.32 194.100003,16.2000012 193.42,15.96 C192.739997,15.7199988 192.150003,15.3700023 191.65,14.91 C191.149998,14.4499977 190.756668,13.8933366 190.47,13.24 C190.183332,12.5866634 190.04,11.8466708 190.04,11.02 C190.04,10.2066626 190.183332,9.4733366 190.47,8.82 C190.756668,8.1666634 191.149998,7.6100023 191.65,7.15 C192.150003,6.6899977 192.739997,6.3366679 193.42,6.09 C194.100003,5.8433321 194.826663,5.72 195.6,5.72 C195.960002,5.72 196.316665,5.753333 196.67,5.82 C197.023335,5.886667 197.363332,5.9766661 197.69,6.09 C198.016668,6.2033339 198.316665,6.3433325 198.59,6.51 C198.863335,6.6766675 199.099999,6.859999 199.3,7.06 L197.4,9.26 Z M204.16,8.5 L204.16,12.3 C204.16,12.766669 204.249999,13.1166655 204.43,13.35 C204.610001,13.5833345 204.933331,13.7 205.4,13.7 C205.560001,13.7 205.729999,13.6866668 205.91,13.66 C206.090001,13.6333332 206.239999,13.5933336 206.36,13.54 L206.4,15.94 C206.173332,16.0200004 205.886668,16.0899997 205.54,16.15 C205.193332,16.2100003 204.846668,16.24 204.5,16.24 C203.83333,16.24 203.273336,16.1566675 202.82,15.99 C202.366664,15.8233325 202.003335,15.5833349 201.73,15.27 C201.456665,14.9566651 201.260001,14.5833355 201.14,14.15 C201.019999,13.7166645 200.96,13.233336 200.96,12.7 L200.96,8.5 L199.36,8.5 L199.36,6.04 L200.94,6.04 L200.94,3.42 L204.16,3.42 L204.16,6.04 L206.5,6.04 L206.5,8.5 L204.16,8.5 Z M216.6,4.76 L216.6,7.68 L222.08,7.68 L222.08,10.5 L216.6,10.5 L216.6,16 L213.22,16 L213.22,1.84 L222.54,1.84 L222.54,4.76 L216.6,4.76 Z M230.46,9.88 C230.46,9.3599974 230.296668,8.9133352 229.97,8.54 C229.643332,8.1666648 229.153337,7.98 228.5,7.98 C228.179998,7.98 227.886668,8.0299995 227.62,8.13 C227.353332,8.2300005 227.120001,8.3666658 226.92,8.54 C226.719999,8.7133342 226.560001,8.9166655 226.44,9.15 C226.319999,9.3833345 226.253333,9.6266654 226.24,9.88 L230.46,9.88 Z M233.48,11.14 L233.48,11.54 C233.48,11.673334 233.473333,11.7999994 233.46,11.92 L226.24,11.92 C226.266667,12.2000014 226.349999,12.4533322 226.49,12.68 C226.630001,12.9066678 226.809999,13.1033325 227.03,13.27 C227.250001,13.4366675 227.496665,13.5666662 227.77,13.66 C228.043335,13.7533338 228.326665,13.8 228.62,13.8 C229.140003,13.8 229.579998,13.7033343 229.94,13.51 C230.300002,13.3166657 230.593332,13.0666682 230.82,12.76 L233.1,14.2 C232.633331,14.8800034 232.016671,15.4033315 231.25,15.77 C230.48333,16.1366685 229.593338,16.32 228.58,16.32 C227.83333,16.32 227.12667,16.2033345 226.46,15.97 C225.79333,15.7366655 225.210003,15.3966689 224.71,14.95 C224.209998,14.5033311 223.816668,13.9533366 223.53,13.3 C223.243332,12.6466634 223.1,11.9000042 223.1,11.06 C223.1,10.2466626 223.239999,9.5100033 223.52,8.85 C223.800001,8.1899967 224.179998,7.6300023 224.66,7.17 C225.140002,6.7099977 225.706663,6.3533346 226.36,6.1 C227.013337,5.8466654 227.719996,5.72 228.48,5.72 C229.213337,5.72 229.886664,5.8433321 230.5,6.09 C231.113336,6.3366679 231.639998,6.693331 232.08,7.16 C232.520002,7.626669 232.863332,8.19333 233.11,8.86 C233.356668,9.52667 233.48,10.2866624 233.48,11.14 Z M241.28,11.66 L240.86,11.66 C240.499998,11.66 240.136669,11.6766665 239.77,11.71 C239.403332,11.7433335 239.076668,11.8066662 238.79,11.9 C238.503332,11.9933338 238.266668,12.1299991 238.08,12.31 C237.893332,12.4900009 237.8,12.7266652 237.8,13.02 C237.8,13.2066676 237.843333,13.366666 237.93,13.5 C238.016667,13.633334 238.126666,13.7399996 238.26,13.82 C238.393334,13.9000004 238.546666,13.9566665 238.72,13.99 C238.893334,14.0233335 239.059999,14.04 239.22,14.04 C239.88667,14.04 240.396665,13.8566685 240.75,13.49 C241.103335,13.1233315 241.28,12.6266698 241.28,12 L241.28,11.66 Z M235.26,7.4 C235.84667,6.8399972 236.529996,6.4200014 237.31,6.14 C238.090004,5.8599986 238.886663,5.72 239.7,5.72 C240.540004,5.72 241.249997,5.8233323 241.83,6.03 C242.410003,6.2366677 242.879998,6.5566645 243.24,6.99 C243.600002,7.4233355 243.863333,7.9699967 244.03,8.63 C244.196667,9.2900033 244.28,10.0733288 244.28,10.98 L244.28,16 L241.28,16 L241.28,14.94 L241.22,14.94 C240.966665,15.3533354 240.583336,15.6733322 240.07,15.9 C239.556664,16.1266678 239.000003,16.24 238.4,16.24 C237.999998,16.24 237.586669,16.1866672 237.16,16.08 C236.733331,15.9733328 236.343335,15.8000012 235.99,15.56 C235.636665,15.3199988 235.346668,15.000002 235.12,14.6 C234.893332,14.199998 234.78,13.7066696 234.78,13.12 C234.78,12.3999964 234.976665,11.8200022 235.37,11.38 C235.763335,10.9399978 236.269997,10.6000012 236.89,10.36 C237.510003,10.1199988 238.199996,9.9600004 238.96,9.88 C239.720004,9.7999996 240.459996,9.76 241.18,9.76 L241.18,9.6 C241.18,9.1066642 241.006668,8.7433345 240.66,8.51 C240.313332,8.2766655 239.886669,8.16 239.38,8.16 C238.913331,8.16 238.463335,8.259999 238.03,8.46 C237.596665,8.660001 237.226668,8.8999986 236.92,9.18 L235.26,7.4 Z M250.08,8.5 L250.08,12.3 C250.08,12.766669 250.169999,13.1166655 250.35,13.35 C250.530001,13.5833345 250.853331,13.7 251.32,13.7 C251.480001,13.7 251.649999,13.6866668 251.83,13.66 C252.010001,13.6333332 252.159999,13.5933336 252.28,13.54 L252.32,15.94 C252.093332,16.0200004 251.806668,16.0899997 251.46,16.15 C251.113332,16.2100003 250.766668,16.24 250.42,16.24 C249.75333,16.24 249.193336,16.1566675 248.74,15.99 C248.286664,15.8233325 247.923335,15.5833349 247.65,15.27 C247.376665,14.9566651 247.180001,14.5833355 247.06,14.15 C246.939999,13.7166645 246.88,13.233336 246.88,12.7 L246.88,8.5 L245.28,8.5 L245.28,6.04 L246.86,6.04 L246.86,3.42 L250.08,3.42 L250.08,6.04 L252.42,6.04 L252.42,8.5 L250.08,8.5 Z M260.52,16 L260.52,14.62 L260.48,14.62 C260.359999,14.8466678 260.203334,15.059999 260.01,15.26 C259.816666,15.460001 259.590001,15.6333326 259.33,15.78 C259.069999,15.9266674 258.783335,16.0466662 258.47,16.14 C258.156665,16.2333338 257.826668,16.28 257.48,16.28 C256.81333,16.28 256.250002,16.1600012 255.79,15.92 C255.329998,15.6799988 254.956668,15.3700019 254.67,14.99 C254.383332,14.6099981 254.176667,14.1766691 254.05,13.69 C253.923333,13.2033309 253.86,12.7066692 253.86,12.2 L253.86,6.04 L257.16,6.04 L257.16,11.44 C257.16,11.7200014 257.18,11.9866654 257.22,12.24 C257.26,12.4933346 257.336666,12.719999 257.45,12.92 C257.563334,13.120001 257.713332,13.2766661 257.9,13.39 C258.086668,13.5033339 258.333332,13.56 258.64,13.56 C259.213336,13.56 259.649999,13.3466688 259.95,12.92 C260.250002,12.4933312 260.4,11.9933362 260.4,11.42 L260.4,6.04 L263.68,6.04 L263.68,16 L260.52,16 Z M272.7,8.72 C272.553333,8.6799998 272.410001,8.6533334 272.27,8.64 C272.129999,8.6266666 271.993334,8.62 271.86,8.62 C271.419998,8.62 271.050002,8.6999992 270.75,8.86 C270.449998,9.0200008 270.210001,9.2133322 270.03,9.44 C269.849999,9.6666678 269.72,9.913332 269.64,10.18 C269.56,10.446668 269.52,10.679999 269.52,10.88 L269.52,16 L266.24,16 L266.24,6.04 L269.4,6.04 L269.4,7.48 L269.44,7.48 C269.693335,6.9733308 270.053331,6.5600016 270.52,6.24 C270.986669,5.9199984 271.526664,5.76 272.14,5.76 C272.273334,5.76 272.403333,5.7666666 272.53,5.78 C272.656667,5.7933334 272.76,5.8133332 272.84,5.84 L272.7,8.72 Z M280.66,9.88 C280.66,9.3599974 280.496668,8.9133352 280.17,8.54 C279.843332,8.1666648 279.353337,7.98 278.7,7.98 C278.379998,7.98 278.086668,8.0299995 277.82,8.13 C277.553332,8.2300005 277.320001,8.3666658 277.12,8.54 C276.919999,8.7133342 276.760001,8.9166655 276.64,9.15 C276.519999,9.3833345 276.453333,9.6266654 276.44,9.88 L280.66,9.88 Z M283.68,11.14 L283.68,11.54 C283.68,11.673334 283.673333,11.7999994 283.66,11.92 L276.44,11.92 C276.466667,12.2000014 276.549999,12.4533322 276.69,12.68 C276.830001,12.9066678 277.009999,13.1033325 277.23,13.27 C277.450001,13.4366675 277.696665,13.5666662 277.97,13.66 C278.243335,13.7533338 278.526665,13.8 278.82,13.8 C279.340003,13.8 279.779998,13.7033343 280.14,13.51 C280.500002,13.3166657 280.793332,13.0666682 281.02,12.76 L283.3,14.2 C282.833331,14.8800034 282.216671,15.4033315 281.45,15.77 C280.68333,16.1366685 279.793338,16.32 278.78,16.32 C278.03333,16.32 277.32667,16.2033345 276.66,15.97 C275.99333,15.7366655 275.410003,15.3966689 274.91,14.95 C274.409998,14.5033311 274.016668,13.9533366 273.73,13.3 C273.443332,12.6466634 273.3,11.9000042 273.3,11.06 C273.3,10.2466626 273.439999,9.5100033 273.72,8.85 C274.000001,8.1899967 274.379998,7.6300023 274.86,7.17 C275.340002,6.7099977 275.906663,6.3533346 276.56,6.1 C277.213337,5.8466654 277.919996,5.72 278.68,5.72 C279.413337,5.72 280.086664,5.8433321 280.7,6.09 C281.313336,6.3366679 281.839998,6.693331 282.28,7.16 C282.720002,7.626669 283.063332,8.19333 283.31,8.86 C283.556668,9.52667 283.68,10.2866624 283.68,11.14 Z M290.16,12.06 L290.16,9.46 L295.24,9.46 L295.24,12.06 L290.16,12.06 Z M311.66,16 L310.56,13.22 L305.08,13.22 L304.04,16 L300.32,16 L306.26,1.84 L309.58,1.84 L315.46,16 L311.66,16 Z M307.86,5.62 L306.06,10.48 L309.62,10.48 L307.86,5.62 Z M327.38,6.2 C327.38,7.0266708 327.226668,7.7233305 326.92,8.29 C326.613332,8.8566695 326.200003,9.3133316 325.68,9.66 C325.159997,10.0066684 324.560003,10.2599992 323.88,10.42 C323.199997,10.5800008 322.493337,10.66 321.76,10.66 L320.06,10.66 L320.06,16 L316.64,16 L316.64,1.84 L321.84,1.84 C322.613337,1.84 323.336663,1.9166659 324.01,2.07 C324.683337,2.2233341 325.269998,2.4699983 325.77,2.81 C326.270003,3.1500017 326.663332,3.5966639 326.95,4.15 C327.236668,4.7033361 327.38,5.3866626 327.38,6.2 Z M323.96,6.22 C323.96,5.886665 323.893334,5.6133344 323.76,5.4 C323.626666,5.1866656 323.446668,5.0200006 323.22,4.9 C322.993332,4.7799994 322.736668,4.7000002 322.45,4.66 C322.163332,4.6199998 321.866668,4.6 321.56,4.6 L320.06,4.6 L320.06,7.94 L321.5,7.94 C321.820002,7.94 322.126665,7.9133336 322.42,7.86 C322.713335,7.8066664 322.976666,7.713334 323.21,7.58 C323.443335,7.446666 323.626666,7.2700011 323.76,7.05 C323.893334,6.8299989 323.96,6.553335 323.96,6.22 Z M329.44,16 L329.44,1.84 L332.88,1.84 L332.88,16 L329.44,16 Z M340.8,16 L340.8,1.84 L344.24,1.84 L344.24,16 L340.8,16 Z M353.52,16 L353.52,10.56 C353.52,10.2799986 353.496667,10.0133346 353.45,9.76 C353.403333,9.5066654 353.326667,9.2833343 353.22,9.09 C353.113333,8.8966657 352.963334,8.7433339 352.77,8.63 C352.576666,8.5166661 352.333335,8.46 352.04,8.46 C351.746665,8.46 351.490001,8.5166661 351.27,8.63 C351.049999,8.7433339 350.866667,8.899999 350.72,9.1 C350.573333,9.300001 350.463334,9.5299987 350.39,9.79 C350.316666,10.0500013 350.28,10.3199986 350.28,10.6 L350.28,16 L346.98,16 L346.98,6.04 L350.16,6.04 L350.16,7.42 L350.2,7.42 C350.320001,7.2066656 350.476666,6.9966677 350.67,6.79 C350.863334,6.5833323 351.089999,6.4066674 351.35,6.26 C351.610001,6.1133326 351.893332,5.9933338 352.2,5.9 C352.506668,5.8066662 352.833332,5.76 353.18,5.76 C353.84667,5.76 354.413331,5.8799988 354.88,6.12 C355.346669,6.3600012 355.723332,6.6699981 356.01,7.05 C356.296668,7.4300019 356.503333,7.8666642 356.63,8.36 C356.756667,8.8533358 356.82,9.3466642 356.82,9.84 L356.82,16 L353.52,16 Z M362.86,8.5 L362.86,12.3 C362.86,12.766669 362.949999,13.1166655 363.13,13.35 C363.310001,13.5833345 363.633331,13.7 364.1,13.7 C364.260001,13.7 364.429999,13.6866668 364.61,13.66 C364.790001,13.6333332 364.939999,13.5933336 365.06,13.54 L365.1,15.94 C364.873332,16.0200004 364.586668,16.0899997 364.24,16.15 C363.893332,16.2100003 363.546668,16.24 363.2,16.24 C362.53333,16.24 361.973336,16.1566675 361.52,15.99 C361.066664,15.8233325 360.703335,15.5833349 360.43,15.27 C360.156665,14.9566651 359.960001,14.5833355 359.84,14.15 C359.719999,13.7166645 359.66,13.233336 359.66,12.7 L359.66,8.5 L358.06,8.5 L358.06,6.04 L359.64,6.04 L359.64,3.42 L362.86,3.42 L362.86,6.04 L365.2,6.04 L365.2,8.5 L362.86,8.5 Z M373.6,9.88 C373.6,9.3599974 373.436668,8.9133352 373.11,8.54 C372.783332,8.1666648 372.293337,7.98 371.64,7.98 C371.319998,7.98 371.026668,8.0299995 370.76,8.13 C370.493332,8.2300005 370.260001,8.3666658 370.06,8.54 C369.859999,8.7133342 369.700001,8.9166655 369.58,9.15 C369.459999,9.3833345 369.393333,9.6266654 369.38,9.88 L373.6,9.88 Z M376.62,11.14 L376.62,11.54 C376.62,11.673334 376.613333,11.7999994 376.6,11.92 L369.38,11.92 C369.406667,12.2000014 369.489999,12.4533322 369.63,12.68 C369.770001,12.9066678 369.949999,13.1033325 370.17,13.27 C370.390001,13.4366675 370.636665,13.5666662 370.91,13.66 C371.183335,13.7533338 371.466665,13.8 371.76,13.8 C372.280003,13.8 372.719998,13.7033343 373.08,13.51 C373.440002,13.3166657 373.733332,13.0666682 373.96,12.76 L376.24,14.2 C375.773331,14.8800034 375.156671,15.4033315 374.39,15.77 C373.62333,16.1366685 372.733338,16.32 371.72,16.32 C370.97333,16.32 370.26667,16.2033345 369.6,15.97 C368.93333,15.7366655 368.350003,15.3966689 367.85,14.95 C367.349998,14.5033311 366.956668,13.9533366 366.67,13.3 C366.383332,12.6466634 366.24,11.9000042 366.24,11.06 C366.24,10.2466626 366.379999,9.5100033 366.66,8.85 C366.940001,8.1899967 367.319998,7.6300023 367.8,7.17 C368.280002,6.7099977 368.846663,6.3533346 369.5,6.1 C370.153337,5.8466654 370.859996,5.72 371.62,5.72 C372.353337,5.72 373.026664,5.8433321 373.64,6.09 C374.253336,6.3366679 374.779998,6.693331 375.22,7.16 C375.660002,7.626669 376.003332,8.19333 376.25,8.86 C376.496668,9.52667 376.62,10.2866624 376.62,11.14 Z M389.22,15.06 C389.22,16.0333382 389.080001,16.8799964 388.8,17.6 C388.519999,18.3200036 388.126669,18.9166643 387.62,19.39 C387.113331,19.8633357 386.49667,20.2166655 385.77,20.45 C385.04333,20.6833345 384.240004,20.8 383.36,20.8 C382.479996,20.8 381.576671,20.666668 380.65,20.4 C379.723329,20.133332 378.920003,19.7466692 378.24,19.24 L379.88,16.9 C380.360002,17.3266688 380.889997,17.6433323 381.47,17.85 C382.050003,18.0566677 382.619997,18.16 383.18,18.16 C384.140005,18.16 384.849998,17.9066692 385.31,17.4 C385.770002,16.8933308 386,16.2200042 386,15.38 L386,14.78 L385.94,14.78 C385.633332,15.180002 385.220003,15.4999988 384.7,15.74 C384.179997,15.9800012 383.58667,16.1 382.92,16.1 C382.159996,16.1 381.48667,15.9633347 380.9,15.69 C380.31333,15.4166653 379.816669,15.046669 379.41,14.58 C379.003331,14.113331 378.693334,13.5700031 378.48,12.95 C378.266666,12.3299969 378.16,11.6733368 378.16,10.98 C378.16,10.2866632 378.266666,9.6266698 378.48,9 C378.693334,8.3733302 379.003331,7.8200024 379.41,7.34 C379.816669,6.8599976 380.31333,6.4766681 380.9,6.19 C381.48667,5.9033319 382.15333,5.76 382.9,5.76 C383.52667,5.76 384.126664,5.8866654 384.7,6.14 C385.273336,6.3933346 385.733332,6.786664 386.08,7.32 L386.12,7.32 L386.12,6.04 L389.22,6.04 L389.22,15.06 Z M386.1,10.96 C386.1,10.626665 386.043334,10.3066682 385.93,10 C385.816666,9.6933318 385.653334,9.4233345 385.44,9.19 C385.226666,8.9566655 384.973335,8.773334 384.68,8.64 C384.386665,8.506666 384.053335,8.44 383.68,8.44 C383.306665,8.44 382.976668,8.506666 382.69,8.64 C382.403332,8.773334 382.160001,8.9533322 381.96,9.18 C381.759999,9.4066678 381.606667,9.6733318 381.5,9.98 C381.393333,10.2866682 381.34,10.6133316 381.34,10.96 C381.34,11.293335 381.393333,11.6133318 381.5,11.92 C381.606667,12.2266682 381.759999,12.4966655 381.96,12.73 C382.160001,12.9633345 382.403332,13.1499993 382.69,13.29 C382.976668,13.4300007 383.306665,13.5 383.68,13.5 C384.053335,13.5 384.389999,13.4300007 384.69,13.29 C384.990002,13.1499993 385.243332,12.9666678 385.45,12.74 C385.656668,12.5133322 385.816666,12.2466682 385.93,11.94 C386.043334,11.6333318 386.1,11.3066684 386.1,10.96 Z M398.28,8.72 C398.133333,8.6799998 397.990001,8.6533334 397.85,8.64 C397.709999,8.6266666 397.573334,8.62 397.44,8.62 C396.999998,8.62 396.630002,8.6999992 396.33,8.86 C396.029999,9.0200008 395.790001,9.2133322 395.61,9.44 C395.429999,9.6666678 395.3,9.913332 395.22,10.18 C395.14,10.446668 395.1,10.679999 395.1,10.88 L395.1,16 L391.82,16 L391.82,6.04 L394.98,6.04 L394.98,7.48 L395.02,7.48 C395.273335,6.9733308 395.633331,6.5600016 396.1,6.24 C396.566669,5.9199984 397.106664,5.76 397.72,5.76 C397.853334,5.76 397.983333,5.7666666 398.11,5.78 C398.236667,5.7933334 398.34,5.8133332 398.42,5.84 L398.28,8.72 Z M405.3,11.66 L404.88,11.66 C404.519998,11.66 404.156669,11.6766665 403.79,11.71 C403.423332,11.7433335 403.096668,11.8066662 402.81,11.9 C402.523332,11.9933338 402.286668,12.1299991 402.1,12.31 C401.913332,12.4900009 401.82,12.7266652 401.82,13.02 C401.82,13.2066676 401.863333,13.366666 401.95,13.5 C402.036667,13.633334 402.146666,13.7399996 402.28,13.82 C402.413334,13.9000004 402.566666,13.9566665 402.74,13.99 C402.913334,14.0233335 403.079999,14.04 403.24,14.04 C403.90667,14.04 404.416665,13.8566685 404.77,13.49 C405.123335,13.1233315 405.3,12.6266698 405.3,12 L405.3,11.66 Z M399.28,7.4 C399.86667,6.8399972 400.549996,6.4200014 401.33,6.14 C402.110004,5.8599986 402.906663,5.72 403.72,5.72 C404.560004,5.72 405.269997,5.8233323 405.85,6.03 C406.430003,6.2366677 406.899998,6.5566645 407.26,6.99 C407.620002,7.4233355 407.883333,7.9699967 408.05,8.63 C408.216668,9.2900033 408.3,10.0733288 408.3,10.98 L408.3,16 L405.3,16 L405.3,14.94 L405.24,14.94 C404.986665,15.3533354 404.603336,15.6733322 404.09,15.9 C403.576664,16.1266678 403.020003,16.24 402.42,16.24 C402.019998,16.24 401.606669,16.1866672 401.18,16.08 C400.753331,15.9733328 400.363335,15.8000012 400.01,15.56 C399.656665,15.3199988 399.366668,15.000002 399.14,14.6 C398.913332,14.199998 398.8,13.7066696 398.8,13.12 C398.8,12.3999964 398.996665,11.8200022 399.39,11.38 C399.783335,10.9399978 400.289997,10.6000012 400.91,10.36 C401.530003,10.1199988 402.219996,9.9600004 402.98,9.88 C403.740004,9.7999996 404.479996,9.76 405.2,9.76 L405.2,9.6 C405.2,9.1066642 405.026668,8.7433345 404.68,8.51 C404.333332,8.2766655 403.906669,8.16 403.4,8.16 C402.933331,8.16 402.483336,8.259999 402.05,8.46 C401.616665,8.660001 401.246668,8.8999986 400.94,9.18 L399.28,7.4 Z M414.1,8.5 L414.1,12.3 C414.1,12.766669 414.189999,13.1166655 414.37,13.35 C414.550001,13.5833345 414.873331,13.7 415.34,13.7 C415.500001,13.7 415.669999,13.6866668 415.85,13.66 C416.030001,13.6333332 416.179999,13.5933336 416.3,13.54 L416.34,15.94 C416.113332,16.0200004 415.826668,16.0899997 415.48,16.15 C415.133332,16.2100003 414.786668,16.24 414.44,16.24 C413.77333,16.24 413.213336,16.1566675 412.76,15.99 C412.306664,15.8233325 411.943335,15.5833349 411.67,15.27 C411.396665,14.9566651 411.200001,14.5833355 411.08,14.15 C410.959999,13.7166645 410.9,13.233336 410.9,12.7 L410.9,8.5 L409.3,8.5 L409.3,6.04 L410.88,6.04 L410.88,3.42 L414.1,3.42 L414.1,6.04 L416.44,6.04 L416.44,8.5 L414.1,8.5 Z M421.54,2.86 C421.54,3.1133346 421.490001,3.3499989 421.39,3.57 C421.29,3.7900011 421.156668,3.9799992 420.99,4.14 C420.823333,4.3000008 420.623335,4.4266662 420.39,4.52 C420.156666,4.6133338 419.913335,4.66 419.66,4.66 C419.126664,4.66 418.680002,4.4833351 418.32,4.13 C417.959998,3.7766649 417.78,3.3533358 417.78,2.86 C417.78,2.6199988 417.826666,2.3900011 417.92,2.17 C418.013334,1.9499989 418.146666,1.7600008 418.32,1.6 C418.493334,1.4399992 418.693332,1.3100005 418.92,1.21 C419.146668,1.1099995 419.393332,1.06 419.66,1.06 C419.913335,1.06 420.156666,1.1066662 420.39,1.2 C420.623335,1.2933338 420.823333,1.4199992 420.99,1.58 C421.156668,1.7400008 421.29,1.9299989 421.39,2.15 C421.490001,2.3700011 421.54,2.6066654 421.54,2.86 Z M418.02,16 L418.02,6.04 L421.3,6.04 L421.3,16 L418.02,16 Z M434.46,10.98 C434.46,11.7933374 434.313335,12.5299967 434.02,13.19 C433.726665,13.8500033 433.326669,14.4099977 432.82,14.87 C432.313331,15.3300023 431.72667,15.6866654 431.06,15.94 C430.39333,16.1933346 429.680004,16.32 428.92,16.32 C428.17333,16.32 427.463337,16.1933346 426.79,15.94 C426.116663,15.6866654 425.530003,15.3300023 425.03,14.87 C424.529998,14.4099977 424.133335,13.8500033 423.84,13.19 C423.546665,12.5299967 423.4,11.7933374 423.4,10.98 C423.4,10.1666626 423.546665,9.4333366 423.84,8.78 C424.133335,8.1266634 424.529998,7.5733356 425.03,7.12 C425.530003,6.6666644 426.116663,6.3200012 426.79,6.08 C427.463337,5.8399988 428.17333,5.72 428.92,5.72 C429.680004,5.72 430.39333,5.8399988 431.06,6.08 C431.72667,6.3200012 432.313331,6.6666644 432.82,7.12 C433.326669,7.5733356 433.726665,8.1266634 434.02,8.78 C434.313335,9.4333366 434.46,10.1666626 434.46,10.98 Z M431.3,10.98 C431.3,10.6599984 431.246667,10.3466682 431.14,10.04 C431.033333,9.7333318 430.880001,9.4633345 430.68,9.23 C430.479999,8.9966655 430.233335,8.8066674 429.94,8.66 C429.646665,8.5133326 429.306669,8.44 428.92,8.44 C428.533331,8.44 428.193335,8.5133326 427.9,8.66 C427.606665,8.8066674 427.363334,8.9966655 427.17,9.23 C426.976666,9.4633345 426.830001,9.7333318 426.73,10.04 C426.63,10.3466682 426.58,10.6599984 426.58,10.98 C426.58,11.3000016 426.63,11.6133318 426.73,11.92 C426.830001,12.2266682 426.979999,12.5033321 427.18,12.75 C427.380001,12.9966679 427.626665,13.1933326 427.92,13.34 C428.213335,13.4866674 428.553331,13.56 428.94,13.56 C429.326669,13.56 429.666665,13.4866674 429.96,13.34 C430.253335,13.1933326 430.499999,12.9966679 430.7,12.75 C430.900001,12.5033321 431.05,12.2266682 431.15,11.92 C431.250001,11.6133318 431.3,11.3000016 431.3,10.98 Z M443.08,16 L443.08,10.56 C443.08,10.2799986 443.056667,10.0133346 443.01,9.76 C442.963333,9.5066654 442.886667,9.2833343 442.78,9.09 C442.673333,8.8966657 442.523334,8.7433339 442.33,8.63 C442.136666,8.5166661 441.893335,8.46 441.6,8.46 C441.306665,8.46 441.050001,8.5166661 440.83,8.63 C440.609999,8.7433339 440.426667,8.899999 440.28,9.1 C440.133333,9.300001 440.023334,9.5299987 439.95,9.79 C439.876666,10.0500013 439.84,10.3199986 439.84,10.6 L439.84,16 L436.54,16 L436.54,6.04 L439.72,6.04 L439.72,7.42 L439.76,7.42 C439.880001,7.2066656 440.036666,6.9966677 440.23,6.79 C440.423334,6.5833323 440.649999,6.4066674 440.91,6.26 C441.170001,6.1133326 441.453332,5.9933338 441.76,5.9 C442.066668,5.8066662 442.393332,5.76 442.74,5.76 C443.40667,5.76 443.973331,5.8799988 444.44,6.12 C444.906669,6.3600012 445.283332,6.6699981 445.57,7.05 C445.856668,7.4300019 446.063333,7.8666642 446.19,8.36 C446.316667,8.8533358 446.38,9.3466642 446.38,9.84 L446.38,16 L443.08,16 Z M454.72,8.98 C454.453332,8.7266654 454.140002,8.5133342 453.78,8.34 C453.419998,8.1666658 453.040002,8.08 452.64,8.08 C452.333332,8.08 452.050001,8.1399994 451.79,8.26 C451.529999,8.3800006 451.4,8.5866652 451.4,8.88 C451.4,9.1600014 451.543332,9.3599994 451.83,9.48 C452.116668,9.6000006 452.579997,9.7333326 453.22,9.88 C453.593335,9.9600004 453.969998,10.0733326 454.35,10.22 C454.730002,10.3666674 455.073332,10.5599988 455.38,10.8 C455.686668,11.0400012 455.933332,11.3333316 456.12,11.68 C456.306668,12.0266684 456.4,12.4399976 456.4,12.92 C456.4,13.5466698 456.273335,14.0766645 456.02,14.51 C455.766665,14.9433355 455.436669,15.293332 455.03,15.56 C454.623331,15.826668 454.166669,16.0199994 453.66,16.14 C453.153331,16.2600006 452.646669,16.32 452.14,16.32 C451.326663,16.32 450.530004,16.1900013 449.75,15.93 C448.969996,15.6699987 448.320003,15.2866692 447.8,14.78 L449.64,12.84 C449.933335,13.1600016 450.293331,13.4266656 450.72,13.64 C451.146669,13.8533344 451.599998,13.96 452.08,13.96 C452.346668,13.96 452.609999,13.8966673 452.87,13.77 C453.130001,13.6433327 453.26,13.4200016 453.26,13.1 C453.26,12.7933318 453.100002,12.5666674 452.78,12.42 C452.459998,12.2733326 451.960003,12.1200008 451.28,11.96 C450.933332,11.8799996 450.586668,11.773334 450.24,11.64 C449.893332,11.506666 449.583335,11.3266678 449.31,11.1 C449.036665,10.8733322 448.813334,10.593335 448.64,10.26 C448.466666,9.926665 448.38,9.526669 448.38,9.06 C448.38,8.459997 448.506665,7.9500021 448.76,7.53 C449.013335,7.1099979 449.339998,6.766668 449.74,6.5 C450.140002,6.233332 450.583331,6.0366673 451.07,5.91 C451.556669,5.7833327 452.039998,5.72 452.52,5.72 C453.26667,5.72 453.996663,5.8366655 454.71,6.07 C455.423337,6.3033345 456.026664,6.653331 456.52,7.12 L454.72,8.98 Z" id="Product-Feature" fill="#FFFFFF"></path>
                    <path d="M13.3,16 L13.38,5.98 L13.32,5.98 L9.64,16 L7.24,16 L3.66,5.98 L3.6,5.98 L3.68,16 L0.46,16 L0.46,1.84 L5.32,1.84 L8.54,10.92 L8.62,10.92 L11.7,1.84 L16.64,1.84 L16.64,16 L13.3,16 Z M29.94,10.98 C29.94,11.7933374 29.7933348,12.5299967 29.5,13.19 C29.2066652,13.8500033 28.8066692,14.4099977 28.3,14.87 C27.7933308,15.3300023 27.20667,15.6866654 26.54,15.94 C25.87333,16.1933346 25.1600038,16.32 24.4,16.32 C23.6533296,16.32 22.9433367,16.1933346 22.27,15.94 C21.5966633,15.6866654 21.0100025,15.3300023 20.51,14.87 C20.0099975,14.4099977 19.6133348,13.8500033 19.32,13.19 C19.0266652,12.5299967 18.88,11.7933374 18.88,10.98 C18.88,10.1666626 19.0266652,9.4333366 19.32,8.78 C19.6133348,8.1266634 20.0099975,7.5733356 20.51,7.12 C21.0100025,6.6666644 21.5966633,6.3200012 22.27,6.08 C22.9433367,5.8399988 23.6533296,5.72 24.4,5.72 C25.1600038,5.72 25.87333,5.8399988 26.54,6.08 C27.20667,6.3200012 27.7933308,6.6666644 28.3,7.12 C28.8066692,7.5733356 29.2066652,8.1266634 29.5,8.78 C29.7933348,9.4333366 29.94,10.1666626 29.94,10.98 Z M26.78,10.98 C26.78,10.6599984 26.7266672,10.3466682 26.62,10.04 C26.5133328,9.7333318 26.360001,9.4633345 26.16,9.23 C25.959999,8.9966655 25.7133348,8.8066674 25.42,8.66 C25.1266652,8.5133326 24.7866686,8.44 24.4,8.44 C24.0133314,8.44 23.6733348,8.5133326 23.38,8.66 C23.0866652,8.8066674 22.8433343,8.9966655 22.65,9.23 C22.4566657,9.4633345 22.3100005,9.7333318 22.21,10.04 C22.1099995,10.3466682 22.06,10.6599984 22.06,10.98 C22.06,11.3000016 22.1099995,11.6133318 22.21,11.92 C22.3100005,12.2266682 22.459999,12.5033321 22.66,12.75 C22.860001,12.9966679 23.1066652,13.1933326 23.4,13.34 C23.6933348,13.4866674 24.0333314,13.56 24.42,13.56 C24.8066686,13.56 25.1466652,13.4866674 25.44,13.34 C25.7333348,13.1933326 25.979999,12.9966679 26.18,12.75 C26.380001,12.5033321 26.5299995,12.2266682 26.63,11.92 C26.7300005,11.6133318 26.78,11.3000016 26.78,10.98 Z M38.18,16 L34.64,16 L30.72,6.04 L34.34,6.04 L36.44,12.5 L36.5,12.5 L38.6,6.04 L42.1,6.04 L38.18,16 Z M49.24,11.66 L48.82,11.66 C48.4599982,11.66 48.0966685,11.6766665 47.73,11.71 C47.3633315,11.7433335 47.0366681,11.8066662 46.75,11.9 C46.4633319,11.9933338 46.2266676,12.1299991 46.04,12.31 C45.8533324,12.4900009 45.76,12.7266652 45.76,13.02 C45.76,13.2066676 45.8033329,13.366666 45.89,13.5 C45.9766671,13.633334 46.086666,13.7399996 46.22,13.82 C46.353334,13.9000004 46.5066658,13.9566665 46.68,13.99 C46.8533342,14.0233335 47.0199992,14.04 47.18,14.04 C47.84667,14.04 48.3566649,13.8566685 48.71,13.49 C49.0633351,13.1233315 49.24,12.6266698 49.24,12 L49.24,11.66 Z M43.22,7.4 C43.8066696,6.8399972 44.4899961,6.4200014 45.27,6.14 C46.0500039,5.8599986 46.8466626,5.72 47.66,5.72 C48.5000042,5.72 49.2099971,5.8233323 49.79,6.03 C50.3700029,6.2366677 50.8399982,6.5566645 51.2,6.99 C51.5600018,7.4233355 51.8233325,7.9699967 51.99,8.63 C52.1566675,9.2900033 52.24,10.0733288 52.24,10.98 L52.24,16 L49.24,16 L49.24,14.94 L49.18,14.94 C48.9266654,15.3533354 48.5433359,15.6733322 48.03,15.9 C47.5166641,16.1266678 46.960003,16.24 46.36,16.24 C45.959998,16.24 45.5466688,16.1866672 45.12,16.08 C44.6933312,15.9733328 44.3033351,15.8000012 43.95,15.56 C43.5966649,15.3199988 43.3066678,15.000002 43.08,14.6 C42.8533322,14.199998 42.74,13.7066696 42.74,13.12 C42.74,12.3999964 42.9366647,11.8200022 43.33,11.38 C43.7233353,10.9399978 44.2299969,10.6000012 44.85,10.36 C45.4700031,10.1199988 46.1599962,9.9600004 46.92,9.88 C47.6800038,9.7999996 48.4199964,9.76 49.14,9.76 L49.14,9.6 C49.14,9.1066642 48.9666684,8.7433345 48.62,8.51 C48.2733316,8.2766655 47.8466692,8.16 47.34,8.16 C46.873331,8.16 46.4233355,8.259999 45.99,8.46 C45.5566645,8.660001 45.1866682,8.8999986 44.88,9.18 L43.22,7.4 Z M65.78,10.98 C65.78,11.6733368 65.6733344,12.3399968 65.46,12.98 C65.2466656,13.6200032 64.9366687,14.1833309 64.53,14.67 C64.1233313,15.1566691 63.6266696,15.5466652 63.04,15.84 C62.4533304,16.1333348 61.7866704,16.28 61.04,16.28 C60.37333,16.28 59.7433363,16.1433347 59.15,15.87 C58.5566637,15.5966653 58.1000016,15.2066692 57.78,14.7 L57.74,14.7 L57.74,16 L54.72,16 L54.72,0.88 L58,0.88 L58,7.1 L58.04,7.1 C58.3200014,6.766665 58.7133308,6.4600014 59.22,6.18 C59.7266692,5.8999986 60.346663,5.76 61.08,5.76 C61.8000036,5.76 62.4499971,5.8999986 63.03,6.18 C63.6100029,6.4600014 64.1033313,6.8399976 64.51,7.32 C64.9166687,7.8000024 65.2299989,8.3566635 65.45,8.99 C65.6700011,9.6233365 65.78,10.2866632 65.78,10.98 Z M62.62,10.98 C62.62,10.6599984 62.5700005,10.3466682 62.47,10.04 C62.3699995,9.7333318 62.220001,9.4633345 62.02,9.23 C61.819999,8.9966655 61.5733348,8.8066674 61.28,8.66 C60.9866652,8.5133326 60.6466686,8.44 60.26,8.44 C59.8866648,8.44 59.5533348,8.5133326 59.26,8.66 C58.9666652,8.8066674 58.7166677,8.9999988 58.51,9.24 C58.3033323,9.4800012 58.1433339,9.7533318 58.03,10.06 C57.9166661,10.3666682 57.86,10.6799984 57.86,11 C57.86,11.3200016 57.9166661,11.6333318 58.03,11.94 C58.1433339,12.2466682 58.3033323,12.5199988 58.51,12.76 C58.7166677,13.0000012 58.9666652,13.1933326 59.26,13.34 C59.5533348,13.4866674 59.8866648,13.56 60.26,13.56 C60.6466686,13.56 60.9866652,13.4866674 61.28,13.34 C61.5733348,13.1933326 61.819999,13.0000012 62.02,12.76 C62.220001,12.5199988 62.3699995,12.2433349 62.47,11.93 C62.5700005,11.6166651 62.62,11.3000016 62.62,10.98 Z M67.9,16 L67.9,0.88 L71.22,0.88 L71.22,16 L67.9,16 Z M80.68,9.88 C80.68,9.3599974 80.5166683,8.9133352 80.19,8.54 C79.8633317,8.1666648 79.3733366,7.98 78.72,7.98 C78.3999984,7.98 78.106668,8.0299995 77.84,8.13 C77.573332,8.2300005 77.340001,8.3666658 77.14,8.54 C76.939999,8.7133342 76.7800006,8.9166655 76.66,9.15 C76.5399994,9.3833345 76.4733334,9.6266654 76.46,9.88 L80.68,9.88 Z M83.7,11.14 L83.7,11.54 C83.7,11.673334 83.6933334,11.7999994 83.68,11.92 L76.46,11.92 C76.4866668,12.2000014 76.5699993,12.4533322 76.71,12.68 C76.8500007,12.9066678 77.0299989,13.1033325 77.25,13.27 C77.4700011,13.4366675 77.7166653,13.5666662 77.99,13.66 C78.2633347,13.7533338 78.5466652,13.8 78.84,13.8 C79.3600026,13.8 79.7999982,13.7033343 80.16,13.51 C80.5200018,13.3166657 80.8133322,13.0666682 81.04,12.76 L83.32,14.2 C82.853331,14.8800034 82.2366705,15.4033315 81.47,15.77 C80.7033295,16.1366685 79.8133384,16.32 78.8,16.32 C78.0533296,16.32 77.34667,16.2033345 76.68,15.97 C76.01333,15.7366655 75.4300025,15.3966689 74.93,14.95 C74.4299975,14.5033311 74.0366681,13.9533366 73.75,13.3 C73.4633319,12.6466634 73.32,11.9000042 73.32,11.06 C73.32,10.2466626 73.4599986,9.5100033 73.74,8.85 C74.0200014,8.1899967 74.3999976,7.6300023 74.88,7.17 C75.3600024,6.7099977 75.9266634,6.3533346 76.58,6.1 C77.2333366,5.8466654 77.9399962,5.72 78.7,5.72 C79.433337,5.72 80.1066636,5.8433321 80.72,6.09 C81.3333364,6.3366679 81.8599978,6.693331 82.3,7.16 C82.7400022,7.626669 83.0833321,8.19333 83.33,8.86 C83.5766679,9.52667 83.7,10.2866624 83.7,11.14 Z M90.92,16 L90.92,1.84 L94.36,1.84 L94.36,16 L90.92,16 Z M103.64,16 L103.64,10.56 C103.64,10.2799986 103.616667,10.0133346 103.57,9.76 C103.523333,9.5066654 103.446667,9.2833343 103.34,9.09 C103.233333,8.8966657 103.083334,8.7433339 102.89,8.63 C102.696666,8.5166661 102.453335,8.46 102.16,8.46 C101.866665,8.46 101.610001,8.5166661 101.39,8.63 C101.169999,8.7433339 100.986667,8.899999 100.84,9.1 C100.693333,9.300001 100.583334,9.5299987 100.51,9.79 C100.436666,10.0500013 100.4,10.3199986 100.4,10.6 L100.4,16 L97.1,16 L97.1,6.04 L100.28,6.04 L100.28,7.42 L100.32,7.42 C100.440001,7.2066656 100.596666,6.9966677 100.79,6.79 C100.983334,6.5833323 101.209999,6.4066674 101.47,6.26 C101.730001,6.1133326 102.013332,5.9933338 102.32,5.9 C102.626668,5.8066662 102.953332,5.76 103.3,5.76 C103.96667,5.76 104.533331,5.8799988 105,6.12 C105.466669,6.3600012 105.843332,6.6699981 106.13,7.05 C106.416668,7.4300019 106.623333,7.8666642 106.75,8.36 C106.876667,8.8533358 106.94,9.3466642 106.94,9.84 L106.94,16 L103.64,16 Z M120.12,16 L116.06,16 L112.8,11.22 L112.74,11.22 L112.74,16 L109.44,16 L109.44,0.88 L112.74,0.88 L112.74,10.08 L112.8,10.08 L115.98,6.04 L119.96,6.04 L116.12,10.54 L120.12,16 Z M125.32,7.8 C125.32,8.066668 125.266667,8.3166655 125.16,8.55 C125.053333,8.7833345 124.913334,8.9866658 124.74,9.16 C124.566666,9.3333342 124.360001,9.4699995 124.12,9.57 C123.879999,9.6700005 123.633335,9.72 123.38,9.72 C123.113332,9.72 122.860001,9.6733338 122.62,9.58 C122.379999,9.4866662 122.170001,9.3533342 121.99,9.18 C121.809999,9.0066658 121.666667,8.8066678 121.56,8.58 C121.453333,8.3533322 121.4,8.106668 121.4,7.84 C121.4,7.573332 121.453333,7.3233345 121.56,7.09 C121.666667,6.8566655 121.809999,6.6533342 121.99,6.48 C122.170001,6.3066658 122.379999,6.1700005 122.62,6.07 C122.860001,5.9699995 123.113332,5.92 123.38,5.92 C123.633335,5.92 123.879999,5.9699995 124.12,6.07 C124.360001,6.1700005 124.566666,6.3033325 124.74,6.47 C124.913334,6.6366675 125.053333,6.8366655 125.16,7.07 C125.266667,7.3033345 125.32,7.5466654 125.32,7.8 Z M125.32,14.22 C125.32,14.486668 125.266667,14.7366655 125.16,14.97 C125.053333,15.2033345 124.913334,15.4033325 124.74,15.57 C124.566666,15.7366675 124.360001,15.8699995 124.12,15.97 C123.879999,16.0700005 123.633335,16.12 123.38,16.12 C123.113332,16.12 122.860001,16.0733338 122.62,15.98 C122.379999,15.8866662 122.170001,15.7533342 121.99,15.58 C121.809999,15.4066658 121.666667,15.2066678 121.56,14.98 C121.453333,14.7533322 121.4,14.506668 121.4,14.24 C121.4,13.973332 121.453333,13.7233345 121.56,13.49 C121.666667,13.2566655 121.809999,13.0533342 121.99,12.88 C122.170001,12.7066658 122.379999,12.5700005 122.62,12.47 C122.860001,12.3699995 123.113332,12.32 123.38,12.32 C123.633335,12.32 123.879999,12.3699995 124.12,12.47 C124.360001,12.5700005 124.566666,12.7033325 124.74,12.87 C124.913334,13.0366675 125.053333,13.2366655 125.16,13.47 C125.266667,13.7033345 125.32,13.953332 125.32,14.22 Z" id="MI:" fill="#B8E986"></path>
                </g>
                <rect id="Thumbnail-Container" fill="#666666" x="0" y="96" width="860" height="330"></rect>
            </g>
        </g>
    </g>
</svg>