<?xml version="1.0" encoding="UTF-8"?>
<svg width="88px" height="30px" viewBox="0 0 88 30" version="1.1" xmlns="http://www.w3.org/2000/svg" xmlns:xlink="http://www.w3.org/1999/xlink">
    <!-- Generator: Sketch 49 (51002) - http://www.bohemiancoding.com/sketch -->
    <title>Contact Info@2x</title>
    <desc>Created with Sketch.</desc>
    <defs></defs>
    <g id="Home" stroke="none" stroke-width="1" fill="none" fill-rule="evenodd">
        <g id="Desktop" transform="translate(-854.000000, -125.000000)" fill="#FFFFFF">
            <g id="Contact-Info" transform="translate(854.000000, 125.000000)">
                <g id="Inverse" transform="translate(0.000000, 3.000000)">
                    <path d="M32.3529412,3.19181994 L17.4037856,14.6363017 C16.7629601,15.1515742 15.645654,15.152868 14.9998501,14.6350637 L-5.55111512e-17,3.05731444 L0,0.995457033 C0,0.445681294 0.457351348,0 1.00373626,0 L31.3492049,0 C31.9035531,0 32.3529412,0.455262884 32.3529412,0.995457033 L32.3529412,3.19181994 Z M32.3529412,6.64841796 L32.3529412,22.9964051 C32.3529412,24.10296 31.4538714,25 30.3535353,25 L1.9994059,25 C0.895164512,25 0,24.1102368 0,22.9964051 L0,6.52640811 L13.033848,16.5866835 C14.7994658,18.0023528 17.6147703,17.9990926 19.3728716,16.5854455 L32.3529412,6.64841796 Z" id="Shape"></path>
                </g>
                <path d="M58,15 C58,6.71572834 64.7157283,0 73,0 C81.2842717,0 88,6.71572834 88,15 C88,23.2842717 81.2842717,30 73,30 C64.7157283,30 58,23.2842717 58,15 Z M68.6003387,12.4236552 L65.2010107,12.4236552 L65.2010107,22.6372248 L68.6003387,22.6372248 L68.6003387,12.4236552 Z M68.8242271,9.26418606 C68.8021641,8.26275203 68.0860337,7.5 66.923145,7.5 C65.7602563,7.5 65,8.26275203 65,9.26418606 C65,10.2448769 65.737786,11.0295923 66.8790191,11.0295923 L66.9007426,11.0295923 C68.0860337,11.0295923 68.8242271,10.2448769 68.8242271,9.26418606 Z M80.859616,16.7810761 C80.859616,13.6439093 79.1826259,12.1838208 76.9457114,12.1838208 C75.1408919,12.1838208 74.3328437,13.1751544 73.8816728,13.8705928 L73.8816728,12.4239263 L70.4819375,12.4239263 C70.5267423,13.3823149 70.4819375,22.637496 70.4819375,22.637496 L73.8816728,22.637496 L73.8816728,16.9333961 C73.8816728,16.6281461 73.9037358,16.3236418 73.993617,16.1050929 C74.2392967,15.4952709 74.7986781,14.8638923 75.7378142,14.8638923 C76.9683854,14.8638923 77.460288,15.8004531 77.460288,17.1729593 L77.460288,22.6372248 L80.8594802,22.6372248 L80.859616,16.7810761 Z" id="Combined-Shape"></path>
            </g>
        </g>
    </g>
</svg>