<?xml version="1.0" encoding="UTF-8"?>

<svg width="359px" height="37px" viewBox="0 0 359 37" version="1.1" xmlns="http://www.w3.org/2000/svg" xmlns:xlink="http://www.w3.org/1999/xlink">
    <!-- Generator: Sketch 49.1 (51147) - http://www.bohemiancoding.com/sketch -->
    <desc>Created with Sketch.</desc>
    <defs></defs>
    <g id="Home" stroke="none" stroke-width="1" fill="none" fill-rule="evenodd">
        <g id="Desktop" transform="translate(-82.000000, -123.000000)">
            <g id="Header" transform="translate(82.000000, 123.000000)">
                <path d="M214.416,10.72 L218.52,10.72 L218.52,13.312 L218.592,13.312 C219.216003,12.2559947 220.055995,11.4880024 221.112,11.008 C222.168005,10.5279976 223.307994,10.288 224.532,10.288 C225.852007,10.288 227.039995,10.5219977 228.096,10.99 C229.152005,11.4580023 230.051996,12.0999959 230.796,12.916 C231.540004,13.7320041 232.103998,14.6919945 232.488,15.796 C232.872002,16.9000055 233.064,18.0879936 233.064,19.36 C233.064,20.6320064 232.860002,21.8199945 232.452,22.924 C232.043998,24.0280055 231.474004,24.9879959 230.742,25.804 C230.009996,26.6200041 229.128005,27.2619977 228.096,27.73 C227.063995,28.1980023 225.936006,28.432 224.712,28.432 C223.895996,28.432 223.176003,28.3480008 222.552,28.18 C221.927997,28.0119992 221.376002,27.7960013 220.896,27.532 C220.415998,27.2679987 220.008002,26.9860015 219.672,26.686 C219.335998,26.3859985 219.060001,26.0920014 218.844,25.804 L218.736,25.804 L218.736,36.208 L214.416,36.208 L214.416,10.72 Z M228.744,19.36 C228.744,18.6879966 228.630001,18.0400031 228.402,17.416 C228.173999,16.7919969 227.838002,16.2400024 227.394,15.76 C226.949998,15.2799976 226.416003,14.8960014 225.792,14.608 C225.167997,14.3199986 224.460004,14.176 223.668,14.176 C222.875996,14.176 222.168003,14.3199986 221.544,14.608 C220.919997,14.8960014 220.386002,15.2799976 219.942,15.76 C219.497998,16.2400024 219.162001,16.7919969 218.934,17.416 C218.705999,18.0400031 218.592,18.6879966 218.592,19.36 C218.592,20.0320034 218.705999,20.6799969 218.934,21.304 C219.162001,21.9280031 219.497998,22.4799976 219.942,22.96 C220.386002,23.4400024 220.919997,23.8239986 221.544,24.112 C222.168003,24.4000014 222.875996,24.544 223.668,24.544 C224.460004,24.544 225.167997,24.4000014 225.792,24.112 C226.416003,23.8239986 226.949998,23.4400024 227.394,22.96 C227.838002,22.4799976 228.173999,21.9280031 228.402,21.304 C228.630001,20.6799969 228.744,20.0320034 228.744,19.36 Z M236.232,19.36 C236.232,17.9919932 236.477998,16.7500056 236.97,15.634 C237.462002,14.5179944 238.127996,13.564004 238.968,12.772 C239.808004,11.979996 240.803994,11.3680022 241.956,10.936 C243.108006,10.5039978 244.331994,10.288 245.628,10.288 C246.924006,10.288 248.147994,10.5039978 249.3,10.936 C250.452006,11.3680022 251.447996,11.979996 252.288,12.772 C253.128004,13.564004 253.793998,14.5179944 254.286,15.634 C254.778002,16.7500056 255.024,17.9919932 255.024,19.36 C255.024,20.7280068 254.778002,21.9699944 254.286,23.086 C253.793998,24.2020056 253.128004,25.155996 252.288,25.948 C251.447996,26.740004 250.452006,27.3519978 249.3,27.784 C248.147994,28.2160022 246.924006,28.432 245.628,28.432 C244.331994,28.432 243.108006,28.2160022 241.956,27.784 C240.803994,27.3519978 239.808004,26.740004 238.968,25.948 C238.127996,25.155996 237.462002,24.2020056 236.97,23.086 C236.477998,21.9699944 236.232,20.7280068 236.232,19.36 Z M240.552,19.36 C240.552,20.0320034 240.665999,20.6799969 240.894,21.304 C241.122001,21.9280031 241.457998,22.4799976 241.902,22.96 C242.346002,23.4400024 242.879997,23.8239986 243.504,24.112 C244.128003,24.4000014 244.835996,24.544 245.628,24.544 C246.420004,24.544 247.127997,24.4000014 247.752,24.112 C248.376003,23.8239986 248.909998,23.4400024 249.354,22.96 C249.798002,22.4799976 250.133999,21.9280031 250.362,21.304 C250.590001,20.6799969 250.704,20.0320034 250.704,19.36 C250.704,18.6879966 250.590001,18.0400031 250.362,17.416 C250.133999,16.7919969 249.798002,16.2400024 249.354,15.76 C248.909998,15.2799976 248.376003,14.8960014 247.752,14.608 C247.127997,14.3199986 246.420004,14.176 245.628,14.176 C244.835996,14.176 244.128003,14.3199986 243.504,14.608 C242.879997,14.8960014 242.346002,15.2799976 241.902,15.76 C241.457998,16.2400024 241.122001,16.7919969 240.894,17.416 C240.665999,18.0400031 240.552,18.6879966 240.552,19.36 Z M259.056,10.72 L263.376,10.72 L263.376,13.456 L263.448,13.456 C263.928002,12.447995 264.611996,11.6680028 265.5,11.116 C266.388004,10.5639972 267.407994,10.288 268.56,10.288 C268.824001,10.288 269.081999,10.3119998 269.334,10.36 C269.586001,10.4080002 269.843999,10.4679996 270.108,10.54 L270.108,14.716 C269.747998,14.6199995 269.394002,14.5420003 269.046,14.482 C268.697998,14.4219997 268.356002,14.392 268.02,14.392 C267.011995,14.392 266.202003,14.5779981 265.59,14.95 C264.977997,15.3220019 264.510002,15.7479976 264.186,16.228 C263.861998,16.7080024 263.646001,17.1879976 263.538,17.668 C263.429999,18.1480024 263.376,18.5079988 263.376,18.748 L263.376,28 L259.056,28 L259.056,10.72 Z M271.044,14.392 L271.044,10.72 L274.608,10.72 L274.608,5.716 L278.928,5.716 L278.928,10.72 L283.68,10.72 L283.68,14.392 L278.928,14.392 L278.928,21.952 C278.928,22.8160043 279.089998,23.4999975 279.414,24.004 C279.738002,24.5080025 280.379995,24.76 281.34,24.76 C281.724002,24.76 282.143998,24.7180004 282.6,24.634 C283.056002,24.5499996 283.415999,24.412001 283.68,24.22 L283.68,27.856 C283.223998,28.0720011 282.666003,28.2219996 282.006,28.306 C281.345997,28.3900004 280.764003,28.432 280.26,28.432 C279.107994,28.432 278.166004,28.3060013 277.434,28.054 C276.701996,27.8019987 276.126002,27.4180026 275.706,26.902 C275.285998,26.3859974 274.998001,25.7440038 274.842,24.976 C274.685999,24.2079962 274.608,23.320005 274.608,22.312 L274.608,14.392 L271.044,14.392 Z M288.648,14.392 L285.084,14.392 L285.084,10.72 L288.648,10.72 L288.648,8.272 C288.648,7.071994 288.731999,5.98600486 288.9,5.014 C289.068001,4.04199514 289.385998,3.20800348 289.854,2.512 C290.322002,1.81599652 290.975996,1.28200186 291.816,0.91 C292.656004,0.53799814 293.747993,0.352 295.092,0.352 C296.076005,0.352 296.987996,0.43599916 297.828,0.604 L297.54,4.276 C297.227998,4.20399964 296.928001,4.14400024 296.64,4.096 C296.351999,4.04799976 296.052002,4.024 295.74,4.024 C295.139997,4.024 294.660002,4.11999904 294.3,4.312 C293.939998,4.50400096 293.658001,4.76199838 293.454,5.086 C293.249999,5.41000162 293.118,5.78799784 293.058,6.22 C292.998,6.65200216 292.968,7.1079976 292.968,7.588 L292.968,10.72 L296.964,10.72 L296.964,14.392 L292.968,14.392 L292.968,28 L288.648,28 L288.648,14.392 Z M298.908,19.36 C298.908,17.9919932 299.153998,16.7500056 299.646,15.634 C300.138002,14.5179944 300.803996,13.564004 301.644,12.772 C302.484004,11.979996 303.479994,11.3680022 304.632,10.936 C305.784006,10.5039978 307.007994,10.288 308.304,10.288 C309.600006,10.288 310.823994,10.5039978 311.976,10.936 C313.128006,11.3680022 314.123996,11.979996 314.964,12.772 C315.804004,13.564004 316.469998,14.5179944 316.962,15.634 C317.454002,16.7500056 317.7,17.9919932 317.7,19.36 C317.7,20.7280068 317.454002,21.9699944 316.962,23.086 C316.469998,24.2020056 315.804004,25.155996 314.964,25.948 C314.123996,26.740004 313.128006,27.3519978 311.976,27.784 C310.823994,28.2160022 309.600006,28.432 308.304,28.432 C307.007994,28.432 305.784006,28.2160022 304.632,27.784 C303.479994,27.3519978 302.484004,26.740004 301.644,25.948 C300.803996,25.155996 300.138002,24.2020056 299.646,23.086 C299.153998,21.9699944 298.908,20.7280068 298.908,19.36 Z M303.228,19.36 C303.228,20.0320034 303.341999,20.6799969 303.57,21.304 C303.798001,21.9280031 304.133998,22.4799976 304.578,22.96 C305.022002,23.4400024 305.555997,23.8239986 306.18,24.112 C306.804003,24.4000014 307.511996,24.544 308.304,24.544 C309.096004,24.544 309.803997,24.4000014 310.428,24.112 C311.052003,23.8239986 311.585998,23.4400024 312.03,22.96 C312.474002,22.4799976 312.809999,21.9280031 313.038,21.304 C313.266001,20.6799969 313.38,20.0320034 313.38,19.36 C313.38,18.6879966 313.266001,18.0400031 313.038,17.416 C312.809999,16.7919969 312.474002,16.2400024 312.03,15.76 C311.585998,15.2799976 311.052003,14.8960014 310.428,14.608 C309.803997,14.3199986 309.096004,14.176 308.304,14.176 C307.511996,14.176 306.804003,14.3199986 306.18,14.608 C305.555997,14.8960014 305.022002,15.2799976 304.578,15.76 C304.133998,16.2400024 303.798001,16.7919969 303.57,17.416 C303.341999,18.0400031 303.228,18.6879966 303.228,19.36 Z M321.804,0.784 L326.124,0.784 L326.124,28 L321.804,28 L321.804,0.784 Z M331.2,10.72 L335.52,10.72 L335.52,28 L331.2,28 L331.2,10.72 Z M330.588,4.852 C330.588,4.15599652 330.845997,3.55000258 331.362,3.034 C331.878003,2.51799742 332.531996,2.26 333.324,2.26 C334.116004,2.26 334.781997,2.50599754 335.322,2.998 C335.862003,3.49000246 336.132,4.10799628 336.132,4.852 C336.132,5.59600372 335.862003,6.21399754 335.322,6.706 C334.781997,7.19800246 334.116004,7.444 333.324,7.444 C332.531996,7.444 331.878003,7.18600258 331.362,6.67 C330.845997,6.15399742 330.588,5.54800348 330.588,4.852 Z M339.624,19.36 C339.624,17.9919932 339.869998,16.7500056 340.362,15.634 C340.854002,14.5179944 341.519996,13.564004 342.36,12.772 C343.200004,11.979996 344.195994,11.3680022 345.348,10.936 C346.500006,10.5039978 347.723994,10.288 349.02,10.288 C350.316006,10.288 351.539994,10.5039978 352.692,10.936 C353.844006,11.3680022 354.839996,11.979996 355.68,12.772 C356.520004,13.564004 357.185998,14.5179944 357.678,15.634 C358.170002,16.7500056 358.416,17.9919932 358.416,19.36 C358.416,20.7280068 358.170002,21.9699944 357.678,23.086 C357.185998,24.2020056 356.520004,25.155996 355.68,25.948 C354.839996,26.740004 353.844006,27.3519978 352.692,27.784 C351.539994,28.2160022 350.316006,28.432 349.02,28.432 C347.723994,28.432 346.500006,28.2160022 345.348,27.784 C344.195994,27.3519978 343.200004,26.740004 342.36,25.948 C341.519996,25.155996 340.854002,24.2020056 340.362,23.086 C339.869998,21.9699944 339.624,20.7280068 339.624,19.36 Z M343.944,19.36 C343.944,20.0320034 344.057999,20.6799969 344.286,21.304 C344.514001,21.9280031 344.849998,22.4799976 345.294,22.96 C345.738002,23.4400024 346.271997,23.8239986 346.896,24.112 C347.520003,24.4000014 348.227996,24.544 349.02,24.544 C349.812004,24.544 350.519997,24.4000014 351.144,24.112 C351.768003,23.8239986 352.301998,23.4400024 352.746,22.96 C353.190002,22.4799976 353.525999,21.9280031 353.754,21.304 C353.982001,20.6799969 354.096,20.0320034 354.096,19.36 C354.096,18.6879966 353.982001,18.0400031 353.754,17.416 C353.525999,16.7919969 353.190002,16.2400024 352.746,15.76 C352.301998,15.2799976 351.768003,14.8960014 351.144,14.608 C350.519997,14.3199986 349.812004,14.176 349.02,14.176 C348.227996,14.176 347.520003,14.3199986 346.896,14.608 C346.271997,14.8960014 345.738002,15.2799976 345.294,15.76 C344.849998,16.2400024 344.514001,16.7919969 344.286,17.416 C344.057999,18.0400031 343.944,18.6879966 343.944,19.36 Z" id="steven-joya:-portfol" fill="#FFFFFF"></path>
                <path d="M11.664,15.508 C10.8239958,14.3319941 9.69600708,13.744 8.28,13.744 C7.70399712,13.744 7.14000276,13.8879986 6.588,14.176 C6.03599724,14.4640014 5.76,14.9319968 5.76,15.58 C5.76,16.1080026 5.98799772,16.4919988 6.444,16.732 C6.90000228,16.9720012 7.47599652,17.1759992 8.172,17.344 C8.86800348,17.5120008 9.61799598,17.6859991 10.422,17.866 C11.226004,18.0460009 11.9759965,18.3219981 12.672,18.694 C13.3680035,19.0660019 13.9439977,19.5759968 14.4,20.224 C14.8560023,20.8720032 15.084,21.7599944 15.084,22.888 C15.084,23.9200052 14.8620022,24.7899965 14.418,25.498 C13.9739978,26.2060035 13.3980035,26.7759978 12.69,27.208 C11.9819965,27.6400022 11.1840044,27.951999 10.296,28.144 C9.40799556,28.336001 8.52000444,28.432 7.632,28.432 C6.28799328,28.432 5.05200564,28.2400019 3.924,27.856 C2.79599436,27.4719981 1.78800444,26.776005 0.9,25.768 L3.78,23.068 C4.33200276,23.6920031 4.92599682,24.201998 5.562,24.598 C6.19800318,24.994002 6.97199544,25.192 7.884,25.192 C8.19600156,25.192 8.51999832,25.1560004 8.856,25.084 C9.19200168,25.0119996 9.50399856,24.8920008 9.792,24.724 C10.0800014,24.5559992 10.3139991,24.3460013 10.494,24.094 C10.6740009,23.8419987 10.764,23.5480017 10.764,23.212 C10.764,22.611997 10.5360023,22.1680014 10.08,21.88 C9.62399772,21.5919986 9.04800348,21.3580009 8.352,21.178 C7.65599652,20.9979991 6.90600402,20.8300008 6.102,20.674 C5.29799598,20.5179992 4.54800348,20.2660017 3.852,19.918 C3.15599652,19.5699983 2.58000228,19.0840031 2.124,18.46 C1.66799772,17.8359969 1.44,16.9720055 1.44,15.868 C1.44,14.9079952 1.63799802,14.0740035 2.034,13.366 C2.43000198,12.6579965 2.95199676,12.0760023 3.6,11.62 C4.24800324,11.1639977 4.9919958,10.8280011 5.832,10.612 C6.6720042,10.3959989 7.52399568,10.288 8.388,10.288 C9.54000576,10.288 10.6799944,10.485998 11.808,10.882 C12.9360056,11.278002 13.8479965,11.9559952 14.544,12.916 L11.664,15.508 Z M16.416,14.392 L16.416,10.72 L19.98,10.72 L19.98,5.716 L24.3,5.716 L24.3,10.72 L29.052,10.72 L29.052,14.392 L24.3,14.392 L24.3,21.952 C24.3,22.8160043 24.4619984,23.4999975 24.786,24.004 C25.1100016,24.5080025 25.7519952,24.76 26.712,24.76 C27.0960019,24.76 27.5159977,24.7180004 27.972,24.634 C28.4280023,24.5499996 28.7879987,24.412001 29.052,24.22 L29.052,27.856 C28.5959977,28.0720011 28.0380033,28.2219996 27.378,28.306 C26.7179967,28.3900004 26.1360025,28.432 25.632,28.432 C24.4799942,28.432 23.5380037,28.3060013 22.806,28.054 C22.0739963,27.8019987 21.4980021,27.4180026 21.078,26.902 C20.6579979,26.3859974 20.3700008,25.7440038 20.214,24.976 C20.0579992,24.2079962 19.98,23.320005 19.98,22.312 L19.98,14.392 L16.416,14.392 Z M35.892,20.872 C36.0360007,22.1680065 36.5399957,23.1759964 37.404,23.896 C38.2680043,24.6160036 39.3119939,24.976 40.536,24.976 C41.6160054,24.976 42.5219963,24.7540022 43.254,24.31 C43.9860037,23.8659978 44.6279972,23.3080034 45.18,22.636 L48.276,24.976 C47.267995,26.2240062 46.1400062,27.1119974 44.892,27.64 C43.6439938,28.1680026 42.3360068,28.432 40.968,28.432 C39.6719935,28.432 38.4480058,28.2160022 37.296,27.784 C36.1439942,27.3519978 35.1480042,26.740004 34.308,25.948 C33.4679958,25.155996 32.8020025,24.2020056 32.31,23.086 C31.8179975,21.9699944 31.572,20.7280068 31.572,19.36 C31.572,17.9919932 31.8179975,16.7500056 32.31,15.634 C32.8020025,14.5179944 33.4679958,13.564004 34.308,12.772 C35.1480042,11.979996 36.1439942,11.3680022 37.296,10.936 C38.4480058,10.5039978 39.6719935,10.288 40.968,10.288 C42.168006,10.288 43.265995,10.4979979 44.262,10.918 C45.258005,11.3380021 46.1099965,11.943996 46.818,12.736 C47.5260035,13.528004 48.077998,14.5059942 48.474,15.67 C48.870002,16.8340058 49.068,18.1719924 49.068,19.684 L49.068,20.872 L35.892,20.872 Z M44.748,17.632 C44.7239999,16.3599936 44.3280038,15.3580037 43.56,14.626 C42.7919962,13.8939963 41.7240068,13.528 40.356,13.528 C39.0599935,13.528 38.0340038,13.8999963 37.278,14.644 C36.5219962,15.3880037 36.0600008,16.3839938 35.892,17.632 L44.748,17.632 Z M50.76,10.72 L55.476,10.72 L60.084,22.816 L60.156,22.816 L64.8,10.72 L69.228,10.72 L62.424,28 L57.816,28 L50.76,10.72 Z M75.24,20.872 C75.3840007,22.1680065 75.8879957,23.1759964 76.752,23.896 C77.6160043,24.6160036 78.6599939,24.976 79.884,24.976 C80.9640054,24.976 81.8699963,24.7540022 82.602,24.31 C83.3340037,23.8659978 83.9759972,23.3080034 84.528,22.636 L87.624,24.976 C86.615995,26.2240062 85.4880062,27.1119974 84.24,27.64 C82.9919938,28.1680026 81.6840068,28.432 80.316,28.432 C79.0199935,28.432 77.7960058,28.2160022 76.644,27.784 C75.4919942,27.3519978 74.4960042,26.740004 73.656,25.948 C72.8159958,25.155996 72.1500025,24.2020056 71.658,23.086 C71.1659975,21.9699944 70.92,20.7280068 70.92,19.36 C70.92,17.9919932 71.1659975,16.7500056 71.658,15.634 C72.1500025,14.5179944 72.8159958,13.564004 73.656,12.772 C74.4960042,11.979996 75.4919942,11.3680022 76.644,10.936 C77.7960058,10.5039978 79.0199935,10.288 80.316,10.288 C81.516006,10.288 82.613995,10.4979979 83.61,10.918 C84.606005,11.3380021 85.4579965,11.943996 86.166,12.736 C86.8740035,13.528004 87.425998,14.5059942 87.822,15.67 C88.218002,16.8340058 88.416,18.1719924 88.416,19.684 L88.416,20.872 L75.24,20.872 Z M84.096,17.632 C84.0719999,16.3599936 83.6760038,15.3580037 82.908,14.626 C82.1399962,13.8939963 81.0720068,13.528 79.704,13.528 C78.4079935,13.528 77.3820038,13.8999963 76.626,14.644 C75.8699962,15.3880037 75.4080008,16.3839938 75.24,17.632 L84.096,17.632 Z M92.448,10.72 L96.552,10.72 L96.552,13.492 L96.624,13.492 C97.032002,12.6279957 97.6559958,11.8780032 98.496,11.242 C99.3360042,10.6059968 100.475993,10.288 101.916,10.288 C103.068006,10.288 104.045996,10.4799981 104.85,10.864 C105.654004,11.2480019 106.307997,11.7519969 106.812,12.376 C107.316003,13.0000031 107.675999,13.7199959 107.892,14.536 C108.108001,15.3520041 108.216,16.2039956 108.216,17.092 L108.216,28 L103.896,28 L103.896,19.252 C103.896,18.7719976 103.872,18.2380029 103.824,17.65 C103.776,17.0619971 103.650001,16.5100026 103.446,15.994 C103.241999,15.4779974 102.924002,15.0460017 102.492,14.698 C102.059998,14.3499983 101.472004,14.176 100.728,14.176 C100.007996,14.176 99.4020025,14.2959988 98.91,14.536 C98.4179975,14.7760012 98.0100016,15.099998 97.686,15.508 C97.3619984,15.916002 97.1280007,16.3839974 96.984,16.912 C96.8399993,17.4400026 96.768,17.9919971 96.768,18.568 L96.768,28 L92.448,28 L92.448,10.72 Z M128.16,10.72 L128.16,29.044 C128.16,30.1240054 128.088001,31.1259954 127.944,32.05 C127.799999,32.9740046 127.518002,33.7779966 127.098,34.462 C126.677998,35.1460034 126.084004,35.6799981 125.316,36.064 C124.547996,36.4480019 123.552006,36.64 122.328,36.64 C121.919998,36.64 121.524002,36.6160002 121.14,36.568 C120.755998,36.5199998 120.372002,36.4360006 119.988,36.316 L120.312,32.572 C120.552001,32.6200002 120.779999,32.6619998 120.996,32.698 C121.212001,32.7340002 121.439999,32.752 121.68,32.752 C122.208003,32.752 122.621999,32.6380011 122.922,32.41 C123.222002,32.1819989 123.437999,31.8880018 123.57,31.528 C123.702001,31.1679982 123.78,30.7720022 123.804,30.34 C123.828,29.9079978 123.84,29.488002 123.84,29.08 L123.84,10.72 L128.16,10.72 Z M123.228,4.852 C123.228,4.15599652 123.485997,3.55000258 124.002,3.034 C124.518003,2.51799742 125.171996,2.26 125.964,2.26 C126.756004,2.26 127.421997,2.50599754 127.962,2.998 C128.502003,3.49000246 128.772,4.10799628 128.772,4.852 C128.772,5.59600372 128.502003,6.21399754 127.962,6.706 C127.421997,7.19800246 126.756004,7.444 125.964,7.444 C125.171996,7.444 124.518003,7.18600258 124.002,6.67 C123.485997,6.15399742 123.228,5.54800348 123.228,4.852 Z M132.264,19.36 C132.264,17.9919932 132.509998,16.7500056 133.002,15.634 C133.494002,14.5179944 134.159996,13.564004 135,12.772 C135.840004,11.979996 136.835994,11.3680022 137.988,10.936 C139.140006,10.5039978 140.363994,10.288 141.66,10.288 C142.956006,10.288 144.179994,10.5039978 145.332,10.936 C146.484006,11.3680022 147.479996,11.979996 148.32,12.772 C149.160004,13.564004 149.825998,14.5179944 150.318,15.634 C150.810002,16.7500056 151.056,17.9919932 151.056,19.36 C151.056,20.7280068 150.810002,21.9699944 150.318,23.086 C149.825998,24.2020056 149.160004,25.155996 148.32,25.948 C147.479996,26.740004 146.484006,27.3519978 145.332,27.784 C144.179994,28.2160022 142.956006,28.432 141.66,28.432 C140.363994,28.432 139.140006,28.2160022 137.988,27.784 C136.835994,27.3519978 135.840004,26.740004 135,25.948 C134.159996,25.155996 133.494002,24.2020056 133.002,23.086 C132.509998,21.9699944 132.264,20.7280068 132.264,19.36 Z M136.584,19.36 C136.584,20.0320034 136.697999,20.6799969 136.926,21.304 C137.154001,21.9280031 137.489998,22.4799976 137.934,22.96 C138.378002,23.4400024 138.911997,23.8239986 139.536,24.112 C140.160003,24.4000014 140.867996,24.544 141.66,24.544 C142.452004,24.544 143.159997,24.4000014 143.784,24.112 C144.408003,23.8239986 144.941998,23.4400024 145.386,22.96 C145.830002,22.4799976 146.165999,21.9280031 146.394,21.304 C146.622001,20.6799969 146.736,20.0320034 146.736,19.36 C146.736,18.6879966 146.622001,18.0400031 146.394,17.416 C146.165999,16.7919969 145.830002,16.2400024 145.386,15.76 C144.941998,15.2799976 144.408003,14.8960014 143.784,14.608 C143.159997,14.3199986 142.452004,14.176 141.66,14.176 C140.867996,14.176 140.160003,14.3199986 139.536,14.608 C138.911997,14.8960014 138.378002,15.2799976 137.934,15.76 C137.489998,16.2400024 137.154001,16.7919969 136.926,17.416 C136.697999,18.0400031 136.584,18.6879966 136.584,19.36 Z M152.748,10.72 L157.5,10.72 L162.324,22.708 L162.396,22.708 L166.716,10.72 L171.216,10.72 L163.044,31.708 C162.731998,32.5240041 162.390002,33.2379969 162.018,33.85 C161.645998,34.4620031 161.208003,34.9779979 160.704,35.398 C160.199997,35.8180021 159.606003,36.129999 158.922,36.334 C158.237997,36.538001 157.416005,36.64 156.456,36.64 C155.327994,36.64 154.224005,36.4960014 153.144,36.208 L153.684,32.32 C154.020002,32.4400006 154.373998,32.5419996 154.746,32.626 C155.118002,32.7100004 155.495998,32.752 155.88,32.752 C156.408003,32.752 156.851998,32.7040005 157.212,32.608 C157.572002,32.5119995 157.877999,32.362001 158.13,32.158 C158.382001,31.953999 158.591999,31.6900016 158.76,31.366 C158.928001,31.0419984 159.107999,30.6520023 159.3,30.196 L160.128,28.144 L152.748,10.72 Z M184.572,25.624 L184.464,25.624 C183.839997,26.6080049 183.048005,27.3219978 182.088,27.766 C181.127995,28.2100022 180.072006,28.432 178.92,28.432 C178.127996,28.432 177.354004,28.3240011 176.598,28.108 C175.841996,27.8919989 175.170003,27.5680022 174.582,27.136 C173.993997,26.7039978 173.520002,26.1640032 173.16,25.516 C172.799998,24.8679968 172.62,24.1120043 172.62,23.248 C172.62,22.3119953 172.787998,21.5140033 173.124,20.854 C173.460002,20.1939967 173.909997,19.6420022 174.474,19.198 C175.038003,18.7539978 175.691996,18.4000013 176.436,18.136 C177.180004,17.8719987 177.953996,17.6740007 178.758,17.542 C179.562004,17.4099993 180.371996,17.3260002 181.188,17.29 C182.004004,17.2539998 182.771996,17.236 183.492,17.236 L184.572,17.236 L184.572,16.768 C184.572,15.6879946 184.200004,14.8780027 183.456,14.338 C182.711996,13.7979973 181.764006,13.528 180.612,13.528 C179.699995,13.528 178.848004,13.6899984 178.056,14.014 C177.263996,14.3380016 176.580003,14.7759972 176.004,15.328 L173.736,13.06 C174.696005,12.0759951 175.817994,11.3680022 177.102,10.936 C178.386006,10.5039978 179.711993,10.288 181.08,10.288 C182.304006,10.288 183.335996,10.4259986 184.176,10.702 C185.016004,10.9780014 185.711997,11.3319978 186.264,11.764 C186.816003,12.1960022 187.241998,12.6939972 187.542,13.258 C187.842002,13.8220028 188.057999,14.3919971 188.19,14.968 C188.322001,15.5440029 188.4,16.1019973 188.424,16.642 C188.448,17.1820027 188.46,17.655998 188.46,18.064 L188.46,28 L184.572,28 L184.572,25.624 Z M184.32,20.26 L183.42,20.26 C182.819997,20.26 182.148004,20.2839998 181.404,20.332 C180.659996,20.3800002 179.958003,20.4939991 179.298,20.674 C178.637997,20.8540009 178.080002,21.1179983 177.624,21.466 C177.167998,21.8140017 176.94,22.2999969 176.94,22.924 C176.94,23.332002 177.029999,23.6739986 177.21,23.95 C177.390001,24.2260014 177.623999,24.459999 177.912,24.652 C178.200001,24.844001 178.523998,24.9819996 178.884,25.066 C179.244002,25.1500004 179.603998,25.192 179.964,25.192 C181.452007,25.192 182.549996,24.8380035 183.258,24.13 C183.966004,23.4219965 184.32,22.4560061 184.32,21.232 L184.32,20.26 Z M193.104,25.48 C193.104,24.7119962 193.385997,24.0520028 193.95,23.5 C194.514003,22.9479972 195.191996,22.672 195.984,22.672 C196.752004,22.672 197.423997,22.9359974 198,23.464 C198.576003,23.9920026 198.864,24.6399962 198.864,25.408 C198.864,26.1760038 198.582003,26.8359972 198.018,27.388 C197.453997,27.9400028 196.776004,28.216 195.984,28.216 C195.599998,28.216 195.234002,28.1440007 194.886,28 C194.537998,27.8559993 194.232001,27.6640012 193.968,27.424 C193.703999,27.1839988 193.494001,26.8960017 193.338,26.56 C193.181999,26.2239983 193.104,25.8640019 193.104,25.48 Z M193.104,13.276 C193.104,12.5079962 193.385997,11.8480028 193.95,11.296 C194.514003,10.7439972 195.191996,10.468 195.984,10.468 C196.752004,10.468 197.423997,10.7319974 198,11.26 C198.576003,11.7880026 198.864,12.4359962 198.864,13.204 C198.864,13.9720038 198.582003,14.6319972 198.018,15.184 C197.453997,15.7360028 196.776004,16.012 195.984,16.012 C195.599998,16.012 195.234002,15.9400007 194.886,15.796 C194.537998,15.6519993 194.232001,15.4600012 193.968,15.22 C193.703999,14.9799988 193.494001,14.6920017 193.338,14.356 C193.181999,14.0199983 193.104,13.6600019 193.104,13.276 Z" id="steven-joya:-portfol" fill="#B8E986"></path>
            </g>
        </g>
    </g>
</svg>
