<?xml version="1.0" encoding="UTF-8"?>

<svg width="436px" height="37px" viewBox="0 0 436 37" version="1.1" xmlns="http://www.w3.org/2000/svg" xmlns:xlink="http://www.w3.org/1999/xlink">
    <!-- Generator: Sketch 49.1 (51147) - http://www.bohemiancoding.com/sketch -->
    <desc>Created with Sketch.</desc>
    <defs></defs>
    <g id="Software-Guides" stroke="none" stroke-width="1" fill="none" fill-rule="evenodd">
        <g id="Desktop" transform="translate(-84.000000, -123.000000)">
            <g id="Header" transform="translate(84.000000, 123.000000)">
                <path d="M179.008,15.508 C178.167996,14.3319941 177.040007,13.744 175.624,13.744 C175.047997,13.744 174.484003,13.8879986 173.932,14.176 C173.379997,14.4640014 173.104,14.9319968 173.104,15.58 C173.104,16.1080026 173.331998,16.4919988 173.788,16.732 C174.244002,16.9720012 174.819997,17.1759992 175.516,17.344 C176.212003,17.5120008 176.961996,17.6859991 177.766,17.866 C178.570004,18.0460009 179.319997,18.3219981 180.016,18.694 C180.712003,19.0660019 181.287998,19.5759968 181.744,20.224 C182.200002,20.8720032 182.428,21.7599944 182.428,22.888 C182.428,23.9200052 182.206002,24.7899965 181.762,25.498 C181.317998,26.2060035 180.742004,26.7759978 180.034,27.208 C179.325996,27.6400022 178.528004,27.951999 177.64,28.144 C176.751996,28.336001 175.864004,28.432 174.976,28.432 C173.631993,28.432 172.396006,28.2400019 171.268,27.856 C170.139994,27.4719981 169.132004,26.776005 168.244,25.768 L171.124,23.068 C171.676003,23.6920031 172.269997,24.201998 172.906,24.598 C173.542003,24.994002 174.315995,25.192 175.228,25.192 C175.540002,25.192 175.863998,25.1560004 176.2,25.084 C176.536002,25.0119996 176.847999,24.8920008 177.136,24.724 C177.424001,24.5559992 177.657999,24.3460013 177.838,24.094 C178.018001,23.8419987 178.108,23.5480017 178.108,23.212 C178.108,22.611997 177.880002,22.1680014 177.424,21.88 C176.967998,21.5919986 176.392003,21.3580009 175.696,21.178 C174.999997,20.9979991 174.250004,20.8300008 173.446,20.674 C172.641996,20.5179992 171.892003,20.2660017 171.196,19.918 C170.499997,19.5699983 169.924002,19.0840031 169.468,18.46 C169.011998,17.8359969 168.784,16.9720055 168.784,15.868 C168.784,14.9079952 168.981998,14.0740035 169.378,13.366 C169.774002,12.6579965 170.295997,12.0760023 170.944,11.62 C171.592003,11.1639977 172.335996,10.8280011 173.176,10.612 C174.016004,10.3959989 174.867996,10.288 175.732,10.288 C176.884006,10.288 178.023994,10.485998 179.152,10.882 C180.280006,11.278002 181.191997,11.9559952 181.888,12.916 L179.008,15.508 Z M184.912,19.36 C184.912,17.9919932 185.157998,16.7500056 185.65,15.634 C186.142002,14.5179944 186.807996,13.564004 187.648,12.772 C188.488004,11.979996 189.483994,11.3680022 190.636,10.936 C191.788006,10.5039978 193.011994,10.288 194.308,10.288 C195.604006,10.288 196.827994,10.5039978 197.98,10.936 C199.132006,11.3680022 200.127996,11.979996 200.968,12.772 C201.808004,13.564004 202.473998,14.5179944 202.966,15.634 C203.458002,16.7500056 203.704,17.9919932 203.704,19.36 C203.704,20.7280068 203.458002,21.9699944 202.966,23.086 C202.473998,24.2020056 201.808004,25.155996 200.968,25.948 C200.127996,26.740004 199.132006,27.3519978 197.98,27.784 C196.827994,28.2160022 195.604006,28.432 194.308,28.432 C193.011994,28.432 191.788006,28.2160022 190.636,27.784 C189.483994,27.3519978 188.488004,26.740004 187.648,25.948 C186.807996,25.155996 186.142002,24.2020056 185.65,23.086 C185.157998,21.9699944 184.912,20.7280068 184.912,19.36 Z M189.232,19.36 C189.232,20.0320034 189.345999,20.6799969 189.574,21.304 C189.802001,21.9280031 190.137998,22.4799976 190.582,22.96 C191.026002,23.4400024 191.559997,23.8239986 192.184,24.112 C192.808003,24.4000014 193.515996,24.544 194.308,24.544 C195.100004,24.544 195.807997,24.4000014 196.432,24.112 C197.056003,23.8239986 197.589998,23.4400024 198.034,22.96 C198.478002,22.4799976 198.813999,21.9280031 199.042,21.304 C199.270001,20.6799969 199.384,20.0320034 199.384,19.36 C199.384,18.6879966 199.270001,18.0400031 199.042,17.416 C198.813999,16.7919969 198.478002,16.2400024 198.034,15.76 C197.589998,15.2799976 197.056003,14.8960014 196.432,14.608 C195.807997,14.3199986 195.100004,14.176 194.308,14.176 C193.515996,14.176 192.808003,14.3199986 192.184,14.608 C191.559997,14.8960014 191.026002,15.2799976 190.582,15.76 C190.137998,16.2400024 189.802001,16.7919969 189.574,17.416 C189.345999,18.0400031 189.232,18.6879966 189.232,19.36 Z M209.284,14.392 L205.72,14.392 L205.72,10.72 L209.284,10.72 L209.284,8.272 C209.284,7.071994 209.367999,5.98600486 209.536,5.014 C209.704001,4.04199514 210.021998,3.20800348 210.49,2.512 C210.958002,1.81599652 211.611996,1.28200186 212.452,0.91 C213.292004,0.53799814 214.383993,0.352 215.728,0.352 C216.712005,0.352 217.623996,0.43599916 218.464,0.604 L218.176,4.276 C217.863998,4.20399964 217.564001,4.14400024 217.276,4.096 C216.987999,4.04799976 216.688002,4.024 216.376,4.024 C215.775997,4.024 215.296002,4.11999904 214.936,4.312 C214.575998,4.50400096 214.294001,4.76199838 214.09,5.086 C213.885999,5.41000162 213.754,5.78799784 213.694,6.22 C213.634,6.65200216 213.604,7.1079976 213.604,7.588 L213.604,10.72 L217.6,10.72 L217.6,14.392 L213.604,14.392 L213.604,28 L209.284,28 L209.284,14.392 Z M218.392,14.392 L218.392,10.72 L221.956,10.72 L221.956,5.716 L226.276,5.716 L226.276,10.72 L231.028,10.72 L231.028,14.392 L226.276,14.392 L226.276,21.952 C226.276,22.8160043 226.437998,23.4999975 226.762,24.004 C227.086002,24.5080025 227.727995,24.76 228.688,24.76 C229.072002,24.76 229.491998,24.7180004 229.948,24.634 C230.404002,24.5499996 230.763999,24.412001 231.028,24.22 L231.028,27.856 C230.571998,28.0720011 230.014003,28.2219996 229.354,28.306 C228.693997,28.3900004 228.112003,28.432 227.608,28.432 C226.455994,28.432 225.514004,28.3060013 224.782,28.054 C224.049996,27.8019987 223.474002,27.4180026 223.054,26.902 C222.633998,26.3859974 222.346001,25.7440038 222.19,24.976 C222.033999,24.2079962 221.956,23.320005 221.956,22.312 L221.956,14.392 L218.392,14.392 Z M232.072,10.72 L236.752,10.72 L240.496,22.816 L240.568,22.816 L244.06,10.72 L248.74,10.72 L252.484,22.816 L252.556,22.816 L256.156,10.72 L260.512,10.72 L254.644,28 L250.36,28 L246.256,16.192 L246.184,16.192 L242.548,28 L238.084,28 L232.072,10.72 Z M273.868,25.624 L273.76,25.624 C273.135997,26.6080049 272.344005,27.3219978 271.384,27.766 C270.423995,28.2100022 269.368006,28.432 268.216,28.432 C267.423996,28.432 266.650004,28.3240011 265.894,28.108 C265.137996,27.8919989 264.466003,27.5680022 263.878,27.136 C263.289997,26.7039978 262.816002,26.1640032 262.456,25.516 C262.095998,24.8679968 261.916,24.1120043 261.916,23.248 C261.916,22.3119953 262.083998,21.5140033 262.42,20.854 C262.756002,20.1939967 263.205997,19.6420022 263.77,19.198 C264.334003,18.7539978 264.987996,18.4000013 265.732,18.136 C266.476004,17.8719987 267.249996,17.6740007 268.054,17.542 C268.858004,17.4099993 269.667996,17.3260002 270.484,17.29 C271.300004,17.2539998 272.067996,17.236 272.788,17.236 L273.868,17.236 L273.868,16.768 C273.868,15.6879946 273.496004,14.8780027 272.752,14.338 C272.007996,13.7979973 271.060006,13.528 269.908,13.528 C268.995995,13.528 268.144004,13.6899984 267.352,14.014 C266.559996,14.3380016 265.876003,14.7759972 265.3,15.328 L263.032,13.06 C263.992005,12.0759951 265.113994,11.3680022 266.398,10.936 C267.682006,10.5039978 269.007993,10.288 270.376,10.288 C271.600006,10.288 272.631996,10.4259986 273.472,10.702 C274.312004,10.9780014 275.007997,11.3319978 275.56,11.764 C276.112003,12.1960022 276.537999,12.6939972 276.838,13.258 C277.138002,13.8220028 277.353999,14.3919971 277.486,14.968 C277.618001,15.5440029 277.696,16.1019973 277.72,16.642 C277.744,17.1820027 277.756,17.655998 277.756,18.064 L277.756,28 L273.868,28 L273.868,25.624 Z M273.616,20.26 L272.716,20.26 C272.115997,20.26 271.444004,20.2839998 270.7,20.332 C269.955996,20.3800002 269.254003,20.4939991 268.594,20.674 C267.933997,20.8540009 267.376002,21.1179983 266.92,21.466 C266.463998,21.8140017 266.236,22.2999969 266.236,22.924 C266.236,23.332002 266.325999,23.6739986 266.506,23.95 C266.686001,24.2260014 266.919999,24.459999 267.208,24.652 C267.496001,24.844001 267.819998,24.9819996 268.18,25.066 C268.540002,25.1500004 268.899998,25.192 269.26,25.192 C270.748007,25.192 271.845996,24.8380035 272.554,24.13 C273.262004,23.4219965 273.616,22.4560061 273.616,21.232 L273.616,20.26 Z M282.4,10.72 L286.72,10.72 L286.72,13.456 L286.792,13.456 C287.272002,12.447995 287.955996,11.6680028 288.844,11.116 C289.732004,10.5639972 290.751994,10.288 291.904,10.288 C292.168001,10.288 292.425999,10.3119998 292.678,10.36 C292.930001,10.4080002 293.187999,10.4679996 293.452,10.54 L293.452,14.716 C293.091998,14.6199995 292.738002,14.5420003 292.39,14.482 C292.041998,14.4219997 291.700002,14.392 291.364,14.392 C290.355995,14.392 289.546003,14.5779981 288.934,14.95 C288.321997,15.3220019 287.854002,15.7479976 287.53,16.228 C287.205998,16.7080024 286.990001,17.1879976 286.882,17.668 C286.773999,18.1480024 286.72,18.5079988 286.72,18.748 L286.72,28 L282.4,28 L282.4,10.72 Z M299.212,20.872 C299.356001,22.1680065 299.859996,23.1759964 300.724,23.896 C301.588004,24.6160036 302.631994,24.976 303.856,24.976 C304.936005,24.976 305.841996,24.7540022 306.574,24.31 C307.306004,23.8659978 307.947997,23.3080034 308.5,22.636 L311.596,24.976 C310.587995,26.2240062 309.460006,27.1119974 308.212,27.64 C306.963994,28.1680026 305.656007,28.432 304.288,28.432 C302.991994,28.432 301.768006,28.2160022 300.616,27.784 C299.463994,27.3519978 298.468004,26.740004 297.628,25.948 C296.787996,25.155996 296.122002,24.2020056 295.63,23.086 C295.137998,21.9699944 294.892,20.7280068 294.892,19.36 C294.892,17.9919932 295.137998,16.7500056 295.63,15.634 C296.122002,14.5179944 296.787996,13.564004 297.628,12.772 C298.468004,11.979996 299.463994,11.3680022 300.616,10.936 C301.768006,10.5039978 302.991994,10.288 304.288,10.288 C305.488006,10.288 306.585995,10.4979979 307.582,10.918 C308.578005,11.3380021 309.429996,11.943996 310.138,12.736 C310.846004,13.528004 311.397998,14.5059942 311.794,15.67 C312.190002,16.8340058 312.388,18.1719924 312.388,19.684 L312.388,20.872 L299.212,20.872 Z M308.068,17.632 C308.044,16.3599936 307.648004,15.3580037 306.88,14.626 C306.111996,13.8939963 305.044007,13.528 303.676,13.528 C302.379994,13.528 301.354004,13.8999963 300.598,14.644 C299.841996,15.3880037 299.380001,16.3839938 299.212,17.632 L308.068,17.632 Z M344.86,10.72 L344.86,26.452 C344.86,28.0120078 344.668002,29.4219937 344.284,30.682 C343.899998,31.9420063 343.306004,33.0099956 342.502,33.886 C341.697996,34.7620044 340.684006,35.4399976 339.46,35.92 C338.235994,36.4000024 336.784008,36.64 335.104,36.64 C333.495992,36.64 331.972007,36.436002 330.532,36.028 C329.091993,35.619998 327.760006,34.8760054 326.536,33.796 L329.128,30.268 C329.992004,31.060004 330.891995,31.6719978 331.828,32.104 C332.764005,32.5360022 333.843994,32.752 335.068,32.752 C336.100005,32.752 336.969996,32.6080014 337.678,32.32 C338.386004,32.0319986 338.949998,31.6360025 339.37,31.132 C339.790002,30.6279975 340.089999,30.0220035 340.27,29.314 C340.450001,28.6059965 340.54,27.8200043 340.54,26.956 L340.54,25.696 L340.468,25.696 C339.843997,26.5360042 339.016005,27.1659979 337.984,27.586 C336.951995,28.0060021 335.896005,28.216 334.816,28.216 C333.519994,28.216 332.344005,27.9820023 331.288,27.514 C330.231995,27.0459977 329.326004,26.416004 328.57,25.624 C327.813996,24.831996 327.232002,23.8960054 326.824,22.816 C326.415998,21.7359946 326.212,20.5840061 326.212,19.36 C326.212,18.0879936 326.403998,16.9000055 326.788,15.796 C327.172002,14.6919945 327.735996,13.7320041 328.48,12.916 C329.224004,12.0999959 330.117995,11.4580023 331.162,10.99 C332.206005,10.5219977 333.399993,10.288 334.744,10.288 C335.968006,10.288 337.107995,10.5279976 338.164,11.008 C339.220005,11.4880024 340.059997,12.2559947 340.684,13.312 L340.756,13.312 L340.756,10.72 L344.86,10.72 Z M335.644,14.176 C334.875996,14.176 334.180003,14.3019987 333.556,14.554 C332.931997,14.8060013 332.398002,15.1539978 331.954,15.598 C331.509998,16.0420022 331.162001,16.5819968 330.91,17.218 C330.657999,17.8540032 330.532,18.5559962 330.532,19.324 C330.532,20.0200035 330.657999,20.667997 330.91,21.268 C331.162001,21.868003 331.515998,22.3959977 331.972,22.852 C332.428002,23.3080023 332.967997,23.6679987 333.592,23.932 C334.216003,24.1960013 334.887996,24.328 335.608,24.328 C336.400004,24.328 337.113997,24.1960013 337.75,23.932 C338.386003,23.6679987 338.925998,23.3140022 339.37,22.87 C339.814002,22.4259978 340.155999,21.8920031 340.396,21.268 C340.636001,20.6439969 340.756,19.9720036 340.756,19.252 C340.756,17.7399924 340.300005,16.5160047 339.388,15.58 C338.475995,14.6439953 337.228008,14.176 335.644,14.176 Z M365.524,28 L361.42,28 L361.42,25.228 L361.348,25.228 C360.939998,26.0920043 360.316004,26.8419968 359.476,27.478 C358.635996,28.1140032 357.496007,28.432 356.056,28.432 C354.903994,28.432 353.926004,28.2460019 353.122,27.874 C352.317996,27.5019981 351.664003,26.9980032 351.16,26.362 C350.655997,25.7259968 350.296001,25.0000041 350.08,24.184 C349.863999,23.3679959 349.756,22.5160044 349.756,21.628 L349.756,10.72 L354.076,10.72 L354.076,19.468 C354.076,19.9480024 354.1,20.4819971 354.148,21.07 C354.196,21.6580029 354.321999,22.2099974 354.526,22.726 C354.730001,23.2420026 355.041998,23.6739983 355.462,24.022 C355.882002,24.3700017 356.475996,24.544 357.244,24.544 C357.964004,24.544 358.569998,24.4240012 359.062,24.184 C359.554002,23.9439988 359.961998,23.620002 360.286,23.212 C360.610002,22.803998 360.843999,22.3360026 360.988,21.808 C361.132001,21.2799974 361.204,20.7280029 361.204,20.152 L361.204,10.72 L365.524,10.72 L365.524,28 Z M370.492,10.72 L374.812,10.72 L374.812,28 L370.492,28 L370.492,10.72 Z M369.88,4.852 C369.88,4.15599652 370.137997,3.55000258 370.654,3.034 C371.170003,2.51799742 371.823996,2.26 372.616,2.26 C373.408004,2.26 374.073997,2.50599754 374.614,2.998 C375.154003,3.49000246 375.424,4.10799628 375.424,4.852 C375.424,5.59600372 375.154003,6.21399754 374.614,6.706 C374.073997,7.19800246 373.408004,7.444 372.616,7.444 C371.823996,7.444 371.170003,7.18600258 370.654,6.67 C370.137997,6.15399742 369.88,5.54800348 369.88,4.852 Z M393.46,25.408 L393.388,25.408 C392.763997,26.4640053 391.924005,27.2319976 390.868,27.712 C389.811995,28.1920024 388.672006,28.432 387.448,28.432 C386.103993,28.432 384.910005,28.1980023 383.866,27.73 C382.821995,27.2619977 381.928004,26.6200041 381.184,25.804 C380.439996,24.9879959 379.876002,24.0280055 379.492,22.924 C379.107998,21.8199945 378.916,20.6320064 378.916,19.36 C378.916,18.0879936 379.119998,16.9000055 379.528,15.796 C379.936002,14.6919945 380.505996,13.7320041 381.238,12.916 C381.970004,12.0999959 382.851995,11.4580023 383.884,10.99 C384.916005,10.5219977 386.043994,10.288 387.268,10.288 C388.084004,10.288 388.803997,10.3719992 389.428,10.54 C390.052003,10.7080008 390.603998,10.9239987 391.084,11.188 C391.564002,11.4520013 391.971998,11.7339985 392.308,12.034 C392.644002,12.3340015 392.919999,12.6279986 393.136,12.916 L393.244,12.916 L393.244,0.784 L397.564,0.784 L397.564,28 L393.46,28 L393.46,25.408 Z M383.236,19.36 C383.236,20.0320034 383.349999,20.6799969 383.578,21.304 C383.806001,21.9280031 384.141998,22.4799976 384.586,22.96 C385.030002,23.4400024 385.563997,23.8239986 386.188,24.112 C386.812003,24.4000014 387.519996,24.544 388.312,24.544 C389.104004,24.544 389.811997,24.4000014 390.436,24.112 C391.060003,23.8239986 391.593998,23.4400024 392.038,22.96 C392.482002,22.4799976 392.817999,21.9280031 393.046,21.304 C393.274001,20.6799969 393.388,20.0320034 393.388,19.36 C393.388,18.6879966 393.274001,18.0400031 393.046,17.416 C392.817999,16.7919969 392.482002,16.2400024 392.038,15.76 C391.593998,15.2799976 391.060003,14.8960014 390.436,14.608 C389.811997,14.3199986 389.104004,14.176 388.312,14.176 C387.519996,14.176 386.812003,14.3199986 386.188,14.608 C385.563997,14.8960014 385.030002,15.2799976 384.586,15.76 C384.141998,16.2400024 383.806001,16.7919969 383.578,17.416 C383.349999,18.0400031 383.236,18.6879966 383.236,19.36 Z M405.916,20.872 C406.060001,22.1680065 406.563996,23.1759964 407.428,23.896 C408.292004,24.6160036 409.335994,24.976 410.56,24.976 C411.640005,24.976 412.545996,24.7540022 413.278,24.31 C414.010004,23.8659978 414.651997,23.3080034 415.204,22.636 L418.3,24.976 C417.291995,26.2240062 416.164006,27.1119974 414.916,27.64 C413.667994,28.1680026 412.360007,28.432 410.992,28.432 C409.695994,28.432 408.472006,28.2160022 407.32,27.784 C406.167994,27.3519978 405.172004,26.740004 404.332,25.948 C403.491996,25.155996 402.826002,24.2020056 402.334,23.086 C401.841998,21.9699944 401.596,20.7280068 401.596,19.36 C401.596,17.9919932 401.841998,16.7500056 402.334,15.634 C402.826002,14.5179944 403.491996,13.564004 404.332,12.772 C405.172004,11.979996 406.167994,11.3680022 407.32,10.936 C408.472006,10.5039978 409.695994,10.288 410.992,10.288 C412.192006,10.288 413.289995,10.4979979 414.286,10.918 C415.282005,11.3380021 416.133996,11.943996 416.842,12.736 C417.550004,13.528004 418.101998,14.5059942 418.498,15.67 C418.894002,16.8340058 419.092,18.1719924 419.092,19.684 L419.092,20.872 L405.916,20.872 Z M414.772,17.632 C414.748,16.3599936 414.352004,15.3580037 413.584,14.626 C412.815996,13.8939963 411.748007,13.528 410.38,13.528 C409.083994,13.528 408.058004,13.8999963 407.302,14.644 C406.545996,15.3880037 406.084001,16.3839938 405.916,17.632 L414.772,17.632 Z M432.34,15.508 C431.499996,14.3319941 430.372007,13.744 428.956,13.744 C428.379997,13.744 427.816003,13.8879986 427.264,14.176 C426.711997,14.4640014 426.436,14.9319968 426.436,15.58 C426.436,16.1080026 426.663998,16.4919988 427.12,16.732 C427.576002,16.9720012 428.151997,17.1759992 428.848,17.344 C429.544003,17.5120008 430.293996,17.6859991 431.098,17.866 C431.902004,18.0460009 432.651997,18.3219981 433.348,18.694 C434.044003,19.0660019 434.619998,19.5759968 435.076,20.224 C435.532002,20.8720032 435.76,21.7599944 435.76,22.888 C435.76,23.9200052 435.538002,24.7899965 435.094,25.498 C434.649998,26.2060035 434.074004,26.7759978 433.366,27.208 C432.657996,27.6400022 431.860004,27.951999 430.972,28.144 C430.083996,28.336001 429.196004,28.432 428.308,28.432 C426.963993,28.432 425.728006,28.2400019 424.6,27.856 C423.471994,27.4719981 422.464004,26.776005 421.576,25.768 L424.456,23.068 C425.008003,23.6920031 425.601997,24.201998 426.238,24.598 C426.874003,24.994002 427.647995,25.192 428.56,25.192 C428.872002,25.192 429.195998,25.1560004 429.532,25.084 C429.868002,25.0119996 430.179999,24.8920008 430.468,24.724 C430.756001,24.5559992 430.989999,24.3460013 431.17,24.094 C431.350001,23.8419987 431.44,23.5480017 431.44,23.212 C431.44,22.611997 431.212002,22.1680014 430.756,21.88 C430.299998,21.5919986 429.724003,21.3580009 429.028,21.178 C428.331997,20.9979991 427.582004,20.8300008 426.778,20.674 C425.973996,20.5179992 425.224003,20.2660017 424.528,19.918 C423.831997,19.5699983 423.256002,19.0840031 422.8,18.46 C422.343998,17.8359969 422.116,16.9720055 422.116,15.868 C422.116,14.9079952 422.313998,14.0740035 422.71,13.366 C423.106002,12.6579965 423.627997,12.0760023 424.276,11.62 C424.924003,11.1639977 425.667996,10.8280011 426.508,10.612 C427.348004,10.3959989 428.199996,10.288 429.064,10.288 C430.216006,10.288 431.355994,10.485998 432.484,10.882 C433.612006,11.278002 434.523997,11.9559952 435.22,12.916 L432.34,15.508 Z" id="portfolio:-software" fill="#FFFFFF"></path>
                <path d="M0.448,10.72 L4.552,10.72 L4.552,13.312 L4.624,13.312 C5.24800312,12.2559947 6.08799472,11.4880024 7.144,11.008 C8.20000528,10.5279976 9.33999388,10.288 10.564,10.288 C11.8840066,10.288 13.0719947,10.5219977 14.128,10.99 C15.1840053,11.4580023 16.0839963,12.0999959 16.828,12.916 C17.5720037,13.7320041 18.1359981,14.6919945 18.52,15.796 C18.9040019,16.9000055 19.096,18.0879936 19.096,19.36 C19.096,20.6320064 18.892002,21.8199945 18.484,22.924 C18.075998,24.0280055 17.5060037,24.9879959 16.774,25.804 C16.0419963,26.6200041 15.1600052,27.2619977 14.128,27.73 C13.0959948,28.1980023 11.9680061,28.432 10.744,28.432 C9.92799592,28.432 9.20800312,28.3480008 8.584,28.18 C7.95999688,28.0119992 7.4080024,27.7960013 6.928,27.532 C6.4479976,27.2679987 6.04000168,26.9860015 5.704,26.686 C5.36799832,26.3859985 5.09200108,26.0920014 4.876,25.804 L4.768,25.804 L4.768,36.208 L0.448,36.208 L0.448,10.72 Z M14.776,19.36 C14.776,18.6879966 14.6620011,18.0400031 14.434,17.416 C14.2059989,16.7919969 13.8700022,16.2400024 13.426,15.76 C12.9819978,15.2799976 12.4480031,14.8960014 11.824,14.608 C11.1999969,14.3199986 10.492004,14.176 9.7,14.176 C8.90799604,14.176 8.20000312,14.3199986 7.576,14.608 C6.95199688,14.8960014 6.41800222,15.2799976 5.974,15.76 C5.52999778,16.2400024 5.19400114,16.7919969 4.966,17.416 C4.73799886,18.0400031 4.624,18.6879966 4.624,19.36 C4.624,20.0320034 4.73799886,20.6799969 4.966,21.304 C5.19400114,21.9280031 5.52999778,22.4799976 5.974,22.96 C6.41800222,23.4400024 6.95199688,23.8239986 7.576,24.112 C8.20000312,24.4000014 8.90799604,24.544 9.7,24.544 C10.492004,24.544 11.1999969,24.4000014 11.824,24.112 C12.4480031,23.8239986 12.9819978,23.4400024 13.426,22.96 C13.8700022,22.4799976 14.2059989,21.9280031 14.434,21.304 C14.6620011,20.6799969 14.776,20.0320034 14.776,19.36 Z M22.264,19.36 C22.264,17.9919932 22.5099975,16.7500056 23.002,15.634 C23.4940025,14.5179944 24.1599958,13.564004 25,12.772 C25.8400042,11.979996 26.8359942,11.3680022 27.988,10.936 C29.1400058,10.5039978 30.3639935,10.288 31.66,10.288 C32.9560065,10.288 34.1799942,10.5039978 35.332,10.936 C36.4840058,11.3680022 37.4799958,11.979996 38.32,12.772 C39.1600042,13.564004 39.8259975,14.5179944 40.318,15.634 C40.8100025,16.7500056 41.056,17.9919932 41.056,19.36 C41.056,20.7280068 40.8100025,21.9699944 40.318,23.086 C39.8259975,24.2020056 39.1600042,25.155996 38.32,25.948 C37.4799958,26.740004 36.4840058,27.3519978 35.332,27.784 C34.1799942,28.2160022 32.9560065,28.432 31.66,28.432 C30.3639935,28.432 29.1400058,28.2160022 27.988,27.784 C26.8359942,27.3519978 25.8400042,26.740004 25,25.948 C24.1599958,25.155996 23.4940025,24.2020056 23.002,23.086 C22.5099975,21.9699944 22.264,20.7280068 22.264,19.36 Z M26.584,19.36 C26.584,20.0320034 26.6979989,20.6799969 26.926,21.304 C27.1540011,21.9280031 27.4899978,22.4799976 27.934,22.96 C28.3780022,23.4400024 28.9119969,23.8239986 29.536,24.112 C30.1600031,24.4000014 30.867996,24.544 31.66,24.544 C32.452004,24.544 33.1599969,24.4000014 33.784,24.112 C34.4080031,23.8239986 34.9419978,23.4400024 35.386,22.96 C35.8300022,22.4799976 36.1659989,21.9280031 36.394,21.304 C36.6220011,20.6799969 36.736,20.0320034 36.736,19.36 C36.736,18.6879966 36.6220011,18.0400031 36.394,17.416 C36.1659989,16.7919969 35.8300022,16.2400024 35.386,15.76 C34.9419978,15.2799976 34.4080031,14.8960014 33.784,14.608 C33.1599969,14.3199986 32.452004,14.176 31.66,14.176 C30.867996,14.176 30.1600031,14.3199986 29.536,14.608 C28.9119969,14.8960014 28.3780022,15.2799976 27.934,15.76 C27.4899978,16.2400024 27.1540011,16.7919969 26.926,17.416 C26.6979989,18.0400031 26.584,18.6879966 26.584,19.36 Z M45.088,10.72 L49.408,10.72 L49.408,13.456 L49.48,13.456 C49.9600024,12.447995 50.6439956,11.6680028 51.532,11.116 C52.4200044,10.5639972 53.4399942,10.288 54.592,10.288 C54.8560013,10.288 55.1139987,10.3119998 55.366,10.36 C55.6180013,10.4080002 55.8759987,10.4679996 56.14,10.54 L56.14,14.716 C55.7799982,14.6199995 55.4260017,14.5420003 55.078,14.482 C54.7299983,14.4219997 54.3880017,14.392 54.052,14.392 C53.043995,14.392 52.2340031,14.5779981 51.622,14.95 C51.0099969,15.3220019 50.5420016,15.7479976 50.218,16.228 C49.8939984,16.7080024 49.6780005,17.1879976 49.57,17.668 C49.4619995,18.1480024 49.408,18.5079988 49.408,18.748 L49.408,28 L45.088,28 L45.088,10.72 Z M57.076,14.392 L57.076,10.72 L60.64,10.72 L60.64,5.716 L64.96,5.716 L64.96,10.72 L69.712,10.72 L69.712,14.392 L64.96,14.392 L64.96,21.952 C64.96,22.8160043 65.1219984,23.4999975 65.446,24.004 C65.7700016,24.5080025 66.4119952,24.76 67.372,24.76 C67.7560019,24.76 68.1759977,24.7180004 68.632,24.634 C69.0880023,24.5499996 69.4479987,24.412001 69.712,24.22 L69.712,27.856 C69.2559977,28.0720011 68.6980033,28.2219996 68.038,28.306 C67.3779967,28.3900004 66.7960025,28.432 66.292,28.432 C65.1399942,28.432 64.1980037,28.3060013 63.466,28.054 C62.7339963,27.8019987 62.1580021,27.4180026 61.738,26.902 C61.3179979,26.3859974 61.0300008,25.7440038 60.874,24.976 C60.7179992,24.2079962 60.64,23.320005 60.64,22.312 L60.64,14.392 L57.076,14.392 Z M74.68,14.392 L71.116,14.392 L71.116,10.72 L74.68,10.72 L74.68,8.272 C74.68,7.071994 74.7639992,5.98600486 74.932,5.014 C75.1000008,4.04199514 75.4179977,3.20800348 75.886,2.512 C76.3540023,1.81599652 77.0079958,1.28200186 77.848,0.91 C78.6880042,0.53799814 79.7799933,0.352 81.124,0.352 C82.1080049,0.352 83.0199958,0.43599916 83.86,0.604 L83.572,4.276 C83.2599984,4.20399964 82.9600014,4.14400024 82.672,4.096 C82.3839986,4.04799976 82.0840016,4.024 81.772,4.024 C81.171997,4.024 80.6920018,4.11999904 80.332,4.312 C79.9719982,4.50400096 79.690001,4.76199838 79.486,5.086 C79.281999,5.41000162 79.1500003,5.78799784 79.09,6.22 C79.0299997,6.65200216 79,7.1079976 79,7.588 L79,10.72 L82.996,10.72 L82.996,14.392 L79,14.392 L79,28 L74.68,28 L74.68,14.392 Z M84.94,19.36 C84.94,17.9919932 85.1859975,16.7500056 85.678,15.634 C86.1700025,14.5179944 86.8359958,13.564004 87.676,12.772 C88.5160042,11.979996 89.5119942,11.3680022 90.664,10.936 C91.8160058,10.5039978 93.0399935,10.288 94.336,10.288 C95.6320065,10.288 96.8559942,10.5039978 98.008,10.936 C99.1600058,11.3680022 100.155996,11.979996 100.996,12.772 C101.836004,13.564004 102.501998,14.5179944 102.994,15.634 C103.486002,16.7500056 103.732,17.9919932 103.732,19.36 C103.732,20.7280068 103.486002,21.9699944 102.994,23.086 C102.501998,24.2020056 101.836004,25.155996 100.996,25.948 C100.155996,26.740004 99.1600058,27.3519978 98.008,27.784 C96.8559942,28.2160022 95.6320065,28.432 94.336,28.432 C93.0399935,28.432 91.8160058,28.2160022 90.664,27.784 C89.5119942,27.3519978 88.5160042,26.740004 87.676,25.948 C86.8359958,25.155996 86.1700025,24.2020056 85.678,23.086 C85.1859975,21.9699944 84.94,20.7280068 84.94,19.36 Z M89.26,19.36 C89.26,20.0320034 89.3739989,20.6799969 89.602,21.304 C89.8300011,21.9280031 90.1659978,22.4799976 90.61,22.96 C91.0540022,23.4400024 91.5879969,23.8239986 92.212,24.112 C92.8360031,24.4000014 93.543996,24.544 94.336,24.544 C95.128004,24.544 95.8359969,24.4000014 96.46,24.112 C97.0840031,23.8239986 97.6179978,23.4400024 98.062,22.96 C98.5060022,22.4799976 98.8419989,21.9280031 99.07,21.304 C99.2980011,20.6799969 99.412,20.0320034 99.412,19.36 C99.412,18.6879966 99.2980011,18.0400031 99.07,17.416 C98.8419989,16.7919969 98.5060022,16.2400024 98.062,15.76 C97.6179978,15.2799976 97.0840031,14.8960014 96.46,14.608 C95.8359969,14.3199986 95.128004,14.176 94.336,14.176 C93.543996,14.176 92.8360031,14.3199986 92.212,14.608 C91.5879969,14.8960014 91.0540022,15.2799976 90.61,15.76 C90.1659978,16.2400024 89.8300011,16.7919969 89.602,17.416 C89.3739989,18.0400031 89.26,18.6879966 89.26,19.36 Z M107.836,0.784 L112.156,0.784 L112.156,28 L107.836,28 L107.836,0.784 Z M117.232,10.72 L121.552,10.72 L121.552,28 L117.232,28 L117.232,10.72 Z M116.62,4.852 C116.62,4.15599652 116.877997,3.55000258 117.394,3.034 C117.910003,2.51799742 118.563996,2.26 119.356,2.26 C120.148004,2.26 120.813997,2.50599754 121.354,2.998 C121.894003,3.49000246 122.164,4.10799628 122.164,4.852 C122.164,5.59600372 121.894003,6.21399754 121.354,6.706 C120.813997,7.19800246 120.148004,7.444 119.356,7.444 C118.563996,7.444 117.910003,7.18600258 117.394,6.67 C116.877997,6.15399742 116.62,5.54800348 116.62,4.852 Z M125.656,19.36 C125.656,17.9919932 125.901998,16.7500056 126.394,15.634 C126.886002,14.5179944 127.551996,13.564004 128.392,12.772 C129.232004,11.979996 130.227994,11.3680022 131.38,10.936 C132.532006,10.5039978 133.755994,10.288 135.052,10.288 C136.348006,10.288 137.571994,10.5039978 138.724,10.936 C139.876006,11.3680022 140.871996,11.979996 141.712,12.772 C142.552004,13.564004 143.217998,14.5179944 143.71,15.634 C144.202002,16.7500056 144.448,17.9919932 144.448,19.36 C144.448,20.7280068 144.202002,21.9699944 143.71,23.086 C143.217998,24.2020056 142.552004,25.155996 141.712,25.948 C140.871996,26.740004 139.876006,27.3519978 138.724,27.784 C137.571994,28.2160022 136.348006,28.432 135.052,28.432 C133.755994,28.432 132.532006,28.2160022 131.38,27.784 C130.227994,27.3519978 129.232004,26.740004 128.392,25.948 C127.551996,25.155996 126.886002,24.2020056 126.394,23.086 C125.901998,21.9699944 125.656,20.7280068 125.656,19.36 Z M129.976,19.36 C129.976,20.0320034 130.089999,20.6799969 130.318,21.304 C130.546001,21.9280031 130.881998,22.4799976 131.326,22.96 C131.770002,23.4400024 132.303997,23.8239986 132.928,24.112 C133.552003,24.4000014 134.259996,24.544 135.052,24.544 C135.844004,24.544 136.551997,24.4000014 137.176,24.112 C137.800003,23.8239986 138.333998,23.4400024 138.778,22.96 C139.222002,22.4799976 139.557999,21.9280031 139.786,21.304 C140.014001,20.6799969 140.128,20.0320034 140.128,19.36 C140.128,18.6879966 140.014001,18.0400031 139.786,17.416 C139.557999,16.7919969 139.222002,16.2400024 138.778,15.76 C138.333998,15.2799976 137.800003,14.8960014 137.176,14.608 C136.551997,14.3199986 135.844004,14.176 135.052,14.176 C134.259996,14.176 133.552003,14.3199986 132.928,14.608 C132.303997,14.8960014 131.770002,15.2799976 131.326,15.76 C130.881998,16.2400024 130.546001,16.7919969 130.318,17.416 C130.089999,18.0400031 129.976,18.6879966 129.976,19.36 Z M148.48,25.48 C148.48,24.7119962 148.761997,24.0520028 149.326,23.5 C149.890003,22.9479972 150.567996,22.672 151.36,22.672 C152.128004,22.672 152.799997,22.9359974 153.376,23.464 C153.952003,23.9920026 154.24,24.6399962 154.24,25.408 C154.24,26.1760038 153.958003,26.8359972 153.394,27.388 C152.829997,27.9400028 152.152004,28.216 151.36,28.216 C150.975998,28.216 150.610002,28.1440007 150.262,28 C149.913998,27.8559993 149.608001,27.6640012 149.344,27.424 C149.079999,27.1839988 148.870001,26.8960017 148.714,26.56 C148.557999,26.2239983 148.48,25.8640019 148.48,25.48 Z M148.48,13.276 C148.48,12.5079962 148.761997,11.8480028 149.326,11.296 C149.890003,10.7439972 150.567996,10.468 151.36,10.468 C152.128004,10.468 152.799997,10.7319974 153.376,11.26 C153.952003,11.7880026 154.24,12.4359962 154.24,13.204 C154.24,13.9720038 153.958003,14.6319972 153.394,15.184 C152.829997,15.7360028 152.152004,16.012 151.36,16.012 C150.975998,16.012 150.610002,15.9400007 150.262,15.796 C149.913998,15.6519993 149.608001,15.4600012 149.344,15.22 C149.079999,14.9799988 148.870001,14.6920017 148.714,14.356 C148.557999,14.0199983 148.48,13.6600019 148.48,13.276 Z" id="portfolio:-software" fill="#B8E986"></path>
            </g>
        </g>
    </g>
</svg>
