<?xml version="1.0" encoding="UTF-8"?>
<svg width="311px" height="21px" viewBox="0 0 311 21" version="1.1" xmlns="http://www.w3.org/2000/svg" xmlns:xlink="http://www.w3.org/1999/xlink">
    <!-- Generator: Sketch 49 (51002) - http://www.bohemiancoding.com/sketch -->
    <title>Aerowater: Marketing</title>
    <desc>Created with Sketch.</desc>
    <defs></defs>
    <g id="Marketing-Brochures" stroke="none" stroke-width="1" fill="none" fill-rule="evenodd">
        <g id="Desktop" transform="translate(-81.000000, -320.000000)">
            <g id="Aerowater:-Marketing" transform="translate(81.000000, 320.000000)">
                <path d="M131.82,16 L131.9,5.98 L131.84,5.98 L128.16,16 L125.76,16 L122.18,5.98 L122.12,5.98 L122.2,16 L118.98,16 L118.98,1.84 L123.84,1.84 L127.06,10.92 L127.14,10.92 L130.22,1.84 L135.16,1.84 L135.16,16 L131.82,16 Z M143.78,11.66 L143.36,11.66 C142.999998,11.66 142.636669,11.6766665 142.27,11.71 C141.903332,11.7433335 141.576668,11.8066662 141.29,11.9 C141.003332,11.9933338 140.766668,12.1299991 140.58,12.31 C140.393332,12.4900009 140.3,12.7266652 140.3,13.02 C140.3,13.2066676 140.343333,13.366666 140.43,13.5 C140.516667,13.633334 140.626666,13.7399996 140.76,13.82 C140.893334,13.9000004 141.046666,13.9566665 141.22,13.99 C141.393334,14.0233335 141.559999,14.04 141.72,14.04 C142.38667,14.04 142.896665,13.8566685 143.25,13.49 C143.603335,13.1233315 143.78,12.6266698 143.78,12 L143.78,11.66 Z M137.76,7.4 C138.34667,6.8399972 139.029996,6.4200014 139.81,6.14 C140.590004,5.8599986 141.386663,5.72 142.2,5.72 C143.040004,5.72 143.749997,5.8233323 144.33,6.03 C144.910003,6.2366677 145.379998,6.5566645 145.74,6.99 C146.100002,7.4233355 146.363333,7.9699967 146.53,8.63 C146.696668,9.2900033 146.78,10.0733288 146.78,10.98 L146.78,16 L143.78,16 L143.78,14.94 L143.72,14.94 C143.466665,15.3533354 143.083336,15.6733322 142.57,15.9 C142.056664,16.1266678 141.500003,16.24 140.9,16.24 C140.499998,16.24 140.086669,16.1866672 139.66,16.08 C139.233331,15.9733328 138.843335,15.8000012 138.49,15.56 C138.136665,15.3199988 137.846668,15.000002 137.62,14.6 C137.393332,14.199998 137.28,13.7066696 137.28,13.12 C137.28,12.3999964 137.476665,11.8200022 137.87,11.38 C138.263335,10.9399978 138.769997,10.6000012 139.39,10.36 C140.010003,10.1199988 140.699996,9.9600004 141.46,9.88 C142.220004,9.7999996 142.959996,9.76 143.68,9.76 L143.68,9.6 C143.68,9.1066642 143.506668,8.7433345 143.16,8.51 C142.813332,8.2766655 142.386669,8.16 141.88,8.16 C141.413331,8.16 140.963336,8.259999 140.53,8.46 C140.096665,8.660001 139.726668,8.8999986 139.42,9.18 L137.76,7.4 Z M155.68,8.72 C155.533333,8.6799998 155.390001,8.6533334 155.25,8.64 C155.109999,8.6266666 154.973334,8.62 154.84,8.62 C154.399998,8.62 154.030002,8.6999992 153.73,8.86 C153.429999,9.0200008 153.190001,9.2133322 153.01,9.44 C152.829999,9.6666678 152.7,9.913332 152.62,10.18 C152.54,10.446668 152.5,10.679999 152.5,10.88 L152.5,16 L149.22,16 L149.22,6.04 L152.38,6.04 L152.38,7.48 L152.42,7.48 C152.673335,6.9733308 153.033331,6.5600016 153.5,6.24 C153.966669,5.9199984 154.506664,5.76 155.12,5.76 C155.253334,5.76 155.383333,5.7666666 155.51,5.78 C155.636667,5.7933334 155.74,5.8133332 155.82,5.84 L155.68,8.72 Z M167.84,16 L163.78,16 L160.52,11.22 L160.46,11.22 L160.46,16 L157.16,16 L157.16,0.88 L160.46,0.88 L160.46,10.08 L160.52,10.08 L163.7,6.04 L167.68,6.04 L163.84,10.54 L167.84,16 Z M175.54,9.88 C175.54,9.3599974 175.376668,8.9133352 175.05,8.54 C174.723332,8.1666648 174.233337,7.98 173.58,7.98 C173.259998,7.98 172.966668,8.0299995 172.7,8.13 C172.433332,8.2300005 172.200001,8.3666658 172,8.54 C171.799999,8.7133342 171.640001,8.9166655 171.52,9.15 C171.399999,9.3833345 171.333333,9.6266654 171.32,9.88 L175.54,9.88 Z M178.56,11.14 L178.56,11.54 C178.56,11.673334 178.553333,11.7999994 178.54,11.92 L171.32,11.92 C171.346667,12.2000014 171.429999,12.4533322 171.57,12.68 C171.710001,12.9066678 171.889999,13.1033325 172.11,13.27 C172.330001,13.4366675 172.576665,13.5666662 172.85,13.66 C173.123335,13.7533338 173.406665,13.8 173.7,13.8 C174.220003,13.8 174.659998,13.7033343 175.02,13.51 C175.380002,13.3166657 175.673332,13.0666682 175.9,12.76 L178.18,14.2 C177.713331,14.8800034 177.096671,15.4033315 176.33,15.77 C175.56333,16.1366685 174.673338,16.32 173.66,16.32 C172.91333,16.32 172.20667,16.2033345 171.54,15.97 C170.87333,15.7366655 170.290003,15.3966689 169.79,14.95 C169.289998,14.5033311 168.896668,13.9533366 168.61,13.3 C168.323332,12.6466634 168.18,11.9000042 168.18,11.06 C168.18,10.2466626 168.319999,9.5100033 168.6,8.85 C168.880001,8.1899967 169.259998,7.6300023 169.74,7.17 C170.220002,6.7099977 170.786663,6.3533346 171.44,6.1 C172.093337,5.8466654 172.799996,5.72 173.56,5.72 C174.293337,5.72 174.966664,5.8433321 175.58,6.09 C176.193336,6.3366679 176.719998,6.693331 177.16,7.16 C177.600002,7.626669 177.943332,8.19333 178.19,8.86 C178.436668,9.52667 178.56,10.2866624 178.56,11.14 Z M184.16,8.5 L184.16,12.3 C184.16,12.766669 184.249999,13.1166655 184.43,13.35 C184.610001,13.5833345 184.933331,13.7 185.4,13.7 C185.560001,13.7 185.729999,13.6866668 185.91,13.66 C186.090001,13.6333332 186.239999,13.5933336 186.36,13.54 L186.4,15.94 C186.173332,16.0200004 185.886668,16.0899997 185.54,16.15 C185.193332,16.2100003 184.846668,16.24 184.5,16.24 C183.83333,16.24 183.273336,16.1566675 182.82,15.99 C182.366664,15.8233325 182.003335,15.5833349 181.73,15.27 C181.456665,14.9566651 181.260001,14.5833355 181.14,14.15 C181.019999,13.7166645 180.96,13.233336 180.96,12.7 L180.96,8.5 L179.36,8.5 L179.36,6.04 L180.94,6.04 L180.94,3.42 L184.16,3.42 L184.16,6.04 L186.5,6.04 L186.5,8.5 L184.16,8.5 Z M191.6,2.86 C191.6,3.1133346 191.550001,3.3499989 191.45,3.57 C191.35,3.7900011 191.216668,3.9799992 191.05,4.14 C190.883332,4.3000008 190.683335,4.4266662 190.45,4.52 C190.216666,4.6133338 189.973335,4.66 189.72,4.66 C189.186664,4.66 188.740002,4.4833351 188.38,4.13 C188.019998,3.7766649 187.84,3.3533358 187.84,2.86 C187.84,2.6199988 187.886666,2.3900011 187.98,2.17 C188.073334,1.9499989 188.206666,1.7600008 188.38,1.6 C188.553334,1.4399992 188.753332,1.3100005 188.98,1.21 C189.206668,1.1099995 189.453332,1.06 189.72,1.06 C189.973335,1.06 190.216666,1.1066662 190.45,1.2 C190.683335,1.2933338 190.883332,1.4199992 191.05,1.58 C191.216668,1.7400008 191.35,1.9299989 191.45,2.15 C191.550001,2.3700011 191.6,2.6066654 191.6,2.86 Z M188.08,16 L188.08,6.04 L191.36,6.04 L191.36,16 L188.08,16 Z M200.5,16 L200.5,10.56 C200.5,10.2799986 200.476667,10.0133346 200.43,9.76 C200.383333,9.5066654 200.306667,9.2833343 200.2,9.09 C200.093333,8.8966657 199.943334,8.7433339 199.75,8.63 C199.556666,8.5166661 199.313335,8.46 199.02,8.46 C198.726665,8.46 198.470001,8.5166661 198.25,8.63 C198.029999,8.7433339 197.846667,8.899999 197.7,9.1 C197.553333,9.300001 197.443334,9.5299987 197.37,9.79 C197.296666,10.0500013 197.26,10.3199986 197.26,10.6 L197.26,16 L193.96,16 L193.96,6.04 L197.14,6.04 L197.14,7.42 L197.18,7.42 C197.300001,7.2066656 197.456666,6.9966677 197.65,6.79 C197.843334,6.5833323 198.069999,6.4066674 198.33,6.26 C198.590001,6.1133326 198.873332,5.9933338 199.18,5.9 C199.486668,5.8066662 199.813332,5.76 200.16,5.76 C200.82667,5.76 201.393331,5.8799988 201.86,6.12 C202.326669,6.3600012 202.703332,6.6699981 202.99,7.05 C203.276668,7.4300019 203.483333,7.8666642 203.61,8.36 C203.736667,8.8533358 203.8,9.3466642 203.8,9.84 L203.8,16 L200.5,16 Z M216.84,15.06 C216.84,16.0333382 216.700001,16.8799964 216.42,17.6 C216.139999,18.3200036 215.746669,18.9166643 215.24,19.39 C214.733331,19.8633357 214.11667,20.2166655 213.39,20.45 C212.66333,20.6833345 211.860004,20.8 210.98,20.8 C210.099996,20.8 209.196671,20.666668 208.27,20.4 C207.343329,20.133332 206.540003,19.7466692 205.86,19.24 L207.5,16.9 C207.980002,17.3266688 208.509997,17.6433323 209.09,17.85 C209.670003,18.0566677 210.239997,18.16 210.8,18.16 C211.760005,18.16 212.469998,17.9066692 212.93,17.4 C213.390002,16.8933308 213.62,16.2200042 213.62,15.38 L213.62,14.78 L213.56,14.78 C213.253332,15.180002 212.840003,15.4999988 212.32,15.74 C211.799997,15.9800012 211.20667,16.1 210.54,16.1 C209.779996,16.1 209.10667,15.9633347 208.52,15.69 C207.93333,15.4166653 207.436669,15.046669 207.03,14.58 C206.623331,14.113331 206.313334,13.5700031 206.1,12.95 C205.886666,12.3299969 205.78,11.6733368 205.78,10.98 C205.78,10.2866632 205.886666,9.6266698 206.1,9 C206.313334,8.3733302 206.623331,7.8200024 207.03,7.34 C207.436669,6.8599976 207.93333,6.4766681 208.52,6.19 C209.10667,5.9033319 209.77333,5.76 210.52,5.76 C211.14667,5.76 211.746664,5.8866654 212.32,6.14 C212.893336,6.3933346 213.353332,6.786664 213.7,7.32 L213.74,7.32 L213.74,6.04 L216.84,6.04 L216.84,15.06 Z M213.72,10.96 C213.72,10.626665 213.663334,10.3066682 213.55,10 C213.436666,9.6933318 213.273334,9.4233345 213.06,9.19 C212.846666,8.9566655 212.593335,8.773334 212.3,8.64 C212.006665,8.506666 211.673335,8.44 211.3,8.44 C210.926665,8.44 210.596668,8.506666 210.31,8.64 C210.023332,8.773334 209.780001,8.9533322 209.58,9.18 C209.379999,9.4066678 209.226667,9.6733318 209.12,9.98 C209.013333,10.2866682 208.96,10.6133316 208.96,10.96 C208.96,11.293335 209.013333,11.6133318 209.12,11.92 C209.226667,12.2266682 209.379999,12.4966655 209.58,12.73 C209.780001,12.9633345 210.023332,13.1499993 210.31,13.29 C210.596668,13.4300007 210.926665,13.5 211.3,13.5 C211.673335,13.5 212.009998,13.4300007 212.31,13.29 C212.610002,13.1499993 212.863332,12.9666678 213.07,12.74 C213.276668,12.5133322 213.436666,12.2466682 213.55,11.94 C213.663334,11.6333318 213.72,11.3066684 213.72,10.96 Z M235.66,11.88 C235.66,12.6533372 235.506668,13.3033307 235.2,13.83 C234.893332,14.3566693 234.486669,14.7799984 233.98,15.1 C233.473331,15.4200016 232.89667,15.6499993 232.25,15.79 C231.60333,15.9300007 230.940003,16 230.26,16 L224.62,16 L224.62,1.84 L230.26,1.84 C230.806669,1.84 231.366664,1.8966661 231.94,2.01 C232.513336,2.1233339 233.033331,2.3166653 233.5,2.59 C233.966669,2.8633347 234.346665,3.233331 234.64,3.7 C234.933335,4.166669 235.08,4.7599964 235.08,5.48 C235.08,6.2666706 234.866669,6.9166641 234.44,7.43 C234.013331,7.9433359 233.453337,8.3133322 232.76,8.54 L232.76,8.58 C233.160002,8.646667 233.536665,8.7699991 233.89,8.95 C234.243335,9.1300009 234.549999,9.3599986 234.81,9.64 C235.070001,9.9200014 235.276666,10.2466648 235.43,10.62 C235.583334,10.9933352 235.66,11.413331 235.66,11.88 Z M231.78,5.94 C231.78,5.4599976 231.596668,5.1100011 231.23,4.89 C230.863332,4.6699989 230.320004,4.56 229.6,4.56 L227.92,4.56 L227.92,7.48 L229.76,7.48 C230.400003,7.48 230.896665,7.3500013 231.25,7.09 C231.603335,6.8299987 231.78,6.4466692 231.78,5.94 Z M232.24,11.56 C232.24,10.9733304 232.020002,10.5666678 231.58,10.34 C231.139998,10.1133322 230.553337,10 229.82,10 L227.92,10 L227.92,13.24 L229.84,13.24 C230.106668,13.24 230.383332,13.2166669 230.67,13.17 C230.956668,13.1233331 231.216665,13.0400006 231.45,12.92 C231.683335,12.7999994 231.873333,12.6300011 232.02,12.41 C232.166667,12.1899989 232.24,11.9066684 232.24,11.56 Z M244.2,8.72 C244.053333,8.6799998 243.910001,8.6533334 243.77,8.64 C243.629999,8.6266666 243.493334,8.62 243.36,8.62 C242.919998,8.62 242.550002,8.6999992 242.25,8.86 C241.949998,9.0200008 241.710001,9.2133322 241.53,9.44 C241.349999,9.6666678 241.22,9.913332 241.14,10.18 C241.06,10.446668 241.02,10.679999 241.02,10.88 L241.02,16 L237.74,16 L237.74,6.04 L240.9,6.04 L240.9,7.48 L240.94,7.48 C241.193335,6.9733308 241.553331,6.5600016 242.02,6.24 C242.486669,5.9199984 243.026664,5.76 243.64,5.76 C243.773334,5.76 243.903333,5.7666666 244.03,5.78 C244.156667,5.7933334 244.26,5.8133332 244.34,5.84 L244.2,8.72 Z M255.86,10.98 C255.86,11.7933374 255.713335,12.5299967 255.42,13.19 C255.126665,13.8500033 254.726669,14.4099977 254.22,14.87 C253.713331,15.3300023 253.12667,15.6866654 252.46,15.94 C251.79333,16.1933346 251.080004,16.32 250.32,16.32 C249.57333,16.32 248.863337,16.1933346 248.19,15.94 C247.516663,15.6866654 246.930003,15.3300023 246.43,14.87 C245.929998,14.4099977 245.533335,13.8500033 245.24,13.19 C244.946665,12.5299967 244.8,11.7933374 244.8,10.98 C244.8,10.1666626 244.946665,9.4333366 245.24,8.78 C245.533335,8.1266634 245.929998,7.5733356 246.43,7.12 C246.930003,6.6666644 247.516663,6.3200012 248.19,6.08 C248.863337,5.8399988 249.57333,5.72 250.32,5.72 C251.080004,5.72 251.79333,5.8399988 252.46,6.08 C253.12667,6.3200012 253.713331,6.6666644 254.22,7.12 C254.726669,7.5733356 255.126665,8.1266634 255.42,8.78 C255.713335,9.4333366 255.86,10.1666626 255.86,10.98 Z M252.7,10.98 C252.7,10.6599984 252.646667,10.3466682 252.54,10.04 C252.433333,9.7333318 252.280001,9.4633345 252.08,9.23 C251.879999,8.9966655 251.633335,8.8066674 251.34,8.66 C251.046665,8.5133326 250.706669,8.44 250.32,8.44 C249.933331,8.44 249.593335,8.5133326 249.3,8.66 C249.006665,8.8066674 248.763334,8.9966655 248.57,9.23 C248.376666,9.4633345 248.23,9.7333318 248.13,10.04 C248.029999,10.3466682 247.98,10.6599984 247.98,10.98 C247.98,11.3000016 248.029999,11.6133318 248.13,11.92 C248.23,12.2266682 248.379999,12.5033321 248.58,12.75 C248.780001,12.9966679 249.026665,13.1933326 249.32,13.34 C249.613335,13.4866674 249.953331,13.56 250.34,13.56 C250.726669,13.56 251.066665,13.4866674 251.36,13.34 C251.653335,13.1933326 251.899999,12.9966679 252.1,12.75 C252.300001,12.5033321 252.449999,12.2266682 252.55,11.92 C252.65,11.6133318 252.7,11.3000016 252.7,10.98 Z M264.8,9.26 C264.613332,9.0199988 264.360002,8.8266674 264.04,8.68 C263.719998,8.5333326 263.393335,8.46 263.06,8.46 C262.713332,8.46 262.400001,8.5299993 262.12,8.67 C261.839999,8.8100007 261.600001,8.9966655 261.4,9.23 C261.199999,9.4633345 261.043334,9.7333318 260.93,10.04 C260.816666,10.3466682 260.76,10.6733316 260.76,11.02 C260.76,11.3666684 260.813333,11.6933318 260.92,12 C261.026667,12.3066682 261.183332,12.5766655 261.39,12.81 C261.596668,13.0433345 261.843332,13.226666 262.13,13.36 C262.416668,13.493334 262.739998,13.56 263.1,13.56 C263.433335,13.56 263.763332,13.4966673 264.09,13.37 C264.416668,13.2433327 264.679999,13.0600012 264.88,12.82 L266.7,15.04 C266.286665,15.440002 265.753337,15.7533322 265.1,15.98 C264.446663,16.2066678 263.753337,16.32 263.02,16.32 C262.233329,16.32 261.500003,16.2000012 260.82,15.96 C260.139997,15.7199988 259.550002,15.3700023 259.05,14.91 C258.549997,14.4499977 258.156668,13.8933366 257.87,13.24 C257.583332,12.5866634 257.44,11.8466708 257.44,11.02 C257.44,10.2066626 257.583332,9.4733366 257.87,8.82 C258.156668,8.1666634 258.549997,7.6100023 259.05,7.15 C259.550002,6.6899977 260.139997,6.3366679 260.82,6.09 C261.500003,5.8433321 262.226663,5.72 263,5.72 C263.360002,5.72 263.716665,5.753333 264.07,5.82 C264.423335,5.886667 264.763332,5.9766661 265.09,6.09 C265.416668,6.2033339 265.716665,6.3433325 265.99,6.51 C266.263335,6.6766675 266.499999,6.859999 266.7,7.06 L264.8,9.26 Z M274.56,16 L274.56,10.6 C274.56,10.3199986 274.54,10.0533346 274.5,9.8 C274.46,9.5466654 274.383334,9.3233343 274.27,9.13 C274.156666,8.9366657 274.006668,8.7833339 273.82,8.67 C273.633332,8.5566661 273.393335,8.5 273.1,8.5 C272.526664,8.5 272.086668,8.7033313 271.78,9.11 C271.473332,9.5166687 271.32,10.019997 271.32,10.62 L271.32,16 L268.04,16 L268.04,0.88 L271.32,0.88 L271.32,7.3 L271.36,7.3 C271.586668,6.899998 271.946664,6.5433349 272.44,6.23 C272.933336,5.9166651 273.526663,5.76 274.22,5.76 C274.900003,5.76 275.469998,5.8799988 275.93,6.12 C276.390002,6.3600012 276.763332,6.6699981 277.05,7.05 C277.336668,7.4300019 277.543333,7.8666642 277.67,8.36 C277.796667,8.8533358 277.86,9.3466642 277.86,9.84 L277.86,16 L274.56,16 Z M286.9,16 L286.9,14.62 L286.86,14.62 C286.739999,14.8466678 286.583334,15.059999 286.39,15.26 C286.196666,15.460001 285.970001,15.6333326 285.71,15.78 C285.449999,15.9266674 285.163335,16.0466662 284.85,16.14 C284.536665,16.2333338 284.206668,16.28 283.86,16.28 C283.19333,16.28 282.630002,16.1600012 282.17,15.92 C281.709998,15.6799988 281.336668,15.3700019 281.05,14.99 C280.763332,14.6099981 280.556667,14.1766691 280.43,13.69 C280.303333,13.2033309 280.24,12.7066692 280.24,12.2 L280.24,6.04 L283.54,6.04 L283.54,11.44 C283.54,11.7200014 283.56,11.9866654 283.6,12.24 C283.64,12.4933346 283.716666,12.719999 283.83,12.92 C283.943334,13.120001 284.093332,13.2766661 284.28,13.39 C284.466668,13.5033339 284.713332,13.56 285.02,13.56 C285.593336,13.56 286.029998,13.3466688 286.33,12.92 C286.630001,12.4933312 286.78,11.9933362 286.78,11.42 L286.78,6.04 L290.06,6.04 L290.06,16 L286.9,16 Z M299.08,8.72 C298.933333,8.6799998 298.790001,8.6533334 298.65,8.64 C298.509999,8.6266666 298.373334,8.62 298.24,8.62 C297.799998,8.62 297.430001,8.6999992 297.13,8.86 C296.829998,9.0200008 296.590001,9.2133322 296.41,9.44 C296.229999,9.6666678 296.1,9.913332 296.02,10.18 C295.94,10.446668 295.9,10.679999 295.9,10.88 L295.9,16 L292.62,16 L292.62,6.04 L295.78,6.04 L295.78,7.48 L295.82,7.48 C296.073335,6.9733308 296.433331,6.5600016 296.9,6.24 C297.366669,5.9199984 297.906664,5.76 298.52,5.76 C298.653334,5.76 298.783333,5.7666666 298.91,5.78 C299.036667,5.7933334 299.14,5.8133332 299.22,5.84 L299.08,8.72 Z M307.04,9.88 C307.04,9.3599974 306.876668,8.9133352 306.55,8.54 C306.223332,8.1666648 305.733337,7.98 305.08,7.98 C304.759998,7.98 304.466668,8.0299995 304.2,8.13 C303.933332,8.2300005 303.700001,8.3666658 303.5,8.54 C303.299999,8.7133342 303.140001,8.9166655 303.02,9.15 C302.899999,9.3833345 302.833333,9.6266654 302.82,9.88 L307.04,9.88 Z M310.06,11.14 L310.06,11.54 C310.06,11.673334 310.053333,11.7999994 310.04,11.92 L302.82,11.92 C302.846667,12.2000014 302.929999,12.4533322 303.07,12.68 C303.210001,12.9066678 303.389999,13.1033325 303.61,13.27 C303.830001,13.4366675 304.076665,13.5666662 304.35,13.66 C304.623335,13.7533338 304.906665,13.8 305.2,13.8 C305.720003,13.8 306.159998,13.7033343 306.52,13.51 C306.880002,13.3166657 307.173332,13.0666682 307.4,12.76 L309.68,14.2 C309.213331,14.8800034 308.59667,15.4033315 307.83,15.77 C307.063329,16.1366685 306.173338,16.32 305.16,16.32 C304.41333,16.32 303.70667,16.2033345 303.04,15.97 C302.37333,15.7366655 301.790002,15.3966689 301.29,14.95 C300.789997,14.5033311 300.396668,13.9533366 300.11,13.3 C299.823332,12.6466634 299.68,11.9000042 299.68,11.06 C299.68,10.2466626 299.819999,9.5100033 300.1,8.85 C300.380001,8.1899967 300.759998,7.6300023 301.24,7.17 C301.720002,6.7099977 302.286663,6.3533346 302.94,6.1 C303.593337,5.8466654 304.299996,5.72 305.06,5.72 C305.793337,5.72 306.466664,5.8433321 307.08,6.09 C307.693336,6.3366679 308.219998,6.693331 308.66,7.16 C309.100002,7.626669 309.443332,8.19333 309.69,8.86 C309.936668,9.52667 310.06,10.2866624 310.06,11.14 Z" id="Marketing" fill="#FFFFFF"></path>
                <path d="M12.06,16 L10.96,13.22 L5.48,13.22 L4.44,16 L0.72,16 L6.66,1.84 L9.98,1.84 L15.86,16 L12.06,16 Z M8.26,5.62 L6.46,10.48 L10.02,10.48 L8.26,5.62 Z M23.72,9.88 C23.72,9.3599974 23.5566683,8.9133352 23.23,8.54 C22.9033317,8.1666648 22.4133366,7.98 21.76,7.98 C21.4399984,7.98 21.146668,8.0299995 20.88,8.13 C20.613332,8.2300005 20.380001,8.3666658 20.18,8.54 C19.979999,8.7133342 19.8200006,8.9166655 19.7,9.15 C19.5799994,9.3833345 19.5133334,9.6266654 19.5,9.88 L23.72,9.88 Z M26.74,11.14 L26.74,11.54 C26.74,11.673334 26.7333334,11.7999994 26.72,11.92 L19.5,11.92 C19.5266668,12.2000014 19.6099993,12.4533322 19.75,12.68 C19.8900007,12.9066678 20.0699989,13.1033325 20.29,13.27 C20.5100011,13.4366675 20.7566653,13.5666662 21.03,13.66 C21.3033347,13.7533338 21.5866652,13.8 21.88,13.8 C22.4000026,13.8 22.8399982,13.7033343 23.2,13.51 C23.5600018,13.3166657 23.8533322,13.0666682 24.08,12.76 L26.36,14.2 C25.893331,14.8800034 25.2766705,15.4033315 24.51,15.77 C23.7433295,16.1366685 22.8533384,16.32 21.84,16.32 C21.0933296,16.32 20.38667,16.2033345 19.72,15.97 C19.05333,15.7366655 18.4700025,15.3966689 17.97,14.95 C17.4699975,14.5033311 17.0766681,13.9533366 16.79,13.3 C16.5033319,12.6466634 16.36,11.9000042 16.36,11.06 C16.36,10.2466626 16.4999986,9.5100033 16.78,8.85 C17.0600014,8.1899967 17.4399976,7.6300023 17.92,7.17 C18.4000024,6.7099977 18.9666634,6.3533346 19.62,6.1 C20.2733366,5.8466654 20.9799962,5.72 21.74,5.72 C22.473337,5.72 23.1466636,5.8433321 23.76,6.09 C24.3733364,6.3366679 24.8999978,6.693331 25.34,7.16 C25.7800022,7.626669 26.1233321,8.19333 26.37,8.86 C26.6166679,9.52667 26.74,10.2866624 26.74,11.14 Z M35.24,8.72 C35.0933326,8.6799998 34.9500007,8.6533334 34.81,8.64 C34.6699993,8.6266666 34.533334,8.62 34.4,8.62 C33.9599978,8.62 33.5900015,8.6999992 33.29,8.86 C32.9899985,9.0200008 32.7500009,9.2133322 32.57,9.44 C32.3899991,9.6666678 32.2600004,9.913332 32.18,10.18 C32.0999996,10.446668 32.06,10.679999 32.06,10.88 L32.06,16 L28.78,16 L28.78,6.04 L31.94,6.04 L31.94,7.48 L31.98,7.48 C32.2333346,6.9733308 32.593331,6.5600016 33.06,6.24 C33.526669,5.9199984 34.0666636,5.76 34.68,5.76 C34.813334,5.76 34.9433327,5.7666666 35.07,5.78 C35.1966673,5.7933334 35.2999996,5.8133332 35.38,5.84 L35.24,8.72 Z M46.9,10.98 C46.9,11.7933374 46.7533348,12.5299967 46.46,13.19 C46.1666652,13.8500033 45.7666692,14.4099977 45.26,14.87 C44.7533308,15.3300023 44.16667,15.6866654 43.5,15.94 C42.83333,16.1933346 42.1200038,16.32 41.36,16.32 C40.6133296,16.32 39.9033367,16.1933346 39.23,15.94 C38.5566633,15.6866654 37.9700025,15.3300023 37.47,14.87 C36.9699975,14.4099977 36.5733348,13.8500033 36.28,13.19 C35.9866652,12.5299967 35.84,11.7933374 35.84,10.98 C35.84,10.1666626 35.9866652,9.4333366 36.28,8.78 C36.5733348,8.1266634 36.9699975,7.5733356 37.47,7.12 C37.9700025,6.6666644 38.5566633,6.3200012 39.23,6.08 C39.9033367,5.8399988 40.6133296,5.72 41.36,5.72 C42.1200038,5.72 42.83333,5.8399988 43.5,6.08 C44.16667,6.3200012 44.7533308,6.6666644 45.26,7.12 C45.7666692,7.5733356 46.1666652,8.1266634 46.46,8.78 C46.7533348,9.4333366 46.9,10.1666626 46.9,10.98 Z M43.74,10.98 C43.74,10.6599984 43.6866672,10.3466682 43.58,10.04 C43.4733328,9.7333318 43.320001,9.4633345 43.12,9.23 C42.919999,8.9966655 42.6733348,8.8066674 42.38,8.66 C42.0866652,8.5133326 41.7466686,8.44 41.36,8.44 C40.9733314,8.44 40.6333348,8.5133326 40.34,8.66 C40.0466652,8.8066674 39.8033343,8.9966655 39.61,9.23 C39.4166657,9.4633345 39.2700005,9.7333318 39.17,10.04 C39.0699995,10.3466682 39.02,10.6599984 39.02,10.98 C39.02,11.3000016 39.0699995,11.6133318 39.17,11.92 C39.2700005,12.2266682 39.419999,12.5033321 39.62,12.75 C39.820001,12.9966679 40.0666652,13.1933326 40.36,13.34 C40.6533348,13.4866674 40.9933314,13.56 41.38,13.56 C41.7666686,13.56 42.1066652,13.4866674 42.4,13.34 C42.6933348,13.1933326 42.939999,12.9966679 43.14,12.75 C43.340001,12.5033321 43.4899995,12.2266682 43.59,11.92 C43.6900005,11.6133318 43.74,11.3000016 43.74,10.98 Z M64.16,16 L60.78,16 L57.98,6.42 L57.92,6.42 L55.12,16 L51.72,16 L47.7,1.84 L51.38,1.84 L53.62,11.26 L53.68,11.26 L56.2,1.84 L59.76,1.84 L62.3,11.26 L62.36,11.26 L64.64,1.84 L68.2,1.84 L64.16,16 Z M74.64,11.66 L74.22,11.66 C73.8599982,11.66 73.4966685,11.6766665 73.13,11.71 C72.7633315,11.7433335 72.4366681,11.8066662 72.15,11.9 C71.8633319,11.9933338 71.6266676,12.1299991 71.44,12.31 C71.2533324,12.4900009 71.16,12.7266652 71.16,13.02 C71.16,13.2066676 71.2033329,13.366666 71.29,13.5 C71.3766671,13.633334 71.486666,13.7399996 71.62,13.82 C71.753334,13.9000004 71.9066658,13.9566665 72.08,13.99 C72.2533342,14.0233335 72.4199992,14.04 72.58,14.04 C73.24667,14.04 73.7566649,13.8566685 74.11,13.49 C74.4633351,13.1233315 74.64,12.6266698 74.64,12 L74.64,11.66 Z M68.62,7.4 C69.2066696,6.8399972 69.8899961,6.4200014 70.67,6.14 C71.4500039,5.8599986 72.2466626,5.72 73.06,5.72 C73.9000042,5.72 74.6099971,5.8233323 75.19,6.03 C75.7700029,6.2366677 76.2399982,6.5566645 76.6,6.99 C76.9600018,7.4233355 77.2233325,7.9699967 77.39,8.63 C77.5566675,9.2900033 77.64,10.0733288 77.64,10.98 L77.64,16 L74.64,16 L74.64,14.94 L74.58,14.94 C74.3266654,15.3533354 73.9433359,15.6733322 73.43,15.9 C72.9166641,16.1266678 72.360003,16.24 71.76,16.24 C71.359998,16.24 70.9466688,16.1866672 70.52,16.08 C70.0933312,15.9733328 69.7033351,15.8000012 69.35,15.56 C68.9966649,15.3199988 68.7066678,15.000002 68.48,14.6 C68.2533322,14.199998 68.14,13.7066696 68.14,13.12 C68.14,12.3999964 68.3366647,11.8200022 68.73,11.38 C69.1233353,10.9399978 69.6299969,10.6000012 70.25,10.36 C70.8700031,10.1199988 71.5599962,9.9600004 72.32,9.88 C73.0800038,9.7999996 73.8199964,9.76 74.54,9.76 L74.54,9.6 C74.54,9.1066642 74.3666684,8.7433345 74.02,8.51 C73.6733316,8.2766655 73.2466692,8.16 72.74,8.16 C72.273331,8.16 71.8233355,8.259999 71.39,8.46 C70.9566645,8.660001 70.5866682,8.8999986 70.28,9.18 L68.62,7.4 Z M83.44,8.5 L83.44,12.3 C83.44,12.766669 83.5299991,13.1166655 83.71,13.35 C83.8900009,13.5833345 84.213331,13.7 84.68,13.7 C84.8400008,13.7 85.0099991,13.6866668 85.19,13.66 C85.3700009,13.6333332 85.5199994,13.5933336 85.64,13.54 L85.68,15.94 C85.4533322,16.0200004 85.1666684,16.0899997 84.82,16.15 C84.4733316,16.2100003 84.1266684,16.24 83.78,16.24 C83.11333,16.24 82.5533356,16.1566675 82.1,15.99 C81.6466644,15.8233325 81.2833347,15.5833349 81.01,15.27 C80.7366653,14.9566651 80.5400006,14.5833355 80.42,14.15 C80.2999994,13.7166645 80.24,13.233336 80.24,12.7 L80.24,8.5 L78.64,8.5 L78.64,6.04 L80.22,6.04 L80.22,3.42 L83.44,3.42 L83.44,6.04 L85.78,6.04 L85.78,8.5 L83.44,8.5 Z M94.18,9.88 C94.18,9.3599974 94.0166683,8.9133352 93.69,8.54 C93.3633317,8.1666648 92.8733366,7.98 92.22,7.98 C91.8999984,7.98 91.606668,8.0299995 91.34,8.13 C91.073332,8.2300005 90.840001,8.3666658 90.64,8.54 C90.439999,8.7133342 90.2800006,8.9166655 90.16,9.15 C90.0399994,9.3833345 89.9733334,9.6266654 89.96,9.88 L94.18,9.88 Z M97.2,11.14 L97.2,11.54 C97.2,11.673334 97.1933334,11.7999994 97.18,11.92 L89.96,11.92 C89.9866668,12.2000014 90.0699993,12.4533322 90.21,12.68 C90.3500007,12.9066678 90.5299989,13.1033325 90.75,13.27 C90.9700011,13.4366675 91.2166653,13.5666662 91.49,13.66 C91.7633347,13.7533338 92.0466652,13.8 92.34,13.8 C92.8600026,13.8 93.2999982,13.7033343 93.66,13.51 C94.0200018,13.3166657 94.3133322,13.0666682 94.54,12.76 L96.82,14.2 C96.353331,14.8800034 95.7366705,15.4033315 94.97,15.77 C94.2033295,16.1366685 93.3133384,16.32 92.3,16.32 C91.5533296,16.32 90.84667,16.2033345 90.18,15.97 C89.51333,15.7366655 88.9300025,15.3966689 88.43,14.95 C87.9299975,14.5033311 87.5366681,13.9533366 87.25,13.3 C86.9633319,12.6466634 86.82,11.9000042 86.82,11.06 C86.82,10.2466626 86.9599986,9.5100033 87.24,8.85 C87.5200014,8.1899967 87.8999976,7.6300023 88.38,7.17 C88.8600024,6.7099977 89.4266634,6.3533346 90.08,6.1 C90.7333366,5.8466654 91.4399962,5.72 92.2,5.72 C92.933337,5.72 93.6066636,5.8433321 94.22,6.09 C94.8333364,6.3366679 95.3599978,6.693331 95.8,7.16 C96.2400022,7.626669 96.5833321,8.19333 96.83,8.86 C97.0766679,9.52667 97.2,10.2866624 97.2,11.14 Z M105.7,8.72 C105.553333,8.6799998 105.410001,8.6533334 105.27,8.64 C105.129999,8.6266666 104.993334,8.62 104.86,8.62 C104.419998,8.62 104.050002,8.6999992 103.75,8.86 C103.449999,9.0200008 103.210001,9.2133322 103.03,9.44 C102.849999,9.6666678 102.72,9.913332 102.64,10.18 C102.56,10.446668 102.52,10.679999 102.52,10.88 L102.52,16 L99.24,16 L99.24,6.04 L102.4,6.04 L102.4,7.48 L102.44,7.48 C102.693335,6.9733308 103.053331,6.5600016 103.52,6.24 C103.986669,5.9199984 104.526664,5.76 105.14,5.76 C105.273334,5.76 105.403333,5.7666666 105.53,5.78 C105.656667,5.7933334 105.76,5.8133332 105.84,5.84 L105.7,8.72 Z M111.16,7.8 C111.16,8.066668 111.106667,8.3166655 111,8.55 C110.893333,8.7833345 110.753334,8.9866658 110.58,9.16 C110.406666,9.3333342 110.200001,9.4699995 109.96,9.57 C109.719999,9.6700005 109.473335,9.72 109.22,9.72 C108.953332,9.72 108.700001,9.6733338 108.46,9.58 C108.219999,9.4866662 108.010001,9.3533342 107.83,9.18 C107.649999,9.0066658 107.506667,8.8066678 107.4,8.58 C107.293333,8.3533322 107.24,8.106668 107.24,7.84 C107.24,7.573332 107.293333,7.3233345 107.4,7.09 C107.506667,6.8566655 107.649999,6.6533342 107.83,6.48 C108.010001,6.3066658 108.219999,6.1700005 108.46,6.07 C108.700001,5.9699995 108.953332,5.92 109.22,5.92 C109.473335,5.92 109.719999,5.9699995 109.96,6.07 C110.200001,6.1700005 110.406666,6.3033325 110.58,6.47 C110.753334,6.6366675 110.893333,6.8366655 111,7.07 C111.106667,7.3033345 111.16,7.5466654 111.16,7.8 Z M111.16,14.22 C111.16,14.486668 111.106667,14.7366655 111,14.97 C110.893333,15.2033345 110.753334,15.4033325 110.58,15.57 C110.406666,15.7366675 110.200001,15.8699995 109.96,15.97 C109.719999,16.0700005 109.473335,16.12 109.22,16.12 C108.953332,16.12 108.700001,16.0733338 108.46,15.98 C108.219999,15.8866662 108.010001,15.7533342 107.83,15.58 C107.649999,15.4066658 107.506667,15.2066678 107.4,14.98 C107.293333,14.7533322 107.24,14.506668 107.24,14.24 C107.24,13.973332 107.293333,13.7233345 107.4,13.49 C107.506667,13.2566655 107.649999,13.0533342 107.83,12.88 C108.010001,12.7066658 108.219999,12.5700005 108.46,12.47 C108.700001,12.3699995 108.953332,12.32 109.22,12.32 C109.473335,12.32 109.719999,12.3699995 109.96,12.47 C110.200001,12.5700005 110.406666,12.7033325 110.58,12.87 C110.753334,13.0366675 110.893333,13.2366655 111,13.47 C111.106667,13.7033345 111.16,13.953332 111.16,14.22 Z" id="AeroWater:" fill="#B8E986"></path>
            </g>
        </g>
    </g>
</svg>