<?xml version="1.0" encoding="UTF-8"?>
<svg width="414px" height="21px" viewBox="0 0 414 21" version="1.1" xmlns="http://www.w3.org/2000/svg" xmlns:xlink="http://www.w3.org/1999/xlink">
    <!-- Generator: Sketch 49 (51002) - http://www.bohemiancoding.com/sketch -->
    <title>Dino Valley: Travel@2x</title>
    <desc>Created with Sketch.</desc>
    <defs></defs>
    <g id="Marketing-Brochures" stroke="none" stroke-width="1" fill="none" fill-rule="evenodd">
        <g id="Desktop" transform="translate(-83.000000, -368.000000)">
            <g id="Dino-Valley:-Travel" transform="translate(83.000000, 368.000000)">
                <path d="M271.56,4.63483703 L271.56,15.874837 L268.14,15.874837 L268.14,4.63483703 L264.14,4.63483703 L264.14,1.71483703 L275.56,1.71483703 L275.56,4.63483703 L271.56,4.63483703 Z M281.6,8.59483703 C281.453333,8.55483683 281.310001,8.52817043 281.17,8.51483703 C281.029999,8.50150363 280.893334,8.49483703 280.76,8.49483703 C280.319998,8.49483703 279.950001,8.57483623 279.65,8.73483703 C279.349998,8.89483783 279.110001,9.08816923 278.93,9.31483703 C278.749999,9.54150483 278.62,9.78816903 278.54,10.054837 C278.46,10.321505 278.42,10.554836 278.42,10.754837 L278.42,15.874837 L275.14,15.874837 L275.14,5.91483703 L278.3,5.91483703 L278.3,7.35483703 L278.34,7.35483703 C278.593335,6.84816783 278.953331,6.43483863 279.42,6.11483703 C279.886669,5.79483543 280.426664,5.63483703 281.04,5.63483703 C281.173334,5.63483703 281.303333,5.64150363 281.43,5.65483703 C281.556667,5.66817043 281.66,5.68817023 281.74,5.71483703 L281.6,8.59483703 Z M288.62,11.534837 L288.2,11.534837 C287.839998,11.534837 287.476669,11.5515035 287.11,11.584837 C286.743332,11.6181705 286.416668,11.6815032 286.13,11.774837 C285.843332,11.8681708 285.606668,12.0048361 285.42,12.184837 C285.233332,12.3648379 285.14,12.6015022 285.14,12.894837 C285.14,13.0815046 285.183333,13.241503 285.27,13.374837 C285.356667,13.508171 285.466666,13.6148366 285.6,13.694837 C285.733334,13.7748374 285.886666,13.8315035 286.06,13.864837 C286.233334,13.8981705 286.399999,13.914837 286.56,13.914837 C287.22667,13.914837 287.736665,13.7315055 288.09,13.364837 C288.443335,12.9981685 288.62,12.5015068 288.62,11.874837 L288.62,11.534837 Z M282.6,7.27483703 C283.18667,6.71483423 283.869996,6.29483843 284.65,6.01483703 C285.430004,5.73483563 286.226663,5.59483703 287.04,5.59483703 C287.880004,5.59483703 288.589997,5.69816933 289.17,5.90483703 C289.750003,6.11150473 290.219998,6.43150153 290.58,6.86483703 C290.940002,7.29817253 291.203333,7.84483373 291.37,8.50483703 C291.536668,9.16484033 291.62,9.94816583 291.62,10.854837 L291.62,15.874837 L288.62,15.874837 L288.62,14.814837 L288.56,14.814837 C288.306665,15.2281724 287.923336,15.5481692 287.41,15.774837 C286.896664,16.0015048 286.340003,16.114837 285.74,16.114837 C285.339998,16.114837 284.926669,16.0615042 284.5,15.954837 C284.073331,15.8481698 283.683335,15.6748382 283.33,15.434837 C282.976665,15.1948358 282.686668,14.874839 282.46,14.474837 C282.233332,14.074835 282.12,13.5815066 282.12,12.994837 C282.12,12.2748334 282.316665,11.6948392 282.71,11.254837 C283.103335,10.8148348 283.609997,10.4748382 284.23,10.234837 C284.850003,9.99483583 285.539996,9.83483743 286.3,9.75483703 C287.060004,9.67483663 287.799996,9.63483703 288.52,9.63483703 L288.52,9.47483703 C288.52,8.98150123 288.346668,8.61817153 288,8.38483703 C287.653332,8.15150253 287.226669,8.03483703 286.72,8.03483703 C286.253331,8.03483703 285.803336,8.13483603 285.37,8.33483703 C284.936665,8.53483803 284.566668,8.77483563 284.26,9.05483703 L282.6,7.27483703 Z M300.22,15.874837 L296.68,15.874837 L292.76,5.91483703 L296.38,5.91483703 L298.48,12.374837 L298.54,12.374837 L300.64,5.91483703 L304.14,5.91483703 L300.22,15.874837 Z M312.26,9.75483703 C312.26,9.23483443 312.096668,8.78817223 311.77,8.41483703 C311.443332,8.04150183 310.953337,7.85483703 310.3,7.85483703 C309.979998,7.85483703 309.686668,7.90483653 309.42,8.00483703 C309.153332,8.10483753 308.920001,8.24150283 308.72,8.41483703 C308.519999,8.58817123 308.360001,8.79150253 308.24,9.02483703 C308.119999,9.25817153 308.053333,9.50150243 308.04,9.75483703 L312.26,9.75483703 Z M315.28,11.014837 L315.28,11.414837 C315.28,11.548171 315.273333,11.6748364 315.26,11.794837 L308.04,11.794837 C308.066667,12.0748384 308.149999,12.3281692 308.29,12.554837 C308.430001,12.7815048 308.609999,12.9781695 308.83,13.144837 C309.050001,13.3115045 309.296665,13.4415032 309.57,13.534837 C309.843335,13.6281708 310.126665,13.674837 310.42,13.674837 C310.940003,13.674837 311.379998,13.5781713 311.74,13.384837 C312.100002,13.1915027 312.393332,12.9415052 312.62,12.634837 L314.9,14.074837 C314.433331,14.7548404 313.81667,15.2781685 313.05,15.644837 C312.283329,16.0115055 311.393338,16.194837 310.38,16.194837 C309.63333,16.194837 308.92667,16.0781715 308.26,15.844837 C307.59333,15.6115025 307.010002,15.2715059 306.51,14.824837 C306.009997,14.3781681 305.616668,13.8281736 305.33,13.174837 C305.043332,12.5215004 304.9,11.7748412 304.9,10.934837 C304.9,10.1214996 305.039999,9.38484033 305.32,8.72483703 C305.600001,8.06483373 305.979998,7.50483933 306.46,7.04483703 C306.940002,6.58483473 307.506663,6.22817163 308.16,5.97483703 C308.813337,5.72150243 309.519996,5.59483703 310.28,5.59483703 C311.013337,5.59483703 311.686664,5.71816913 312.3,5.96483703 C312.913336,6.21150493 313.439998,6.56816803 313.88,7.03483703 C314.320002,7.50150603 314.663332,8.06816703 314.91,8.73483703 C315.156668,9.40150703 315.28,10.1614994 315.28,11.014837 Z M317.36,15.874837 L317.36,0.754837027 L320.68,0.754837027 L320.68,15.874837 L317.36,15.874837 Z M339.5,11.754837 C339.5,12.5281742 339.346668,13.1781677 339.04,13.704837 C338.733332,14.2315063 338.326669,14.6548354 337.82,14.974837 C337.313331,15.2948386 336.73667,15.5248363 336.09,15.664837 C335.44333,15.8048377 334.780003,15.874837 334.1,15.874837 L328.46,15.874837 L328.46,1.71483703 L334.1,1.71483703 C334.646669,1.71483703 335.206664,1.77150313 335.78,1.88483703 C336.353336,1.99817093 336.873331,2.19150233 337.34,2.46483703 C337.806669,2.73817173 338.186665,3.10816803 338.48,3.57483703 C338.773335,4.04150603 338.92,4.63483343 338.92,5.35483703 C338.92,6.14150763 338.706669,6.79150113 338.28,7.30483703 C337.853331,7.81817293 337.293337,8.18816923 336.6,8.41483703 L336.6,8.45483703 C337.000002,8.52150403 337.376665,8.64483613 337.73,8.82483703 C338.083335,9.00483793 338.389999,9.23483563 338.65,9.51483703 C338.910001,9.79483843 339.116666,10.1215018 339.27,10.494837 C339.423334,10.8681722 339.5,11.288168 339.5,11.754837 Z M335.62,5.81483703 C335.62,5.33483463 335.436668,4.98483813 335.07,4.76483703 C334.703331,4.54483593 334.160004,4.43483703 333.44,4.43483703 L331.76,4.43483703 L331.76,7.35483703 L333.6,7.35483703 C334.240003,7.35483703 334.736665,7.22483833 335.09,6.96483703 C335.443335,6.70483573 335.62,6.32150623 335.62,5.81483703 Z M336.08,11.434837 C336.08,10.8481674 335.860002,10.4415048 335.42,10.214837 C334.979998,9.98816923 334.393337,9.87483703 333.66,9.87483703 L331.76,9.87483703 L331.76,13.114837 L333.68,13.114837 C333.946668,13.114837 334.223332,13.0915039 334.51,13.044837 C334.796668,12.9981701 335.056666,12.9148376 335.29,12.794837 C335.523335,12.6748364 335.713333,12.5048381 335.86,12.284837 C336.006667,12.0648359 336.08,11.7815054 336.08,11.434837 Z M348.04,8.59483703 C347.893333,8.55483683 347.750001,8.52817043 347.61,8.51483703 C347.469999,8.50150363 347.333334,8.49483703 347.2,8.49483703 C346.759998,8.49483703 346.390002,8.57483623 346.09,8.73483703 C345.789998,8.89483783 345.550001,9.08816923 345.37,9.31483703 C345.189999,9.54150483 345.06,9.78816903 344.98,10.054837 C344.9,10.321505 344.86,10.554836 344.86,10.754837 L344.86,15.874837 L341.58,15.874837 L341.58,5.91483703 L344.74,5.91483703 L344.74,7.35483703 L344.78,7.35483703 C345.033335,6.84816783 345.393331,6.43483863 345.86,6.11483703 C346.326669,5.79483543 346.866664,5.63483703 347.48,5.63483703 C347.613334,5.63483703 347.743333,5.64150363 347.87,5.65483703 C347.996667,5.66817043 348.1,5.68817023 348.18,5.71483703 L348.04,8.59483703 Z M359.7,10.854837 C359.7,11.6681744 359.553335,12.4048337 359.26,13.064837 C358.966665,13.7248403 358.566669,14.2848347 358.06,14.744837 C357.553331,15.2048393 356.96667,15.5615024 356.3,15.814837 C355.63333,16.0681716 354.920004,16.194837 354.16,16.194837 C353.41333,16.194837 352.703337,16.0681716 352.03,15.814837 C351.356663,15.5615024 350.770003,15.2048393 350.27,14.744837 C349.769998,14.2848347 349.373335,13.7248403 349.08,13.064837 C348.786665,12.4048337 348.64,11.6681744 348.64,10.854837 C348.64,10.0414996 348.786665,9.30817363 349.08,8.65483703 C349.373335,8.00150043 349.769998,7.44817263 350.27,6.99483703 C350.770003,6.54150143 351.356663,6.19483823 352.03,5.95483703 C352.703337,5.71483583 353.41333,5.59483703 354.16,5.59483703 C354.920004,5.59483703 355.63333,5.71483583 356.3,5.95483703 C356.96667,6.19483823 357.553331,6.54150143 358.06,6.99483703 C358.566669,7.44817263 358.966665,8.00150043 359.26,8.65483703 C359.553335,9.30817363 359.7,10.0414996 359.7,10.854837 Z M356.54,10.854837 C356.54,10.5348354 356.486667,10.2215052 356.38,9.91483703 C356.273333,9.60816883 356.120001,9.33817153 355.92,9.10483703 C355.719999,8.87150253 355.473335,8.68150443 355.18,8.53483703 C354.886665,8.38816963 354.546669,8.31483703 354.16,8.31483703 C353.773331,8.31483703 353.433335,8.38816963 353.14,8.53483703 C352.846665,8.68150443 352.603334,8.87150253 352.41,9.10483703 C352.216666,9.33817153 352.07,9.60816883 351.97,9.91483703 C351.869999,10.2215052 351.82,10.5348354 351.82,10.854837 C351.82,11.1748386 351.869999,11.4881688 351.97,11.794837 C352.07,12.1015052 352.219999,12.3781691 352.42,12.624837 C352.620001,12.8715049 352.866665,13.0681696 353.16,13.214837 C353.453335,13.3615044 353.793331,13.434837 354.18,13.434837 C354.566669,13.434837 354.906665,13.3615044 355.2,13.214837 C355.493335,13.0681696 355.739999,12.8715049 355.94,12.624837 C356.140001,12.3781691 356.289999,12.1015052 356.39,11.794837 C356.49,11.4881688 356.54,11.1748386 356.54,10.854837 Z M368.64,9.13483703 C368.453332,8.89483583 368.200002,8.70150443 367.88,8.55483703 C367.559998,8.40816963 367.233335,8.33483703 366.9,8.33483703 C366.553332,8.33483703 366.240001,8.40483633 365.96,8.54483703 C365.679999,8.68483773 365.440001,8.87150253 365.24,9.10483703 C365.039999,9.33817153 364.883334,9.60816883 364.77,9.91483703 C364.656666,10.2215052 364.6,10.5481686 364.6,10.894837 C364.6,11.2415054 364.653333,11.5681688 364.76,11.874837 C364.866667,12.1815052 365.023332,12.4515025 365.23,12.684837 C365.436668,12.9181715 365.683332,13.101503 365.97,13.234837 C366.256668,13.368171 366.579998,13.434837 366.94,13.434837 C367.273335,13.434837 367.603332,13.3715043 367.93,13.244837 C368.256668,13.1181697 368.519999,12.9348382 368.72,12.694837 L370.54,14.914837 C370.126665,15.314839 369.593337,15.6281692 368.94,15.854837 C368.286663,16.0815048 367.593337,16.194837 366.86,16.194837 C366.073329,16.194837 365.340003,16.0748382 364.66,15.834837 C363.979997,15.5948358 363.390002,15.2448393 362.89,14.784837 C362.389997,14.3248347 361.996668,13.7681736 361.71,13.114837 C361.423332,12.4615004 361.28,11.7215078 361.28,10.894837 C361.28,10.0814996 361.423332,9.34817363 361.71,8.69483703 C361.996668,8.04150043 362.389997,7.48483933 362.89,7.02483703 C363.390002,6.56483473 363.979997,6.21150493 364.66,5.96483703 C365.340003,5.71816913 366.066663,5.59483703 366.84,5.59483703 C367.200002,5.59483703 367.556665,5.62817003 367.91,5.69483703 C368.263335,5.76150403 368.603332,5.85150313 368.93,5.96483703 C369.256668,6.07817093 369.556665,6.21816953 369.83,6.38483703 C370.103335,6.55150453 370.339999,6.73483603 370.54,6.93483703 L368.64,9.13483703 Z M378.4,15.874837 L378.4,10.474837 C378.4,10.1948356 378.38,9.92817163 378.34,9.67483703 C378.3,9.42150243 378.223334,9.19817133 378.11,9.00483703 C377.996666,8.81150273 377.846668,8.65817093 377.66,8.54483703 C377.473332,8.43150313 377.233335,8.37483703 376.94,8.37483703 C376.366664,8.37483703 375.926668,8.57816833 375.62,8.98483703 C375.313332,9.39150573 375.16,9.89483403 375.16,10.494837 L375.16,15.874837 L371.88,15.874837 L371.88,0.754837027 L375.16,0.754837027 L375.16,7.17483703 L375.2,7.17483703 C375.426668,6.77483503 375.786664,6.41817193 376.28,6.10483703 C376.773336,5.79150213 377.366663,5.63483703 378.06,5.63483703 C378.740003,5.63483703 379.309998,5.75483583 379.77,5.99483703 C380.230002,6.23483823 380.603332,6.54483513 380.89,6.92483703 C381.176668,7.30483893 381.383333,7.74150123 381.51,8.23483703 C381.636667,8.72817283 381.7,9.22150123 381.7,9.71483703 L381.7,15.874837 L378.4,15.874837 Z M390.74,15.874837 L390.74,14.494837 L390.7,14.494837 C390.579999,14.7215048 390.423334,14.934836 390.23,15.134837 C390.036666,15.334838 389.810001,15.5081696 389.55,15.654837 C389.289999,15.8015044 389.003335,15.9215032 388.69,16.014837 C388.376665,16.1081708 388.046668,16.154837 387.7,16.154837 C387.03333,16.154837 386.470002,16.0348382 386.01,15.794837 C385.549998,15.5548358 385.176668,15.2448389 384.89,14.864837 C384.603332,14.4848351 384.396667,14.0515061 384.27,13.564837 C384.143333,13.0781679 384.08,12.5815062 384.08,12.074837 L384.08,5.91483703 L387.38,5.91483703 L387.38,11.314837 C387.38,11.5948384 387.4,11.8615024 387.44,12.114837 C387.48,12.3681716 387.556666,12.594836 387.67,12.794837 C387.783334,12.994838 387.933332,13.1515031 388.12,13.264837 C388.306668,13.3781709 388.553332,13.434837 388.86,13.434837 C389.433336,13.434837 389.869998,13.2215058 390.17,12.794837 C390.470001,12.3681682 390.62,11.8681732 390.62,11.294837 L390.62,5.91483703 L393.9,5.91483703 L393.9,15.874837 L390.74,15.874837 Z M402.92,8.59483703 C402.773333,8.55483683 402.630001,8.52817043 402.49,8.51483703 C402.349999,8.50150363 402.213334,8.49483703 402.08,8.49483703 C401.639998,8.49483703 401.270002,8.57483623 400.97,8.73483703 C400.669999,8.89483783 400.430001,9.08816923 400.25,9.31483703 C400.069999,9.54150483 399.94,9.78816903 399.86,10.054837 C399.78,10.321505 399.74,10.554836 399.74,10.754837 L399.74,15.874837 L396.46,15.874837 L396.46,5.91483703 L399.62,5.91483703 L399.62,7.35483703 L399.66,7.35483703 C399.913335,6.84816783 400.273331,6.43483863 400.74,6.11483703 C401.206669,5.79483543 401.746664,5.63483703 402.36,5.63483703 C402.493334,5.63483703 402.623333,5.64150363 402.75,5.65483703 C402.876667,5.66817043 402.98,5.68817023 403.06,5.71483703 L402.92,8.59483703 Z M410.88,9.75483703 C410.88,9.23483443 410.716668,8.78817223 410.39,8.41483703 C410.063332,8.04150183 409.573337,7.85483703 408.92,7.85483703 C408.599998,7.85483703 408.306668,7.90483653 408.04,8.00483703 C407.773332,8.10483753 407.540001,8.24150283 407.34,8.41483703 C407.139999,8.58817123 406.980001,8.79150253 406.86,9.02483703 C406.739999,9.25817153 406.673333,9.50150243 406.66,9.75483703 L410.88,9.75483703 Z M413.9,11.014837 L413.9,11.414837 C413.9,11.548171 413.893333,11.6748364 413.88,11.794837 L406.66,11.794837 C406.686667,12.0748384 406.769999,12.3281692 406.91,12.554837 C407.050001,12.7815048 407.229999,12.9781695 407.45,13.144837 C407.670001,13.3115045 407.916665,13.4415032 408.19,13.534837 C408.463335,13.6281708 408.746665,13.674837 409.04,13.674837 C409.560003,13.674837 409.999998,13.5781713 410.36,13.384837 C410.720002,13.1915027 411.013332,12.9415052 411.24,12.634837 L413.52,14.074837 C413.053331,14.7548404 412.43667,15.2781685 411.67,15.644837 C410.903329,16.0115055 410.013338,16.194837 409,16.194837 C408.25333,16.194837 407.54667,16.0781715 406.88,15.844837 C406.21333,15.6115025 405.630002,15.2715059 405.13,14.824837 C404.629997,14.3781681 404.236668,13.8281736 403.95,13.174837 C403.663332,12.5215004 403.52,11.7748412 403.52,10.934837 C403.52,10.1214996 403.659999,9.38484033 403.94,8.72483703 C404.220001,8.06483373 404.599998,7.50483933 405.08,7.04483703 C405.560002,6.58483473 406.126663,6.22817163 406.78,5.97483703 C407.433337,5.72150243 408.139996,5.59483703 408.9,5.59483703 C409.633337,5.59483703 410.306664,5.71816913 410.92,5.96483703 C411.533336,6.21150493 412.059998,6.56816803 412.5,7.03483703 C412.940002,7.50150603 413.283332,8.06816703 413.53,8.73483703 C413.776668,9.40150703 413.9,10.1614994 413.9,11.014837 Z" id="Travel" fill="#FFFFFF"></path>
                <path d="M13.68,8.75483703 C13.68,9.99484323 13.4500023,11.0648325 12.99,11.964837 C12.5299977,12.8648415 11.9233371,13.6048341 11.17,14.184837 C10.4166629,14.7648399 9.5666714,15.1915023 8.62,15.464837 C7.6733286,15.7381717 6.7133382,15.874837 5.74,15.874837 L0.46,15.874837 L0.46,1.71483703 L5.58,1.71483703 C6.580005,1.71483703 7.5666618,1.83150253 8.54,2.06483703 C9.5133382,2.29817153 10.3799962,2.68483433 11.14,3.22483703 C11.9000038,3.76483973 12.513331,4.48816583 12.98,5.39483703 C13.446669,6.30150823 13.68,7.42149703 13.68,8.75483703 Z M10.12,8.75483703 C10.12,7.95483303 9.9900013,7.29150633 9.73,6.76483703 C9.4699987,6.23816773 9.1233355,5.81817193 8.69,5.50483703 C8.2566645,5.19150213 7.7633361,4.96817103 7.21,4.83483703 C6.6566639,4.70150303 6.0866696,4.63483703 5.5,4.63483703 L3.8,4.63483703 L3.8,12.914837 L5.42,12.914837 C6.0333364,12.914837 6.6233305,12.8448377 7.19,12.704837 C7.7566695,12.5648363 8.2566645,12.3348386 8.69,12.014837 C9.1233355,11.6948354 9.4699987,11.268173 9.73,10.734837 C9.9900013,10.201501 10.12,9.54150763 10.12,8.75483703 Z M19.32,2.73483703 C19.32,2.98817163 19.2700005,3.22483593 19.17,3.44483703 C19.0699995,3.66483813 18.9366675,3.85483623 18.77,4.01483703 C18.6033325,4.17483783 18.4033345,4.30150323 18.17,4.39483703 C17.9366655,4.48817083 17.6933346,4.53483703 17.44,4.53483703 C16.906664,4.53483703 16.4600018,4.35817213 16.1,4.00483703 C15.7399982,3.65150193 15.56,3.22817283 15.56,2.73483703 C15.56,2.49483583 15.6066662,2.26483813 15.7,2.04483703 C15.7933338,1.82483593 15.9266658,1.63483783 16.1,1.47483703 C16.2733342,1.31483623 16.4733322,1.18483753 16.7,1.08483703 C16.9266678,0.984836527 17.173332,0.934837027 17.44,0.934837027 C17.6933346,0.934837027 17.9366655,0.981503227 18.17,1.07483703 C18.4033345,1.16817083 18.6033325,1.29483623 18.77,1.45483703 C18.9366675,1.61483783 19.0699995,1.80483593 19.17,2.02483703 C19.2700005,2.24483813 19.32,2.48150243 19.32,2.73483703 Z M15.8,15.874837 L15.8,5.91483703 L19.08,5.91483703 L19.08,15.874837 L15.8,15.874837 Z M28.22,15.874837 L28.22,10.434837 C28.22,10.1548356 28.1966669,9.88817163 28.15,9.63483703 C28.1033331,9.38150243 28.0266672,9.15817133 27.92,8.96483703 C27.8133328,8.77150273 27.6633343,8.61817093 27.47,8.50483703 C27.2766657,8.39150313 27.0333348,8.33483703 26.74,8.33483703 C26.4466652,8.33483703 26.1900011,8.39150313 25.97,8.50483703 C25.7499989,8.61817093 25.5666674,8.77483603 25.42,8.97483703 C25.2733326,9.17483803 25.1633337,9.40483573 25.09,9.66483703 C25.0166663,9.92483833 24.98,10.1948356 24.98,10.474837 L24.98,15.874837 L21.68,15.874837 L21.68,5.91483703 L24.86,5.91483703 L24.86,7.29483703 L24.9,7.29483703 C25.0200006,7.08150263 25.1766657,6.87150473 25.37,6.66483703 C25.5633343,6.45816933 25.7899987,6.28150443 26.05,6.13483703 C26.3100013,5.98816963 26.5933318,5.86817083 26.9,5.77483703 C27.2066682,5.68150323 27.5333316,5.63483703 27.88,5.63483703 C28.54667,5.63483703 29.113331,5.75483583 29.58,5.99483703 C30.046669,6.23483823 30.4233319,6.54483513 30.71,6.92483703 C30.9966681,7.30483893 31.2033327,7.74150123 31.33,8.23483703 C31.4566673,8.72817283 31.52,9.22150123 31.52,9.71483703 L31.52,15.874837 L28.22,15.874837 Z M44.56,10.854837 C44.56,11.6681744 44.4133348,12.4048337 44.12,13.064837 C43.8266652,13.7248403 43.4266692,14.2848347 42.92,14.744837 C42.4133308,15.2048393 41.82667,15.5615024 41.16,15.814837 C40.49333,16.0681716 39.7800038,16.194837 39.02,16.194837 C38.2733296,16.194837 37.5633367,16.0681716 36.89,15.814837 C36.2166633,15.5615024 35.6300025,15.2048393 35.13,14.744837 C34.6299975,14.2848347 34.2333348,13.7248403 33.94,13.064837 C33.6466652,12.4048337 33.5,11.6681744 33.5,10.854837 C33.5,10.0414996 33.6466652,9.30817363 33.94,8.65483703 C34.2333348,8.00150043 34.6299975,7.44817263 35.13,6.99483703 C35.6300025,6.54150143 36.2166633,6.19483823 36.89,5.95483703 C37.5633367,5.71483583 38.2733296,5.59483703 39.02,5.59483703 C39.7800038,5.59483703 40.49333,5.71483583 41.16,5.95483703 C41.82667,6.19483823 42.4133308,6.54150143 42.92,6.99483703 C43.4266692,7.44817263 43.8266652,8.00150043 44.12,8.65483703 C44.4133348,9.30817363 44.56,10.0414996 44.56,10.854837 Z M41.4,10.854837 C41.4,10.5348354 41.3466672,10.2215052 41.24,9.91483703 C41.1333328,9.60816883 40.980001,9.33817153 40.78,9.10483703 C40.579999,8.87150253 40.3333348,8.68150443 40.04,8.53483703 C39.7466652,8.38816963 39.4066686,8.31483703 39.02,8.31483703 C38.6333314,8.31483703 38.2933348,8.38816963 38,8.53483703 C37.7066652,8.68150443 37.4633343,8.87150253 37.27,9.10483703 C37.0766657,9.33817153 36.9300005,9.60816883 36.83,9.91483703 C36.7299995,10.2215052 36.68,10.5348354 36.68,10.854837 C36.68,11.1748386 36.7299995,11.4881688 36.83,11.794837 C36.9300005,12.1015052 37.079999,12.3781691 37.28,12.624837 C37.480001,12.8715049 37.7266652,13.0681696 38.02,13.214837 C38.3133348,13.3615044 38.6533314,13.434837 39.04,13.434837 C39.4266686,13.434837 39.7666652,13.3615044 40.06,13.214837 C40.3533348,13.0681696 40.599999,12.8715049 40.8,12.624837 C41.000001,12.3781691 41.1499995,12.1015052 41.25,11.794837 C41.3500005,11.4881688 41.4,11.1748386 41.4,10.854837 Z M52.5,8.85483703 C52.233332,8.60150243 51.9200018,8.38817123 51.56,8.21483703 C51.1999982,8.04150283 50.820002,7.95483703 50.42,7.95483703 C50.1133318,7.95483703 49.8300013,8.01483643 49.57,8.13483703 C49.3099987,8.25483763 49.18,8.46150223 49.18,8.75483703 C49.18,9.03483843 49.3233319,9.23483643 49.61,9.35483703 C49.8966681,9.47483763 50.3599968,9.60816963 51,9.75483703 C51.3733352,9.83483743 51.7499981,9.94816963 52.13,10.094837 C52.5100019,10.2415044 52.8533318,10.4348358 53.16,10.674837 C53.4666682,10.9148382 53.7133324,11.2081686 53.9,11.554837 C54.0866676,11.9015054 54.18,12.3148346 54.18,12.794837 C54.18,13.4215068 54.0533346,13.9515015 53.8,14.384837 C53.5466654,14.8181725 53.2166687,15.168169 52.81,15.434837 C52.4033313,15.701505 51.9466692,15.8948364 51.44,16.014837 C50.9333308,16.1348376 50.4266692,16.194837 49.92,16.194837 C49.1066626,16.194837 48.3100039,16.0648383 47.53,15.804837 C46.7499961,15.5448357 46.1000026,15.1615062 45.58,14.654837 L47.42,12.714837 C47.7133348,13.0348386 48.0733312,13.3015026 48.5,13.514837 C48.9266688,13.7281714 49.3799976,13.834837 49.86,13.834837 C50.126668,13.834837 50.3899987,13.7715043 50.65,13.644837 C50.9100013,13.5181697 51.04,13.2948386 51.04,12.974837 C51.04,12.6681688 50.8800016,12.4415044 50.56,12.294837 C50.2399984,12.1481696 49.7400034,11.9948378 49.06,11.834837 C48.7133316,11.7548366 48.3666684,11.648171 48.02,11.514837 C47.6733316,11.381503 47.3633347,11.2015048 47.09,10.974837 C46.8166653,10.7481692 46.5933342,10.468172 46.42,10.134837 C46.2466658,9.80150203 46.16,9.40150603 46.16,8.93483703 C46.16,8.33483403 46.2866654,7.82483913 46.54,7.40483703 C46.7933346,6.98483493 47.119998,6.64150503 47.52,6.37483703 C47.920002,6.10816903 48.3633309,5.91150433 48.85,5.78483703 C49.3366691,5.65816973 49.8199976,5.59483703 50.3,5.59483703 C51.0466704,5.59483703 51.7766631,5.71150253 52.49,5.94483703 C53.2033369,6.17817153 53.8066642,6.52816803 54.3,6.99483703 L52.5,8.85483703 Z M61.96,11.534837 L61.54,11.534837 C61.1799982,11.534837 60.8166685,11.5515035 60.45,11.584837 C60.0833315,11.6181705 59.7566681,11.6815032 59.47,11.774837 C59.1833319,11.8681708 58.9466676,12.0048361 58.76,12.184837 C58.5733324,12.3648379 58.48,12.6015022 58.48,12.894837 C58.48,13.0815046 58.5233329,13.241503 58.61,13.374837 C58.6966671,13.508171 58.806666,13.6148366 58.94,13.694837 C59.073334,13.7748374 59.2266658,13.8315035 59.4,13.864837 C59.5733342,13.8981705 59.7399992,13.914837 59.9,13.914837 C60.56667,13.914837 61.0766649,13.7315055 61.43,13.364837 C61.7833351,12.9981685 61.96,12.5015068 61.96,11.874837 L61.96,11.534837 Z M55.94,7.27483703 C56.5266696,6.71483423 57.2099961,6.29483843 57.99,6.01483703 C58.7700039,5.73483563 59.5666626,5.59483703 60.38,5.59483703 C61.2200042,5.59483703 61.9299971,5.69816933 62.51,5.90483703 C63.0900029,6.11150473 63.5599982,6.43150153 63.92,6.86483703 C64.2800018,7.29817253 64.5433325,7.84483373 64.71,8.50483703 C64.8766675,9.16484033 64.96,9.94816583 64.96,10.854837 L64.96,15.874837 L61.96,15.874837 L61.96,14.814837 L61.9,14.814837 C61.6466654,15.2281724 61.2633359,15.5481692 60.75,15.774837 C60.2366641,16.0015048 59.680003,16.114837 59.08,16.114837 C58.679998,16.114837 58.2666688,16.0615042 57.84,15.954837 C57.4133312,15.8481698 57.0233351,15.6748382 56.67,15.434837 C56.3166649,15.1948358 56.0266678,14.874839 55.8,14.474837 C55.5733322,14.074835 55.46,13.5815066 55.46,12.994837 C55.46,12.2748334 55.6566647,11.6948392 56.05,11.254837 C56.4433353,10.8148348 56.9499969,10.4748382 57.57,10.234837 C58.1900031,9.99483583 58.8799962,9.83483743 59.64,9.75483703 C60.4000038,9.67483663 61.1399964,9.63483703 61.86,9.63483703 L61.86,9.47483703 C61.86,8.98150123 61.6866684,8.61817153 61.34,8.38483703 C60.9933316,8.15150253 60.5666692,8.03483703 60.06,8.03483703 C59.593331,8.03483703 59.1433355,8.13483603 58.71,8.33483703 C58.2766645,8.53483803 57.9066682,8.77483563 57.6,9.05483703 L55.94,7.27483703 Z M73.96,15.874837 L73.96,14.494837 L73.92,14.494837 C73.7999994,14.7215048 73.6433343,14.934836 73.45,15.134837 C73.2566657,15.334838 73.0300013,15.5081696 72.77,15.654837 C72.5099987,15.8015044 72.2233349,15.9215032 71.91,16.014837 C71.5966651,16.1081708 71.2666684,16.154837 70.92,16.154837 C70.25333,16.154837 69.6900023,16.0348382 69.23,15.794837 C68.7699977,15.5548358 68.3966681,15.2448389 68.11,14.864837 C67.8233319,14.4848351 67.6166673,14.0515061 67.49,13.564837 C67.3633327,13.0781679 67.3,12.5815062 67.3,12.074837 L67.3,5.91483703 L70.6,5.91483703 L70.6,11.314837 C70.6,11.5948384 70.6199998,11.8615024 70.66,12.114837 C70.7000002,12.3681716 70.7766661,12.594836 70.89,12.794837 C71.0033339,12.994838 71.1533324,13.1515031 71.34,13.264837 C71.5266676,13.3781709 71.7733318,13.434837 72.08,13.434837 C72.6533362,13.434837 73.0899985,13.2215058 73.39,12.794837 C73.6900015,12.3681682 73.84,11.8681732 73.84,11.294837 L73.84,5.91483703 L77.12,5.91483703 L77.12,15.874837 L73.96,15.874837 Z M86.14,8.59483703 C85.9933326,8.55483683 85.8500007,8.52817043 85.71,8.51483703 C85.5699993,8.50150363 85.433334,8.49483703 85.3,8.49483703 C84.8599978,8.49483703 84.4900015,8.57483623 84.19,8.73483703 C83.8899985,8.89483783 83.6500009,9.08816923 83.47,9.31483703 C83.2899991,9.54150483 83.1600004,9.78816903 83.08,10.054837 C82.9999996,10.321505 82.96,10.554836 82.96,10.754837 L82.96,15.874837 L79.68,15.874837 L79.68,5.91483703 L82.84,5.91483703 L82.84,7.35483703 L82.88,7.35483703 C83.1333346,6.84816783 83.493331,6.43483863 83.96,6.11483703 C84.426669,5.79483543 84.9666636,5.63483703 85.58,5.63483703 C85.713334,5.63483703 85.8433327,5.64150363 85.97,5.65483703 C86.0966673,5.66817043 86.1999996,5.68817023 86.28,5.71483703 L86.14,8.59483703 Z M99.44,15.874837 L96.02,15.874837 L90.66,1.71483703 L94.5,1.71483703 L97.78,11.754837 L97.86,11.754837 L101.12,1.71483703 L104.9,1.71483703 L99.44,15.874837 Z M110.92,11.534837 L110.5,11.534837 C110.139998,11.534837 109.776668,11.5515035 109.41,11.584837 C109.043331,11.6181705 108.716668,11.6815032 108.43,11.774837 C108.143332,11.8681708 107.906668,12.0048361 107.72,12.184837 C107.533332,12.3648379 107.44,12.6015022 107.44,12.894837 C107.44,13.0815046 107.483333,13.241503 107.57,13.374837 C107.656667,13.508171 107.766666,13.6148366 107.9,13.694837 C108.033334,13.7748374 108.186666,13.8315035 108.36,13.864837 C108.533334,13.8981705 108.699999,13.914837 108.86,13.914837 C109.52667,13.914837 110.036665,13.7315055 110.39,13.364837 C110.743335,12.9981685 110.92,12.5015068 110.92,11.874837 L110.92,11.534837 Z M104.9,7.27483703 C105.48667,6.71483423 106.169996,6.29483843 106.95,6.01483703 C107.730004,5.73483563 108.526663,5.59483703 109.34,5.59483703 C110.180004,5.59483703 110.889997,5.69816933 111.47,5.90483703 C112.050003,6.11150473 112.519998,6.43150153 112.88,6.86483703 C113.240002,7.29817253 113.503332,7.84483373 113.67,8.50483703 C113.836667,9.16484033 113.92,9.94816583 113.92,10.854837 L113.92,15.874837 L110.92,15.874837 L110.92,14.814837 L110.86,14.814837 C110.606665,15.2281724 110.223336,15.5481692 109.71,15.774837 C109.196664,16.0015048 108.640003,16.114837 108.04,16.114837 C107.639998,16.114837 107.226669,16.0615042 106.8,15.954837 C106.373331,15.8481698 105.983335,15.6748382 105.63,15.434837 C105.276665,15.1948358 104.986668,14.874839 104.76,14.474837 C104.533332,14.074835 104.42,13.5815066 104.42,12.994837 C104.42,12.2748334 104.616665,11.6948392 105.01,11.254837 C105.403335,10.8148348 105.909997,10.4748382 106.53,10.234837 C107.150003,9.99483583 107.839996,9.83483743 108.6,9.75483703 C109.360004,9.67483663 110.099996,9.63483703 110.82,9.63483703 L110.82,9.47483703 C110.82,8.98150123 110.646668,8.61817153 110.3,8.38483703 C109.953332,8.15150253 109.526669,8.03483703 109.02,8.03483703 C108.553331,8.03483703 108.103336,8.13483603 107.67,8.33483703 C107.236665,8.53483803 106.866668,8.77483563 106.56,9.05483703 L104.9,7.27483703 Z M116.4,15.874837 L116.4,0.754837027 L119.72,0.754837027 L119.72,15.874837 L116.4,15.874837 Z M122.36,15.874837 L122.36,0.754837027 L125.68,0.754837027 L125.68,15.874837 L122.36,15.874837 Z M135.14,9.75483703 C135.14,9.23483443 134.976668,8.78817223 134.65,8.41483703 C134.323332,8.04150183 133.833337,7.85483703 133.18,7.85483703 C132.859998,7.85483703 132.566668,7.90483653 132.3,8.00483703 C132.033332,8.10483753 131.800001,8.24150283 131.6,8.41483703 C131.399999,8.58817123 131.240001,8.79150253 131.12,9.02483703 C130.999999,9.25817153 130.933333,9.50150243 130.92,9.75483703 L135.14,9.75483703 Z M138.16,11.014837 L138.16,11.414837 C138.16,11.548171 138.153333,11.6748364 138.14,11.794837 L130.92,11.794837 C130.946667,12.0748384 131.029999,12.3281692 131.17,12.554837 C131.310001,12.7815048 131.489999,12.9781695 131.71,13.144837 C131.930001,13.3115045 132.176665,13.4415032 132.45,13.534837 C132.723335,13.6281708 133.006665,13.674837 133.3,13.674837 C133.820003,13.674837 134.259998,13.5781713 134.62,13.384837 C134.980002,13.1915027 135.273332,12.9415052 135.5,12.634837 L137.78,14.074837 C137.313331,14.7548404 136.69667,15.2781685 135.93,15.644837 C135.163329,16.0115055 134.273338,16.194837 133.26,16.194837 C132.51333,16.194837 131.80667,16.0781715 131.14,15.844837 C130.47333,15.6115025 129.890002,15.2715059 129.39,14.824837 C128.889997,14.3781681 128.496668,13.8281736 128.21,13.174837 C127.923332,12.5215004 127.78,11.7748412 127.78,10.934837 C127.78,10.1214996 127.919999,9.38484033 128.2,8.72483703 C128.480001,8.06483373 128.859998,7.50483933 129.34,7.04483703 C129.820002,6.58483473 130.386663,6.22817163 131.04,5.97483703 C131.693337,5.72150243 132.399996,5.59483703 133.16,5.59483703 C133.893337,5.59483703 134.566664,5.71816913 135.18,5.96483703 C135.793336,6.21150493 136.319998,6.56816803 136.76,7.03483703 C137.200002,7.50150603 137.543332,8.06816703 137.79,8.73483703 C138.036668,9.40150703 138.16,10.1614994 138.16,11.014837 Z M145.82,17.374837 C145.619999,17.8948396 145.396668,18.3581683 145.15,18.764837 C144.903332,19.1715057 144.610002,19.5181689 144.27,19.804837 C143.929998,20.0915051 143.530002,20.3081696 143.07,20.454837 C142.609998,20.6015044 142.06667,20.674837 141.44,20.674837 C141.133332,20.674837 140.816668,20.6548372 140.49,20.614837 C140.163332,20.5748368 139.880001,20.521504 139.64,20.454837 L140,17.694837 C140.160001,17.7481706 140.336666,17.7915035 140.53,17.824837 C140.723334,17.8581705 140.899999,17.874837 141.06,17.874837 C141.566669,17.874837 141.933332,17.7581715 142.16,17.524837 C142.386668,17.2915025 142.579999,16.9615058 142.74,16.534837 L143.06,15.714837 L138.9,5.91483703 L142.54,5.91483703 L144.76,12.314837 L144.82,12.314837 L146.8,5.91483703 L150.28,5.91483703 L145.82,17.374837 Z M164.2,5.39483703 C163.906665,5.02150183 163.523336,4.72483813 163.05,4.50483703 C162.576664,4.28483593 162.120002,4.17483703 161.68,4.17483703 C161.453332,4.17483703 161.223334,4.19483683 160.99,4.23483703 C160.756665,4.27483723 160.546668,4.35150313 160.36,4.46483703 C160.173332,4.57817093 160.016667,4.72483613 159.89,4.90483703 C159.763333,5.08483793 159.7,5.31483563 159.7,5.59483703 C159.7,5.83483823 159.749999,6.03483623 159.85,6.19483703 C159.95,6.35483783 160.096666,6.49483643 160.29,6.61483703 C160.483334,6.73483763 160.713332,6.84483653 160.98,6.94483703 C161.246668,7.04483753 161.546665,7.14816983 161.88,7.25483703 C162.360002,7.41483783 162.859997,7.59150273 163.38,7.78483703 C163.900003,7.97817133 164.373331,8.23483543 164.8,8.55483703 C165.226669,8.87483863 165.579999,9.27150133 165.86,9.74483703 C166.140001,10.2181727 166.28,10.8081668 166.28,11.514837 C166.28,12.3281744 166.130001,13.0315007 165.83,13.624837 C165.529998,14.2181733 165.126669,14.7081684 164.62,15.094837 C164.113331,15.4815056 163.533337,15.7681694 162.88,15.954837 C162.226663,16.1415046 161.553337,16.234837 160.86,16.234837 C159.846662,16.234837 158.866671,16.0581721 157.92,15.704837 C156.973329,15.3515019 156.18667,14.8481736 155.56,14.194837 L157.8,11.914837 C158.146668,12.3415058 158.60333,12.6981689 159.17,12.984837 C159.736669,13.2715051 160.299997,13.414837 160.86,13.414837 C161.113335,13.414837 161.359999,13.3881706 161.6,13.334837 C161.840001,13.2815034 162.049999,13.1948376 162.23,13.074837 C162.410001,12.9548364 162.553333,12.794838 162.66,12.594837 C162.766667,12.394836 162.82,12.1548384 162.82,11.874837 C162.82,11.608169 162.753334,11.3815046 162.62,11.194837 C162.486666,11.0081694 162.296668,10.8381711 162.05,10.684837 C161.803332,10.5315029 161.496668,10.3915043 161.13,10.264837 C160.763331,10.1381697 160.346669,10.0015044 159.88,9.85483703 C159.426664,9.70816963 158.983335,9.53483803 158.55,9.33483703 C158.116664,9.13483603 157.730002,8.87817193 157.39,8.56483703 C157.049998,8.25150213 156.776668,7.87150593 156.57,7.42483703 C156.363332,6.97816813 156.26,6.43484023 156.26,5.79483703 C156.26,5.00816643 156.419998,4.33483983 156.74,3.77483703 C157.060002,3.21483423 157.479997,2.75483883 158,2.39483703 C158.520003,2.03483523 159.106663,1.77150453 159.76,1.60483703 C160.413337,1.43816953 161.07333,1.35483703 161.74,1.35483703 C162.540004,1.35483703 163.356662,1.50150223 164.19,1.79483703 C165.023337,2.08817183 165.75333,2.52150083 166.38,3.09483703 L164.2,5.39483703 Z M171.8,8.37483703 L171.8,12.174837 C171.8,12.641506 171.889999,12.9915025 172.07,13.224837 C172.250001,13.4581715 172.573331,13.574837 173.04,13.574837 C173.200001,13.574837 173.369999,13.5615038 173.55,13.534837 C173.730001,13.5081702 173.879999,13.4681706 174,13.414837 L174.04,15.814837 C173.813332,15.8948374 173.526668,15.9648367 173.18,16.024837 C172.833332,16.0848373 172.486668,16.114837 172.14,16.114837 C171.47333,16.114837 170.913336,16.0315045 170.46,15.864837 C170.006664,15.6981695 169.643335,15.4581719 169.37,15.144837 C169.096665,14.8315021 168.900001,14.4581725 168.78,14.024837 C168.659999,13.5915015 168.6,13.108173 168.6,12.574837 L168.6,8.37483703 L167,8.37483703 L167,5.91483703 L168.58,5.91483703 L168.58,3.29483703 L171.8,3.29483703 L171.8,5.91483703 L174.14,5.91483703 L174.14,8.37483703 L171.8,8.37483703 Z M181.56,11.534837 L181.14,11.534837 C180.779998,11.534837 180.416668,11.5515035 180.05,11.584837 C179.683331,11.6181705 179.356668,11.6815032 179.07,11.774837 C178.783332,11.8681708 178.546668,12.0048361 178.36,12.184837 C178.173332,12.3648379 178.08,12.6015022 178.08,12.894837 C178.08,13.0815046 178.123333,13.241503 178.21,13.374837 C178.296667,13.508171 178.406666,13.6148366 178.54,13.694837 C178.673334,13.7748374 178.826666,13.8315035 179,13.864837 C179.173334,13.8981705 179.339999,13.914837 179.5,13.914837 C180.16667,13.914837 180.676665,13.7315055 181.03,13.364837 C181.383335,12.9981685 181.56,12.5015068 181.56,11.874837 L181.56,11.534837 Z M175.54,7.27483703 C176.12667,6.71483423 176.809996,6.29483843 177.59,6.01483703 C178.370004,5.73483563 179.166663,5.59483703 179.98,5.59483703 C180.820004,5.59483703 181.529997,5.69816933 182.11,5.90483703 C182.690003,6.11150473 183.159998,6.43150153 183.52,6.86483703 C183.880002,7.29817253 184.143332,7.84483373 184.31,8.50483703 C184.476667,9.16484033 184.56,9.94816583 184.56,10.854837 L184.56,15.874837 L181.56,15.874837 L181.56,14.814837 L181.5,14.814837 C181.246665,15.2281724 180.863336,15.5481692 180.35,15.774837 C179.836664,16.0015048 179.280003,16.114837 178.68,16.114837 C178.279998,16.114837 177.866669,16.0615042 177.44,15.954837 C177.013331,15.8481698 176.623335,15.6748382 176.27,15.434837 C175.916665,15.1948358 175.626668,14.874839 175.4,14.474837 C175.173332,14.074835 175.06,13.5815066 175.06,12.994837 C175.06,12.2748334 175.256665,11.6948392 175.65,11.254837 C176.043335,10.8148348 176.549997,10.4748382 177.17,10.234837 C177.790003,9.99483583 178.479996,9.83483743 179.24,9.75483703 C180.000004,9.67483663 180.739996,9.63483703 181.46,9.63483703 L181.46,9.47483703 C181.46,8.98150123 181.286668,8.61817153 180.94,8.38483703 C180.593332,8.15150253 180.166669,8.03483703 179.66,8.03483703 C179.193331,8.03483703 178.743336,8.13483603 178.31,8.33483703 C177.876664,8.53483803 177.506668,8.77483563 177.2,9.05483703 L175.54,7.27483703 Z M190.36,8.37483703 L190.36,12.174837 C190.36,12.641506 190.449999,12.9915025 190.63,13.224837 C190.810001,13.4581715 191.133331,13.574837 191.6,13.574837 C191.760001,13.574837 191.929999,13.5615038 192.11,13.534837 C192.290001,13.5081702 192.439999,13.4681706 192.56,13.414837 L192.6,15.814837 C192.373332,15.8948374 192.086668,15.9648367 191.74,16.024837 C191.393332,16.0848373 191.046668,16.114837 190.7,16.114837 C190.03333,16.114837 189.473336,16.0315045 189.02,15.864837 C188.566664,15.6981695 188.203335,15.4581719 187.93,15.144837 C187.656665,14.8315021 187.460001,14.4581725 187.34,14.024837 C187.219999,13.5915015 187.16,13.108173 187.16,12.574837 L187.16,8.37483703 L185.56,8.37483703 L185.56,5.91483703 L187.14,5.91483703 L187.14,3.29483703 L190.36,3.29483703 L190.36,5.91483703 L192.7,5.91483703 L192.7,8.37483703 L190.36,8.37483703 Z M201.1,9.75483703 C201.1,9.23483443 200.936668,8.78817223 200.61,8.41483703 C200.283332,8.04150183 199.793337,7.85483703 199.14,7.85483703 C198.819998,7.85483703 198.526668,7.90483653 198.26,8.00483703 C197.993332,8.10483753 197.760001,8.24150283 197.56,8.41483703 C197.359999,8.58817123 197.200001,8.79150253 197.08,9.02483703 C196.959999,9.25817153 196.893333,9.50150243 196.88,9.75483703 L201.1,9.75483703 Z M204.12,11.014837 L204.12,11.414837 C204.12,11.548171 204.113333,11.6748364 204.1,11.794837 L196.88,11.794837 C196.906667,12.0748384 196.989999,12.3281692 197.13,12.554837 C197.270001,12.7815048 197.449999,12.9781695 197.67,13.144837 C197.890001,13.3115045 198.136665,13.4415032 198.41,13.534837 C198.683335,13.6281708 198.966665,13.674837 199.26,13.674837 C199.780003,13.674837 200.219998,13.5781713 200.58,13.384837 C200.940002,13.1915027 201.233332,12.9415052 201.46,12.634837 L203.74,14.074837 C203.273331,14.7548404 202.65667,15.2781685 201.89,15.644837 C201.123329,16.0115055 200.233338,16.194837 199.22,16.194837 C198.47333,16.194837 197.76667,16.0781715 197.1,15.844837 C196.43333,15.6115025 195.850002,15.2715059 195.35,14.824837 C194.849997,14.3781681 194.456668,13.8281736 194.17,13.174837 C193.883332,12.5215004 193.74,11.7748412 193.74,10.934837 C193.74,10.1214996 193.879999,9.38484033 194.16,8.72483703 C194.440001,8.06483373 194.819998,7.50483933 195.3,7.04483703 C195.780002,6.58483473 196.346663,6.22817163 197,5.97483703 C197.653337,5.72150243 198.359996,5.59483703 199.12,5.59483703 C199.853337,5.59483703 200.526664,5.71816913 201.14,5.96483703 C201.753336,6.21150493 202.279998,6.56816803 202.72,7.03483703 C203.160002,7.50150603 203.503332,8.06816703 203.75,8.73483703 C203.996668,9.40150703 204.12,10.1614994 204.12,11.014837 Z M222.08,6.07483703 C222.08,6.90150783 221.926668,7.59816753 221.62,8.16483703 C221.313332,8.73150653 220.900003,9.18816863 220.38,9.53483703 C219.859997,9.88150543 219.260003,10.1348362 218.58,10.294837 C217.899997,10.4548378 217.193337,10.534837 216.46,10.534837 L214.76,10.534837 L214.76,15.874837 L211.34,15.874837 L211.34,1.71483703 L216.54,1.71483703 C217.313337,1.71483703 218.036663,1.79150293 218.71,1.94483703 C219.383337,2.09817113 219.969997,2.34483533 220.47,2.68483703 C220.970002,3.02483873 221.363332,3.47150093 221.65,4.02483703 C221.936668,4.57817313 222.08,5.26149963 222.08,6.07483703 Z M218.66,6.09483703 C218.66,5.76150203 218.593334,5.48817143 218.46,5.27483703 C218.326666,5.06150263 218.146668,4.89483763 217.92,4.77483703 C217.693332,4.65483643 217.436668,4.57483723 217.15,4.53483703 C216.863332,4.49483683 216.566668,4.47483703 216.26,4.47483703 L214.76,4.47483703 L214.76,7.81483703 L216.2,7.81483703 C216.520002,7.81483703 216.826665,7.78817063 217.12,7.73483703 C217.413335,7.68150343 217.676665,7.58817103 217.91,7.45483703 C218.143334,7.32150303 218.326666,7.14483813 218.46,6.92483703 C218.593334,6.70483593 218.66,6.42817203 218.66,6.09483703 Z M228.9,11.534837 L228.48,11.534837 C228.119998,11.534837 227.756668,11.5515035 227.39,11.584837 C227.023331,11.6181705 226.696668,11.6815032 226.41,11.774837 C226.123332,11.8681708 225.886668,12.0048361 225.7,12.184837 C225.513332,12.3648379 225.42,12.6015022 225.42,12.894837 C225.42,13.0815046 225.463333,13.241503 225.55,13.374837 C225.636667,13.508171 225.746666,13.6148366 225.88,13.694837 C226.013334,13.7748374 226.166666,13.8315035 226.34,13.864837 C226.513334,13.8981705 226.679999,13.914837 226.84,13.914837 C227.50667,13.914837 228.016665,13.7315055 228.37,13.364837 C228.723335,12.9981685 228.9,12.5015068 228.9,11.874837 L228.9,11.534837 Z M222.88,7.27483703 C223.46667,6.71483423 224.149996,6.29483843 224.93,6.01483703 C225.710004,5.73483563 226.506663,5.59483703 227.32,5.59483703 C228.160004,5.59483703 228.869997,5.69816933 229.45,5.90483703 C230.030003,6.11150473 230.499998,6.43150153 230.86,6.86483703 C231.220002,7.29817253 231.483332,7.84483373 231.65,8.50483703 C231.816667,9.16484033 231.9,9.94816583 231.9,10.854837 L231.9,15.874837 L228.9,15.874837 L228.9,14.814837 L228.84,14.814837 C228.586665,15.2281724 228.203336,15.5481692 227.69,15.774837 C227.176664,16.0015048 226.620003,16.114837 226.02,16.114837 C225.619998,16.114837 225.206669,16.0615042 224.78,15.954837 C224.353331,15.8481698 223.963335,15.6748382 223.61,15.434837 C223.256665,15.1948358 222.966668,14.874839 222.74,14.474837 C222.513332,14.074835 222.4,13.5815066 222.4,12.994837 C222.4,12.2748334 222.596665,11.6948392 222.99,11.254837 C223.383335,10.8148348 223.889997,10.4748382 224.51,10.234837 C225.130003,9.99483583 225.819996,9.83483743 226.58,9.75483703 C227.340004,9.67483663 228.079996,9.63483703 228.8,9.63483703 L228.8,9.47483703 C228.8,8.98150123 228.626668,8.61817153 228.28,8.38483703 C227.933332,8.15150253 227.506669,8.03483703 227,8.03483703 C226.533331,8.03483703 226.083335,8.13483603 225.65,8.33483703 C225.216664,8.53483803 224.846668,8.77483563 224.54,9.05483703 L222.88,7.27483703 Z M240.8,8.59483703 C240.653333,8.55483683 240.510001,8.52817043 240.37,8.51483703 C240.229999,8.50150363 240.093334,8.49483703 239.96,8.49483703 C239.519998,8.49483703 239.150001,8.57483623 238.85,8.73483703 C238.549998,8.89483783 238.310001,9.08816923 238.13,9.31483703 C237.949999,9.54150483 237.82,9.78816903 237.74,10.054837 C237.66,10.321505 237.62,10.554836 237.62,10.754837 L237.62,15.874837 L234.34,15.874837 L234.34,5.91483703 L237.5,5.91483703 L237.5,7.35483703 L237.54,7.35483703 C237.793335,6.84816783 238.153331,6.43483863 238.62,6.11483703 C239.086669,5.79483543 239.626664,5.63483703 240.24,5.63483703 C240.373334,5.63483703 240.503333,5.64150363 240.63,5.65483703 C240.756667,5.66817043 240.86,5.68817023 240.94,5.71483703 L240.8,8.59483703 Z M252.96,15.874837 L248.9,15.874837 L245.64,11.094837 L245.58,11.094837 L245.58,15.874837 L242.28,15.874837 L242.28,0.754837027 L245.58,0.754837027 L245.58,9.95483703 L245.64,9.95483703 L248.82,5.91483703 L252.8,5.91483703 L248.96,10.414837 L252.96,15.874837 Z M258.16,7.67483703 C258.16,7.94150503 258.106667,8.19150253 258,8.42483703 C257.893333,8.65817153 257.753334,8.86150283 257.58,9.03483703 C257.406666,9.20817123 257.200001,9.34483653 256.96,9.44483703 C256.719999,9.54483753 256.473335,9.59483703 256.22,9.59483703 C255.953332,9.59483703 255.700001,9.54817083 255.46,9.45483703 C255.219999,9.36150323 255.010001,9.22817123 254.83,9.05483703 C254.649999,8.88150283 254.506667,8.68150483 254.4,8.45483703 C254.293333,8.22816923 254.24,7.98150503 254.24,7.71483703 C254.24,7.44816903 254.293333,7.19817153 254.4,6.96483703 C254.506667,6.73150253 254.649999,6.52817123 254.83,6.35483703 C255.010001,6.18150283 255.219999,6.04483753 255.46,5.94483703 C255.700001,5.84483653 255.953332,5.79483703 256.22,5.79483703 C256.473335,5.79483703 256.719999,5.84483653 256.96,5.94483703 C257.200001,6.04483753 257.406666,6.17816953 257.58,6.34483703 C257.753334,6.51150453 257.893333,6.71150253 258,6.94483703 C258.106667,7.17817153 258.16,7.42150243 258.16,7.67483703 Z M258.16,14.094837 C258.16,14.361505 258.106667,14.6115025 258,14.844837 C257.893333,15.0781715 257.753334,15.2781695 257.58,15.444837 C257.406666,15.6115045 257.200001,15.7448365 256.96,15.844837 C256.719999,15.9448375 256.473335,15.994837 256.22,15.994837 C255.953332,15.994837 255.700001,15.9481708 255.46,15.854837 C255.219999,15.7615032 255.010001,15.6281712 254.83,15.454837 C254.649999,15.2815028 254.506667,15.0815048 254.4,14.854837 C254.293333,14.6281692 254.24,14.381505 254.24,14.114837 C254.24,13.848169 254.293333,13.5981715 254.4,13.364837 C254.506667,13.1315025 254.649999,12.9281712 254.83,12.754837 C255.010001,12.5815028 255.219999,12.4448375 255.46,12.344837 C255.700001,12.2448365 255.953332,12.194837 256.22,12.194837 C256.473335,12.194837 256.719999,12.2448365 256.96,12.344837 C257.200001,12.4448375 257.406666,12.5781695 257.58,12.744837 C257.753334,12.9115045 257.893333,13.1115025 258,13.344837 C258.106667,13.5781715 258.16,13.828169 258.16,14.094837 Z" id="Dino-Valley:" fill="#B8E986"></path>
            </g>
        </g>
    </g>
</svg>