<?xml version="1.0" encoding="UTF-8"?>
<svg width="409px" height="17px" viewBox="0 0 409 17" version="1.1" xmlns="http://www.w3.org/2000/svg" xmlns:xlink="http://www.w3.org/1999/xlink">
    <!-- Generator: Sketch 49 (51002) - http://www.bohemiancoding.com/sketch -->
    <title>Fossil Rim: Travel@3x</title>
    <desc>Created with Sketch.</desc>
    <defs></defs>
    <g id="Marketing-Brochures" stroke="none" stroke-width="1" fill="none" fill-rule="evenodd">
        <g id="Desktop" transform="translate(-83.000000, -416.000000)">
            <g id="Fossil-Rim:-Travel" transform="translate(83.000000, 416.000000)">
                <path d="M265.88,4.50967405 L265.88,15.7496741 L262.46,15.7496741 L262.46,4.50967405 L258.46,4.50967405 L258.46,1.58967405 L269.88,1.58967405 L269.88,4.50967405 L265.88,4.50967405 Z M275.92,8.46967405 C275.773333,8.42967385 275.630001,8.40300745 275.49,8.38967405 C275.349999,8.37634065 275.213334,8.36967405 275.08,8.36967405 C274.639998,8.36967405 274.270002,8.44967325 273.97,8.60967405 C273.669999,8.76967485 273.430001,8.96300625 273.25,9.18967405 C273.069999,9.41634185 272.94,9.66300605 272.86,9.92967405 C272.78,10.1963421 272.74,10.4296731 272.74,10.6296741 L272.74,15.7496741 L269.46,15.7496741 L269.46,5.78967405 L272.62,5.78967405 L272.62,7.22967405 L272.66,7.22967405 C272.913335,6.72300485 273.273331,6.30967565 273.74,5.98967405 C274.206669,5.66967245 274.746664,5.50967405 275.36,5.50967405 C275.493334,5.50967405 275.623333,5.51634065 275.75,5.52967405 C275.876667,5.54300745 275.98,5.56300725 276.06,5.58967405 L275.92,8.46967405 Z M282.94,11.4096741 L282.52,11.4096741 C282.159998,11.4096741 281.796669,11.4263406 281.43,11.4596741 C281.063332,11.4930076 280.736668,11.5563403 280.45,11.6496741 C280.163332,11.7430079 279.926668,11.8796732 279.74,12.0596741 C279.553332,12.239675 279.46,12.4763393 279.46,12.7696741 C279.46,12.9563417 279.503333,13.1163401 279.59,13.2496741 C279.676667,13.3830081 279.786666,13.4896737 279.92,13.5696741 C280.053334,13.6496745 280.206666,13.7063406 280.38,13.7396741 C280.553334,13.7730076 280.719999,13.7896741 280.88,13.7896741 C281.54667,13.7896741 282.056665,13.6063426 282.41,13.2396741 C282.763335,12.8730056 282.94,12.3763439 282.94,11.7496741 L282.94,11.4096741 Z M276.92,7.14967405 C277.50667,6.58967125 278.189996,6.16967545 278.97,5.88967405 C279.750004,5.60967265 280.546663,5.46967405 281.36,5.46967405 C282.200004,5.46967405 282.909997,5.57300635 283.49,5.77967405 C284.070003,5.98634175 284.539998,6.30633855 284.9,6.73967405 C285.260002,7.17300955 285.523333,7.71967075 285.69,8.37967405 C285.856668,9.03967735 285.94,9.82300285 285.94,10.7296741 L285.94,15.7496741 L282.94,15.7496741 L282.94,14.6896741 L282.88,14.6896741 C282.626665,15.1030095 282.243336,15.4230063 281.73,15.6496741 C281.216664,15.8763419 280.660003,15.9896741 280.06,15.9896741 C279.659998,15.9896741 279.246669,15.9363413 278.82,15.8296741 C278.393331,15.7230069 278.003335,15.5496753 277.65,15.3096741 C277.296665,15.0696729 277.006668,14.7496761 276.78,14.3496741 C276.553332,13.9496721 276.44,13.4563437 276.44,12.8696741 C276.44,12.1496705 276.636665,11.5696763 277.03,11.1296741 C277.423335,10.6896719 277.929997,10.3496753 278.55,10.1096741 C279.170003,9.86967285 279.859996,9.70967445 280.62,9.62967405 C281.380004,9.54967365 282.119996,9.50967405 282.84,9.50967405 L282.84,9.34967405 C282.84,8.85633825 282.666668,8.49300855 282.32,8.25967405 C281.973332,8.02633955 281.546669,7.90967405 281.04,7.90967405 C280.573331,7.90967405 280.123336,8.00967305 279.69,8.20967405 C279.256665,8.40967505 278.886668,8.64967265 278.58,8.92967405 L276.92,7.14967405 Z M294.54,15.7496741 L291,15.7496741 L287.08,5.78967405 L290.7,5.78967405 L292.8,12.2496741 L292.86,12.2496741 L294.96,5.78967405 L298.46,5.78967405 L294.54,15.7496741 Z M306.58,9.62967405 C306.58,9.10967145 306.416668,8.66300925 306.09,8.28967405 C305.763332,7.91633885 305.273337,7.72967405 304.62,7.72967405 C304.299998,7.72967405 304.006668,7.77967355 303.74,7.87967405 C303.473332,7.97967455 303.240001,8.11633985 303.04,8.28967405 C302.839999,8.46300825 302.680001,8.66633955 302.56,8.89967405 C302.439999,9.13300855 302.373333,9.37633945 302.36,9.62967405 L306.58,9.62967405 Z M309.6,10.8896741 L309.6,11.2896741 C309.6,11.4230081 309.593333,11.5496735 309.58,11.6696741 L302.36,11.6696741 C302.386667,11.9496755 302.469999,12.2030063 302.61,12.4296741 C302.750001,12.6563419 302.929999,12.8530066 303.15,13.0196741 C303.370001,13.1863416 303.616665,13.3163403 303.89,13.4096741 C304.163335,13.5030079 304.446665,13.5496741 304.74,13.5496741 C305.260003,13.5496741 305.699998,13.4530084 306.06,13.2596741 C306.420002,13.0663398 306.713332,12.8163423 306.94,12.5096741 L309.22,13.9496741 C308.753331,14.6296775 308.13667,15.1530056 307.37,15.5196741 C306.603329,15.8863426 305.713338,16.0696741 304.7,16.0696741 C303.95333,16.0696741 303.24667,15.9530086 302.58,15.7196741 C301.91333,15.4863396 301.330002,15.146343 300.83,14.6996741 C300.329997,14.2530052 299.936668,13.7030107 299.65,13.0496741 C299.363332,12.3963375 299.22,11.6496783 299.22,10.8096741 C299.22,9.99633665 299.359999,9.25967735 299.64,8.59967405 C299.920001,7.93967075 300.299998,7.37967635 300.78,6.91967405 C301.260002,6.45967175 301.826663,6.10300865 302.48,5.84967405 C303.133337,5.59633945 303.839996,5.46967405 304.6,5.46967405 C305.333337,5.46967405 306.006664,5.59300615 306.62,5.83967405 C307.233336,6.08634195 307.759998,6.44300505 308.2,6.90967405 C308.640002,7.37634305 308.983332,7.94300405 309.23,8.60967405 C309.476668,9.27634405 309.6,10.0363365 309.6,10.8896741 Z M311.68,15.7496741 L311.68,0.629674055 L315,0.629674055 L315,15.7496741 L311.68,15.7496741 Z M333.82,11.6296741 C333.82,12.4030113 333.666668,13.0530048 333.36,13.5796741 C333.053332,14.1063434 332.646669,14.5296725 332.14,14.8496741 C331.633331,15.1696757 331.05667,15.3996734 330.41,15.5396741 C329.76333,15.6796748 329.100003,15.7496741 328.42,15.7496741 L322.78,15.7496741 L322.78,1.58967405 L328.42,1.58967405 C328.966669,1.58967405 329.526664,1.64634015 330.1,1.75967405 C330.673336,1.87300795 331.193331,2.06633935 331.66,2.33967405 C332.126669,2.61300875 332.506665,2.98300505 332.8,3.44967405 C333.093335,3.91634305 333.24,4.50967045 333.24,5.22967405 C333.24,6.01634465 333.026669,6.66633815 332.6,7.17967405 C332.173331,7.69300995 331.613337,8.06300625 330.92,8.28967405 L330.92,8.32967405 C331.320002,8.39634105 331.696665,8.51967315 332.05,8.69967405 C332.403335,8.87967495 332.709999,9.10967265 332.97,9.38967405 C333.230001,9.66967545 333.436666,9.99633885 333.59,10.3696741 C333.743334,10.7430093 333.82,11.1630051 333.82,11.6296741 Z M329.94,5.68967405 C329.94,5.20967165 329.756668,4.85967515 329.39,4.63967405 C329.023331,4.41967295 328.480004,4.30967405 327.76,4.30967405 L326.08,4.30967405 L326.08,7.22967405 L327.92,7.22967405 C328.560003,7.22967405 329.056665,7.09967535 329.41,6.83967405 C329.763335,6.57967275 329.94,6.19634325 329.94,5.68967405 Z M330.4,11.3096741 C330.4,10.7230045 330.180002,10.3163419 329.74,10.0896741 C329.299998,9.86300625 328.713337,9.74967405 327.98,9.74967405 L326.08,9.74967405 L326.08,12.9896741 L328,12.9896741 C328.266668,12.9896741 328.543332,12.966341 328.83,12.9196741 C329.116668,12.8730072 329.376666,12.7896747 329.61,12.6696741 C329.843335,12.5496735 330.033333,12.3796752 330.18,12.1596741 C330.326667,11.939673 330.4,11.6563425 330.4,11.3096741 Z M342.36,8.46967405 C342.213333,8.42967385 342.070001,8.40300745 341.93,8.38967405 C341.789999,8.37634065 341.653334,8.36967405 341.52,8.36967405 C341.079998,8.36967405 340.710002,8.44967325 340.41,8.60967405 C340.109999,8.76967485 339.870001,8.96300625 339.69,9.18967405 C339.509999,9.41634185 339.38,9.66300605 339.3,9.92967405 C339.22,10.1963421 339.18,10.4296731 339.18,10.6296741 L339.18,15.7496741 L335.9,15.7496741 L335.9,5.78967405 L339.06,5.78967405 L339.06,7.22967405 L339.1,7.22967405 C339.353335,6.72300485 339.713331,6.30967565 340.18,5.98967405 C340.646669,5.66967245 341.186664,5.50967405 341.8,5.50967405 C341.933334,5.50967405 342.063333,5.51634065 342.19,5.52967405 C342.316667,5.54300745 342.42,5.56300725 342.5,5.58967405 L342.36,8.46967405 Z M354.02,10.7296741 C354.02,11.5430115 353.873335,12.2796708 353.58,12.9396741 C353.286665,13.5996774 352.886669,14.1596718 352.38,14.6196741 C351.873331,15.0796764 351.28667,15.4363395 350.62,15.6896741 C349.95333,15.9430087 349.240004,16.0696741 348.48,16.0696741 C347.73333,16.0696741 347.023337,15.9430087 346.35,15.6896741 C345.676663,15.4363395 345.090003,15.0796764 344.59,14.6196741 C344.089998,14.1596718 343.693335,13.5996774 343.4,12.9396741 C343.106665,12.2796708 342.96,11.5430115 342.96,10.7296741 C342.96,9.91633665 343.106665,9.18301065 343.4,8.52967405 C343.693335,7.87633745 344.089998,7.32300965 344.59,6.86967405 C345.090003,6.41633845 345.676663,6.06967525 346.35,5.82967405 C347.023337,5.58967285 347.73333,5.46967405 348.48,5.46967405 C349.240004,5.46967405 349.95333,5.58967285 350.62,5.82967405 C351.28667,6.06967525 351.873331,6.41633845 352.38,6.86967405 C352.886669,7.32300965 353.286665,7.87633745 353.58,8.52967405 C353.873335,9.18301065 354.02,9.91633665 354.02,10.7296741 Z M350.86,10.7296741 C350.86,10.4096725 350.806667,10.0963423 350.7,9.78967405 C350.593333,9.48300585 350.440001,9.21300855 350.24,8.97967405 C350.039999,8.74633955 349.793335,8.55634145 349.5,8.40967405 C349.206665,8.26300665 348.866669,8.18967405 348.48,8.18967405 C348.093331,8.18967405 347.753335,8.26300665 347.46,8.40967405 C347.166665,8.55634145 346.923334,8.74633955 346.73,8.97967405 C346.536666,9.21300855 346.39,9.48300585 346.29,9.78967405 C346.189999,10.0963423 346.14,10.4096725 346.14,10.7296741 C346.14,11.0496757 346.189999,11.3630059 346.29,11.6696741 C346.39,11.9763423 346.539999,12.2530062 346.74,12.4996741 C346.940001,12.746342 347.186665,12.9430067 347.48,13.0896741 C347.773335,13.2363415 348.113331,13.3096741 348.5,13.3096741 C348.886669,13.3096741 349.226665,13.2363415 349.52,13.0896741 C349.813335,12.9430067 350.059999,12.746342 350.26,12.4996741 C350.460001,12.2530062 350.61,11.9763423 350.71,11.6696741 C350.810001,11.3630059 350.86,11.0496757 350.86,10.7296741 Z M362.96,9.00967405 C362.773332,8.76967285 362.520002,8.57634145 362.2,8.42967405 C361.879998,8.28300665 361.553335,8.20967405 361.22,8.20967405 C360.873332,8.20967405 360.560001,8.27967335 360.28,8.41967405 C359.999999,8.55967475 359.760001,8.74633955 359.56,8.97967405 C359.359999,9.21300855 359.203334,9.48300585 359.09,9.78967405 C358.976666,10.0963423 358.92,10.4230057 358.92,10.7696741 C358.92,11.1163425 358.973333,11.4430059 359.08,11.7496741 C359.186667,12.0563423 359.343332,12.3263396 359.55,12.5596741 C359.756668,12.7930086 360.003332,12.9763401 360.29,13.1096741 C360.576668,13.2430081 360.899998,13.3096741 361.26,13.3096741 C361.593335,13.3096741 361.923332,13.2463414 362.25,13.1196741 C362.576668,12.9930068 362.839999,12.8096753 363.04,12.5696741 L364.86,14.7896741 C364.446665,15.1896761 363.913337,15.5030063 363.26,15.7296741 C362.606663,15.9563419 361.913337,16.0696741 361.18,16.0696741 C360.393329,16.0696741 359.660003,15.9496753 358.98,15.7096741 C358.299997,15.4696729 357.710003,15.1196764 357.21,14.6596741 C356.709998,14.1996718 356.316668,13.6430107 356.03,12.9896741 C355.743332,12.3363375 355.6,11.5963449 355.6,10.7696741 C355.6,9.95633665 355.743332,9.22301065 356.03,8.56967405 C356.316668,7.91633745 356.709998,7.35967635 357.21,6.89967405 C357.710003,6.43967175 358.299997,6.08634195 358.98,5.83967405 C359.660003,5.59300615 360.386663,5.46967405 361.16,5.46967405 C361.520002,5.46967405 361.876665,5.50300705 362.23,5.56967405 C362.583335,5.63634105 362.923332,5.72634015 363.25,5.83967405 C363.576668,5.95300795 363.876665,6.09300655 364.15,6.25967405 C364.423335,6.42634155 364.659999,6.60967305 364.86,6.80967405 L362.96,9.00967405 Z M372.72,15.7496741 L372.72,10.3496741 C372.72,10.0696727 372.7,9.80300865 372.66,9.54967405 C372.62,9.29633945 372.543334,9.07300835 372.43,8.87967405 C372.316666,8.68633975 372.166668,8.53300795 371.98,8.41967405 C371.793332,8.30634015 371.553335,8.24967405 371.26,8.24967405 C370.686664,8.24967405 370.246668,8.45300535 369.94,8.85967405 C369.633332,9.26634275 369.48,9.76967105 369.48,10.3696741 L369.48,15.7496741 L366.2,15.7496741 L366.2,0.629674055 L369.48,0.629674055 L369.48,7.04967405 L369.52,7.04967405 C369.746668,6.64967205 370.106664,6.29300895 370.6,5.97967405 C371.093336,5.66633915 371.686663,5.50967405 372.38,5.50967405 C373.060003,5.50967405 373.629998,5.62967285 374.09,5.86967405 C374.550002,6.10967525 374.923332,6.41967215 375.21,6.79967405 C375.496668,7.17967595 375.703333,7.61633825 375.83,8.10967405 C375.956667,8.60300985 376.02,9.09633825 376.02,9.58967405 L376.02,15.7496741 L372.72,15.7496741 Z M385.06,15.7496741 L385.06,14.3696741 L385.02,14.3696741 C384.899999,14.5963419 384.743334,14.8096731 384.55,15.0096741 C384.356666,15.2096751 384.130001,15.3830067 383.87,15.5296741 C383.609999,15.6763415 383.323335,15.7963403 383.01,15.8896741 C382.696665,15.9830079 382.366668,16.0296741 382.02,16.0296741 C381.35333,16.0296741 380.790002,15.9096753 380.33,15.6696741 C379.869998,15.4296729 379.496668,15.119676 379.21,14.7396741 C378.923332,14.3596722 378.716667,13.9263432 378.59,13.4396741 C378.463333,12.953005 378.4,12.4563433 378.4,11.9496741 L378.4,5.78967405 L381.7,5.78967405 L381.7,11.1896741 C381.7,11.4696755 381.72,11.7363395 381.76,11.9896741 C381.8,12.2430087 381.876666,12.4696731 381.99,12.6696741 C382.103334,12.8696751 382.253332,13.0263402 382.44,13.1396741 C382.626668,13.253008 382.873332,13.3096741 383.18,13.3096741 C383.753336,13.3096741 384.189998,13.0963429 384.49,12.6696741 C384.790001,12.2430053 384.94,11.7430103 384.94,11.1696741 L384.94,5.78967405 L388.22,5.78967405 L388.22,15.7496741 L385.06,15.7496741 Z M397.24,8.46967405 C397.093333,8.42967385 396.950001,8.40300745 396.81,8.38967405 C396.669999,8.37634065 396.533334,8.36967405 396.4,8.36967405 C395.959998,8.36967405 395.590001,8.44967325 395.29,8.60967405 C394.989998,8.76967485 394.750001,8.96300625 394.57,9.18967405 C394.389999,9.41634185 394.26,9.66300605 394.18,9.92967405 C394.1,10.1963421 394.06,10.4296731 394.06,10.6296741 L394.06,15.7496741 L390.78,15.7496741 L390.78,5.78967405 L393.94,5.78967405 L393.94,7.22967405 L393.98,7.22967405 C394.233335,6.72300485 394.593331,6.30967565 395.06,5.98967405 C395.526669,5.66967245 396.066664,5.50967405 396.68,5.50967405 C396.813334,5.50967405 396.943333,5.51634065 397.07,5.52967405 C397.196667,5.54300745 397.3,5.56300725 397.38,5.58967405 L397.24,8.46967405 Z M405.2,9.62967405 C405.2,9.10967145 405.036668,8.66300925 404.71,8.28967405 C404.383332,7.91633885 403.893337,7.72967405 403.24,7.72967405 C402.919998,7.72967405 402.626668,7.77967355 402.36,7.87967405 C402.093332,7.97967455 401.860001,8.11633985 401.66,8.28967405 C401.459999,8.46300825 401.300001,8.66633955 401.18,8.89967405 C401.059999,9.13300855 400.993333,9.37633945 400.98,9.62967405 L405.2,9.62967405 Z M408.22,10.8896741 L408.22,11.2896741 C408.22,11.4230081 408.213333,11.5496735 408.2,11.6696741 L400.98,11.6696741 C401.006667,11.9496755 401.089999,12.2030063 401.23,12.4296741 C401.370001,12.6563419 401.549999,12.8530066 401.77,13.0196741 C401.990001,13.1863416 402.236665,13.3163403 402.51,13.4096741 C402.783335,13.5030079 403.066665,13.5496741 403.36,13.5496741 C403.880003,13.5496741 404.319998,13.4530084 404.68,13.2596741 C405.040002,13.0663398 405.333332,12.8163423 405.56,12.5096741 L407.84,13.9496741 C407.373331,14.6296775 406.75667,15.1530056 405.99,15.5196741 C405.223329,15.8863426 404.333338,16.0696741 403.32,16.0696741 C402.57333,16.0696741 401.86667,15.9530086 401.2,15.7196741 C400.53333,15.4863396 399.950002,15.146343 399.45,14.6996741 C398.949997,14.2530052 398.556668,13.7030107 398.27,13.0496741 C397.983332,12.3963375 397.84,11.6496783 397.84,10.8096741 C397.84,9.99633665 397.979999,9.25967735 398.26,8.59967405 C398.540001,7.93967075 398.919998,7.37967635 399.4,6.91967405 C399.880002,6.45967175 400.446663,6.10300865 401.1,5.84967405 C401.753337,5.59633945 402.459996,5.46967405 403.22,5.46967405 C403.953337,5.46967405 404.626664,5.59300615 405.24,5.83967405 C405.853336,6.08634195 406.379998,6.44300505 406.82,6.90967405 C407.260002,7.37634305 407.603332,7.94300405 407.85,8.60967405 C408.096668,9.27634405 408.22,10.0363365 408.22,10.8896741 Z" id="Travel" fill="#FFFFFF"></path>
                <path d="M3.84,4.50967405 L3.84,7.42967405 L9.32,7.42967405 L9.32,10.2496741 L3.84,10.2496741 L3.84,15.7496741 L0.46,15.7496741 L0.46,1.58967405 L9.78,1.58967405 L9.78,4.50967405 L3.84,4.50967405 Z M21.4,10.7296741 C21.4,11.5430115 21.2533348,12.2796708 20.96,12.9396741 C20.6666652,13.5996774 20.2666692,14.1596718 19.76,14.6196741 C19.2533308,15.0796764 18.66667,15.4363395 18,15.6896741 C17.33333,15.9430087 16.6200038,16.0696741 15.86,16.0696741 C15.1133296,16.0696741 14.4033367,15.9430087 13.73,15.6896741 C13.0566633,15.4363395 12.4700025,15.0796764 11.97,14.6196741 C11.4699975,14.1596718 11.0733348,13.5996774 10.78,12.9396741 C10.4866652,12.2796708 10.34,11.5430115 10.34,10.7296741 C10.34,9.91633665 10.4866652,9.18301065 10.78,8.52967405 C11.0733348,7.87633745 11.4699975,7.32300965 11.97,6.86967405 C12.4700025,6.41633845 13.0566633,6.06967525 13.73,5.82967405 C14.4033367,5.58967285 15.1133296,5.46967405 15.86,5.46967405 C16.6200038,5.46967405 17.33333,5.58967285 18,5.82967405 C18.66667,6.06967525 19.2533308,6.41633845 19.76,6.86967405 C20.2666692,7.32300965 20.6666652,7.87633745 20.96,8.52967405 C21.2533348,9.18301065 21.4,9.91633665 21.4,10.7296741 Z M18.24,10.7296741 C18.24,10.4096725 18.1866672,10.0963423 18.08,9.78967405 C17.9733328,9.48300585 17.820001,9.21300855 17.62,8.97967405 C17.419999,8.74633955 17.1733348,8.55634145 16.88,8.40967405 C16.5866652,8.26300665 16.2466686,8.18967405 15.86,8.18967405 C15.4733314,8.18967405 15.1333348,8.26300665 14.84,8.40967405 C14.5466652,8.55634145 14.3033343,8.74633955 14.11,8.97967405 C13.9166657,9.21300855 13.7700005,9.48300585 13.67,9.78967405 C13.5699995,10.0963423 13.52,10.4096725 13.52,10.7296741 C13.52,11.0496757 13.5699995,11.3630059 13.67,11.6696741 C13.7700005,11.9763423 13.919999,12.2530062 14.12,12.4996741 C14.320001,12.746342 14.5666652,12.9430067 14.86,13.0896741 C15.1533348,13.2363415 15.4933314,13.3096741 15.88,13.3096741 C16.2666686,13.3096741 16.6066652,13.2363415 16.9,13.0896741 C17.1933348,12.9430067 17.439999,12.746342 17.64,12.4996741 C17.840001,12.2530062 17.9899995,11.9763423 18.09,11.6696741 C18.1900005,11.3630059 18.24,11.0496757 18.24,10.7296741 Z M29.34,8.72967405 C29.073332,8.47633945 28.7600018,8.26300825 28.4,8.08967405 C28.0399982,7.91633985 27.660002,7.82967405 27.26,7.82967405 C26.9533318,7.82967405 26.6700013,7.88967345 26.41,8.00967405 C26.1499987,8.12967465 26.02,8.33633925 26.02,8.62967405 C26.02,8.90967545 26.1633319,9.10967345 26.45,9.22967405 C26.7366681,9.34967465 27.1999968,9.48300665 27.84,9.62967405 C28.2133352,9.70967445 28.5899981,9.82300665 28.97,9.96967405 C29.3500019,10.1163415 29.6933318,10.3096729 30,10.5496741 C30.3066682,10.7896753 30.5533324,11.0830057 30.74,11.4296741 C30.9266676,11.7763425 31.02,12.1896717 31.02,12.6696741 C31.02,13.2963439 30.8933346,13.8263386 30.64,14.2596741 C30.3866654,14.6930096 30.0566687,15.0430061 29.65,15.3096741 C29.2433313,15.5763421 28.7866692,15.7696735 28.28,15.8896741 C27.7733308,16.0096747 27.2666692,16.0696741 26.76,16.0696741 C25.9466626,16.0696741 25.1500039,15.9396754 24.37,15.6796741 C23.5899961,15.4196728 22.9400026,15.0363433 22.42,14.5296741 L24.26,12.5896741 C24.5533348,12.9096757 24.9133312,13.1763397 25.34,13.3896741 C25.7666688,13.6030085 26.2199976,13.7096741 26.7,13.7096741 C26.966668,13.7096741 27.2299987,13.6463414 27.49,13.5196741 C27.7500013,13.3930068 27.88,13.1696757 27.88,12.8496741 C27.88,12.5430059 27.7200016,12.3163415 27.4,12.1696741 C27.0799984,12.0230067 26.5800034,11.8696749 25.9,11.7096741 C25.5533316,11.6296737 25.2066684,11.5230081 24.86,11.3896741 C24.5133316,11.2563401 24.2033347,11.0763419 23.93,10.8496741 C23.6566653,10.6230063 23.4333342,10.3430091 23.26,10.0096741 C23.0866658,9.67633905 23,9.27634305 23,8.80967405 C23,8.20967105 23.1266654,7.69967615 23.38,7.27967405 C23.6333346,6.85967195 23.959998,6.51634205 24.36,6.24967405 C24.760002,5.98300605 25.2033309,5.78634135 25.69,5.65967405 C26.1766691,5.53300675 26.6599976,5.46967405 27.14,5.46967405 C27.8866704,5.46967405 28.6166631,5.58633955 29.33,5.81967405 C30.0433369,6.05300855 30.6466642,6.40300505 31.14,6.86967405 L29.34,8.72967405 Z M38.78,8.72967405 C38.513332,8.47633945 38.2000018,8.26300825 37.84,8.08967405 C37.4799982,7.91633985 37.100002,7.82967405 36.7,7.82967405 C36.3933318,7.82967405 36.1100013,7.88967345 35.85,8.00967405 C35.5899987,8.12967465 35.46,8.33633925 35.46,8.62967405 C35.46,8.90967545 35.6033319,9.10967345 35.89,9.22967405 C36.1766681,9.34967465 36.6399968,9.48300665 37.28,9.62967405 C37.6533352,9.70967445 38.0299981,9.82300665 38.41,9.96967405 C38.7900019,10.1163415 39.1333318,10.3096729 39.44,10.5496741 C39.7466682,10.7896753 39.9933324,11.0830057 40.18,11.4296741 C40.3666676,11.7763425 40.46,12.1896717 40.46,12.6696741 C40.46,13.2963439 40.3333346,13.8263386 40.08,14.2596741 C39.8266654,14.6930096 39.4966687,15.0430061 39.09,15.3096741 C38.6833313,15.5763421 38.2266692,15.7696735 37.72,15.8896741 C37.2133308,16.0096747 36.7066692,16.0696741 36.2,16.0696741 C35.3866626,16.0696741 34.5900039,15.9396754 33.81,15.6796741 C33.0299961,15.4196728 32.3800026,15.0363433 31.86,14.5296741 L33.7,12.5896741 C33.9933348,12.9096757 34.3533312,13.1763397 34.78,13.3896741 C35.2066688,13.6030085 35.6599976,13.7096741 36.14,13.7096741 C36.406668,13.7096741 36.6699987,13.6463414 36.93,13.5196741 C37.1900013,13.3930068 37.32,13.1696757 37.32,12.8496741 C37.32,12.5430059 37.1600016,12.3163415 36.84,12.1696741 C36.5199984,12.0230067 36.0200034,11.8696749 35.34,11.7096741 C34.9933316,11.6296737 34.6466684,11.5230081 34.3,11.3896741 C33.9533316,11.2563401 33.6433347,11.0763419 33.37,10.8496741 C33.0966653,10.6230063 32.8733342,10.3430091 32.7,10.0096741 C32.5266658,9.67633905 32.44,9.27634305 32.44,8.80967405 C32.44,8.20967105 32.5666654,7.69967615 32.82,7.27967405 C33.0733346,6.85967195 33.399998,6.51634205 33.8,6.24967405 C34.200002,5.98300605 34.6433309,5.78634135 35.13,5.65967405 C35.6166691,5.53300675 36.0999976,5.46967405 36.58,5.46967405 C37.3266704,5.46967405 38.0566631,5.58633955 38.77,5.81967405 C39.4833369,6.05300855 40.0866642,6.40300505 40.58,6.86967405 L38.78,8.72967405 Z M45.92,2.60967405 C45.92,2.86300865 45.8700005,3.09967295 45.77,3.31967405 C45.6699995,3.53967515 45.5366675,3.72967325 45.37,3.88967405 C45.2033325,4.04967485 45.0033345,4.17634025 44.77,4.26967405 C44.5366655,4.36300785 44.2933346,4.40967405 44.04,4.40967405 C43.506664,4.40967405 43.0600018,4.23300915 42.7,3.87967405 C42.3399982,3.52633895 42.16,3.10300985 42.16,2.60967405 C42.16,2.36967285 42.2066662,2.13967515 42.3,1.91967405 C42.3933338,1.69967295 42.5266658,1.50967485 42.7,1.34967405 C42.8733342,1.18967325 43.0733322,1.05967455 43.3,0.959674055 C43.5266678,0.859673555 43.773332,0.809674055 44.04,0.809674055 C44.2933346,0.809674055 44.5366655,0.856340255 44.77,0.949674055 C45.0033345,1.04300785 45.2033325,1.16967325 45.37,1.32967405 C45.5366675,1.48967485 45.6699995,1.67967295 45.77,1.89967405 C45.8700005,2.11967515 45.92,2.35633945 45.92,2.60967405 Z M42.4,15.7496741 L42.4,5.78967405 L45.68,5.78967405 L45.68,15.7496741 L42.4,15.7496741 Z M48.32,15.7496741 L48.32,0.629674055 L51.64,0.629674055 L51.64,15.7496741 L48.32,15.7496741 Z M67,15.7496741 L63.94,10.1296741 L62.78,10.1296741 L62.78,15.7496741 L59.42,15.7496741 L59.42,1.58967405 L64.82,1.58967405 C65.5000034,1.58967405 66.1633301,1.65967335 66.81,1.79967405 C67.4566699,1.93967475 68.0366641,2.17633905 68.55,2.50967405 C69.0633359,2.84300905 69.4733318,3.28300465 69.78,3.82967405 C70.0866682,4.37634345 70.24,5.05633665 70.24,5.86967405 C70.24,6.82967885 69.9800026,7.63633745 69.46,8.28967405 C68.9399974,8.94301065 68.2200046,9.40967265 67.3,9.68967405 L71,15.7496741 L67,15.7496741 Z M66.86,5.92967405 C66.86,5.59633905 66.7900007,5.32634175 66.65,5.11967405 C66.5099993,4.91300635 66.3300011,4.75300795 66.11,4.63967405 C65.8899989,4.52634015 65.6433347,4.44967425 65.37,4.40967405 C65.0966653,4.36967385 64.8333346,4.34967405 64.58,4.34967405 L62.76,4.34967405 L62.76,7.64967405 L64.38,7.64967405 C64.6600014,7.64967405 64.9466652,7.62634095 65.24,7.57967405 C65.5333348,7.53300715 65.7999988,7.44967465 66.04,7.32967405 C66.2800012,7.20967345 66.4766659,7.03634185 66.63,6.80967405 C66.7833341,6.58300625 66.86,6.28967585 66.86,5.92967405 Z M76.06,2.60967405 C76.06,2.86300865 76.0100005,3.09967295 75.91,3.31967405 C75.8099995,3.53967515 75.6766675,3.72967325 75.51,3.88967405 C75.3433325,4.04967485 75.1433345,4.17634025 74.91,4.26967405 C74.6766655,4.36300785 74.4333346,4.40967405 74.18,4.40967405 C73.646664,4.40967405 73.2000018,4.23300915 72.84,3.87967405 C72.4799982,3.52633895 72.3,3.10300985 72.3,2.60967405 C72.3,2.36967285 72.3466662,2.13967515 72.44,1.91967405 C72.5333338,1.69967295 72.6666658,1.50967485 72.84,1.34967405 C73.0133342,1.18967325 73.2133322,1.05967455 73.44,0.959674055 C73.6666678,0.859673555 73.913332,0.809674055 74.18,0.809674055 C74.4333346,0.809674055 74.6766655,0.856340255 74.91,0.949674055 C75.1433345,1.04300785 75.3433325,1.16967325 75.51,1.32967405 C75.6766675,1.48967485 75.8099995,1.67967295 75.91,1.89967405 C76.0100005,2.11967515 76.06,2.35633945 76.06,2.60967405 Z M72.54,15.7496741 L72.54,5.78967405 L75.82,5.78967405 L75.82,15.7496741 L72.54,15.7496741 Z M91.14,15.7496741 L91.14,10.3096741 C91.14,10.0296727 91.1200002,9.75967535 91.08,9.49967405 C91.0399998,9.23967275 90.9666672,9.01634165 90.86,8.82967405 C90.7533328,8.64300645 90.6100009,8.49300795 90.43,8.37967405 C90.2499991,8.26634015 90.0133348,8.20967405 89.72,8.20967405 C89.4399986,8.20967405 89.1966677,8.26967345 88.99,8.38967405 C88.7833323,8.50967465 88.6100007,8.66967305 88.47,8.86967405 C88.3299993,9.06967505 88.226667,9.29967275 88.16,9.55967405 C88.093333,9.81967535 88.06,10.0896727 88.06,10.3696741 L88.06,15.7496741 L84.78,15.7496741 L84.78,10.0696741 C84.78,9.49633785 84.6666678,9.04300905 84.44,8.70967405 C84.2133322,8.37633905 83.8533358,8.20967405 83.36,8.20967405 C82.8399974,8.20967405 82.4366681,8.41633865 82.15,8.82967405 C81.8633319,9.24300945 81.72,9.74967105 81.72,10.3496741 L81.72,15.7496741 L78.42,15.7496741 L78.42,5.78967405 L81.6,5.78967405 L81.6,7.16967405 L81.64,7.16967405 C81.7600006,6.95633965 81.9099991,6.74967505 82.09,6.54967405 C82.2700009,6.34967305 82.4866654,6.17300815 82.74,6.01967405 C82.9933346,5.86633995 83.2766651,5.74300785 83.59,5.64967405 C83.9033349,5.55634025 84.2466648,5.50967405 84.62,5.50967405 C85.3400036,5.50967405 85.9499975,5.65633925 86.45,5.94967405 C86.9500025,6.24300885 87.3399986,6.66300465 87.62,7.20967405 C87.953335,6.68967145 88.3799974,6.27634225 88.9,5.96967405 C89.4200026,5.66300585 90.0533296,5.50967405 90.8,5.50967405 C91.4800034,5.50967405 92.0499977,5.63300615 92.51,5.87967405 C92.9700023,6.12634195 93.3399986,6.44633875 93.62,6.83967405 C93.9000014,7.23300935 94.1033327,7.67300495 94.23,8.15967405 C94.3566673,8.64634315 94.42,9.12300505 94.42,9.58967405 L94.42,15.7496741 L91.14,15.7496741 Z M116.84,15.7496741 L113.46,15.7496741 L110.66,6.16967405 L110.6,6.16967405 L107.8,15.7496741 L104.4,15.7496741 L100.38,1.58967405 L104.06,1.58967405 L106.3,11.0096741 L106.36,11.0096741 L108.88,1.58967405 L112.44,1.58967405 L114.98,11.0096741 L115.04,11.0096741 L117.32,1.58967405 L120.88,1.58967405 L116.84,15.7496741 Z M125.72,2.60967405 C125.72,2.86300865 125.670001,3.09967295 125.57,3.31967405 C125.47,3.53967515 125.336668,3.72967325 125.17,3.88967405 C125.003333,4.04967485 124.803335,4.17634025 124.57,4.26967405 C124.336666,4.36300785 124.093335,4.40967405 123.84,4.40967405 C123.306664,4.40967405 122.860002,4.23300915 122.5,3.87967405 C122.139998,3.52633895 121.96,3.10300985 121.96,2.60967405 C121.96,2.36967285 122.006666,2.13967515 122.1,1.91967405 C122.193334,1.69967295 122.326666,1.50967485 122.5,1.34967405 C122.673334,1.18967325 122.873332,1.05967455 123.1,0.959674055 C123.326668,0.859673555 123.573332,0.809674055 123.84,0.809674055 C124.093335,0.809674055 124.336666,0.856340255 124.57,0.949674055 C124.803335,1.04300785 125.003333,1.16967325 125.17,1.32967405 C125.336668,1.48967485 125.47,1.67967295 125.57,1.89967405 C125.670001,2.11967515 125.72,2.35633945 125.72,2.60967405 Z M122.2,15.7496741 L122.2,5.78967405 L125.48,5.78967405 L125.48,15.7496741 L122.2,15.7496741 Z M128.12,15.7496741 L128.12,0.629674055 L131.44,0.629674055 L131.44,15.7496741 L128.12,15.7496741 Z M141.58,15.7496741 L141.58,14.4496741 L141.54,14.4496741 C141.219998,14.9563433 140.763336,15.3463394 140.17,15.6196741 C139.576664,15.8930088 138.94667,16.0296741 138.28,16.0296741 C137.53333,16.0296741 136.86667,15.8830089 136.28,15.5896741 C135.69333,15.2963393 135.196669,14.9063432 134.79,14.4196741 C134.383331,13.933005 134.073334,13.3696773 133.86,12.7296741 C133.646666,12.0896709 133.54,11.4230109 133.54,10.7296741 C133.54,10.0363373 133.649999,9.37301055 133.87,8.73967405 C134.090001,8.10633755 134.403331,7.54967645 134.81,7.06967405 C135.216669,6.58967165 135.709997,6.20967545 136.29,5.92967405 C136.870003,5.64967265 137.519996,5.50967405 138.24,5.50967405 C138.973337,5.50967405 139.593331,5.64967265 140.1,5.92967405 C140.606669,6.20967545 140.999999,6.51633905 141.28,6.84967405 L141.32,6.84967405 L141.32,0.629674055 L144.6,0.629674055 L144.6,15.7496741 L141.58,15.7496741 Z M141.46,10.7496741 C141.46,10.4296725 141.403334,10.1163423 141.29,9.80967405 C141.176666,9.50300585 141.016668,9.22967525 140.81,8.98967405 C140.603332,8.74967285 140.353335,8.55634145 140.06,8.40967405 C139.766665,8.26300665 139.433335,8.18967405 139.06,8.18967405 C138.673331,8.18967405 138.333335,8.26300665 138.04,8.40967405 C137.746665,8.55634145 137.500001,8.74633955 137.3,8.97967405 C137.099999,9.21300855 136.950001,9.48300585 136.85,9.78967405 C136.749999,10.0963423 136.7,10.4096725 136.7,10.7296741 C136.7,11.0496757 136.749999,11.3663392 136.85,11.6796741 C136.950001,11.993009 137.099999,12.2696729 137.3,12.5096741 C137.500001,12.7496753 137.746665,12.9430067 138.04,13.0896741 C138.333335,13.2363415 138.673331,13.3096741 139.06,13.3096741 C139.433335,13.3096741 139.766665,13.2363415 140.06,13.0896741 C140.353335,12.9430067 140.603332,12.7496753 140.81,12.5096741 C141.016668,12.2696729 141.176666,11.9963423 141.29,11.6896741 C141.403334,11.3830059 141.46,11.0696757 141.46,10.7496741 Z M147.24,15.7496741 L147.24,0.629674055 L150.56,0.629674055 L150.56,15.7496741 L147.24,15.7496741 Z M156.72,2.60967405 C156.72,2.86300865 156.670001,3.09967295 156.57,3.31967405 C156.47,3.53967515 156.336668,3.72967325 156.17,3.88967405 C156.003332,4.04967485 155.803334,4.17634025 155.57,4.26967405 C155.336666,4.36300785 155.093335,4.40967405 154.84,4.40967405 C154.306664,4.40967405 153.860002,4.23300915 153.5,3.87967405 C153.139998,3.52633895 152.96,3.10300985 152.96,2.60967405 C152.96,2.36967285 153.006666,2.13967515 153.1,1.91967405 C153.193334,1.69967295 153.326666,1.50967485 153.5,1.34967405 C153.673334,1.18967325 153.873332,1.05967455 154.1,0.959674055 C154.326668,0.859673555 154.573332,0.809674055 154.84,0.809674055 C155.093335,0.809674055 155.336666,0.856340255 155.57,0.949674055 C155.803334,1.04300785 156.003332,1.16967325 156.17,1.32967405 C156.336668,1.48967485 156.47,1.67967295 156.57,1.89967405 C156.670001,2.11967515 156.72,2.35633945 156.72,2.60967405 Z M153.2,15.7496741 L153.2,5.78967405 L156.48,5.78967405 L156.48,15.7496741 L153.2,15.7496741 Z M165.26,3.04967405 C165.139999,3.00967385 165.000001,2.97634085 164.84,2.94967405 C164.679999,2.92300725 164.520001,2.90967405 164.36,2.90967405 C164.053332,2.90967405 163.806668,2.96300685 163.62,3.06967405 C163.433332,3.17634125 163.286667,3.31967315 163.18,3.49967405 C163.073333,3.67967495 163,3.88300625 162.96,4.10967405 C162.92,4.33634185 162.9,4.56300625 162.9,4.78967405 L162.9,5.78967405 L165.12,5.78967405 L165.12,8.24967405 L162.9,8.24967405 L162.9,15.7496741 L159.62,15.7496741 L159.62,8.24967405 L157.8,8.24967405 L157.8,5.78967405 L159.62,5.78967405 L159.62,4.82967405 C159.62,4.21633765 159.686666,3.63301015 159.82,3.07967405 C159.953334,2.52633795 160.183332,2.03967615 160.51,1.61967405 C160.836668,1.19967195 161.276664,0.866341955 161.83,0.619674055 C162.383336,0.373006155 163.073329,0.249674055 163.9,0.249674055 C164.180001,0.249674055 164.456665,0.266340555 164.73,0.299674055 C165.003335,0.333007555 165.253332,0.383007055 165.48,0.449674055 L165.26,3.04967405 Z M173.22,9.62967405 C173.22,9.10967145 173.056668,8.66300925 172.73,8.28967405 C172.403332,7.91633885 171.913337,7.72967405 171.26,7.72967405 C170.939998,7.72967405 170.646668,7.77967355 170.38,7.87967405 C170.113332,7.97967455 169.880001,8.11633985 169.68,8.28967405 C169.479999,8.46300825 169.320001,8.66633955 169.2,8.89967405 C169.079999,9.13300855 169.013333,9.37633945 169,9.62967405 L173.22,9.62967405 Z M176.24,10.8896741 L176.24,11.2896741 C176.24,11.4230081 176.233333,11.5496735 176.22,11.6696741 L169,11.6696741 C169.026667,11.9496755 169.109999,12.2030063 169.25,12.4296741 C169.390001,12.6563419 169.569999,12.8530066 169.79,13.0196741 C170.010001,13.1863416 170.256665,13.3163403 170.53,13.4096741 C170.803335,13.5030079 171.086665,13.5496741 171.38,13.5496741 C171.900003,13.5496741 172.339998,13.4530084 172.7,13.2596741 C173.060002,13.0663398 173.353332,12.8163423 173.58,12.5096741 L175.86,13.9496741 C175.393331,14.6296775 174.77667,15.1530056 174.01,15.5196741 C173.243329,15.8863426 172.353338,16.0696741 171.34,16.0696741 C170.59333,16.0696741 169.88667,15.9530086 169.22,15.7196741 C168.55333,15.4863396 167.970002,15.146343 167.47,14.6996741 C166.969997,14.2530052 166.576668,13.7030107 166.29,13.0496741 C166.003332,12.3963375 165.86,11.6496783 165.86,10.8096741 C165.86,9.99633665 165.999999,9.25967735 166.28,8.59967405 C166.560001,7.93967075 166.939998,7.37967635 167.42,6.91967405 C167.900002,6.45967175 168.466663,6.10300865 169.12,5.84967405 C169.773337,5.59633945 170.479996,5.46967405 171.24,5.46967405 C171.973337,5.46967405 172.646664,5.59300615 173.26,5.83967405 C173.873336,6.08634195 174.399998,6.44300505 174.84,6.90967405 C175.280002,7.37634305 175.623332,7.94300405 175.87,8.60967405 C176.116668,9.27634405 176.24,10.0363365 176.24,10.8896741 Z M195.92,13.7896741 C195.29333,14.5096777 194.520005,15.079672 193.6,15.4996741 C192.679995,15.9196762 191.620006,16.1296741 190.42,16.1296741 C189.326661,16.1296741 188.316671,15.9496759 187.39,15.5896741 C186.463329,15.2296723 185.660003,14.7196774 184.98,14.0596741 C184.299997,13.3996708 183.766669,12.6096787 183.38,11.6896741 C182.993331,10.7696695 182.8,9.75634625 182.8,8.64967405 C182.8,7.51633505 182.996665,6.48967865 183.39,5.56967405 C183.783335,4.64966945 184.326663,3.86634395 185.02,3.21967405 C185.713337,2.57300415 186.526662,2.07634245 187.46,1.72967405 C188.393338,1.38300565 189.399995,1.20967405 190.48,1.20967405 C191.480005,1.20967405 192.463328,1.38633895 193.43,1.73967405 C194.396671,2.09300915 195.179997,2.60967065 195.78,3.28967405 L193.46,5.60967405 C193.139998,5.16967185 192.720003,4.84300845 192.2,4.62967405 C191.679997,4.41633965 191.146669,4.30967405 190.6,4.30967405 C189.999997,4.30967405 189.450002,4.41967295 188.95,4.63967405 C188.449997,4.85967515 188.020002,5.16300545 187.66,5.54967405 C187.299998,5.93634265 187.020001,6.39300475 186.82,6.91967405 C186.619999,7.44634335 186.52,8.02300425 186.52,8.64967405 C186.52,9.28967725 186.619999,9.87633805 186.82,10.4096741 C187.020001,10.9430101 187.296665,11.3996722 187.65,11.7796741 C188.003335,12.159676 188.426664,12.4563397 188.92,12.6696741 C189.413336,12.8830085 189.95333,12.9896741 190.54,12.9896741 C191.220003,12.9896741 191.813331,12.8563421 192.32,12.5896741 C192.826669,12.3230061 193.233332,11.9763429 193.54,11.5496741 L195.92,13.7896741 Z M203.82,9.62967405 C203.82,9.10967145 203.656668,8.66300925 203.33,8.28967405 C203.003332,7.91633885 202.513337,7.72967405 201.86,7.72967405 C201.539998,7.72967405 201.246668,7.77967355 200.98,7.87967405 C200.713332,7.97967455 200.480001,8.11633985 200.28,8.28967405 C200.079999,8.46300825 199.920001,8.66633955 199.8,8.89967405 C199.679999,9.13300855 199.613333,9.37633945 199.6,9.62967405 L203.82,9.62967405 Z M206.84,10.8896741 L206.84,11.2896741 C206.84,11.4230081 206.833333,11.5496735 206.82,11.6696741 L199.6,11.6696741 C199.626667,11.9496755 199.709999,12.2030063 199.85,12.4296741 C199.990001,12.6563419 200.169999,12.8530066 200.39,13.0196741 C200.610001,13.1863416 200.856665,13.3163403 201.13,13.4096741 C201.403335,13.5030079 201.686665,13.5496741 201.98,13.5496741 C202.500003,13.5496741 202.939998,13.4530084 203.3,13.2596741 C203.660002,13.0663398 203.953332,12.8163423 204.18,12.5096741 L206.46,13.9496741 C205.993331,14.6296775 205.37667,15.1530056 204.61,15.5196741 C203.843329,15.8863426 202.953338,16.0696741 201.94,16.0696741 C201.19333,16.0696741 200.48667,15.9530086 199.82,15.7196741 C199.15333,15.4863396 198.570002,15.146343 198.07,14.6996741 C197.569997,14.2530052 197.176668,13.7030107 196.89,13.0496741 C196.603332,12.3963375 196.46,11.6496783 196.46,10.8096741 C196.46,9.99633665 196.599999,9.25967735 196.88,8.59967405 C197.160001,7.93967075 197.539998,7.37967635 198.02,6.91967405 C198.500002,6.45967175 199.066663,6.10300865 199.72,5.84967405 C200.373337,5.59633945 201.079996,5.46967405 201.84,5.46967405 C202.573337,5.46967405 203.246664,5.59300615 203.86,5.83967405 C204.473336,6.08634195 204.999998,6.44300505 205.44,6.90967405 C205.880002,7.37634305 206.223332,7.94300405 206.47,8.60967405 C206.716668,9.27634405 206.84,10.0363365 206.84,10.8896741 Z M215.42,15.7496741 L215.42,10.3096741 C215.42,10.0296727 215.396667,9.76300865 215.35,9.50967405 C215.303333,9.25633945 215.226667,9.03300835 215.12,8.83967405 C215.013333,8.64633975 214.863334,8.49300795 214.67,8.37967405 C214.476666,8.26634015 214.233335,8.20967405 213.94,8.20967405 C213.646665,8.20967405 213.390001,8.26634015 213.17,8.37967405 C212.949999,8.49300795 212.766667,8.64967305 212.62,8.84967405 C212.473333,9.04967505 212.363334,9.27967275 212.29,9.53967405 C212.216666,9.79967535 212.18,10.0696727 212.18,10.3496741 L212.18,15.7496741 L208.88,15.7496741 L208.88,5.78967405 L212.06,5.78967405 L212.06,7.16967405 L212.1,7.16967405 C212.220001,6.95633965 212.376666,6.74634175 212.57,6.53967405 C212.763334,6.33300635 212.989999,6.15634145 213.25,6.00967405 C213.510001,5.86300665 213.793332,5.74300785 214.1,5.64967405 C214.406668,5.55634025 214.733332,5.50967405 215.08,5.50967405 C215.74667,5.50967405 216.313331,5.62967285 216.78,5.86967405 C217.246669,6.10967525 217.623332,6.41967215 217.91,6.79967405 C218.196668,7.17967595 218.403333,7.61633825 218.53,8.10967405 C218.656667,8.60300985 218.72,9.09633825 218.72,9.58967405 L218.72,15.7496741 L215.42,15.7496741 Z M224.76,8.24967405 L224.76,12.0496741 C224.76,12.5163431 224.849999,12.8663396 225.03,13.0996741 C225.210001,13.3330086 225.533331,13.4496741 226,13.4496741 C226.160001,13.4496741 226.329999,13.4363409 226.51,13.4096741 C226.690001,13.3830073 226.839999,13.3430077 226.96,13.2896741 L227,15.6896741 C226.773332,15.7696745 226.486668,15.8396738 226.14,15.8996741 C225.793332,15.9596744 225.446668,15.9896741 225.1,15.9896741 C224.43333,15.9896741 223.873336,15.9063416 223.42,15.7396741 C222.966664,15.5730066 222.603335,15.333009 222.33,15.0196741 C222.056665,14.7063392 221.860001,14.3330096 221.74,13.8996741 C221.619999,13.4663386 221.56,12.9830101 221.56,12.4496741 L221.56,8.24967405 L219.96,8.24967405 L219.96,5.78967405 L221.54,5.78967405 L221.54,3.16967405 L224.76,3.16967405 L224.76,5.78967405 L227.1,5.78967405 L227.1,8.24967405 L224.76,8.24967405 Z M235.5,9.62967405 C235.5,9.10967145 235.336668,8.66300925 235.01,8.28967405 C234.683332,7.91633885 234.193337,7.72967405 233.54,7.72967405 C233.219998,7.72967405 232.926668,7.77967355 232.66,7.87967405 C232.393332,7.97967455 232.160001,8.11633985 231.96,8.28967405 C231.759999,8.46300825 231.600001,8.66633955 231.48,8.89967405 C231.359999,9.13300855 231.293333,9.37633945 231.28,9.62967405 L235.5,9.62967405 Z M238.52,10.8896741 L238.52,11.2896741 C238.52,11.4230081 238.513333,11.5496735 238.5,11.6696741 L231.28,11.6696741 C231.306667,11.9496755 231.389999,12.2030063 231.53,12.4296741 C231.670001,12.6563419 231.849999,12.8530066 232.07,13.0196741 C232.290001,13.1863416 232.536665,13.3163403 232.81,13.4096741 C233.083335,13.5030079 233.366665,13.5496741 233.66,13.5496741 C234.180003,13.5496741 234.619998,13.4530084 234.98,13.2596741 C235.340002,13.0663398 235.633332,12.8163423 235.86,12.5096741 L238.14,13.9496741 C237.673331,14.6296775 237.05667,15.1530056 236.29,15.5196741 C235.523329,15.8863426 234.633338,16.0696741 233.62,16.0696741 C232.87333,16.0696741 232.16667,15.9530086 231.5,15.7196741 C230.83333,15.4863396 230.250002,15.146343 229.75,14.6996741 C229.249997,14.2530052 228.856668,13.7030107 228.57,13.0496741 C228.283332,12.3963375 228.14,11.6496783 228.14,10.8096741 C228.14,9.99633665 228.279999,9.25967735 228.56,8.59967405 C228.840001,7.93967075 229.219998,7.37967635 229.7,6.91967405 C230.180002,6.45967175 230.746663,6.10300865 231.4,5.84967405 C232.053337,5.59633945 232.759996,5.46967405 233.52,5.46967405 C234.253337,5.46967405 234.926664,5.59300615 235.54,5.83967405 C236.153336,6.08634195 236.679998,6.44300505 237.12,6.90967405 C237.560002,7.37634305 237.903332,7.94300405 238.15,8.60967405 C238.396668,9.27634405 238.52,10.0363365 238.52,10.8896741 Z M247.02,8.46967405 C246.873333,8.42967385 246.730001,8.40300745 246.59,8.38967405 C246.449999,8.37634065 246.313334,8.36967405 246.18,8.36967405 C245.739998,8.36967405 245.370001,8.44967325 245.07,8.60967405 C244.769998,8.76967485 244.530001,8.96300625 244.35,9.18967405 C244.169999,9.41634185 244.04,9.66300605 243.96,9.92967405 C243.88,10.1963421 243.84,10.4296731 243.84,10.6296741 L243.84,15.7496741 L240.56,15.7496741 L240.56,5.78967405 L243.72,5.78967405 L243.72,7.22967405 L243.76,7.22967405 C244.013335,6.72300485 244.373331,6.30967565 244.84,5.98967405 C245.306669,5.66967245 245.846664,5.50967405 246.46,5.50967405 C246.593334,5.50967405 246.723333,5.51634065 246.85,5.52967405 C246.976667,5.54300745 247.08,5.56300725 247.16,5.58967405 L247.02,8.46967405 Z M252.48,7.54967405 C252.48,7.81634205 252.426667,8.06633955 252.32,8.29967405 C252.213333,8.53300855 252.073334,8.73633985 251.9,8.90967405 C251.726666,9.08300825 251.520001,9.21967355 251.28,9.31967405 C251.039999,9.41967455 250.793335,9.46967405 250.54,9.46967405 C250.273332,9.46967405 250.020001,9.42300785 249.78,9.32967405 C249.539999,9.23634025 249.330001,9.10300825 249.15,8.92967405 C248.969999,8.75633985 248.826667,8.55634185 248.72,8.32967405 C248.613333,8.10300625 248.56,7.85634205 248.56,7.58967405 C248.56,7.32300605 248.613333,7.07300855 248.72,6.83967405 C248.826667,6.60633955 248.969999,6.40300825 249.15,6.22967405 C249.330001,6.05633985 249.539999,5.91967455 249.78,5.81967405 C250.020001,5.71967355 250.273332,5.66967405 250.54,5.66967405 C250.793335,5.66967405 251.039999,5.71967355 251.28,5.81967405 C251.520001,5.91967455 251.726666,6.05300655 251.9,6.21967405 C252.073334,6.38634155 252.213333,6.58633955 252.32,6.81967405 C252.426667,7.05300855 252.48,7.29633945 252.48,7.54967405 Z M252.48,13.9696741 C252.48,14.2363421 252.426667,14.4863396 252.32,14.7196741 C252.213333,14.9530086 252.073334,15.1530066 251.9,15.3196741 C251.726666,15.4863416 251.520001,15.6196736 251.28,15.7196741 C251.039999,15.8196746 250.793335,15.8696741 250.54,15.8696741 C250.273332,15.8696741 250.020001,15.8230079 249.78,15.7296741 C249.539999,15.6363403 249.330001,15.5030083 249.15,15.3296741 C248.969999,15.1563399 248.826667,14.9563419 248.72,14.7296741 C248.613333,14.5030063 248.56,14.2563421 248.56,13.9896741 C248.56,13.7230061 248.613333,13.4730086 248.72,13.2396741 C248.826667,13.0063396 248.969999,12.8030083 249.15,12.6296741 C249.330001,12.4563399 249.539999,12.3196746 249.78,12.2196741 C250.020001,12.1196736 250.273332,12.0696741 250.54,12.0696741 C250.793335,12.0696741 251.039999,12.1196736 251.28,12.2196741 C251.520001,12.3196746 251.726666,12.4530066 251.9,12.6196741 C252.073334,12.7863416 252.213333,12.9863396 252.32,13.2196741 C252.426667,13.4530086 252.48,13.7030061 252.48,13.9696741 Z" id="Fossil-Rim:" fill="#B8E986"></path>
            </g>
        </g>
    </g>
</svg>