<?xml version="1.0" encoding="UTF-8"?>

<svg width="516px" height="37px" viewBox="0 0 516 37" version="1.1" xmlns="http://www.w3.org/2000/svg" xmlns:xlink="http://www.w3.org/1999/xlink">
    <!-- Generator: Sketch 49.1 (51147) - http://www.bohemiancoding.com/sketch -->
    <desc>Created with Sketch.</desc>
    <defs></defs>
    <g id="Marketing-Brochures" stroke="none" stroke-width="1" fill="none" fill-rule="evenodd">
        <g id="Desktop" transform="translate(-84.000000, -123.000000)">
            <g id="Header" transform="translate(84.000000, 123.000000)">
                <path d="M169.612,10.72 L173.716,10.72 L173.716,13.42 L173.788,13.42 C174.172002,12.6039959 174.789996,11.8780032 175.642,11.242 C176.494004,10.6059968 177.639993,10.288 179.08,10.288 C181.792014,10.288 183.591996,11.3559893 184.48,13.492 C185.104003,12.3879945 185.883995,11.5780026 186.82,11.062 C187.756005,10.5459974 188.871994,10.288 190.168,10.288 C191.320006,10.288 192.291996,10.4799981 193.084,10.864 C193.876004,11.2480019 194.517998,11.7759966 195.01,12.448 C195.502002,13.1200034 195.855999,13.9059955 196.072,14.806 C196.288001,15.7060045 196.396,16.6719948 196.396,17.704 L196.396,28 L192.076,28 L192.076,18.208 C192.076,17.6799974 192.028,17.1700025 191.932,16.678 C191.836,16.1859975 191.668001,15.7540019 191.428,15.382 C191.187999,15.0099981 190.864002,14.7160011 190.456,14.5 C190.047998,14.2839989 189.520003,14.176 188.872,14.176 C188.199997,14.176 187.630002,14.3019987 187.162,14.554 C186.693998,14.8060013 186.310002,15.1419979 186.01,15.562 C185.709999,15.9820021 185.494001,16.4619973 185.362,17.002 C185.229999,17.5420027 185.164,18.0879972 185.164,18.64 L185.164,28 L180.844,28 L180.844,17.704 C180.844,16.6239946 180.616002,15.7660032 180.16,15.13 C179.703998,14.4939968 178.948005,14.176 177.892,14.176 C177.171996,14.176 176.566002,14.2959988 176.074,14.536 C175.581998,14.7760012 175.174002,15.099998 174.85,15.508 C174.525998,15.916002 174.292001,16.3839974 174.148,16.912 C174.003999,17.4400026 173.932,17.9919971 173.932,18.568 L173.932,28 L169.612,28 L169.612,10.72 Z M211.912,25.624 L211.804,25.624 C211.179997,26.6080049 210.388005,27.3219978 209.428,27.766 C208.467995,28.2100022 207.412006,28.432 206.26,28.432 C205.467996,28.432 204.694004,28.3240011 203.938,28.108 C203.181996,27.8919989 202.510003,27.5680022 201.922,27.136 C201.333997,26.7039978 200.860002,26.1640032 200.5,25.516 C200.139998,24.8679968 199.96,24.1120043 199.96,23.248 C199.96,22.3119953 200.127998,21.5140033 200.464,20.854 C200.800002,20.1939967 201.249997,19.6420022 201.814,19.198 C202.378003,18.7539978 203.031996,18.4000013 203.776,18.136 C204.520004,17.8719987 205.293996,17.6740007 206.098,17.542 C206.902004,17.4099993 207.711996,17.3260002 208.528,17.29 C209.344004,17.2539998 210.111996,17.236 210.832,17.236 L211.912,17.236 L211.912,16.768 C211.912,15.6879946 211.540004,14.8780027 210.796,14.338 C210.051996,13.7979973 209.104006,13.528 207.952,13.528 C207.039995,13.528 206.188004,13.6899984 205.396,14.014 C204.603996,14.3380016 203.920003,14.7759972 203.344,15.328 L201.076,13.06 C202.036005,12.0759951 203.157994,11.3680022 204.442,10.936 C205.726006,10.5039978 207.051993,10.288 208.42,10.288 C209.644006,10.288 210.675996,10.4259986 211.516,10.702 C212.356004,10.9780014 213.051997,11.3319978 213.604,11.764 C214.156003,12.1960022 214.581999,12.6939972 214.882,13.258 C215.182002,13.8220028 215.397999,14.3919971 215.53,14.968 C215.662001,15.5440029 215.74,16.1019973 215.764,16.642 C215.788,17.1820027 215.8,17.655998 215.8,18.064 L215.8,28 L211.912,28 L211.912,25.624 Z M211.66,20.26 L210.76,20.26 C210.159997,20.26 209.488004,20.2839998 208.744,20.332 C207.999996,20.3800002 207.298003,20.4939991 206.638,20.674 C205.977997,20.8540009 205.420002,21.1179983 204.964,21.466 C204.507998,21.8140017 204.28,22.2999969 204.28,22.924 C204.28,23.332002 204.369999,23.6739986 204.55,23.95 C204.730001,24.2260014 204.963999,24.459999 205.252,24.652 C205.540001,24.844001 205.863998,24.9819996 206.224,25.066 C206.584002,25.1500004 206.943998,25.192 207.304,25.192 C208.792007,25.192 209.889996,24.8380035 210.598,24.13 C211.306004,23.4219965 211.66,22.4560061 211.66,21.232 L211.66,20.26 Z M220.444,10.72 L224.764,10.72 L224.764,13.456 L224.836,13.456 C225.316002,12.447995 225.999996,11.6680028 226.888,11.116 C227.776004,10.5639972 228.795994,10.288 229.948,10.288 C230.212001,10.288 230.469999,10.3119998 230.722,10.36 C230.974001,10.4080002 231.231999,10.4679996 231.496,10.54 L231.496,14.716 C231.135998,14.6199995 230.782002,14.5420003 230.434,14.482 C230.085998,14.4219997 229.744002,14.392 229.408,14.392 C228.399995,14.392 227.590003,14.5779981 226.978,14.95 C226.365997,15.3220019 225.898002,15.7479976 225.574,16.228 C225.249998,16.7080024 225.034001,17.1879976 224.926,17.668 C224.817999,18.1480024 224.764,18.5079988 224.764,18.748 L224.764,28 L220.444,28 L220.444,10.72 Z M234.448,0.784 L238.768,0.784 L238.768,17.884 L245.428,10.72 L250.972,10.72 L243.556,18.568 L251.44,28 L245.716,28 L238.84,19.18 L238.768,19.18 L238.768,28 L234.448,28 L234.448,0.784 Z M257.236,20.872 C257.380001,22.1680065 257.883996,23.1759964 258.748,23.896 C259.612004,24.6160036 260.655994,24.976 261.88,24.976 C262.960005,24.976 263.865996,24.7540022 264.598,24.31 C265.330004,23.8659978 265.971997,23.3080034 266.524,22.636 L269.62,24.976 C268.611995,26.2240062 267.484006,27.1119974 266.236,27.64 C264.987994,28.1680026 263.680007,28.432 262.312,28.432 C261.015994,28.432 259.792006,28.2160022 258.64,27.784 C257.487994,27.3519978 256.492004,26.740004 255.652,25.948 C254.811996,25.155996 254.146002,24.2020056 253.654,23.086 C253.161998,21.9699944 252.916,20.7280068 252.916,19.36 C252.916,17.9919932 253.161998,16.7500056 253.654,15.634 C254.146002,14.5179944 254.811996,13.564004 255.652,12.772 C256.492004,11.979996 257.487994,11.3680022 258.64,10.936 C259.792006,10.5039978 261.015994,10.288 262.312,10.288 C263.512006,10.288 264.609995,10.4979979 265.606,10.918 C266.602005,11.3380021 267.453996,11.943996 268.162,12.736 C268.870004,13.528004 269.421998,14.5059942 269.818,15.67 C270.214002,16.8340058 270.412,18.1719924 270.412,19.684 L270.412,20.872 L257.236,20.872 Z M266.092,17.632 C266.068,16.3599936 265.672004,15.3580037 264.904,14.626 C264.135996,13.8939963 263.068007,13.528 261.7,13.528 C260.403994,13.528 259.378004,13.8999963 258.622,14.644 C257.865996,15.3880037 257.404001,16.3839938 257.236,17.632 L266.092,17.632 Z M272.428,14.392 L272.428,10.72 L275.992,10.72 L275.992,5.716 L280.312,5.716 L280.312,10.72 L285.064,10.72 L285.064,14.392 L280.312,14.392 L280.312,21.952 C280.312,22.8160043 280.473998,23.4999975 280.798,24.004 C281.122002,24.5080025 281.763995,24.76 282.724,24.76 C283.108002,24.76 283.527998,24.7180004 283.984,24.634 C284.440002,24.5499996 284.799999,24.412001 285.064,24.22 L285.064,27.856 C284.607998,28.0720011 284.050003,28.2219996 283.39,28.306 C282.729997,28.3900004 282.148003,28.432 281.644,28.432 C280.491994,28.432 279.550004,28.3060013 278.818,28.054 C278.085996,27.8019987 277.510002,27.4180026 277.09,26.902 C276.669998,26.3859974 276.382001,25.7440038 276.226,24.976 C276.069999,24.2079962 275.992,23.320005 275.992,22.312 L275.992,14.392 L272.428,14.392 Z M288.556,10.72 L292.876,10.72 L292.876,28 L288.556,28 L288.556,10.72 Z M287.944,4.852 C287.944,4.15599652 288.201997,3.55000258 288.718,3.034 C289.234003,2.51799742 289.887996,2.26 290.68,2.26 C291.472004,2.26 292.137997,2.50599754 292.678,2.998 C293.218003,3.49000246 293.488,4.10799628 293.488,4.852 C293.488,5.59600372 293.218003,6.21399754 292.678,6.706 C292.137997,7.19800246 291.472004,7.444 290.68,7.444 C289.887996,7.444 289.234003,7.18600258 288.718,6.67 C288.201997,6.15399742 287.944,5.54800348 287.944,4.852 Z M297.844,10.72 L301.948,10.72 L301.948,13.492 L302.02,13.492 C302.428002,12.6279957 303.051996,11.8780032 303.892,11.242 C304.732004,10.6059968 305.871993,10.288 307.312,10.288 C308.464006,10.288 309.441996,10.4799981 310.246,10.864 C311.050004,11.2480019 311.703997,11.7519969 312.208,12.376 C312.712003,13.0000031 313.071999,13.7199959 313.288,14.536 C313.504001,15.3520041 313.612,16.2039956 313.612,17.092 L313.612,28 L309.292,28 L309.292,19.252 C309.292,18.7719976 309.268,18.2380029 309.22,17.65 C309.172,17.0619971 309.046001,16.5100026 308.842,15.994 C308.637999,15.4779974 308.320002,15.0460017 307.888,14.698 C307.455998,14.3499983 306.868004,14.176 306.124,14.176 C305.403996,14.176 304.798002,14.2959988 304.306,14.536 C303.813998,14.7760012 303.406002,15.099998 303.082,15.508 C302.757998,15.916002 302.524001,16.3839974 302.38,16.912 C302.235999,17.4400026 302.164,17.9919971 302.164,18.568 L302.164,28 L297.844,28 L297.844,10.72 Z M336.292,10.72 L336.292,26.452 C336.292,28.0120078 336.100002,29.4219937 335.716,30.682 C335.331998,31.9420063 334.738004,33.0099956 333.934,33.886 C333.129996,34.7620044 332.116006,35.4399976 330.892,35.92 C329.667994,36.4000024 328.216008,36.64 326.536,36.64 C324.927992,36.64 323.404007,36.436002 321.964,36.028 C320.523993,35.619998 319.192006,34.8760054 317.968,33.796 L320.56,30.268 C321.424004,31.060004 322.323995,31.6719978 323.26,32.104 C324.196005,32.5360022 325.275994,32.752 326.5,32.752 C327.532005,32.752 328.401996,32.6080014 329.11,32.32 C329.818004,32.0319986 330.381998,31.6360025 330.802,31.132 C331.222002,30.6279975 331.521999,30.0220035 331.702,29.314 C331.882001,28.6059965 331.972,27.8200043 331.972,26.956 L331.972,25.696 L331.9,25.696 C331.275997,26.5360042 330.448005,27.1659979 329.416,27.586 C328.383995,28.0060021 327.328005,28.216 326.248,28.216 C324.951994,28.216 323.776005,27.9820023 322.72,27.514 C321.663995,27.0459977 320.758004,26.416004 320.002,25.624 C319.245996,24.831996 318.664002,23.8960054 318.256,22.816 C317.847998,21.7359946 317.644,20.5840061 317.644,19.36 C317.644,18.0879936 317.835998,16.9000055 318.22,15.796 C318.604002,14.6919945 319.167996,13.7320041 319.912,12.916 C320.656004,12.0999959 321.549995,11.4580023 322.594,10.99 C323.638005,10.5219977 324.831993,10.288 326.176,10.288 C327.400006,10.288 328.539995,10.5279976 329.596,11.008 C330.652005,11.4880024 331.491997,12.2559947 332.116,13.312 L332.188,13.312 L332.188,10.72 L336.292,10.72 Z M327.076,14.176 C326.307996,14.176 325.612003,14.3019987 324.988,14.554 C324.363997,14.8060013 323.830002,15.1539978 323.386,15.598 C322.941998,16.0420022 322.594001,16.5819968 322.342,17.218 C322.089999,17.8540032 321.964,18.5559962 321.964,19.324 C321.964,20.0200035 322.089999,20.667997 322.342,21.268 C322.594001,21.868003 322.947998,22.3959977 323.404,22.852 C323.860002,23.3080023 324.399997,23.6679987 325.024,23.932 C325.648003,24.1960013 326.319996,24.328 327.04,24.328 C327.832004,24.328 328.545997,24.1960013 329.182,23.932 C329.818003,23.6679987 330.357998,23.3140022 330.802,22.87 C331.246002,22.4259978 331.587999,21.8920031 331.828,21.268 C332.068001,20.6439969 332.188,19.9720036 332.188,19.252 C332.188,17.7399924 331.732005,16.5160047 330.82,15.58 C329.907995,14.6439953 328.660008,14.176 327.076,14.176 Z M351.844,0.784 L356.164,0.784 L356.164,12.916 L356.272,12.916 C356.488001,12.6279986 356.763998,12.3340015 357.1,12.034 C357.436002,11.7339985 357.843998,11.4520013 358.324,11.188 C358.804002,10.9239987 359.355997,10.7080008 359.98,10.54 C360.604003,10.3719992 361.323996,10.288 362.14,10.288 C363.364006,10.288 364.491995,10.5219977 365.524,10.99 C366.556005,11.4580023 367.437996,12.0999959 368.17,12.916 C368.902004,13.7320041 369.471998,14.6919945 369.88,15.796 C370.288002,16.9000055 370.492,18.0879936 370.492,19.36 C370.492,20.6320064 370.300002,21.8199945 369.916,22.924 C369.531998,24.0280055 368.968004,24.9879959 368.224,25.804 C367.479996,26.6200041 366.580005,27.2619977 365.524,27.73 C364.467995,28.1980023 363.280007,28.432 361.96,28.432 C360.735994,28.432 359.596005,28.1920024 358.54,27.712 C357.483995,27.2319976 356.644003,26.4640053 356.02,25.408 L355.948,25.408 L355.948,28 L351.844,28 L351.844,0.784 Z M366.172,19.36 C366.172,18.6879966 366.058001,18.0400031 365.83,17.416 C365.601999,16.7919969 365.266002,16.2400024 364.822,15.76 C364.377998,15.2799976 363.844003,14.8960014 363.22,14.608 C362.595997,14.3199986 361.888004,14.176 361.096,14.176 C360.303996,14.176 359.596003,14.3199986 358.972,14.608 C358.347997,14.8960014 357.814002,15.2799976 357.37,15.76 C356.925998,16.2400024 356.590001,16.7919969 356.362,17.416 C356.133999,18.0400031 356.02,18.6879966 356.02,19.36 C356.02,20.0320034 356.133999,20.6799969 356.362,21.304 C356.590001,21.9280031 356.925998,22.4799976 357.37,22.96 C357.814002,23.4400024 358.347997,23.8239986 358.972,24.112 C359.596003,24.4000014 360.303996,24.544 361.096,24.544 C361.888004,24.544 362.595997,24.4000014 363.22,24.112 C363.844003,23.8239986 364.377998,23.4400024 364.822,22.96 C365.266002,22.4799976 365.601999,21.9280031 365.83,21.304 C366.058001,20.6799969 366.172,20.0320034 366.172,19.36 Z M374.524,10.72 L378.844,10.72 L378.844,13.456 L378.916,13.456 C379.396002,12.447995 380.079996,11.6680028 380.968,11.116 C381.856004,10.5639972 382.875994,10.288 384.028,10.288 C384.292001,10.288 384.549999,10.3119998 384.802,10.36 C385.054001,10.4080002 385.311999,10.4679996 385.576,10.54 L385.576,14.716 C385.215998,14.6199995 384.862002,14.5420003 384.514,14.482 C384.165998,14.4219997 383.824002,14.392 383.488,14.392 C382.479995,14.392 381.670003,14.5779981 381.058,14.95 C380.445997,15.3220019 379.978002,15.7479976 379.654,16.228 C379.329998,16.7080024 379.114001,17.1879976 379.006,17.668 C378.897999,18.1480024 378.844,18.5079988 378.844,18.748 L378.844,28 L374.524,28 L374.524,10.72 Z M387.016,19.36 C387.016,17.9919932 387.261998,16.7500056 387.754,15.634 C388.246002,14.5179944 388.911996,13.564004 389.752,12.772 C390.592004,11.979996 391.587994,11.3680022 392.74,10.936 C393.892006,10.5039978 395.115994,10.288 396.412,10.288 C397.708006,10.288 398.931994,10.5039978 400.084,10.936 C401.236006,11.3680022 402.231996,11.979996 403.072,12.772 C403.912004,13.564004 404.577998,14.5179944 405.07,15.634 C405.562002,16.7500056 405.808,17.9919932 405.808,19.36 C405.808,20.7280068 405.562002,21.9699944 405.07,23.086 C404.577998,24.2020056 403.912004,25.155996 403.072,25.948 C402.231996,26.740004 401.236006,27.3519978 400.084,27.784 C398.931994,28.2160022 397.708006,28.432 396.412,28.432 C395.115994,28.432 393.892006,28.2160022 392.74,27.784 C391.587994,27.3519978 390.592004,26.740004 389.752,25.948 C388.911996,25.155996 388.246002,24.2020056 387.754,23.086 C387.261998,21.9699944 387.016,20.7280068 387.016,19.36 Z M391.336,19.36 C391.336,20.0320034 391.449999,20.6799969 391.678,21.304 C391.906001,21.9280031 392.241998,22.4799976 392.686,22.96 C393.130002,23.4400024 393.663997,23.8239986 394.288,24.112 C394.912003,24.4000014 395.619996,24.544 396.412,24.544 C397.204004,24.544 397.911997,24.4000014 398.536,24.112 C399.160003,23.8239986 399.693998,23.4400024 400.138,22.96 C400.582002,22.4799976 400.917999,21.9280031 401.146,21.304 C401.374001,20.6799969 401.488,20.0320034 401.488,19.36 C401.488,18.6879966 401.374001,18.0400031 401.146,17.416 C400.917999,16.7919969 400.582002,16.2400024 400.138,15.76 C399.693998,15.2799976 399.160003,14.8960014 398.536,14.608 C397.911997,14.3199986 397.204004,14.176 396.412,14.176 C395.619996,14.176 394.912003,14.3199986 394.288,14.608 C393.663997,14.8960014 393.130002,15.2799976 392.686,15.76 C392.241998,16.2400024 391.906001,16.7919969 391.678,17.416 C391.449999,18.0400031 391.336,18.6879966 391.336,19.36 Z M421.648,15.904 C421.143997,15.3759974 420.616003,14.9560016 420.064,14.644 C419.511997,14.3319984 418.948003,14.176 418.372,14.176 C417.579996,14.176 416.872003,14.3199986 416.248,14.608 C415.623997,14.8960014 415.090002,15.2799976 414.646,15.76 C414.201998,16.2400024 413.866001,16.7919969 413.638,17.416 C413.409999,18.0400031 413.296,18.6879966 413.296,19.36 C413.296,20.0320034 413.409999,20.6799969 413.638,21.304 C413.866001,21.9280031 414.201998,22.4799976 414.646,22.96 C415.090002,23.4400024 415.623997,23.8239986 416.248,24.112 C416.872003,24.4000014 417.579996,24.544 418.372,24.544 C419.044003,24.544 419.667997,24.4060014 420.244,24.13 C420.820003,23.8539986 421.311998,23.4520026 421.72,22.924 L424.6,26.02 C424.167998,26.4520022 423.670003,26.8239984 423.106,27.136 C422.541997,27.4480016 421.972003,27.699999 421.396,27.892 C420.819997,28.084001 420.268003,28.2219996 419.74,28.306 C419.211997,28.3900004 418.756002,28.432 418.372,28.432 C417.075994,28.432 415.852006,28.2160022 414.7,27.784 C413.547994,27.3519978 412.552004,26.740004 411.712,25.948 C410.871996,25.155996 410.206002,24.2020056 409.714,23.086 C409.221998,21.9699944 408.976,20.7280068 408.976,19.36 C408.976,17.9919932 409.221998,16.7500056 409.714,15.634 C410.206002,14.5179944 410.871996,13.564004 411.712,12.772 C412.552004,11.979996 413.547994,11.3680022 414.7,10.936 C415.852006,10.5039978 417.075994,10.288 418.372,10.288 C419.476006,10.288 420.585994,10.4979979 421.702,10.918 C422.818006,11.3380021 423.795996,12.0039954 424.636,12.916 L421.648,15.904 Z M431.512,13.132 L431.584,13.132 C431.920002,12.4119964 432.513996,11.7580029 433.366,11.17 C434.218004,10.5819971 435.315993,10.288 436.66,10.288 C437.812006,10.288 438.789996,10.4799981 439.594,10.864 C440.398004,11.2480019 441.051997,11.7519969 441.556,12.376 C442.060003,13.0000031 442.419999,13.7199959 442.636,14.536 C442.852001,15.3520041 442.96,16.2039956 442.96,17.092 L442.96,28 L438.64,28 L438.64,19.252 C438.64,18.7719976 438.616,18.2380029 438.568,17.65 C438.52,17.0619971 438.394001,16.5100026 438.19,15.994 C437.985999,15.4779974 437.668002,15.0460017 437.236,14.698 C436.803998,14.3499983 436.216004,14.176 435.472,14.176 C434.751996,14.176 434.146002,14.2959988 433.654,14.536 C433.161998,14.7760012 432.754002,15.099998 432.43,15.508 C432.105998,15.916002 431.872001,16.3839974 431.728,16.912 C431.583999,17.4400026 431.512,17.9919971 431.512,18.568 L431.512,28 L427.192,28 L427.192,0.784 L431.512,0.784 L431.512,13.132 Z M463.624,28 L459.52,28 L459.52,25.228 L459.448,25.228 C459.039998,26.0920043 458.416004,26.8419968 457.576,27.478 C456.735996,28.1140032 455.596007,28.432 454.156,28.432 C453.003994,28.432 452.026004,28.2460019 451.222,27.874 C450.417996,27.5019981 449.764003,26.9980032 449.26,26.362 C448.755997,25.7259968 448.396001,25.0000041 448.18,24.184 C447.963999,23.3679959 447.856,22.5160044 447.856,21.628 L447.856,10.72 L452.176,10.72 L452.176,19.468 C452.176,19.9480024 452.2,20.4819971 452.248,21.07 C452.296,21.6580029 452.421999,22.2099974 452.626,22.726 C452.830001,23.2420026 453.141998,23.6739983 453.562,24.022 C453.982002,24.3700017 454.575996,24.544 455.344,24.544 C456.064004,24.544 456.669998,24.4240012 457.162,24.184 C457.654002,23.9439988 458.061998,23.620002 458.386,23.212 C458.710002,22.803998 458.943999,22.3360026 459.088,21.808 C459.232001,21.2799974 459.304,20.7280029 459.304,20.152 L459.304,10.72 L463.624,10.72 L463.624,28 Z M468.52,10.72 L472.84,10.72 L472.84,13.456 L472.912,13.456 C473.392002,12.447995 474.075996,11.6680028 474.964,11.116 C475.852004,10.5639972 476.871994,10.288 478.024,10.288 C478.288001,10.288 478.545999,10.3119998 478.798,10.36 C479.050001,10.4080002 479.307999,10.4679996 479.572,10.54 L479.572,14.716 C479.211998,14.6199995 478.858002,14.5420003 478.51,14.482 C478.161998,14.4219997 477.820002,14.392 477.484,14.392 C476.475995,14.392 475.666003,14.5779981 475.054,14.95 C474.441997,15.3220019 473.974002,15.7479976 473.65,16.228 C473.325998,16.7080024 473.110001,17.1879976 473.002,17.668 C472.893999,18.1480024 472.84,18.5079988 472.84,18.748 L472.84,28 L468.52,28 L468.52,10.72 Z M485.332,20.872 C485.476001,22.1680065 485.979996,23.1759964 486.844,23.896 C487.708004,24.6160036 488.751994,24.976 489.976,24.976 C491.056005,24.976 491.961996,24.7540022 492.694,24.31 C493.426004,23.8659978 494.067997,23.3080034 494.62,22.636 L497.716,24.976 C496.707995,26.2240062 495.580006,27.1119974 494.332,27.64 C493.083994,28.1680026 491.776007,28.432 490.408,28.432 C489.111994,28.432 487.888006,28.2160022 486.736,27.784 C485.583994,27.3519978 484.588004,26.740004 483.748,25.948 C482.907996,25.155996 482.242002,24.2020056 481.75,23.086 C481.257998,21.9699944 481.012,20.7280068 481.012,19.36 C481.012,17.9919932 481.257998,16.7500056 481.75,15.634 C482.242002,14.5179944 482.907996,13.564004 483.748,12.772 C484.588004,11.979996 485.583994,11.3680022 486.736,10.936 C487.888006,10.5039978 489.111994,10.288 490.408,10.288 C491.608006,10.288 492.705995,10.4979979 493.702,10.918 C494.698005,11.3380021 495.549996,11.943996 496.258,12.736 C496.966004,13.528004 497.517998,14.5059942 497.914,15.67 C498.310002,16.8340058 498.508,18.1719924 498.508,19.684 L498.508,20.872 L485.332,20.872 Z M494.188,17.632 C494.164,16.3599936 493.768004,15.3580037 493,14.626 C492.231996,13.8939963 491.164007,13.528 489.796,13.528 C488.499994,13.528 487.474004,13.8999963 486.718,14.644 C485.961996,15.3880037 485.500001,16.3839938 485.332,17.632 L494.188,17.632 Z M511.756,15.508 C510.915996,14.3319941 509.788007,13.744 508.372,13.744 C507.795997,13.744 507.232003,13.8879986 506.68,14.176 C506.127997,14.4640014 505.852,14.9319968 505.852,15.58 C505.852,16.1080026 506.079998,16.4919988 506.536,16.732 C506.992002,16.9720012 507.567997,17.1759992 508.264,17.344 C508.960003,17.5120008 509.709996,17.6859991 510.514,17.866 C511.318004,18.0460009 512.067997,18.3219981 512.764,18.694 C513.460003,19.0660019 514.035998,19.5759968 514.492,20.224 C514.948002,20.8720032 515.176,21.7599944 515.176,22.888 C515.176,23.9200052 514.954002,24.7899965 514.51,25.498 C514.065998,26.2060035 513.490004,26.7759978 512.782,27.208 C512.073996,27.6400022 511.276004,27.951999 510.388,28.144 C509.499996,28.336001 508.612004,28.432 507.724,28.432 C506.379993,28.432 505.144006,28.2400019 504.016,27.856 C502.887994,27.4719981 501.880004,26.776005 500.992,25.768 L503.872,23.068 C504.424003,23.6920031 505.017997,24.201998 505.654,24.598 C506.290003,24.994002 507.063995,25.192 507.976,25.192 C508.288002,25.192 508.611998,25.1560004 508.948,25.084 C509.284002,25.0119996 509.595999,24.8920008 509.884,24.724 C510.172001,24.5559992 510.405999,24.3460013 510.586,24.094 C510.766001,23.8419987 510.856,23.5480017 510.856,23.212 C510.856,22.611997 510.628002,22.1680014 510.172,21.88 C509.715998,21.5919986 509.140003,21.3580009 508.444,21.178 C507.747997,20.9979991 506.998004,20.8300008 506.194,20.674 C505.389996,20.5179992 504.640003,20.2660017 503.944,19.918 C503.247997,19.5699983 502.672002,19.0840031 502.216,18.46 C501.759998,17.8359969 501.532,16.9720055 501.532,15.868 C501.532,14.9079952 501.729998,14.0740035 502.126,13.366 C502.522002,12.6579965 503.043997,12.0760023 503.692,11.62 C504.340003,11.1639977 505.083996,10.8280011 505.924,10.612 C506.764004,10.3959989 507.615996,10.288 508.48,10.288 C509.632006,10.288 510.771994,10.485998 511.9,10.882 C513.028006,11.278002 513.939997,11.9559952 514.636,12.916 L511.756,15.508 Z" id="portfolio:-marketing" fill="#FFFFFF"></path>
                <path d="M0.448,10.72 L4.552,10.72 L4.552,13.312 L4.624,13.312 C5.24800312,12.2559947 6.08799472,11.4880024 7.144,11.008 C8.20000528,10.5279976 9.33999388,10.288 10.564,10.288 C11.8840066,10.288 13.0719947,10.5219977 14.128,10.99 C15.1840053,11.4580023 16.0839963,12.0999959 16.828,12.916 C17.5720037,13.7320041 18.1359981,14.6919945 18.52,15.796 C18.9040019,16.9000055 19.096,18.0879936 19.096,19.36 C19.096,20.6320064 18.892002,21.8199945 18.484,22.924 C18.075998,24.0280055 17.5060037,24.9879959 16.774,25.804 C16.0419963,26.6200041 15.1600052,27.2619977 14.128,27.73 C13.0959948,28.1980023 11.9680061,28.432 10.744,28.432 C9.92799592,28.432 9.20800312,28.3480008 8.584,28.18 C7.95999688,28.0119992 7.4080024,27.7960013 6.928,27.532 C6.4479976,27.2679987 6.04000168,26.9860015 5.704,26.686 C5.36799832,26.3859985 5.09200108,26.0920014 4.876,25.804 L4.768,25.804 L4.768,36.208 L0.448,36.208 L0.448,10.72 Z M14.776,19.36 C14.776,18.6879966 14.6620011,18.0400031 14.434,17.416 C14.2059989,16.7919969 13.8700022,16.2400024 13.426,15.76 C12.9819978,15.2799976 12.4480031,14.8960014 11.824,14.608 C11.1999969,14.3199986 10.492004,14.176 9.7,14.176 C8.90799604,14.176 8.20000312,14.3199986 7.576,14.608 C6.95199688,14.8960014 6.41800222,15.2799976 5.974,15.76 C5.52999778,16.2400024 5.19400114,16.7919969 4.966,17.416 C4.73799886,18.0400031 4.624,18.6879966 4.624,19.36 C4.624,20.0320034 4.73799886,20.6799969 4.966,21.304 C5.19400114,21.9280031 5.52999778,22.4799976 5.974,22.96 C6.41800222,23.4400024 6.95199688,23.8239986 7.576,24.112 C8.20000312,24.4000014 8.90799604,24.544 9.7,24.544 C10.492004,24.544 11.1999969,24.4000014 11.824,24.112 C12.4480031,23.8239986 12.9819978,23.4400024 13.426,22.96 C13.8700022,22.4799976 14.2059989,21.9280031 14.434,21.304 C14.6620011,20.6799969 14.776,20.0320034 14.776,19.36 Z M22.264,19.36 C22.264,17.9919932 22.5099975,16.7500056 23.002,15.634 C23.4940025,14.5179944 24.1599958,13.564004 25,12.772 C25.8400042,11.979996 26.8359942,11.3680022 27.988,10.936 C29.1400058,10.5039978 30.3639935,10.288 31.66,10.288 C32.9560065,10.288 34.1799942,10.5039978 35.332,10.936 C36.4840058,11.3680022 37.4799958,11.979996 38.32,12.772 C39.1600042,13.564004 39.8259975,14.5179944 40.318,15.634 C40.8100025,16.7500056 41.056,17.9919932 41.056,19.36 C41.056,20.7280068 40.8100025,21.9699944 40.318,23.086 C39.8259975,24.2020056 39.1600042,25.155996 38.32,25.948 C37.4799958,26.740004 36.4840058,27.3519978 35.332,27.784 C34.1799942,28.2160022 32.9560065,28.432 31.66,28.432 C30.3639935,28.432 29.1400058,28.2160022 27.988,27.784 C26.8359942,27.3519978 25.8400042,26.740004 25,25.948 C24.1599958,25.155996 23.4940025,24.2020056 23.002,23.086 C22.5099975,21.9699944 22.264,20.7280068 22.264,19.36 Z M26.584,19.36 C26.584,20.0320034 26.6979989,20.6799969 26.926,21.304 C27.1540011,21.9280031 27.4899978,22.4799976 27.934,22.96 C28.3780022,23.4400024 28.9119969,23.8239986 29.536,24.112 C30.1600031,24.4000014 30.867996,24.544 31.66,24.544 C32.452004,24.544 33.1599969,24.4000014 33.784,24.112 C34.4080031,23.8239986 34.9419978,23.4400024 35.386,22.96 C35.8300022,22.4799976 36.1659989,21.9280031 36.394,21.304 C36.6220011,20.6799969 36.736,20.0320034 36.736,19.36 C36.736,18.6879966 36.6220011,18.0400031 36.394,17.416 C36.1659989,16.7919969 35.8300022,16.2400024 35.386,15.76 C34.9419978,15.2799976 34.4080031,14.8960014 33.784,14.608 C33.1599969,14.3199986 32.452004,14.176 31.66,14.176 C30.867996,14.176 30.1600031,14.3199986 29.536,14.608 C28.9119969,14.8960014 28.3780022,15.2799976 27.934,15.76 C27.4899978,16.2400024 27.1540011,16.7919969 26.926,17.416 C26.6979989,18.0400031 26.584,18.6879966 26.584,19.36 Z M45.088,10.72 L49.408,10.72 L49.408,13.456 L49.48,13.456 C49.9600024,12.447995 50.6439956,11.6680028 51.532,11.116 C52.4200044,10.5639972 53.4399942,10.288 54.592,10.288 C54.8560013,10.288 55.1139987,10.3119998 55.366,10.36 C55.6180013,10.4080002 55.8759987,10.4679996 56.14,10.54 L56.14,14.716 C55.7799982,14.6199995 55.4260017,14.5420003 55.078,14.482 C54.7299983,14.4219997 54.3880017,14.392 54.052,14.392 C53.043995,14.392 52.2340031,14.5779981 51.622,14.95 C51.0099969,15.3220019 50.5420016,15.7479976 50.218,16.228 C49.8939984,16.7080024 49.6780005,17.1879976 49.57,17.668 C49.4619995,18.1480024 49.408,18.5079988 49.408,18.748 L49.408,28 L45.088,28 L45.088,10.72 Z M57.076,14.392 L57.076,10.72 L60.64,10.72 L60.64,5.716 L64.96,5.716 L64.96,10.72 L69.712,10.72 L69.712,14.392 L64.96,14.392 L64.96,21.952 C64.96,22.8160043 65.1219984,23.4999975 65.446,24.004 C65.7700016,24.5080025 66.4119952,24.76 67.372,24.76 C67.7560019,24.76 68.1759977,24.7180004 68.632,24.634 C69.0880023,24.5499996 69.4479987,24.412001 69.712,24.22 L69.712,27.856 C69.2559977,28.0720011 68.6980033,28.2219996 68.038,28.306 C67.3779967,28.3900004 66.7960025,28.432 66.292,28.432 C65.1399942,28.432 64.1980037,28.3060013 63.466,28.054 C62.7339963,27.8019987 62.1580021,27.4180026 61.738,26.902 C61.3179979,26.3859974 61.0300008,25.7440038 60.874,24.976 C60.7179992,24.2079962 60.64,23.320005 60.64,22.312 L60.64,14.392 L57.076,14.392 Z M74.68,14.392 L71.116,14.392 L71.116,10.72 L74.68,10.72 L74.68,8.272 C74.68,7.071994 74.7639992,5.98600486 74.932,5.014 C75.1000008,4.04199514 75.4179977,3.20800348 75.886,2.512 C76.3540023,1.81599652 77.0079958,1.28200186 77.848,0.91 C78.6880042,0.53799814 79.7799933,0.352 81.124,0.352 C82.1080049,0.352 83.0199958,0.43599916 83.86,0.604 L83.572,4.276 C83.2599984,4.20399964 82.9600014,4.14400024 82.672,4.096 C82.3839986,4.04799976 82.0840016,4.024 81.772,4.024 C81.171997,4.024 80.6920018,4.11999904 80.332,4.312 C79.9719982,4.50400096 79.690001,4.76199838 79.486,5.086 C79.281999,5.41000162 79.1500003,5.78799784 79.09,6.22 C79.0299997,6.65200216 79,7.1079976 79,7.588 L79,10.72 L82.996,10.72 L82.996,14.392 L79,14.392 L79,28 L74.68,28 L74.68,14.392 Z M84.94,19.36 C84.94,17.9919932 85.1859975,16.7500056 85.678,15.634 C86.1700025,14.5179944 86.8359958,13.564004 87.676,12.772 C88.5160042,11.979996 89.5119942,11.3680022 90.664,10.936 C91.8160058,10.5039978 93.0399935,10.288 94.336,10.288 C95.6320065,10.288 96.8559942,10.5039978 98.008,10.936 C99.1600058,11.3680022 100.155996,11.979996 100.996,12.772 C101.836004,13.564004 102.501998,14.5179944 102.994,15.634 C103.486002,16.7500056 103.732,17.9919932 103.732,19.36 C103.732,20.7280068 103.486002,21.9699944 102.994,23.086 C102.501998,24.2020056 101.836004,25.155996 100.996,25.948 C100.155996,26.740004 99.1600058,27.3519978 98.008,27.784 C96.8559942,28.2160022 95.6320065,28.432 94.336,28.432 C93.0399935,28.432 91.8160058,28.2160022 90.664,27.784 C89.5119942,27.3519978 88.5160042,26.740004 87.676,25.948 C86.8359958,25.155996 86.1700025,24.2020056 85.678,23.086 C85.1859975,21.9699944 84.94,20.7280068 84.94,19.36 Z M89.26,19.36 C89.26,20.0320034 89.3739989,20.6799969 89.602,21.304 C89.8300011,21.9280031 90.1659978,22.4799976 90.61,22.96 C91.0540022,23.4400024 91.5879969,23.8239986 92.212,24.112 C92.8360031,24.4000014 93.543996,24.544 94.336,24.544 C95.128004,24.544 95.8359969,24.4000014 96.46,24.112 C97.0840031,23.8239986 97.6179978,23.4400024 98.062,22.96 C98.5060022,22.4799976 98.8419989,21.9280031 99.07,21.304 C99.2980011,20.6799969 99.412,20.0320034 99.412,19.36 C99.412,18.6879966 99.2980011,18.0400031 99.07,17.416 C98.8419989,16.7919969 98.5060022,16.2400024 98.062,15.76 C97.6179978,15.2799976 97.0840031,14.8960014 96.46,14.608 C95.8359969,14.3199986 95.128004,14.176 94.336,14.176 C93.543996,14.176 92.8360031,14.3199986 92.212,14.608 C91.5879969,14.8960014 91.0540022,15.2799976 90.61,15.76 C90.1659978,16.2400024 89.8300011,16.7919969 89.602,17.416 C89.3739989,18.0400031 89.26,18.6879966 89.26,19.36 Z M107.836,0.784 L112.156,0.784 L112.156,28 L107.836,28 L107.836,0.784 Z M117.232,10.72 L121.552,10.72 L121.552,28 L117.232,28 L117.232,10.72 Z M116.62,4.852 C116.62,4.15599652 116.877997,3.55000258 117.394,3.034 C117.910003,2.51799742 118.563996,2.26 119.356,2.26 C120.148004,2.26 120.813997,2.50599754 121.354,2.998 C121.894003,3.49000246 122.164,4.10799628 122.164,4.852 C122.164,5.59600372 121.894003,6.21399754 121.354,6.706 C120.813997,7.19800246 120.148004,7.444 119.356,7.444 C118.563996,7.444 117.910003,7.18600258 117.394,6.67 C116.877997,6.15399742 116.62,5.54800348 116.62,4.852 Z M125.656,19.36 C125.656,17.9919932 125.901998,16.7500056 126.394,15.634 C126.886002,14.5179944 127.551996,13.564004 128.392,12.772 C129.232004,11.979996 130.227994,11.3680022 131.38,10.936 C132.532006,10.5039978 133.755994,10.288 135.052,10.288 C136.348006,10.288 137.571994,10.5039978 138.724,10.936 C139.876006,11.3680022 140.871996,11.979996 141.712,12.772 C142.552004,13.564004 143.217998,14.5179944 143.71,15.634 C144.202002,16.7500056 144.448,17.9919932 144.448,19.36 C144.448,20.7280068 144.202002,21.9699944 143.71,23.086 C143.217998,24.2020056 142.552004,25.155996 141.712,25.948 C140.871996,26.740004 139.876006,27.3519978 138.724,27.784 C137.571994,28.2160022 136.348006,28.432 135.052,28.432 C133.755994,28.432 132.532006,28.2160022 131.38,27.784 C130.227994,27.3519978 129.232004,26.740004 128.392,25.948 C127.551996,25.155996 126.886002,24.2020056 126.394,23.086 C125.901998,21.9699944 125.656,20.7280068 125.656,19.36 Z M129.976,19.36 C129.976,20.0320034 130.089999,20.6799969 130.318,21.304 C130.546001,21.9280031 130.881998,22.4799976 131.326,22.96 C131.770002,23.4400024 132.303997,23.8239986 132.928,24.112 C133.552003,24.4000014 134.259996,24.544 135.052,24.544 C135.844004,24.544 136.551997,24.4000014 137.176,24.112 C137.800003,23.8239986 138.333998,23.4400024 138.778,22.96 C139.222002,22.4799976 139.557999,21.9280031 139.786,21.304 C140.014001,20.6799969 140.128,20.0320034 140.128,19.36 C140.128,18.6879966 140.014001,18.0400031 139.786,17.416 C139.557999,16.7919969 139.222002,16.2400024 138.778,15.76 C138.333998,15.2799976 137.800003,14.8960014 137.176,14.608 C136.551997,14.3199986 135.844004,14.176 135.052,14.176 C134.259996,14.176 133.552003,14.3199986 132.928,14.608 C132.303997,14.8960014 131.770002,15.2799976 131.326,15.76 C130.881998,16.2400024 130.546001,16.7919969 130.318,17.416 C130.089999,18.0400031 129.976,18.6879966 129.976,19.36 Z M148.48,25.48 C148.48,24.7119962 148.761997,24.0520028 149.326,23.5 C149.890003,22.9479972 150.567996,22.672 151.36,22.672 C152.128004,22.672 152.799997,22.9359974 153.376,23.464 C153.952003,23.9920026 154.24,24.6399962 154.24,25.408 C154.24,26.1760038 153.958003,26.8359972 153.394,27.388 C152.829997,27.9400028 152.152004,28.216 151.36,28.216 C150.975998,28.216 150.610002,28.1440007 150.262,28 C149.913998,27.8559993 149.608001,27.6640012 149.344,27.424 C149.079999,27.1839988 148.870001,26.8960017 148.714,26.56 C148.557999,26.2239983 148.48,25.8640019 148.48,25.48 Z M148.48,13.276 C148.48,12.5079962 148.761997,11.8480028 149.326,11.296 C149.890003,10.7439972 150.567996,10.468 151.36,10.468 C152.128004,10.468 152.799997,10.7319974 153.376,11.26 C153.952003,11.7880026 154.24,12.4359962 154.24,13.204 C154.24,13.9720038 153.958003,14.6319972 153.394,15.184 C152.829997,15.7360028 152.152004,16.012 151.36,16.012 C150.975998,16.012 150.610002,15.9400007 150.262,15.796 C149.913998,15.6519993 149.608001,15.4600012 149.344,15.22 C149.079999,14.9799988 148.870001,14.6920017 148.714,14.356 C148.557999,14.0199983 148.48,13.6600019 148.48,13.276 Z" id="portfolio:-marketing" fill="#B8E986"></path>
            </g>
        </g>
    </g>
</svg>
